<?xml version="1.0" encoding="UTF-8" standalone="no"?>
<!-- Created with Inkscape (http://www.inkscape.org/) -->

<svg
   xmlns:dc="http://purl.org/dc/elements/1.1/"
   xmlns:cc="http://creativecommons.org/ns#"
   xmlns:rdf="http://www.w3.org/1999/02/22-rdf-syntax-ns#"
   xmlns:svg="http://www.w3.org/2000/svg"
   xmlns="http://www.w3.org/2000/svg"
   version="1.1"
   width="334.53741"
   height="55.656609"
   id="svg4206">
  <defs
     id="defs4208">
    <clipPath
       id="clipPath260">
      <path
         d="m 83,721.143 262.359,0 0,38.857 L 83,760 83,721.143 z"
         id="path262" />
    </clipPath>
  </defs>
  <metadata
     id="metadata4211">
    <rdf:RDF>
      <cc:Work
         rdf:about="">
        <dc:format>image/svg+xml</dc:format>
        <dc:type
           rdf:resource="http://purl.org/dc/dcmitype/StillImage" />
        <dc:title></dc:title>
      </cc:Work>
    </rdf:RDF>
  </metadata>
  <g
     transform="translate(-261.28851,-402.02732)"
     id="layer1">
    <g
       transform="matrix(1.25,0,0,-1.25,160.58399,1355.5695)"
       clip-path="url(#clipPath260)"
       id="g258">
      <g
         transform="translate(117.7718,740.327)"
         id="g264">
        <path
           d="m 0,0 c -1.868,1.64 -2.365,3.775 -2.365,5.625 0,1.297 0.401,3.547 2.232,5.225 1.372,1.259 3.184,2.022 6.025,2.022 1.183,0 1.888,-0.077 2.765,-0.191 0.725,-0.095 1.335,-0.267 1.907,-0.324 0.21,-0.019 0.286,-0.115 0.286,-0.229 0,-0.153 -0.057,-0.382 -0.095,-1.049 C 10.717,10.45 10.736,9.401 10.698,9.019 10.679,8.733 10.64,8.581 10.469,8.581 c -0.152,0 -0.191,0.152 -0.191,0.42 -0.019,0.591 -0.267,1.258 -0.743,1.754 -0.63,0.667 -2.117,1.182 -3.871,1.182 -1.659,0 -2.746,-0.419 -3.585,-1.182 C 0.687,9.477 0.324,7.666 0.324,5.816 c 0,-4.538 3.452,-6.788 6.007,-6.788 1.697,0 2.727,0.19 3.49,1.068 0.324,0.361 0.572,0.914 0.648,1.258 0.057,0.305 0.095,0.381 0.248,0.381 0.133,0 0.172,-0.134 0.172,-0.286 0,-0.228 -0.229,-1.887 -0.42,-2.536 C 10.374,-1.411 10.297,-1.506 9.973,-1.64 9.21,-1.945 7.761,-2.079 6.541,-2.079 3.929,-2.079 1.735,-1.506 0,0"
           id="path266"
           style="fill:#1e59ae;fill-opacity:1;fill-rule:nonzero;stroke:none" />
      </g>
      <g
         transform="translate(141.8651,744.2523)"
         id="g268">
        <path
           d="M 0,0 C 0,3.574 -2.058,5.792 -4.675,5.792 -6.51,5.792 -8.6,4.771 -8.6,0.798 -8.6,-2.52 -6.765,-5.153 -3.702,-5.153 -2.585,-5.153 0,-4.611 0,0 m -10.802,0.304 c 0,2.728 1.803,6.254 6.59,6.254 3.973,0 6.445,-2.314 6.445,-5.967 0,-3.654 -2.552,-6.542 -6.605,-6.542 -4.579,0 -6.43,3.431 -6.43,6.255"
           id="path270"
           style="fill:#1e59ae;fill-opacity:1;fill-rule:nonzero;stroke:none" />
      </g>
      <g
         transform="translate(149.8133,743.1518)"
         id="g272">
        <path
           d="m 0,0 c 0,-2.043 0,-3.143 0.335,-3.431 0.271,-0.239 0.686,-0.35 1.931,-0.35 0.846,0 1.468,0.015 1.867,0.446 0.191,0.208 0.382,0.654 0.414,0.958 0.016,0.143 0.048,0.239 0.176,0.239 0.111,0 0.127,-0.079 0.127,-0.271 0,-0.175 -0.111,-1.372 -0.239,-1.836 -0.096,-0.35 -0.175,-0.43 -1.005,-0.43 -2.298,0 -3.35,0.096 -4.643,0.096 -0.367,0 -1.372,-0.049 -2.01,-0.049 -0.208,0 -0.32,0.049 -0.32,0.16 0,0.08 0.064,0.128 0.256,0.128 0.239,0 0.431,0.032 0.574,0.064 0.319,0.064 0.399,0.414 0.464,0.877 0.079,0.67 0.079,1.931 0.079,3.399 l 0,2.808 c 0,2.425 0,2.872 -0.032,3.382 -0.032,0.543 -0.16,0.798 -0.686,0.91 -0.128,0.032 -0.319,0.048 -0.527,0.048 -0.175,0 -0.271,0.031 -0.271,0.143 0,0.112 0.112,0.144 0.351,0.144 0.75,0 1.755,-0.048 2.186,-0.048 0.383,0 1.548,0.048 2.17,0.048 0.223,0 0.335,-0.032 0.335,-0.144 C 1.532,7.179 1.436,7.148 1.245,7.148 1.069,7.148 0.814,7.132 0.623,7.1 0.192,7.02 0.064,6.749 0.032,6.19 0,5.68 0,5.233 0,2.808 L 0,0 z"
           id="path274"
           style="fill:#1e59ae;fill-opacity:1;fill-rule:nonzero;stroke:none" />
      </g>
      <g
         transform="translate(157.739,745.9597)"
         id="g276">
        <path
           d="M 0,0 C 0,2.425 0,2.872 -0.032,3.383 -0.064,3.925 -0.191,4.18 -0.718,4.292 -0.846,4.324 -1.117,4.34 -1.341,4.34 c -0.175,0 -0.27,0.032 -0.27,0.143 0,0.112 0.111,0.144 0.35,0.144 0.846,0 1.851,-0.048 2.33,-0.048 0.383,0 1.388,0.048 1.962,0.048 0.24,0 0.352,-0.032 0.352,-0.144 C 3.383,4.372 3.287,4.34 3.127,4.34 2.951,4.34 2.856,4.324 2.665,4.292 2.234,4.212 2.106,3.941 2.074,3.383 2.042,2.872 2.042,2.425 2.042,0 l 0,-2.233 c 0,-2.314 0.463,-3.288 1.245,-3.925 0.718,-0.591 1.452,-0.654 1.994,-0.654 0.702,0 1.564,0.223 2.201,0.861 0.878,0.877 0.927,2.314 0.927,3.957 l 0,1.994 c 0,2.425 0,2.872 -0.033,3.383 C 8.345,3.925 8.217,4.18 7.69,4.292 7.562,4.324 7.292,4.34 7.116,4.34 6.94,4.34 6.845,4.372 6.845,4.483 c 0,0.112 0.111,0.144 0.334,0.144 0.814,0 1.82,-0.048 1.836,-0.048 0.191,0 1.196,0.048 1.819,0.048 0.223,0 0.335,-0.032 0.335,-0.144 C 11.169,4.372 11.073,4.34 10.881,4.34 10.706,4.34 10.61,4.324 10.418,4.292 9.988,4.212 9.86,3.941 9.828,3.383 9.796,2.872 9.796,2.425 9.796,0 l 0,-1.708 C 9.796,-3.478 9.621,-5.361 8.281,-6.51 7.148,-7.483 5.999,-7.659 4.962,-7.659 4.116,-7.659 2.584,-7.611 1.42,-6.557 0.606,-5.824 0,-4.643 0,-2.329 L 0,0 z"
           id="path278"
           style="fill:#1e59ae;fill-opacity:1;fill-rule:nonzero;stroke:none" />
      </g>
      <g
         transform="translate(172.7381,750.5229)"
         id="g280">
        <path
           d="m 0,0 c 0.048,0.271 0.144,0.415 0.271,0.415 0.128,0 0.224,-0.08 0.431,-0.495 l 4.356,-8.999 4.34,9.111 c 0.111,0.255 0.207,0.383 0.35,0.383 0.144,0 0.239,-0.16 0.288,-0.495 l 1.452,-9.86 c 0.143,-1.005 0.303,-1.468 0.781,-1.612 0.463,-0.143 0.782,-0.159 0.99,-0.159 0.143,0 0.255,-0.016 0.255,-0.112 0,-0.127 -0.191,-0.176 -0.415,-0.176 -0.399,0 -2.601,0.049 -3.239,0.097 -0.367,0.031 -0.462,0.079 -0.462,0.175 0,0.08 0.063,0.128 0.175,0.175 0.095,0.032 0.144,0.24 0.08,0.687 l -0.958,7.02 -0.063,0 -3.478,-7.244 c -0.367,-0.75 -0.447,-0.894 -0.591,-0.894 -0.143,0 -0.303,0.32 -0.558,0.798 -0.383,0.734 -1.643,3.176 -1.835,3.623 -0.144,0.334 -1.101,2.344 -1.659,3.541 l -0.064,0 -0.83,-6.35 c -0.032,-0.286 -0.048,-0.494 -0.048,-0.75 0,-0.303 0.208,-0.447 0.479,-0.511 0.287,-0.063 0.51,-0.079 0.67,-0.079 0.128,0 0.239,-0.032 0.239,-0.112 0,-0.143 -0.143,-0.176 -0.382,-0.176 -0.671,0 -1.389,0.049 -1.676,0.049 -0.303,0 -1.069,-0.049 -1.58,-0.049 -0.159,0 -0.287,0.033 -0.287,0.176 0,0.08 0.096,0.112 0.256,0.112 0.128,0 0.239,0 0.478,0.048 0.447,0.095 0.575,0.718 0.654,1.26 L 0,0 z"
           id="path282"
           style="fill:#1e59ae;fill-opacity:1;fill-rule:nonzero;stroke:none" />
      </g>
      <g
         transform="translate(193.4128,744.4119)"
         id="g284">
        <path
           d="m 0,0 c -0.335,0.24 -0.702,0.352 -1.324,0.383 -0.287,0.016 -0.447,0.016 -0.686,0.016 -0.064,0 -0.096,-0.032 -0.096,-0.112 l 0,-3.781 c 0,-1.053 0.048,-1.324 0.558,-1.532 0.431,-0.175 0.798,-0.19 1.165,-0.19 0.718,0 1.931,0.382 1.931,2.041 C 1.548,-2.186 1.212,-0.846 0,0 m -2.106,1.276 c 0,-0.127 0.048,-0.159 0.112,-0.175 0.143,-0.031 0.383,-0.048 0.75,-0.048 0.526,0 0.877,0.064 1.149,0.303 0.414,0.336 0.654,0.91 0.654,1.691 0,1.069 -0.623,2.473 -1.995,2.473 -0.223,0 -0.367,0 -0.526,-0.031 C -2.074,5.457 -2.106,5.393 -2.106,5.217 l 0,-3.941 z m -1.915,0.272 c 0,2.425 0,2.872 -0.032,3.382 -0.031,0.543 -0.159,0.798 -0.686,0.91 -0.127,0.032 -0.398,0.048 -0.622,0.048 -0.175,0 -0.271,0.032 -0.271,0.143 0,0.112 0.112,0.144 0.351,0.144 0.846,0 1.851,-0.048 2.17,-0.048 0.782,0 1.404,0.048 1.947,0.048 2.887,0 3.398,-1.548 3.398,-2.394 0,-1.308 -0.75,-2.089 -1.628,-2.792 1.308,-0.447 2.904,-1.579 2.904,-3.445 0,-1.708 -1.324,-3.48 -4.26,-3.48 -0.383,0 -1.835,0.097 -2.313,0.097 -0.367,0 -1.372,-0.049 -2.011,-0.049 -0.207,0 -0.319,0.049 -0.319,0.16 0,0.08 0.064,0.128 0.256,0.128 0.239,0 0.43,0.032 0.574,0.064 0.319,0.064 0.399,0.414 0.462,0.877 0.08,0.67 0.08,1.931 0.08,3.399 l 0,2.808 z"
           id="path286"
           style="fill:#1e59ae;fill-opacity:1;fill-rule:nonzero;stroke:none" />
      </g>
      <g
         transform="translate(200.8334,745.9597)"
         id="g288">
        <path
           d="M 0,0 C 0,2.425 0,2.872 -0.032,3.383 -0.064,3.925 -0.223,4.196 -0.574,4.276 -0.75,4.324 -0.957,4.34 -1.148,4.34 c -0.16,0 -0.256,0.032 -0.256,0.16 0,0.095 0.128,0.127 0.383,0.127 0.606,0 1.611,-0.048 2.074,-0.048 C 1.452,4.579 2.394,4.627 3,4.627 3.207,4.627 3.335,4.595 3.335,4.5 3.335,4.372 3.239,4.34 3.08,4.34 2.92,4.34 2.792,4.324 2.601,4.292 2.17,4.212 2.043,3.941 2.011,3.383 1.978,2.872 1.978,2.425 1.978,0 l 0,-2.808 c 0,-1.547 0,-2.809 0.065,-3.494 0.047,-0.431 0.16,-0.718 0.638,-0.782 0.223,-0.032 0.574,-0.064 0.814,-0.064 0.175,0 0.255,-0.047 0.255,-0.128 0,-0.111 -0.128,-0.159 -0.303,-0.159 -1.053,0 -2.059,0.048 -2.489,0.048 -0.368,0 -1.373,-0.048 -2.011,-0.048 -0.207,0 -0.319,0.048 -0.319,0.159 0,0.081 0.064,0.128 0.255,0.128 0.24,0 0.431,0.032 0.575,0.064 0.319,0.064 0.415,0.335 0.462,0.798 C 0,-5.617 0,-4.355 0,-2.808 L 0,0 z"
           id="path290"
           style="fill:#1e59ae;fill-opacity:1;fill-rule:nonzero;stroke:none" />
      </g>
      <g
         transform="translate(213.798,743.4864)"
         id="g292">
        <path
           d="m 0,0 c 0.08,0 0.096,0.048 0.08,0.096 l -1.436,3.941 c -0.016,0.064 -0.032,0.144 -0.08,0.144 -0.048,0 -0.08,-0.08 -0.095,-0.144 L -2.999,0.112 C -3.016,0.048 -2.999,0 -2.936,0 L 0,0 z m -3.255,-0.797 c -0.08,0 -0.112,-0.032 -0.143,-0.128 L -4.26,-3.207 C -4.42,-3.605 -4.5,-3.988 -4.5,-4.18 c 0,-0.287 0.144,-0.495 0.639,-0.495 l 0.239,0 c 0.191,0 0.239,-0.031 0.239,-0.127 0,-0.128 -0.095,-0.16 -0.271,-0.16 -0.511,0 -1.196,0.048 -1.691,0.048 -0.175,0 -1.053,-0.048 -1.883,-0.048 -0.207,0 -0.303,0.032 -0.303,0.16 0,0.096 0.063,0.127 0.192,0.127 0.144,0 0.366,0.016 0.494,0.032 0.734,0.096 1.037,0.638 1.357,1.436 l 4.004,10.02 c 0.192,0.463 0.287,0.638 0.447,0.638 0.143,0 0.239,-0.143 0.399,-0.51 0.383,-0.878 2.935,-7.387 3.957,-9.813 0.606,-1.436 1.069,-1.659 1.404,-1.739 0.239,-0.048 0.478,-0.064 0.669,-0.064 0.128,0 0.208,-0.015 0.208,-0.127 0,-0.128 -0.144,-0.16 -0.734,-0.16 -0.574,0 -1.739,0 -3.016,0.032 -0.287,0.016 -0.478,0.016 -0.478,0.128 0,0.096 0.064,0.127 0.223,0.143 0.113,0.032 0.224,0.176 0.144,0.368 l -1.277,3.382 c -0.031,0.08 -0.079,0.112 -0.159,0.112 l -3.558,0 z"
           id="path294"
           style="fill:#1e59ae;fill-opacity:1;fill-rule:nonzero;stroke:none" />
      </g>
      <g
         transform="translate(227.6372,747.401)"
         id="g296">
        <path
           d="m 0,0 c 0,2.899 0,3.433 -0.038,4.043 -0.039,0.649 -0.19,0.953 -0.82,1.087 -0.153,0.038 -0.477,0.057 -0.744,0.057 -0.21,0 -0.324,0.038 -0.324,0.172 0,0.133 0.134,0.172 0.419,0.172 1.01,0 2.213,-0.058 2.785,-0.058 0.457,0 1.658,0.058 2.345,0.058 0.286,0 0.42,-0.039 0.42,-0.172 C 4.043,5.225 3.927,5.187 3.737,5.187 3.528,5.187 3.414,5.168 3.184,5.13 2.669,5.035 2.517,4.71 2.479,4.043 2.44,3.433 2.44,2.899 2.44,0 l 0,-2.669 c 0,-2.765 0.553,-3.928 1.487,-4.691 0.859,-0.706 1.737,-0.782 2.385,-0.782 0.839,0 1.868,0.267 2.631,1.029 1.049,1.049 1.106,2.766 1.106,4.73 l 0,2.383 c 0,2.899 0,3.433 -0.038,4.043 C 9.973,4.692 9.821,4.996 9.191,5.13 9.038,5.168 8.714,5.187 8.504,5.187 8.295,5.187 8.18,5.225 8.18,5.359 c 0,0.133 0.134,0.172 0.4,0.172 0.973,0 2.175,-0.058 2.194,-0.058 0.228,0 1.429,0.058 2.173,0.058 0.268,0 0.401,-0.039 0.401,-0.172 0,-0.134 -0.114,-0.172 -0.344,-0.172 C 12.795,5.187 12.68,5.168 12.452,5.13 11.937,5.035 11.784,4.71 11.746,4.043 11.708,3.433 11.708,2.899 11.708,0 l 0,-2.04 c 0,-2.117 -0.21,-4.367 -1.812,-5.74 C 8.543,-8.943 7.169,-9.153 5.93,-9.153 4.919,-9.153 3.089,-9.095 1.697,-7.836 0.724,-6.959 0,-5.549 0,-2.783 L 0,0 z"
           id="path298"
           style="fill:#1e59ae;fill-opacity:1;fill-rule:nonzero;stroke:none" />
      </g>
      <g
         transform="translate(244.8765,740.6944)"
         id="g300">
        <path
           d="m 0,0 c 0.033,-1.244 0.239,-1.659 0.558,-1.77 0.272,-0.097 0.575,-0.113 0.831,-0.113 0.175,0 0.27,-0.031 0.27,-0.128 0,-0.127 -0.142,-0.159 -0.367,-0.159 -1.036,0 -1.675,0.048 -1.978,0.048 -0.143,0 -0.893,-0.048 -1.723,-0.048 -0.207,0 -0.35,0.016 -0.35,0.159 0,0.097 0.095,0.128 0.254,0.128 0.207,0 0.495,0.016 0.719,0.08 0.414,0.128 0.478,0.59 0.494,1.979 l 0.144,9.445 c 0,0.319 0.048,0.543 0.207,0.543 0.176,0 0.319,-0.208 0.591,-0.496 C -0.159,9.462 2.266,6.861 4.596,4.548 5.68,3.462 7.834,1.165 8.105,0.91 l 0.08,0 -0.159,7.164 C 8.01,9.046 7.867,9.35 7.484,9.509 7.245,9.605 6.861,9.605 6.638,9.605 c -0.192,0 -0.255,0.048 -0.255,0.144 0,0.127 0.175,0.143 0.414,0.143 0.83,0 1.596,-0.048 1.931,-0.048 0.176,0 0.782,0.048 1.564,0.048 0.206,0 0.367,-0.016 0.367,-0.143 0,-0.096 -0.096,-0.144 -0.288,-0.144 -0.159,0 -0.287,0 -0.479,-0.048 C 9.446,9.429 9.318,9.095 9.303,8.201 L 9.127,-1.867 c 0,-0.351 -0.064,-0.495 -0.208,-0.495 -0.175,0 -0.368,0.176 -0.543,0.351 C 7.372,-1.053 5.33,1.037 3.67,2.681 1.931,4.404 0.16,6.398 -0.128,6.701 l -0.047,0 L 0,0 z"
           id="path302"
           style="fill:#1e59ae;fill-opacity:1;fill-rule:nonzero;stroke:none" />
      </g>
      <g
         transform="translate(259.6111,745.9597)"
         id="g304">
        <path
           d="M 0,0 C 0,2.425 0,2.872 -0.032,3.383 -0.064,3.925 -0.224,4.196 -0.575,4.276 -0.75,4.324 -0.959,4.34 -1.149,4.34 c -0.159,0 -0.256,0.032 -0.256,0.16 0,0.095 0.129,0.127 0.384,0.127 0.605,0 1.611,-0.048 2.075,-0.048 0.398,0 1.34,0.048 1.946,0.048 C 3.207,4.627 3.335,4.595 3.335,4.5 3.335,4.372 3.238,4.34 3.08,4.34 2.92,4.34 2.792,4.324 2.601,4.292 2.169,4.212 2.042,3.941 2.011,3.383 1.978,2.872 1.978,2.425 1.978,0 l 0,-2.808 c 0,-1.547 0,-2.809 0.064,-3.494 0.048,-0.431 0.16,-0.718 0.638,-0.782 0.224,-0.032 0.575,-0.064 0.814,-0.064 0.176,0 0.255,-0.047 0.255,-0.128 0,-0.111 -0.127,-0.159 -0.303,-0.159 -1.052,0 -2.058,0.048 -2.489,0.048 -0.367,0 -1.373,-0.048 -2.011,-0.048 -0.206,0 -0.318,0.048 -0.318,0.159 0,0.081 0.064,0.128 0.255,0.128 0.239,0 0.431,0.032 0.575,0.064 0.318,0.064 0.414,0.335 0.462,0.798 C 0,-5.617 0,-4.355 0,-2.808 L 0,0 z"
           id="path306"
           style="fill:#1e59ae;fill-opacity:1;fill-rule:nonzero;stroke:none" />
      </g>
      <g
         transform="translate(266.6231,749.0228)"
         id="g308">
        <path
           d="m 0,0 c -0.367,0.878 -0.638,1.053 -1.212,1.213 -0.24,0.064 -0.495,0.064 -0.623,0.064 -0.143,0 -0.191,0.048 -0.191,0.143 0,0.128 0.175,0.144 0.415,0.144 0.846,0 1.755,-0.048 2.314,-0.048 0.398,0 1.164,0.048 1.961,0.048 0.192,0 0.367,-0.032 0.367,-0.144 C 3.031,1.309 2.936,1.277 2.792,1.277 2.537,1.277 2.297,1.261 2.17,1.165 2.059,1.085 2.011,0.973 2.011,0.83 c 0,-0.208 0.144,-0.654 0.367,-1.229 l 2.745,-7.243 0.063,0 c 0.685,1.755 2.76,6.892 3.143,7.945 0.08,0.208 0.143,0.447 0.143,0.591 0,0.127 -0.063,0.255 -0.206,0.303 -0.193,0.064 -0.432,0.08 -0.638,0.08 -0.146,0 -0.272,0.016 -0.272,0.127 0,0.128 0.143,0.16 0.447,0.16 0.797,0 1.467,-0.048 1.674,-0.048 0.272,0 1.022,0.048 1.5,0.048 0.208,0 0.335,-0.032 0.335,-0.144 0,-0.111 -0.095,-0.143 -0.255,-0.143 -0.159,0 -0.494,0 -0.782,-0.192 C 10.068,0.942 9.829,0.67 9.397,-0.351 8.776,-1.851 8.345,-2.712 7.482,-4.674 c -1.02,-2.33 -1.77,-4.069 -2.121,-4.867 -0.414,-0.925 -0.51,-1.181 -0.734,-1.181 -0.207,0 -0.303,0.223 -0.606,0.974 L 0,0 z"
           id="path310"
           style="fill:#1e59ae;fill-opacity:1;fill-rule:nonzero;stroke:none" />
      </g>
      <g
         transform="translate(280.4637,745.9597)"
         id="g312">
        <path
           d="m 0,0 c 0,2.425 0,2.872 -0.031,3.383 -0.033,0.542 -0.16,0.797 -0.687,0.909 -0.127,0.032 -0.399,0.048 -0.623,0.048 -0.175,0 -0.271,0.032 -0.271,0.143 0,0.112 0.113,0.144 0.351,0.144 0.846,0 1.852,-0.048 2.298,-0.048 0.511,0 3.687,0 3.989,0.016 0.303,0.032 0.558,0.064 0.686,0.096 0.08,0.016 0.175,0.064 0.255,0.064 0.08,0 0.096,-0.064 0.096,-0.144 C 6.063,4.5 5.983,4.308 5.935,3.574 5.919,3.415 5.887,2.712 5.855,2.521 5.839,2.442 5.808,2.345 5.697,2.345 5.584,2.345 5.553,2.425 5.553,2.569 5.553,2.68 5.537,2.952 5.456,3.143 5.345,3.43 5.185,3.622 4.387,3.717 4.116,3.749 2.441,3.781 2.122,3.781 2.042,3.781 2.01,3.733 2.01,3.622 l 0,-4.037 c 0,-0.112 0.016,-0.175 0.112,-0.175 0.351,0 2.187,0 2.553,0.031 0.382,0.032 0.621,0.081 0.765,0.24 0.113,0.127 0.177,0.208 0.257,0.208 0.062,0 0.111,-0.033 0.111,-0.128 0,-0.096 -0.08,-0.351 -0.127,-1.164 -0.032,-0.32 -0.064,-0.959 -0.064,-1.07 0,-0.127 0,-0.303 -0.144,-0.303 -0.112,0 -0.144,0.064 -0.144,0.143 -0.017,0.16 -0.017,0.367 -0.064,0.575 -0.08,0.319 -0.303,0.558 -0.894,0.622 -0.302,0.033 -1.882,0.047 -2.265,0.047 -0.08,0 -0.096,-0.063 -0.096,-0.159 l 0,-1.26 c 0,-0.542 -0.015,-2.01 0,-2.473 0.032,-1.101 0.287,-1.341 1.914,-1.341 0.416,0 1.086,0 1.501,0.192 0.414,0.191 0.606,0.527 0.718,1.181 0.032,0.175 0.063,0.239 0.175,0.239 0.128,0 0.128,-0.127 0.128,-0.287 0,-0.367 -0.128,-1.452 -0.208,-1.771 -0.111,-0.415 -0.255,-0.415 -0.861,-0.415 -2.409,0 -3.478,0.096 -4.42,0.096 -0.366,0 -1.372,-0.048 -2.01,-0.048 -0.208,0 -0.319,0.048 -0.319,0.159 0,0.081 0.064,0.128 0.255,0.128 0.239,0 0.431,0.032 0.574,0.064 0.32,0.064 0.399,0.415 0.463,0.877 C 0,-5.537 0,-4.276 0,-2.808 L 0,0 z"
           id="path314"
           style="fill:#1e59ae;fill-opacity:1;fill-rule:nonzero;stroke:none" />
      </g>
      <g
         transform="translate(293.3072,744.6994)"
         id="g316">
        <path
           d="m 0,0 c 0,-0.176 0.033,-0.239 0.144,-0.288 0.335,-0.111 0.814,-0.159 1.213,-0.159 0.638,0 0.845,0.064 1.133,0.271 0.478,0.352 0.941,1.085 0.941,2.394 0,2.265 -1.5,2.92 -2.441,2.92 C 0.591,5.138 0.303,5.122 0.144,5.073 0.033,5.042 0,4.978 0,4.85 L 0,0 z m -1.882,1.26 c 0,2.426 0,2.873 -0.032,3.383 C -1.946,5.186 -2.073,5.44 -2.6,5.552 -2.728,5.584 -2.999,5.6 -3.222,5.6 c -0.176,0 -0.272,0.032 -0.272,0.143 0,0.113 0.112,0.144 0.352,0.144 0.845,0 1.85,-0.048 2.185,-0.048 0.543,0 1.755,0.048 2.249,0.048 1.007,0 2.075,-0.095 2.938,-0.686 C 4.676,4.898 5.314,4.084 5.314,3.015 5.314,1.834 4.819,0.75 3.208,-0.558 4.627,-2.346 5.728,-3.765 6.67,-4.755 7.564,-5.68 8.218,-5.792 8.457,-5.84 c 0.176,-0.032 0.319,-0.048 0.447,-0.048 0.127,0 0.191,-0.047 0.191,-0.128 0,-0.127 -0.112,-0.159 -0.303,-0.159 l -1.516,0 c -0.893,0 -1.292,0.08 -1.707,0.303 -0.686,0.368 -1.292,1.117 -2.186,2.346 -0.638,0.878 -1.372,1.963 -1.579,2.202 -0.081,0.095 -0.176,0.111 -0.287,0.111 L 0.129,-1.181 C 0.049,-1.181 0,-1.213 0,-1.309 l 0,-0.223 c 0,-1.484 0,-2.745 0.08,-3.415 0.049,-0.462 0.144,-0.812 0.623,-0.876 0.239,-0.033 0.589,-0.065 0.781,-0.065 0.127,0 0.192,-0.047 0.192,-0.128 0,-0.111 -0.112,-0.159 -0.319,-0.159 -0.925,0 -2.106,0.048 -2.346,0.048 -0.303,0 -1.308,-0.048 -1.946,-0.048 -0.207,0 -0.319,0.048 -0.319,0.159 0,0.081 0.064,0.128 0.255,0.128 0.239,0 0.431,0.032 0.574,0.065 0.32,0.064 0.399,0.414 0.463,0.876 0.08,0.67 0.08,1.931 0.08,3.399 l 0,2.808 z"
           id="path318"
           style="fill:#1e59ae;fill-opacity:1;fill-rule:nonzero;stroke:none" />
      </g>
      <g
         transform="translate(303.5663,738.7158)"
         id="g320">
        <path
           d="m 0,0 c -0.255,0.112 -0.303,0.192 -0.303,0.543 0,0.877 0.064,1.835 0.08,2.09 0.015,0.24 0.064,0.415 0.192,0.415 0.143,0 0.16,-0.144 0.16,-0.272 0,-0.207 0.063,-0.542 0.142,-0.813 0.352,-1.181 1.294,-1.612 2.282,-1.612 1.436,0 2.138,0.974 2.138,1.819 0,0.782 -0.239,1.532 -1.563,2.553 L 2.394,5.297 C 0.639,6.67 0.032,7.786 0.032,9.079 c 0,1.755 1.468,3.015 3.686,3.015 1.037,0 1.707,-0.159 2.122,-0.271 0.143,-0.032 0.223,-0.08 0.223,-0.191 0,-0.208 -0.064,-0.671 -0.064,-1.915 0,-0.351 -0.048,-0.479 -0.175,-0.479 -0.112,0 -0.159,0.096 -0.159,0.288 0,0.143 -0.08,0.638 -0.415,1.052 C 5.01,10.882 4.548,11.36 3.51,11.36 2.33,11.36 1.612,10.674 1.612,9.717 1.612,8.983 1.979,8.425 3.303,7.42 L 3.75,7.084 C 5.665,5.601 6.367,4.531 6.367,3.016 6.367,2.09 6.015,0.989 4.866,0.239 4.069,-0.271 3.176,-0.415 2.33,-0.415 1.404,-0.415 0.686,-0.303 0,0"
           id="path322"
           style="fill:#1e59ae;fill-opacity:1;fill-rule:nonzero;stroke:none" />
      </g>
      <g
         transform="translate(314.4398,745.9597)"
         id="g324">
        <path
           d="m 0,0 c 0,2.425 0,2.872 -0.033,3.383 -0.031,0.542 -0.19,0.813 -0.542,0.893 -0.175,0.048 -0.383,0.064 -0.574,0.064 -0.16,0 -0.255,0.032 -0.255,0.16 0,0.095 0.127,0.127 0.383,0.127 0.606,0 1.611,-0.048 2.073,-0.048 0.399,0 1.341,0.048 1.947,0.048 C 3.207,4.627 3.334,4.595 3.334,4.5 3.334,4.372 3.239,4.34 3.079,4.34 2.92,4.34 2.792,4.324 2.601,4.292 2.17,4.212 2.042,3.941 2.01,3.383 1.978,2.872 1.978,2.425 1.978,0 l 0,-2.808 c 0,-1.547 0,-2.809 0.064,-3.494 0.048,-0.431 0.159,-0.718 0.638,-0.782 0.224,-0.032 0.575,-0.064 0.814,-0.064 0.176,0 0.255,-0.047 0.255,-0.128 0,-0.111 -0.127,-0.159 -0.303,-0.159 -1.053,0 -2.058,0.048 -2.489,0.048 -0.367,0 -1.372,-0.048 -2.01,-0.048 -0.208,0 -0.319,0.048 -0.319,0.159 0,0.081 0.063,0.128 0.255,0.128 0.239,0 0.431,0.032 0.574,0.064 0.32,0.064 0.415,0.335 0.463,0.798 C 0,-5.617 0,-4.355 0,-2.808 L 0,0 z"
           id="path326"
           style="fill:#1e59ae;fill-opacity:1;fill-rule:nonzero;stroke:none" />
      </g>
      <g
         transform="translate(324.967,749.6931)"
         id="g328">
        <path
           d="m 0,0 -2.377,-0.064 c -0.925,-0.032 -1.308,-0.111 -1.547,-0.463 -0.16,-0.239 -0.24,-0.43 -0.271,-0.558 -0.033,-0.127 -0.081,-0.192 -0.177,-0.192 -0.111,0 -0.143,0.08 -0.143,0.256 0,0.255 0.303,1.707 0.335,1.835 0.048,0.207 0.096,0.303 0.191,0.303 0.127,0 0.287,-0.16 0.687,-0.192 0.462,-0.047 1.069,-0.079 1.596,-0.079 l 6.317,0 c 1.021,0 1.404,0.159 1.532,0.159 0.112,0 0.128,-0.096 0.128,-0.335 0,-0.335 -0.048,-1.436 -0.048,-1.851 C 6.207,-1.34 6.175,-1.436 6.08,-1.436 c -0.128,0 -0.16,0.08 -0.177,0.319 L 5.888,-0.941 C 5.856,-0.527 5.426,-0.08 4.004,-0.048 L 1.995,0 l 0,-6.541 c 0,-1.468 0,-2.729 0.078,-3.415 0.049,-0.447 0.145,-0.797 0.624,-0.861 0.224,-0.033 0.573,-0.065 0.813,-0.065 0.176,0 0.256,-0.047 0.256,-0.127 0,-0.111 -0.128,-0.16 -0.303,-0.16 -1.054,0 -2.058,0.049 -2.506,0.049 -0.366,0 -1.371,-0.049 -2.01,-0.049 -0.207,0 -0.319,0.049 -0.319,0.16 0,0.08 0.064,0.127 0.256,0.127 0.239,0 0.43,0.032 0.574,0.065 0.319,0.064 0.414,0.414 0.462,0.877 C 0,-9.27 0,-8.009 0,-6.541 L 0,0 z"
           id="path330"
           style="fill:#1e59ae;fill-opacity:1;fill-rule:nonzero;stroke:none" />
      </g>
      <g
         transform="translate(338.1949,742.6571)"
         id="g332">
        <path
           d="m 0,0 c 0,0.862 -0.159,1.212 -0.367,1.675 -0.111,0.256 -2.25,3.765 -2.808,4.595 -0.398,0.591 -0.797,0.989 -1.101,1.165 -0.207,0.112 -0.479,0.207 -0.67,0.207 -0.128,0 -0.239,0.032 -0.239,0.144 0,0.096 0.111,0.144 0.303,0.144 0.287,0 1.484,-0.048 2.01,-0.048 0.335,0 0.989,0.048 1.708,0.048 0.159,0 0.24,-0.048 0.24,-0.144 0,-0.096 -0.114,-0.112 -0.352,-0.175 C -1.42,7.578 -1.5,7.451 -1.5,7.323 -1.5,7.195 -1.42,7.004 -1.308,6.781 -1.085,6.302 1.149,2.457 1.405,2.01 1.564,2.393 3.573,5.903 3.798,6.398 3.957,6.749 4.021,7.02 4.021,7.228 4.021,7.387 3.957,7.562 3.686,7.626 3.542,7.658 3.399,7.69 3.399,7.786 c 0,0.112 0.08,0.144 0.271,0.144 0.527,0 1.037,-0.048 1.499,-0.048 0.352,0 1.405,0.048 1.708,0.048 0.176,0 0.287,-0.032 0.287,-0.128 C 7.164,7.69 7.037,7.642 6.862,7.642 6.701,7.642 6.399,7.578 6.159,7.451 5.824,7.291 5.649,7.1 5.298,6.669 4.771,6.031 2.537,2.281 2.25,1.595 2.011,1.021 2.011,0.527 2.011,0 l 0,-1.309 c 0,-0.255 0,-0.925 0.048,-1.595 0.031,-0.463 0.175,-0.813 0.654,-0.877 0.223,-0.033 0.574,-0.065 0.798,-0.065 0.175,0 0.254,-0.047 0.254,-0.127 0,-0.111 -0.126,-0.16 -0.334,-0.16 -1.005,0 -2.011,0.049 -2.441,0.049 -0.399,0 -1.405,-0.049 -1.995,-0.049 -0.223,0 -0.351,0.033 -0.351,0.16 0,0.08 0.08,0.127 0.255,0.127 0.224,0 0.415,0.032 0.559,0.065 0.319,0.064 0.463,0.414 0.494,0.877 C 0,-2.234 0,-1.564 0,-1.309 L 0,0 z"
           id="path334"
           style="fill:#1e59ae;fill-opacity:1;fill-rule:nonzero;stroke:none" />
      </g>
      <g
         transform="translate(117.5542,726.1722)"
         id="g336">
        <path
           d="M 0,0 C 0,1.593 0,1.887 -0.021,2.222 -0.042,2.578 -0.147,2.756 -0.377,2.808 -0.492,2.84 -0.629,2.85 -0.754,2.85 c -0.105,0 -0.168,0.021 -0.168,0.105 0,0.062 0.084,0.084 0.251,0.084 0.399,0 1.059,-0.032 1.363,-0.032 0.262,0 0.88,0.032 1.278,0.032 0.136,0 0.22,-0.022 0.22,-0.084 C 2.19,2.871 2.127,2.85 2.022,2.85 1.918,2.85 1.834,2.84 1.708,2.819 1.425,2.766 1.341,2.588 1.32,2.222 1.299,1.887 1.299,1.593 1.299,0 l 0,-1.844 c 0,-1.016 0,-1.845 0.042,-2.295 0.032,-0.283 0.105,-0.472 0.419,-0.513 0.147,-0.021 0.377,-0.042 0.534,-0.042 0.116,0 0.168,-0.031 0.168,-0.084 0,-0.073 -0.084,-0.105 -0.199,-0.105 -0.691,0 -1.352,0.032 -1.634,0.032 -0.241,0 -0.901,-0.032 -1.321,-0.032 -0.136,0 -0.209,0.032 -0.209,0.105 0,0.053 0.042,0.084 0.168,0.084 0.157,0 0.282,0.021 0.377,0.042 0.209,0.041 0.272,0.22 0.303,0.524 C 0,-3.689 0,-2.86 0,-1.844 L 0,0 z"
           id="path338"
           style="fill:#1e59ae;fill-opacity:1;fill-rule:nonzero;stroke:none" />
      </g>
      <g
         transform="translate(123.4114,722.7147)"
         id="g340">
        <path
           d="m 0,0 c 0.021,-0.817 0.157,-1.089 0.367,-1.164 0.178,-0.062 0.377,-0.072 0.544,-0.072 0.115,0 0.179,-0.021 0.179,-0.085 0,-0.083 -0.095,-0.104 -0.241,-0.104 -0.681,0 -1.101,0.032 -1.3,0.032 -0.094,0 -0.586,-0.032 -1.131,-0.032 -0.137,0 -0.231,0.01 -0.231,0.104 0,0.064 0.063,0.085 0.168,0.085 0.136,0 0.325,0.01 0.471,0.052 0.273,0.084 0.315,0.388 0.325,1.3 l 0.095,6.202 c 0,0.21 0.031,0.356 0.136,0.356 0.115,0 0.21,-0.135 0.387,-0.324 C -0.105,6.213 1.488,4.505 3.017,2.986 3.73,2.274 5.144,0.765 5.323,0.597 l 0.052,0 L 5.27,5.302 C 5.26,5.941 5.166,6.14 4.914,6.245 4.757,6.308 4.505,6.308 4.359,6.308 c -0.126,0 -0.168,0.03 -0.168,0.094 0,0.084 0.115,0.094 0.273,0.094 0.544,0 1.047,-0.031 1.267,-0.031 0.116,0 0.514,0.031 1.027,0.031 0.136,0 0.241,-0.01 0.241,-0.094 0,-0.064 -0.063,-0.094 -0.189,-0.094 -0.104,0 -0.188,0 -0.314,-0.032 C 6.203,6.192 6.119,5.973 6.108,5.385 L 5.993,-1.226 c 0,-0.231 -0.042,-0.325 -0.136,-0.325 -0.115,0 -0.241,0.115 -0.356,0.23 C 4.841,-0.692 3.499,0.681 2.41,1.76 1.268,2.892 0.105,4.201 -0.084,4.401 l -0.031,0 L 0,0 z"
           id="path342"
           style="fill:#1e59ae;fill-opacity:1;fill-rule:nonzero;stroke:none" />
      </g>
      <g
         transform="translate(138.3523,728.6239)"
         id="g344">
        <path
           d="m 0,0 -1.561,-0.042 c -0.608,-0.021 -0.859,-0.073 -1.016,-0.304 -0.105,-0.157 -0.158,-0.283 -0.178,-0.367 -0.021,-0.083 -0.053,-0.125 -0.115,-0.125 -0.074,0 -0.096,0.052 -0.096,0.167 0,0.168 0.2,1.122 0.221,1.206 0.031,0.136 0.063,0.198 0.125,0.198 0.084,0 0.189,-0.104 0.451,-0.125 0.304,-0.031 0.702,-0.053 1.048,-0.053 l 4.149,0 c 0.336,0 0.566,0.032 0.723,0.053 0.158,0.032 0.241,0.052 0.283,0.052 0.074,0 0.084,-0.063 0.084,-0.219 0,-0.22 -0.031,-0.944 -0.031,-1.216 -0.011,-0.105 -0.032,-0.168 -0.095,-0.168 -0.083,0 -0.104,0.052 -0.115,0.21 L 3.866,-0.618 C 3.846,-0.346 3.563,-0.052 2.63,-0.031 L 1.31,0 l 0,-4.296 c 0,-0.964 0,-1.791 0.052,-2.242 0.032,-0.293 0.095,-0.524 0.409,-0.566 0.147,-0.021 0.377,-0.041 0.534,-0.041 0.116,0 0.168,-0.032 0.168,-0.085 0,-0.072 -0.084,-0.104 -0.199,-0.104 -0.692,0 -1.352,0.032 -1.645,0.032 -0.241,0 -0.901,-0.032 -1.321,-0.032 -0.136,0 -0.209,0.032 -0.209,0.104 0,0.053 0.042,0.085 0.168,0.085 0.157,0 0.283,0.02 0.377,0.041 0.209,0.042 0.272,0.273 0.303,0.577 C 0,-6.087 0,-5.26 0,-4.296 L 0,0 z"
           id="path346"
           style="fill:#1e59ae;fill-opacity:1;fill-rule:nonzero;stroke:none" />
      </g>
      <g
         transform="translate(150.3074,725.8792)"
         id="g348">
        <path
           d="m 0,0 c 0.031,0 0.063,0.02 0.063,0.073 l 0,0.22 c 0,1.593 0,1.887 -0.021,2.222 -0.021,0.356 -0.105,0.522 -0.45,0.597 -0.084,0.021 -0.262,0.031 -0.409,0.031 -0.115,0 -0.178,0.021 -0.178,0.094 0,0.073 0.073,0.095 0.22,0.095 0.566,0 1.226,-0.032 1.509,-0.032 0.251,0 0.911,0.032 1.319,0.032 C 2.2,3.332 2.274,3.31 2.274,3.237 2.274,3.164 2.211,3.143 2.085,3.143 2.002,3.143 1.907,3.133 1.782,3.112 1.498,3.06 1.415,2.881 1.394,2.515 1.373,2.18 1.373,1.886 1.373,0.293 l 0,-1.844 c 0,-0.964 0,-1.791 0.052,-2.242 0.032,-0.294 0.095,-0.525 0.409,-0.566 0.146,-0.021 0.377,-0.042 0.534,-0.042 0.115,0 0.168,-0.031 0.168,-0.084 0,-0.073 -0.084,-0.104 -0.209,-0.104 -0.682,0 -1.342,0.031 -1.635,0.031 -0.241,0 -0.901,-0.031 -1.31,-0.031 -0.147,0 -0.22,0.031 -0.22,0.104 0,0.053 0.042,0.084 0.168,0.084 0.157,0 0.283,0.021 0.377,0.042 0.209,0.041 0.262,0.272 0.304,0.576 0.052,0.441 0.052,1.268 0.052,2.232 l 0,0.922 c 0,0.042 -0.032,0.063 -0.063,0.063 l -4.002,0 c -0.032,0 -0.063,-0.011 -0.063,-0.063 l 0,-0.922 c 0,-0.964 0,-1.791 0.052,-2.242 0.032,-0.294 0.094,-0.525 0.409,-0.566 0.147,-0.021 0.377,-0.042 0.534,-0.042 0.116,0 0.168,-0.031 0.168,-0.084 0,-0.073 -0.084,-0.104 -0.21,-0.104 -0.681,0 -1.341,0.031 -1.634,0.031 -0.241,0 -0.901,-0.031 -1.321,-0.031 -0.136,0 -0.209,0.031 -0.209,0.104 0,0.053 0.042,0.084 0.168,0.084 0.157,0 0.282,0.021 0.377,0.042 0.209,0.041 0.262,0.272 0.304,0.576 0.052,0.441 0.052,1.268 0.052,2.232 l 0,1.844 c 0,1.593 0,1.887 -0.021,2.222 -0.021,0.356 -0.105,0.522 -0.451,0.597 -0.083,0.021 -0.261,0.031 -0.408,0.031 -0.115,0 -0.178,0.021 -0.178,0.094 0,0.073 0.073,0.095 0.22,0.095 0.566,0 1.226,-0.032 1.508,-0.032 0.252,0 0.912,0.032 1.321,0.032 0.147,0 0.22,-0.022 0.22,-0.095 0,-0.073 -0.063,-0.094 -0.189,-0.094 -0.084,0 -0.178,-0.01 -0.304,-0.031 C -3.939,3.06 -4.023,2.881 -4.044,2.515 -4.065,2.18 -4.065,1.886 -4.065,0.293 l 0,-0.22 C -4.065,0.02 -4.034,0 -4.002,0 L 0,0 z"
           id="path350"
           style="fill:#1e59ae;fill-opacity:1;fill-rule:nonzero;stroke:none" />
      </g>
      <g
         transform="translate(155.6511,726.1722)"
         id="g352">
        <path
           d="M 0,0 C 0,1.593 0,1.887 -0.021,2.222 -0.042,2.578 -0.126,2.744 -0.472,2.819 -0.555,2.84 -0.733,2.85 -0.88,2.85 c -0.115,0 -0.178,0.021 -0.178,0.094 0,0.073 0.073,0.095 0.23,0.095 0.555,0 1.216,-0.032 1.509,-0.032 0.335,0 2.421,0 2.619,0.01 0.199,0.022 0.367,0.043 0.451,0.064 0.053,0.01 0.115,0.041 0.168,0.041 0.052,0 0.063,-0.041 0.063,-0.094 C 3.982,2.955 3.929,2.829 3.898,2.347 3.887,2.242 3.866,1.781 3.845,1.655 3.835,1.602 3.814,1.54 3.74,1.54 3.667,1.54 3.646,1.593 3.646,1.687 3.646,1.761 3.636,1.938 3.583,2.064 3.511,2.253 3.405,2.378 2.882,2.442 2.703,2.462 1.603,2.483 1.393,2.483 1.341,2.483 1.321,2.452 1.321,2.378 l 0,-2.651 c 0,-0.073 0.01,-0.114 0.072,-0.114 0.231,0 1.436,0 1.677,0.02 0.251,0.021 0.409,0.052 0.503,0.158 0.073,0.083 0.115,0.136 0.167,0.136 0.043,0 0.074,-0.022 0.074,-0.084 0,-0.063 -0.052,-0.23 -0.084,-0.765 -0.021,-0.21 -0.042,-0.628 -0.042,-0.702 0,-0.083 0,-0.199 -0.094,-0.199 -0.073,0 -0.095,0.042 -0.095,0.094 -0.01,0.105 -0.01,0.241 -0.042,0.378 -0.052,0.209 -0.198,0.366 -0.586,0.408 -0.199,0.021 -1.237,0.031 -1.488,0.031 -0.052,0 -0.062,-0.041 -0.062,-0.104 l 0,-0.828 c 0,-0.356 -0.011,-1.321 0,-1.624 0.02,-0.723 0.188,-0.88 1.256,-0.88 0.273,0 0.713,0 0.985,0.126 0.273,0.125 0.398,0.345 0.472,0.775 0.02,0.115 0.042,0.157 0.115,0.157 0.084,0 0.084,-0.083 0.084,-0.189 0,-0.241 -0.084,-0.953 -0.136,-1.163 -0.074,-0.272 -0.168,-0.272 -0.566,-0.272 -1.582,0 -2.284,0.063 -2.902,0.063 -0.241,0 -0.902,-0.032 -1.321,-0.032 -0.136,0 -0.209,0.032 -0.209,0.105 0,0.053 0.041,0.084 0.168,0.084 0.157,0 0.283,0.021 0.377,0.042 0.209,0.041 0.262,0.272 0.303,0.576 C 0,-3.635 0,-2.808 0,-1.844 L 0,0 z"
           id="path354"
           style="fill:#1e59ae;fill-opacity:1;fill-rule:nonzero;stroke:none" />
      </g>
      <g
         transform="translate(166.6422,722.2851)"
         id="g356">
        <path
           d="m 0,0 c -1.027,0.902 -1.299,2.074 -1.299,3.091 0,0.712 0.22,1.948 1.225,2.871 0.755,0.691 1.75,1.11 3.312,1.11 0.649,0 1.037,-0.041 1.519,-0.104 C 5.155,6.915 5.49,6.821 5.805,6.79 5.92,6.78 5.962,6.727 5.962,6.663 5.962,6.58 5.93,6.454 5.909,6.088 5.889,5.741 5.899,5.166 5.878,4.956 5.867,4.798 5.847,4.715 5.752,4.715 5.668,4.715 5.648,4.798 5.648,4.945 5.637,5.271 5.501,5.637 5.239,5.91 4.893,6.276 4.076,6.559 3.112,6.559 2.2,6.559 1.603,6.328 1.142,5.91 0.377,5.208 0.178,4.212 0.178,3.195 c 0,-2.493 1.896,-3.729 3.301,-3.729 0.932,0 1.498,0.105 1.917,0.586 0.178,0.2 0.315,0.503 0.356,0.692 0.031,0.168 0.053,0.209 0.137,0.209 0.073,0 0.094,-0.073 0.094,-0.157 0,-0.125 -0.126,-1.037 -0.231,-1.394 C 5.7,-0.775 5.658,-0.828 5.48,-0.901 5.061,-1.069 4.264,-1.142 3.594,-1.142 2.158,-1.142 0.953,-0.828 0,0"
           id="path358"
           style="fill:#1e59ae;fill-opacity:1;fill-rule:nonzero;stroke:none" />
      </g>
      <g
         transform="translate(175.4016,726.1722)"
         id="g360">
        <path
           d="M 0,0 C 0,1.593 0,1.887 -0.021,2.222 -0.042,2.578 -0.147,2.756 -0.377,2.808 -0.493,2.84 -0.629,2.85 -0.755,2.85 c -0.105,0 -0.167,0.021 -0.167,0.105 0,0.062 0.084,0.084 0.251,0.084 0.398,0 1.058,-0.032 1.363,-0.032 0.261,0 0.879,0.032 1.277,0.032 0.137,0 0.22,-0.022 0.22,-0.084 C 2.189,2.871 2.127,2.85 2.022,2.85 1.917,2.85 1.833,2.84 1.708,2.819 1.424,2.766 1.341,2.588 1.32,2.222 1.299,1.887 1.299,1.593 1.299,0 l 0,-1.844 c 0,-1.016 0,-1.845 0.042,-2.295 0.031,-0.283 0.105,-0.472 0.419,-0.513 0.147,-0.021 0.377,-0.042 0.534,-0.042 0.115,0 0.168,-0.031 0.168,-0.084 0,-0.073 -0.084,-0.105 -0.199,-0.105 -0.692,0 -1.352,0.032 -1.635,0.032 -0.241,0 -0.901,-0.032 -1.32,-0.032 -0.136,0 -0.21,0.032 -0.21,0.105 0,0.053 0.042,0.084 0.168,0.084 0.157,0 0.283,0.021 0.378,0.042 0.209,0.041 0.272,0.22 0.303,0.524 C 0,-3.689 0,-2.86 0,-1.844 L 0,0 z"
           id="path362"
           style="fill:#1e59ae;fill-opacity:1;fill-rule:nonzero;stroke:none" />
      </g>
      <g
         transform="translate(182.0652,728.6239)"
         id="g364">
        <path
           d="m 0,0 -1.561,-0.042 c -0.608,-0.021 -0.859,-0.073 -1.016,-0.304 -0.106,-0.157 -0.158,-0.283 -0.179,-0.367 -0.02,-0.083 -0.052,-0.125 -0.115,-0.125 -0.073,0 -0.094,0.052 -0.094,0.167 0,0.168 0.198,1.122 0.22,1.206 0.031,0.136 0.062,0.198 0.125,0.198 0.084,0 0.189,-0.104 0.451,-0.125 0.304,-0.031 0.702,-0.053 1.048,-0.053 l 4.149,0 c 0.335,0 0.566,0.032 0.723,0.053 0.157,0.032 0.241,0.052 0.283,0.052 0.073,0 0.084,-0.063 0.084,-0.219 0,-0.22 -0.032,-0.944 -0.032,-1.216 -0.01,-0.105 -0.032,-0.168 -0.094,-0.168 -0.084,0 -0.105,0.052 -0.115,0.21 L 3.866,-0.618 C 3.845,-0.346 3.562,-0.052 2.63,-0.031 L 1.31,0 l 0,-4.296 c 0,-0.964 0,-1.791 0.052,-2.242 0.032,-0.293 0.094,-0.524 0.409,-0.566 0.146,-0.021 0.377,-0.041 0.534,-0.041 0.116,0 0.168,-0.032 0.168,-0.085 0,-0.072 -0.084,-0.104 -0.199,-0.104 -0.692,0 -1.352,0.032 -1.645,0.032 -0.241,0 -0.901,-0.032 -1.321,-0.032 -0.136,0 -0.209,0.032 -0.209,0.104 0,0.053 0.041,0.085 0.168,0.085 0.157,0 0.282,0.02 0.377,0.041 0.209,0.042 0.272,0.273 0.303,0.577 C 0,-6.087 0,-5.26 0,-4.296 L 0,0 z"
           id="path366"
           style="fill:#1e59ae;fill-opacity:1;fill-rule:nonzero;stroke:none" />
      </g>
      <g
         transform="translate(189.8699,724.0032)"
         id="g368">
        <path
           d="m 0,0 c 0,0.566 -0.105,0.796 -0.241,1.101 -0.074,0.167 -1.478,2.472 -1.844,3.017 -0.262,0.388 -0.524,0.649 -0.723,0.765 -0.136,0.074 -0.314,0.136 -0.44,0.136 -0.084,0 -0.157,0.021 -0.157,0.094 0,0.063 0.073,0.095 0.199,0.095 0.188,0 0.974,-0.032 1.32,-0.032 0.22,0 0.649,0.032 1.121,0.032 0.105,0 0.157,-0.032 0.157,-0.095 0,-0.063 -0.073,-0.073 -0.23,-0.114 C -0.933,4.977 -0.985,4.894 -0.985,4.81 -0.985,4.726 -0.933,4.601 -0.859,4.453 -0.712,4.139 0.754,1.614 0.922,1.321 1.027,1.572 2.347,3.877 2.493,4.201 2.598,4.433 2.64,4.611 2.64,4.747 2.64,4.851 2.598,4.967 2.421,5.009 2.326,5.03 2.232,5.05 2.232,5.113 c 0,0.074 0.052,0.095 0.178,0.095 0.346,0 0.681,-0.032 0.985,-0.032 0.23,0 0.922,0.032 1.121,0.032 0.115,0 0.189,-0.021 0.189,-0.083 C 4.705,5.05 4.621,5.019 4.505,5.019 4.401,5.019 4.202,4.977 4.044,4.894 3.824,4.789 3.709,4.663 3.478,4.38 3.133,3.961 1.666,1.499 1.477,1.048 1.32,0.671 1.32,0.346 1.32,0 l 0,-0.858 c 0,-0.169 0,-0.608 0.032,-1.048 0.02,-0.305 0.115,-0.536 0.429,-0.577 0.147,-0.022 0.377,-0.041 0.524,-0.041 0.116,0 0.168,-0.032 0.168,-0.085 0,-0.073 -0.084,-0.105 -0.22,-0.105 -0.661,0 -1.321,0.032 -1.604,0.032 -0.262,0 -0.922,-0.032 -1.309,-0.032 -0.147,0 -0.231,0.022 -0.231,0.105 0,0.053 0.053,0.085 0.168,0.085 0.147,0 0.272,0.019 0.367,0.041 0.209,0.041 0.303,0.272 0.325,0.577 C 0,-1.466 0,-1.027 0,-0.858 L 0,0 z"
           id="path370"
           style="fill:#1e59ae;fill-opacity:1;fill-rule:nonzero;stroke:none" />
      </g>
      <g
         transform="translate(205.8802,725.0514)"
         id="g372">
        <path
           d="m 0,0 c 0,2.347 -1.352,3.803 -3.071,3.803 -1.204,0 -2.577,-0.67 -2.577,-3.279 0,-2.18 1.205,-3.908 3.217,-3.908 C -1.698,-3.384 0,-3.028 0,0 m -7.094,0.199 c 0,1.791 1.184,4.107 4.327,4.107 2.609,0 4.234,-1.519 4.234,-3.918 0,-2.4 -1.676,-4.296 -4.338,-4.296 -3.008,0 -4.223,2.252 -4.223,4.107"
           id="path374"
           style="fill:#1e59ae;fill-opacity:1;fill-rule:nonzero;stroke:none" />
      </g>
      <g
         transform="translate(211.3932,724.3277)"
         id="g376">
        <path
           d="m 0,0 c 0,-1.006 0,-1.791 0.053,-2.231 0.031,-0.304 0.094,-0.535 0.408,-0.577 0.147,-0.021 0.377,-0.041 0.524,-0.041 0.136,0 0.179,-0.032 0.179,-0.085 0,-0.072 -0.074,-0.104 -0.231,-0.104 -0.66,0 -1.32,0.032 -1.593,0.032 -0.272,0 -0.932,-0.032 -1.331,-0.032 -0.147,0 -0.219,0.021 -0.219,0.104 0,0.053 0.042,0.085 0.157,0.085 0.157,0 0.282,0.02 0.377,0.041 0.21,0.042 0.261,0.273 0.304,0.577 0.052,0.44 0.052,1.225 0.052,2.231 l 0,1.844 c 0,1.594 0,1.887 -0.021,2.222 -0.021,0.357 -0.105,0.523 -0.45,0.597 -0.084,0.021 -0.262,0.032 -0.409,0.032 -0.105,0 -0.178,0.02 -0.178,0.084 0,0.083 0.084,0.104 0.24,0.104 0.546,0 1.206,-0.032 1.51,-0.032 0.397,0 2.525,0 2.765,0.011 0.2,0.011 0.325,0.011 0.43,0.042 0.063,0.022 0.115,0.063 0.168,0.063 0.042,0 0.073,-0.041 0.073,-0.094 C 2.808,4.8 2.756,4.674 2.724,4.402 2.714,4.296 2.693,3.678 2.672,3.553 2.662,3.469 2.641,3.405 2.567,3.405 c -0.073,0 -0.094,0.053 -0.105,0.168 0,0.084 0,0.252 -0.062,0.399 C 2.327,4.118 2.106,4.276 1.708,4.286 L 0.094,4.318 C 0.031,4.318 0,4.286 0,4.17 L 0,1.551 C 0,1.488 0.01,1.457 0.074,1.457 l 1.341,0.01 c 0.178,0 0.324,0 0.471,0.011 C 2.085,1.488 2.232,1.53 2.337,1.667 2.389,1.73 2.41,1.771 2.473,1.771 2.514,1.771 2.536,1.74 2.536,1.677 2.536,1.614 2.483,1.352 2.452,1.027 2.431,0.818 2.41,0.336 2.41,0.263 c 0,-0.095 0,-0.2 -0.105,-0.2 -0.062,0 -0.084,0.074 -0.084,0.146 0,0.074 -0.02,0.2 -0.062,0.326 C 2.106,0.682 1.95,0.87 1.624,0.912 1.363,0.943 0.252,0.943 0.074,0.943 0.021,0.943 0,0.923 0,0.849 L 0,0 z"
           id="path378"
           style="fill:#1e59ae;fill-opacity:1;fill-rule:nonzero;stroke:none" />
      </g>
      <g
         transform="translate(221.3891,722.7147)"
         id="g380">
        <path
           d="m 0,0 c 0.021,-0.817 0.158,-1.089 0.366,-1.164 0.179,-0.062 0.377,-0.072 0.546,-0.072 0.115,0 0.177,-0.021 0.177,-0.085 0,-0.083 -0.093,-0.104 -0.24,-0.104 -0.681,0 -1.101,0.032 -1.3,0.032 -0.094,0 -0.587,-0.032 -1.131,-0.032 -0.137,0 -0.231,0.01 -0.231,0.104 0,0.064 0.063,0.085 0.168,0.085 0.136,0 0.325,0.01 0.472,0.052 0.271,0.084 0.313,0.388 0.325,1.3 l 0.094,6.202 c 0,0.21 0.031,0.356 0.136,0.356 0.115,0 0.209,-0.135 0.388,-0.324 C -0.105,6.213 1.488,4.505 3.017,2.986 3.73,2.274 5.144,0.765 5.322,0.597 l 0.052,0 -0.103,4.705 C 5.26,5.941 5.166,6.14 4.914,6.245 4.756,6.308 4.505,6.308 4.359,6.308 c -0.127,0 -0.168,0.03 -0.168,0.094 0,0.084 0.116,0.094 0.272,0.094 0.545,0 1.049,-0.031 1.268,-0.031 0.115,0 0.513,0.031 1.027,0.031 0.136,0 0.241,-0.01 0.241,-0.094 0,-0.064 -0.063,-0.094 -0.188,-0.094 -0.105,0 -0.189,0 -0.315,-0.032 C 6.203,6.192 6.119,5.973 6.109,5.385 L 5.993,-1.226 c 0,-0.231 -0.042,-0.325 -0.136,-0.325 -0.115,0 -0.241,0.115 -0.356,0.23 C 4.841,-0.692 3.5,0.681 2.41,1.76 1.268,2.892 0.105,4.201 -0.084,4.401 l -0.031,0 L 0,0 z"
           id="path382"
           style="fill:#1e59ae;fill-opacity:1;fill-rule:nonzero;stroke:none" />
      </g>
      <g
         transform="translate(231.2592,726.1722)"
         id="g384">
        <path
           d="M 0,0 C 0,1.593 0,1.887 -0.022,2.222 -0.042,2.578 -0.125,2.744 -0.471,2.819 -0.556,2.84 -0.733,2.85 -0.88,2.85 c -0.115,0 -0.178,0.021 -0.178,0.094 0,0.073 0.073,0.095 0.23,0.095 0.556,0 1.216,-0.032 1.508,-0.032 0.337,0 2.421,0 2.621,0.01 0.198,0.022 0.366,0.043 0.45,0.064 0.053,0.01 0.116,0.041 0.168,0.041 0.052,0 0.063,-0.041 0.063,-0.094 C 3.982,2.955 3.93,2.829 3.898,2.347 3.887,2.242 3.867,1.781 3.845,1.655 3.834,1.602 3.814,1.54 3.741,1.54 3.667,1.54 3.646,1.593 3.646,1.687 3.646,1.761 3.636,1.938 3.584,2.064 3.509,2.253 3.405,2.378 2.881,2.442 2.704,2.462 1.604,2.483 1.393,2.483 1.341,2.483 1.319,2.452 1.319,2.378 l 0,-2.651 c 0,-0.073 0.012,-0.114 0.074,-0.114 0.23,0 1.436,0 1.678,0.02 0.25,0.021 0.408,0.052 0.502,0.158 0.073,0.083 0.115,0.136 0.168,0.136 0.042,0 0.073,-0.022 0.073,-0.084 0,-0.063 -0.053,-0.23 -0.084,-0.765 -0.021,-0.21 -0.042,-0.628 -0.042,-0.702 0,-0.083 0,-0.199 -0.094,-0.199 -0.074,0 -0.095,0.042 -0.095,0.094 -0.01,0.105 -0.01,0.241 -0.041,0.378 -0.053,0.209 -0.199,0.366 -0.587,0.408 -0.199,0.021 -1.236,0.031 -1.488,0.031 -0.052,0 -0.064,-0.041 -0.064,-0.104 l 0,-0.828 c 0,-0.356 -0.01,-1.321 0,-1.624 0.022,-0.723 0.19,-0.88 1.259,-0.88 0.271,0 0.712,0 0.984,0.126 0.272,0.125 0.398,0.345 0.472,0.775 0.02,0.115 0.041,0.157 0.115,0.157 0.084,0 0.084,-0.083 0.084,-0.189 0,-0.241 -0.084,-0.953 -0.137,-1.163 -0.073,-0.272 -0.166,-0.272 -0.565,-0.272 -1.583,0 -2.285,0.063 -2.903,0.063 -0.24,0 -0.9,-0.032 -1.32,-0.032 -0.136,0 -0.209,0.032 -0.209,0.105 0,0.053 0.042,0.084 0.168,0.084 0.156,0 0.282,0.021 0.377,0.042 0.209,0.041 0.262,0.272 0.303,0.576 C 0,-3.635 0,-2.808 0,-1.844 L 0,0 z"
           id="path386"
           style="fill:#1e59ae;fill-opacity:1;fill-rule:nonzero;stroke:none" />
      </g>
      <g
         transform="translate(237.4827,728.1841)"
         id="g388">
        <path
           d="m 0,0 c -0.125,0.388 -0.241,0.639 -0.388,0.744 -0.114,0.074 -0.325,0.095 -0.419,0.095 -0.105,0 -0.168,0.01 -0.168,0.093 0,0.074 0.084,0.095 0.231,0.095 0.545,0 1.121,-0.032 1.216,-0.032 0.094,0 0.555,0.032 1.162,0.032 0.147,0 0.221,-0.032 0.221,-0.095 0,-0.083 -0.084,-0.093 -0.189,-0.093 -0.084,0 -0.188,0 -0.262,-0.043 C 1.31,0.754 1.289,0.681 1.289,0.566 1.289,0.43 1.393,0.073 1.519,-0.398 1.698,-1.09 2.673,-4.265 2.861,-4.851 l 0.031,0 2.033,5.459 c 0.115,0.293 0.178,0.377 0.262,0.377 0.115,0 0.168,-0.157 0.303,-0.493 l 2.18,-5.27 0.031,0 c 0.189,0.702 1.028,3.469 1.394,4.694 0.073,0.241 0.104,0.461 0.104,0.608 0,0.167 -0.094,0.315 -0.502,0.315 -0.105,0 -0.178,0.03 -0.178,0.093 0,0.074 0.083,0.095 0.241,0.095 0.555,0 0.995,-0.032 1.089,-0.032 0.073,0 0.524,0.032 0.87,0.032 0.116,0 0.189,-0.021 0.189,-0.084 0,-0.074 -0.053,-0.104 -0.147,-0.104 -0.105,0 -0.252,-0.011 -0.366,-0.053 C 10.142,0.691 10.028,0.272 9.807,-0.325 9.325,-1.645 8.225,-4.977 7.712,-6.549 7.596,-6.915 7.544,-7.041 7.408,-7.041 c -0.105,0 -0.167,0.126 -0.325,0.513 l -2.179,5.25 -0.021,0 C 4.684,-1.812 3.29,-5.522 2.84,-6.486 2.641,-6.915 2.589,-7.041 2.462,-7.041 c -0.104,0 -0.157,0.115 -0.24,0.388 L 0,0 z"
           id="path390"
           style="fill:#1e59ae;fill-opacity:1;fill-rule:nonzero;stroke:none" />
      </g>
      <g
         transform="translate(255.1696,724.0032)"
         id="g392">
        <path
           d="m 0,0 c 0,0.566 -0.105,0.796 -0.241,1.101 -0.075,0.167 -1.478,2.472 -1.845,3.017 -0.261,0.388 -0.524,0.649 -0.722,0.765 -0.137,0.074 -0.315,0.136 -0.441,0.136 -0.084,0 -0.157,0.021 -0.157,0.094 0,0.063 0.073,0.095 0.2,0.095 0.187,0 0.975,-0.032 1.319,-0.032 0.221,0 0.65,0.032 1.122,0.032 0.105,0 0.156,-0.032 0.156,-0.095 0,-0.063 -0.073,-0.073 -0.23,-0.114 -0.095,-0.022 -0.147,-0.105 -0.147,-0.189 0,-0.084 0.052,-0.209 0.126,-0.357 0.147,-0.314 1.614,-2.839 1.781,-3.132 0.105,0.251 1.426,2.556 1.571,2.88 0.106,0.232 0.149,0.41 0.149,0.546 0,0.104 -0.043,0.22 -0.221,0.262 C 2.325,5.03 2.231,5.05 2.231,5.113 c 0,0.074 0.053,0.095 0.178,0.095 0.346,0 0.681,-0.032 0.985,-0.032 0.231,0 0.922,0.032 1.121,0.032 0.116,0 0.189,-0.021 0.189,-0.083 C 4.704,5.05 4.62,5.019 4.505,5.019 4.4,5.019 4.201,4.977 4.044,4.894 3.824,4.789 3.708,4.663 3.478,4.38 3.132,3.961 1.666,1.499 1.477,1.048 1.319,0.671 1.319,0.346 1.319,0 l 0,-0.858 c 0,-0.169 0,-0.608 0.031,-1.048 0.022,-0.305 0.117,-0.536 0.431,-0.577 0.146,-0.022 0.377,-0.041 0.524,-0.041 0.115,0 0.167,-0.032 0.167,-0.085 0,-0.073 -0.084,-0.105 -0.219,-0.105 -0.662,0 -1.321,0.032 -1.604,0.032 -0.262,0 -0.921,-0.032 -1.309,-0.032 -0.147,0 -0.231,0.022 -0.231,0.105 0,0.053 0.052,0.085 0.168,0.085 0.146,0 0.272,0.019 0.366,0.041 0.21,0.041 0.303,0.272 0.325,0.577 C 0,-1.466 0,-1.027 0,-0.858 L 0,0 z"
           id="path394"
           style="fill:#1e59ae;fill-opacity:1;fill-rule:nonzero;stroke:none" />
      </g>
      <g
         transform="translate(267.2944,725.0514)"
         id="g396">
        <path
           d="m 0,0 c 0,2.347 -1.352,3.803 -3.07,3.803 -1.205,0 -2.578,-0.67 -2.578,-3.279 0,-2.18 1.205,-3.908 3.217,-3.908 C -1.698,-3.384 0,-3.028 0,0 m -7.094,0.199 c 0,1.791 1.185,4.107 4.327,4.107 2.61,0 4.233,-1.519 4.233,-3.918 0,-2.4 -1.675,-4.296 -4.337,-4.296 -3.008,0 -4.223,2.252 -4.223,4.107"
           id="path398"
           style="fill:#1e59ae;fill-opacity:1;fill-rule:nonzero;stroke:none" />
      </g>
      <g
         transform="translate(272.7244,725.3445)"
         id="g400">
        <path
           d="m 0,0 c 0,-0.115 0.021,-0.157 0.094,-0.189 0.22,-0.073 0.535,-0.104 0.796,-0.104 0.42,0 0.557,0.041 0.745,0.178 0.313,0.231 0.617,0.712 0.617,1.571 0,1.488 -0.984,1.918 -1.603,1.918 -0.262,0 -0.45,-0.01 -0.555,-0.042 C 0.021,3.311 0,3.269 0,3.185 L 0,0 z m -1.237,0.828 c 0,1.593 0,1.886 -0.02,2.221 -0.022,0.357 -0.106,0.523 -0.451,0.597 -0.084,0.021 -0.262,0.032 -0.409,0.032 -0.115,0 -0.177,0.02 -0.177,0.094 0,0.073 0.072,0.094 0.23,0.094 0.555,0 1.215,-0.031 1.435,-0.031 0.356,0 1.153,0.031 1.477,0.031 0.66,0 1.362,-0.063 1.928,-0.45 C 3.07,3.216 3.488,2.682 3.488,1.98 3.488,1.205 3.163,0.492 2.106,-0.367 3.038,-1.54 3.761,-2.473 4.379,-3.122 4.966,-3.73 5.396,-3.803 5.554,-3.834 c 0.114,-0.022 0.208,-0.032 0.292,-0.032 0.084,0 0.126,-0.032 0.126,-0.085 0,-0.083 -0.073,-0.104 -0.199,-0.104 l -0.996,0 c -0.586,0 -0.848,0.053 -1.121,0.199 -0.45,0.241 -0.848,0.734 -1.435,1.541 -0.419,0.576 -0.902,1.288 -1.037,1.445 -0.052,0.063 -0.116,0.074 -0.189,0.074 l -0.911,0.02 C 0.032,-0.776 0,-0.796 0,-0.859 l 0,-0.147 c 0,-0.974 0,-1.802 0.052,-2.241 0.032,-0.305 0.094,-0.536 0.408,-0.577 0.158,-0.022 0.388,-0.042 0.514,-0.042 0.084,0 0.126,-0.032 0.126,-0.085 0,-0.072 -0.074,-0.104 -0.21,-0.104 -0.607,0 -1.383,0.032 -1.54,0.032 -0.199,0 -0.859,-0.032 -1.278,-0.032 -0.136,0 -0.21,0.032 -0.21,0.104 0,0.053 0.042,0.085 0.168,0.085 0.156,0 0.282,0.02 0.377,0.042 0.21,0.041 0.262,0.272 0.304,0.577 0.052,0.439 0.052,1.267 0.052,2.23 l 0,1.845 z"
           id="path402"
           style="fill:#1e59ae;fill-opacity:1;fill-rule:nonzero;stroke:none" />
      </g>
      <g
         transform="translate(281.2106,725.7109)"
         id="g404">
        <path
           d="M 0,0 0.054,0 C 0.408,0.388 1.938,1.95 2.243,2.306 2.536,2.651 2.766,2.913 2.766,3.091 2.766,3.206 2.725,3.28 2.62,3.301 2.525,3.322 2.483,3.342 2.483,3.405 2.483,3.479 2.536,3.5 2.651,3.5 2.872,3.5 3.448,3.468 3.731,3.468 4.056,3.468 4.632,3.5 4.956,3.5 5.062,3.5 5.134,3.479 5.134,3.405 5.134,3.332 5.082,3.312 4.977,3.312 4.831,3.312 4.569,3.27 4.37,3.196 4.045,3.07 3.689,2.85 3.238,2.41 2.913,2.096 1.331,0.525 0.975,0.147 c 0.376,-0.493 2.43,-2.703 2.84,-3.091 0.46,-0.44 0.932,-0.911 1.498,-1.132 0.314,-0.125 0.524,-0.156 0.649,-0.156 0.073,0 0.136,-0.022 0.136,-0.085 0,-0.072 -0.052,-0.104 -0.251,-0.104 l -0.912,0 c -0.314,0 -0.502,0 -0.723,0.021 -0.565,0.052 -0.848,0.283 -1.299,0.681 -0.461,0.409 -2.525,2.829 -2.745,3.133 l -0.114,0.157 -0.054,0 0,-0.954 c 0,-0.964 0,-1.791 0.032,-2.242 0.022,-0.293 0.115,-0.524 0.376,-0.566 0.147,-0.021 0.379,-0.041 0.515,-0.041 0.084,0 0.135,-0.032 0.135,-0.085 0,-0.072 -0.083,-0.104 -0.199,-0.104 -0.586,0 -1.246,0.032 -1.508,0.032 -0.241,0 -0.901,-0.032 -1.32,-0.032 -0.137,0 -0.21,0.032 -0.21,0.104 0,0.053 0.041,0.085 0.167,0.085 0.158,0 0.283,0.02 0.377,0.041 0.21,0.042 0.262,0.273 0.304,0.577 0.053,0.44 0.053,1.267 0.053,2.231 l 0,1.844 c 0,1.594 0,1.887 -0.021,2.222 -0.02,0.357 -0.105,0.523 -0.451,0.597 -0.083,0.021 -0.262,0.032 -0.408,0.032 -0.116,0 -0.178,0.02 -0.178,0.093 0,0.074 0.073,0.095 0.23,0.095 0.556,0 1.216,-0.032 1.467,-0.032 0.252,0 0.912,0.032 1.268,0.032 0.147,0 0.22,-0.021 0.22,-0.095 C 0.849,3.332 0.787,3.312 0.702,3.312 0.598,3.312 0.535,3.301 0.408,3.28 0.126,3.228 0.042,3.049 0.022,2.683 0,2.348 0,2.055 0,0.461 L 0,0 z"
           id="path406"
           style="fill:#1e59ae;fill-opacity:1;fill-rule:nonzero;stroke:none" />
      </g>
      <g
         transform="translate(102.2888,742.913)"
         id="g408">
        <path
           d="m 0,0 c -0.69,-0.193 -1.122,0.094 -1.12,0.65 0.001,0.438 0.073,0.866 0.35,1.077 0,0 1.328,0.008 1.464,0.126 C 0.831,1.971 0.938,2.77 0.913,2.93 0.888,3.09 -0.535,2.8 -0.611,2.954 -0.686,3.109 -0.245,4.016 -0.323,4.17 -0.402,4.323 -1.476,4.162 -1.476,4.162 -1.615,4.096 -1.741,3.009 -1.877,2.898 -2.014,2.787 -3.03,2.938 -3.156,2.825 -3.284,2.711 -3.5,1.835 -3.421,1.723 c 0.08,-0.112 1.205,0.06 1.298,-0.06 0.109,-0.355 -0.231,-0.957 -0.649,-1.322 -0.303,-0.266 -0.637,-0.424 -1.053,-0.421 -0.635,0.004 -1.397,0.875 -1.638,2.248 -0.168,0.958 0.236,2.859 0.637,3.751 0.866,1.917 0.342,1.798 0.581,1.947 0.975,0.605 2.629,1.109 3.884,1.482 C 0.835,9.703 2.003,9.943 3.116,9.519 4.941,8.823 4.521,6.5 3.826,5.08 2.88,3.149 1.286,0.36 0,0 M -7.682,2.168 C -7.924,0.795 -8.686,-0.076 -9.32,-0.08 c -0.416,-0.003 -0.75,0.155 -1.053,0.421 -0.418,0.365 -0.758,0.967 -0.649,1.322 0.092,0.12 1.217,-0.052 1.298,0.06 0.08,0.112 -0.137,0.988 -0.265,1.102 -0.126,0.113 -1.142,-0.038 -1.279,0.073 -0.135,0.111 -0.262,1.198 -0.401,1.264 0,0 -1.075,0.161 -1.153,0.008 -0.078,-0.154 0.363,-1.061 0.288,-1.216 -0.076,-0.154 -1.499,0.136 -1.524,-0.024 -0.025,-0.16 0.082,-0.959 0.219,-1.077 0.136,-0.118 1.464,-0.126 1.464,-0.126 0.276,-0.211 0.349,-0.639 0.35,-1.077 0.003,-0.556 -0.43,-0.843 -1.12,-0.65 -1.286,0.36 -2.88,3.149 -3.826,5.08 -0.696,1.42 -1.115,3.743 0.711,4.439 1.112,0.424 2.28,0.184 3.477,-0.171 1.254,-0.373 2.908,-0.877 3.883,-1.482 0.239,-0.149 -0.285,-0.03 0.58,-1.947 0.403,-0.892 0.806,-2.793 0.638,-3.751 M 5.674,8.22 C 5.413,9.739 4.186,10.796 2.685,10.917 0.003,11.132 -2.311,9.697 -4.913,9.238 -5.122,9.202 -5.401,9.644 -5.654,9.897 c 1.207,0.91 1.043,2.693 -0.354,3.463 -0.097,0.11 -0.062,1.137 -0.006,1.183 0.114,0.095 1.005,-0.076 1.131,0.034 0.127,0.11 0.101,1.179 0.02,1.282 -0.081,0.102 -1.085,-0.007 -1.142,0.061 -0.056,0.069 0.028,1.031 -0.066,1.107 -0.068,0.054 -0.347,0.06 -0.502,0.059 -0.155,0.001 -0.434,-0.005 -0.501,-0.059 -0.095,-0.076 -0.01,-1.038 -0.067,-1.107 -0.056,-0.068 -1.06,0.041 -1.142,-0.061 -0.08,-0.103 -0.106,-1.172 0.021,-1.282 0.126,-0.11 1.017,0.061 1.131,-0.034 0.055,-0.046 0.09,-1.073 -0.006,-1.183 -1.397,-0.77 -1.561,-2.553 -0.354,-3.463 -0.253,-0.253 -0.533,-0.695 -0.741,-0.659 -2.602,0.459 -4.916,1.894 -7.598,1.679 -1.501,-0.121 -2.728,-1.178 -2.989,-2.697 -0.47,-2.733 1.494,-4.834 2.448,-7.155 0.301,-0.732 0.566,-1.717 0.518,-2.563 0,0 7.788,0 9.175,-0.001 l 0,0 c 0,0 0.037,0 0.106,0 0.069,0 0.105,0 0.105,0 l 0,0 c 1.387,0.001 9.175,0.001 9.175,0.001 -0.047,0.846 0.217,1.831 0.519,2.563 0.953,2.321 2.917,4.422 2.447,7.155"
           id="path410"
           style="fill:#1e59ae;fill-opacity:1;fill-rule:nonzero;stroke:none" />
      </g>
      <g
         transform="translate(95.8222,740.1445)"
         id="g412">
        <path
           d="m 0,0 -0.211,0 -9.384,0 0,-1.612 9.384,0 0.211,0 9.384,0 L 9.384,0 0,0 z"
           id="path414"
           style="fill:#1e59ae;fill-opacity:1;fill-rule:nonzero;stroke:none" />
      </g>
    </g>
  </g>
</svg>
