<?xml version="1.0" encoding="UTF-8" standalone="no"?>
<!-- Created with Inkscape (http://www.inkscape.org/) -->

<svg
   xmlns:dc="http://purl.org/dc/elements/1.1/"
   xmlns:cc="http://creativecommons.org/ns#"
   xmlns:rdf="http://www.w3.org/1999/02/22-rdf-syntax-ns#"
   xmlns:svg="http://www.w3.org/2000/svg"
   xmlns="http://www.w3.org/2000/svg"
   xmlns:xlink="http://www.w3.org/1999/xlink"
   xmlns:sodipodi="http://sodipodi.sourceforge.net/DTD/sodipodi-0.dtd"
   xmlns:inkscape="http://www.inkscape.org/namespaces/inkscape"
   width="228.87321mm"
   height="190.62672mm"
   viewBox="0 0 228.87321 190.62672"
   version="1.1"
   id="svg18951"
   inkscape:version="0.92.1 r15371"
   sodipodi:docname="kappa_out_theory.svg">
  <defs
     id="defs18945">
    <clipPath
       id="p25c63c319b"
       style="stroke-linecap:butt;stroke-linejoin:round;stroke-miterlimit:100000">
      <rect
         id="rect103586"
         y="24.799999"
         x="53.422157"
         width="265.12158"
         height="214.16266"
         style="stroke-linecap:butt;stroke-linejoin:round;stroke-miterlimit:100000" />
    </clipPath>
    <path
       inkscape:connector-curvature="0"
       style="stroke:#000000;stroke-width:0.5;stroke-linecap:butt;stroke-linejoin:round;stroke-miterlimit:100000"
       id="m30884bd619"
       d="M 0,0 V -4" />
    <path
       style="stroke-linecap:butt;stroke-linejoin:round;stroke-miterlimit:100000"
       inkscape:connector-curvature="0"
       id="BitstreamVeraSans-Roman-30"
       d="m 31.78125,66.40625 q -7.609375,0 -11.453125,-7.5 Q 16.5,51.421875 16.5,36.375 q 0,-14.984375 3.828125,-22.484375 3.84375,-7.5 11.453125,-7.5 7.671875,0 11.5,7.5 3.84375,7.5 3.84375,22.484375 0,15.046875 -3.84375,22.53125 -3.828125,7.5 -11.5,7.5 m 0,7.8125 q 12.265625,0 18.734375,-9.703125 6.46875,-9.6875 6.46875,-28.140625 0,-18.40625 -6.46875,-28.109375 -6.46875,-9.6875 -18.734375,-9.6875 -12.25,0 -18.71875,9.6875 Q 6.59375,17.96875 6.59375,36.375 q 0,18.453125 6.46875,28.140625 6.46875,9.703125 18.71875,9.703125" />
    <path
       d="M 0,0 H 4"
       id="m5c0dd4e004"
       style="stroke:#000000;stroke-width:0.5;stroke-linecap:butt;stroke-linejoin:round;stroke-miterlimit:100000"
       inkscape:connector-curvature="0" />
    <path
       d="M 3.078125,0 V 3.515625 Q 13.375,3.515625 13.375,6.6875 V 61.625 q 0,3.171875 -10.296875,3.171875 V 68.3125 h 52.34375 l 2.78125,-22.90625 h -2.875 q -0.734375,6.359375 -1.6875,9.8125 -0.953125,3.46875 -2.90625,5.59375 -1.953125,2.125 -5.46875,3.046875 Q 41.75,64.796875 35.5,64.796875 h -7.71875 q -1.796875,0 -2.8125,-0.15625 -1,-0.140625 -1.640625,-0.84375 -0.625,-0.703125 -0.625,-2.171875 V 6.6875 q 0,-3.171875 12.796875,-3.171875 V 0 Z"
       id="Cmr10-a1"
       inkscape:connector-curvature="0"
       style="stroke-linecap:butt;stroke-linejoin:round;stroke-miterlimit:100000" />
  </defs>
  <sodipodi:namedview
     id="base"
     pagecolor="#ffffff"
     bordercolor="#666666"
     borderopacity="1.0"
     inkscape:pageopacity="0.0"
     inkscape:pageshadow="2"
     inkscape:zoom="0.35"
     inkscape:cx="-573.19799"
     inkscape:cy="108.8109"
     inkscape:document-units="mm"
     inkscape:current-layer="layer1"
     showgrid="false"
     fit-margin-top="0"
     fit-margin-left="0"
     fit-margin-right="0"
     fit-margin-bottom="0"
     inkscape:window-width="3840"
     inkscape:window-height="2021"
     inkscape:window-x="0"
     inkscape:window-y="65"
     inkscape:window-maximized="1" />
  <metadata
     id="metadata18948">
    <rdf:RDF>
      <cc:Work
         rdf:about="">
        <dc:format>image/svg+xml</dc:format>
        <dc:type
           rdf:resource="http://purl.org/dc/dcmitype/StillImage" />
        <dc:title></dc:title>
      </cc:Work>
    </rdf:RDF>
  </metadata>
  <g
     inkscape:label="Layer 1"
     inkscape:groupmode="layer"
     id="layer1"
     transform="translate(-0.46815758,13.003837)">
    <g
       transform="matrix(0.35277777,0,0,0.35277777,0.46815758,-13.003836)"
       id="g18862">
      <g
         transform="translate(94.29066,-205.73625)"
         style="stroke-linecap:butt;stroke-linejoin:round;stroke-miterlimit:100000"
         id="balanced">
        <g
           style="stroke-linecap:butt;stroke-linejoin:round;stroke-miterlimit:100000"
           id="patch_2"
           transform="matrix(2,0,0,2,-84.103693,157.63625)">
          <path
             inkscape:connector-curvature="0"
             id="path102568"
             style="fill:#ffffff;stroke-linecap:butt;stroke-linejoin:round;stroke-miterlimit:100000"
             d="M 53.422159,238.96266 H 318.54375 V 24.8 H 53.422159 Z" />
        </g>
        <g
           style="stroke-linecap:butt;stroke-linejoin:round;stroke-miterlimit:100000"
           id="line2d_1"
           transform="matrix(2,0,0,2,-84.103693,156.13625)">
          <path
             inkscape:connector-curvature="0"
             id="path102630"
             style="fill:none;stroke:#fd8080;stroke-width:3;stroke-linecap:square;stroke-linejoin:round;stroke-miterlimit:100;stroke-dasharray:none;stroke-opacity:1"
             d="m 254.86873,238.81988 -9.43676,-5.711 -8.8639,-5.71101 -8.33232,-5.711 -7.83862,-5.71101 -7.37977,-5.711 -6.95296,-5.711 -6.55565,-5.71101 -6.18552,-5.711 -5.84043,-5.71101 -5.51848,-5.711 -5.21787,-5.711 -4.93698,-5.71101 -4.67434,-5.711 -4.42858,-5.71101 -4.19845,-5.711 -3.98282,-5.71101 -3.78063,-5.711 -3.5909,-5.711 -3.41276,-5.71101 -3.2454,-5.711 -3.08804,-5.71101 -2.94,-5.711 -2.80064,-5.711 -2.66938,-5.71101 -2.54566,-5.711003 -2.42897,-5.711004 -2.31887,-5.711004 -2.21489,-5.711005 -2.11668,-5.711004 -2.02382,-5.711004 -1.936,-5.711004 -1.85289,-5.711004 -1.77419,-5.711004 -1.69964,-5.711005 -1.62897,-5.711004 -1.56196,-5.711004 -1.49835,-5.711004 -1.43799,-5.711004 -1.38064,-5.711004 L 99.251852,10.379714 97.977506,4.66871 96.761512,-1"
             clip-path="url(#p25c63c319b)" />
        </g>
        <path
           style="fill:none;stroke:#fd8080;stroke-width:6;stroke-linecap:butt;stroke-linejoin:miter;stroke-miterlimit:100;stroke-dasharray:none;stroke-opacity:1"
           d="m 333.48306,238.40742 h 59.18643"
           id="path108453"
           inkscape:connector-curvature="0" />
        <text
           id="text108457"
           y="232.35469"
           x="406.09323"
           style="font-style:normal;font-weight:normal;font-size:24px;line-height:1.25;font-family:sans-serif;letter-spacing:0px;word-spacing:0px;fill:#000000;fill-opacity:1;stroke:none;stroke-width:0.75;stroke-linecap:butt;stroke-linejoin:round;stroke-miterlimit:100000"
           xml:space="preserve"><tspan
             y="232.35469"
             x="406.09323"
             style="stroke-width:0.75;stroke-linecap:butt;stroke-linejoin:round;stroke-miterlimit:100000"
             id="tspan108455"
             sodipodi:role="line">Balanced</tspan><tspan
             id="tspan108459"
             y="262.35468"
             x="406.09323"
             style="stroke-width:0.75;stroke-linecap:butt;stroke-linejoin:round;stroke-miterlimit:100000"
             sodipodi:role="line">Solutions</tspan></text>
      </g>
      <g
         transform="matrix(2,0,0,2,10.186964,-48.099996)"
         id="patch_3"
         style="stroke-linecap:butt;stroke-linejoin:round;stroke-miterlimit:100000">
        <path
           d="M 53.422159,238.96266 V 24.8"
           style="fill:none;stroke:#000000;stroke-width:1.5;stroke-linecap:square;stroke-linejoin:miter;stroke-miterlimit:100;stroke-dasharray:none"
           id="path102756"
           inkscape:connector-curvature="0" />
      </g>
      <g
         transform="matrix(2,0,0,2,10.186964,-48.099996)"
         id="patch_4"
         style="stroke-linecap:butt;stroke-linejoin:round;stroke-miterlimit:100000">
        <path
           d="M 53.422159,238.96266 H 318.54375"
           style="fill:none;stroke:#000000;stroke-width:1.5;stroke-linecap:square;stroke-linejoin:miter;stroke-miterlimit:100;stroke-dasharray:none"
           id="path102759"
           inkscape:connector-curvature="0" />
      </g>
      <g
         transform="matrix(2,0,0,2,10.186964,-48.099996)"
         style="stroke-linecap:butt;stroke-linejoin:round;stroke-miterlimit:100000"
         id="xtick_1">
        <g
           style="stroke-linecap:butt;stroke-linejoin:round;stroke-miterlimit:100000"
           id="line2d_5" />
        <g
           style="stroke-linecap:butt;stroke-linejoin:round;stroke-miterlimit:100000"
           id="line2d_6">
          <defs
             id="defs102766">
            <path
               inkscape:connector-curvature="0"
               style="stroke:#000000;stroke-width:0.5;stroke-linecap:butt;stroke-linejoin:round;stroke-miterlimit:100000"
               id="path19751"
               d="M 0,0 V -4" />
          </defs>
          <g
             style="stroke-linecap:butt;stroke-linejoin:round;stroke-miterlimit:100000"
             id="g102770">
            <use
               height="100%"
               width="100%"
               id="use102768"
               y="238.96266"
               xlink:href="#m30884bd619"
               x="53.422157"
               style="stroke:#000000;stroke-width:0.5;stroke-linecap:butt;stroke-linejoin:round;stroke-miterlimit:100000" />
          </g>
        </g>
        <g
           style="stroke-linecap:butt;stroke-linejoin:round;stroke-miterlimit:100000"
           id="text_1">
          <!-- 0 -->
          <defs
             id="defs102774">
            <path
               style="stroke-linecap:butt;stroke-linejoin:round;stroke-miterlimit:100000"
               inkscape:connector-curvature="0"
               id="path19757"
               d="m 31.78125,66.40625 q -7.609375,0 -11.453125,-7.5 Q 16.5,51.421875 16.5,36.375 q 0,-14.984375 3.828125,-22.484375 3.84375,-7.5 11.453125,-7.5 7.671875,0 11.5,7.5 3.84375,7.5 3.84375,22.484375 0,15.046875 -3.84375,22.53125 -3.828125,7.5 -11.5,7.5 m 0,7.8125 q 12.265625,0 18.734375,-9.703125 6.46875,-9.6875 6.46875,-28.140625 0,-18.40625 -6.46875,-28.109375 -6.46875,-9.6875 -18.734375,-9.6875 -12.25,0 -18.71875,9.6875 Q 6.59375,17.96875 6.59375,36.375 q 0,18.453125 6.46875,28.140625 6.46875,9.703125 18.71875,9.703125" />
          </defs>
          <g
             style="stroke-linecap:butt;stroke-linejoin:round;stroke-miterlimit:100000"
             id="g102778"
             transform="matrix(0.1,0,0,-0.1,50.240909,250.56109)">
            <use
               height="100%"
               width="100%"
               y="0"
               x="0"
               style="stroke-linecap:butt;stroke-linejoin:round;stroke-miterlimit:100000"
               id="use102776"
               xlink:href="#BitstreamVeraSans-Roman-30"
               transform="matrix(1.5,0,0,1.5,-15.894531,-18.199219)" />
          </g>
        </g>
      </g>
      <g
         transform="matrix(2,0,0,2,10.186964,-48.099996)"
         style="stroke-linecap:butt;stroke-linejoin:round;stroke-miterlimit:100000"
         id="xtick_2">
        <g
           style="stroke-linecap:butt;stroke-linejoin:round;stroke-miterlimit:100000"
           id="line2d_8">
          <g
             style="stroke-linecap:butt;stroke-linejoin:round;stroke-miterlimit:100000"
             id="g102787">
            <use
               height="100%"
               width="100%"
               id="use102785"
               y="238.96266"
               xlink:href="#m30884bd619"
               x="255.11237"
               style="stroke:#000000;stroke-width:0.5;stroke-linecap:butt;stroke-linejoin:round;stroke-miterlimit:100000" />
          </g>
        </g>
      </g>
      <g
         id="g106112"
         transform="matrix(2,0,0,2,274.49205,-179.76351)"
         style="stroke-linecap:butt;stroke-linejoin:round;stroke-miterlimit:100000">
        <g
           word-spacing="normal"
           letter-spacing="normal"
           font-size-adjust="none"
           font-stretch="normal"
           font-weight="normal"
           font-variant="normal"
           font-style="normal"
           stroke-miterlimit="10.433"
           xml:space="preserve"
           transform="matrix(0.41142857,0,0,-0.41142857,-72,486)"
           id="g106110"
           style="font-style:normal;font-variant:normal;font-weight:normal;font-stretch:normal;letter-spacing:normal;word-spacing:normal;text-anchor:start;fill:none;fill-opacity:1;fill-rule:evenodd;stroke:#000000;stroke-linecap:butt;stroke-linejoin:round;stroke-miterlimit:100000;stroke-dasharray:none;stroke-dashoffset:0;stroke-opacity:1"><path
             id="path106106"
             d="m 479.29,417.96 -0.01,0.37 -0.01,0.35 -0.02,0.35 -0.02,0.34 -0.06,0.65 -0.09,0.63 -0.11,0.59 -0.14,0.57 -0.15,0.54 -0.18,0.51 -0.19,0.49 -0.21,0.45 -0.23,0.44 -0.25,0.4 -0.26,0.38 -0.27,0.36 -0.29,0.33 -0.3,0.31 -0.31,0.29 -0.31,0.26 -0.33,0.24 -0.34,0.22 -0.34,0.2 -0.35,0.18 -0.35,0.16 -0.36,0.14 -0.35,0.12 -0.36,0.11 -0.37,0.09 -0.36,0.06 -0.36,0.06 -0.35,0.04 -0.35,0.02 h -0.35 l -0.05,-1.09 c 4.94,0 4.94,-6.53 4.94,-10.41 0,-1.84 0,-4.73 0.09,-5.57 v 0 c -4.37,-3.85 -8.22,-4.39 -10.2,-4.39 -3,0 -4.49,2.25 -4.49,5.43 0,2.44 1.3,7.82 2.89,10.36 2.33,3.64 5.04,4.58 6.77,4.58 l 0.05,1.09 c -6.82,0 -13.39,-7.12 -13.39,-14.14 0,-4.64 2.98,-8.42 8.06,-8.42 3.14,0 6.73,1.14 10.51,4.19 0.66,-2.64 2.3,-4.19 4.54,-4.19 2.64,0 4.18,2.74 4.18,3.53 0,0.36 -0.29,0.5 -0.59,0.5 -0.36,0 -0.5,-0.14 -0.66,-0.5 -0.89,-2.43 -2.68,-2.43 -2.78,-2.43 -1.54,0 -1.54,3.89 -1.54,5.07 0,1.05 0,1.16 0.5,1.75 4.68,5.88 5.73,11.66 5.73,11.71 0,0.11 -0.06,0.5 -0.61,0.5 -0.5,0 -0.5,-0.14 -0.75,-1.05 -0.89,-3.14 -2.53,-6.92 -4.87,-9.86 z"
             inkscape:connector-curvature="0"
             style="fill:#000000;stroke-width:0;stroke-linecap:butt;stroke-linejoin:round;stroke-miterlimit:100000" /><path
             id="path106108"
             d="m 494.38,422.95 -5.24,-0.39 v -1.25 c 2.38,0 2.63,-0.28 2.63,-2.03 v -20.52 h 1.17 l 1.22,2.13 c 1.33,-1.74 3.25,-2.47 5.09,-2.47 l -0.17,0.97 c -2.79,0 -4.19,2.2 -4.56,2.92 v 8.12 c 0.97,1.61 2.86,2.72 4.94,2.72 1.95,0 3.34,-1.11 4.04,-2.15 0.71,-1.02 1.11,-2.38 1.11,-4.68 0,-0.79 0,-3.42 -1.42,-5.04 -1.39,-1.58 -3.09,-1.89 -4.11,-1.89 l 0.17,-0.97 c 4.6,0 8.54,3.44 8.54,7.87 0,4.25 -3.58,7.83 -8.15,7.83 -2.09,0 -4.01,-0.83 -5.26,-2.08 z"
             inkscape:connector-curvature="0"
             style="fill:#000000;stroke-width:0;stroke-linecap:butt;stroke-linejoin:round;stroke-miterlimit:100000" /></g>      </g>
      <g
         style="stroke-linecap:butt;stroke-linejoin:round;stroke-miterlimit:100000"
         transform="matrix(2,0,0,2,349.32261,-179.76351)"
         id="g106730">
        <g
           style="font-style:normal;font-variant:normal;font-weight:normal;font-stretch:normal;letter-spacing:normal;word-spacing:normal;text-anchor:start;fill:none;fill-opacity:1;fill-rule:evenodd;stroke:#000000;stroke-linecap:butt;stroke-linejoin:round;stroke-miterlimit:100000;stroke-dasharray:none;stroke-dashoffset:0;stroke-opacity:1"
           id="g106728"
           transform="matrix(0.41142857,0,0,-0.41142857,-72,486)"
           xml:space="preserve"
           stroke-miterlimit="10.433"
           font-style="normal"
           font-variant="normal"
           font-weight="normal"
           font-stretch="normal"
           font-size-adjust="none"
           letter-spacing="normal"
           word-spacing="normal"><path
             style="fill:#000000;stroke-width:0;stroke-linecap:butt;stroke-linejoin:round;stroke-miterlimit:100000"
             inkscape:connector-curvature="0"
             d="m 479.29,417.96 -0.01,0.37 -0.01,0.35 -0.02,0.35 -0.02,0.34 -0.06,0.65 -0.09,0.63 -0.11,0.59 -0.14,0.57 -0.15,0.54 -0.18,0.51 -0.19,0.49 -0.21,0.45 -0.23,0.44 -0.25,0.4 -0.26,0.38 -0.27,0.36 -0.29,0.33 -0.3,0.31 -0.31,0.29 -0.31,0.26 -0.33,0.24 -0.34,0.22 -0.34,0.2 -0.35,0.18 -0.35,0.16 -0.36,0.14 -0.35,0.12 -0.36,0.11 -0.37,0.09 -0.36,0.06 -0.36,0.06 -0.35,0.04 -0.35,0.02 h -0.35 l -0.05,-1.09 c 4.94,0 4.94,-6.53 4.94,-10.41 0,-1.84 0,-4.73 0.09,-5.57 v 0 c -4.37,-3.85 -8.22,-4.39 -10.2,-4.39 -3,0 -4.49,2.25 -4.49,5.43 0,2.44 1.3,7.82 2.89,10.36 2.33,3.64 5.04,4.58 6.77,4.58 l 0.05,1.09 c -6.82,0 -13.39,-7.12 -13.39,-14.14 0,-4.64 2.98,-8.42 8.06,-8.42 3.14,0 6.73,1.14 10.51,4.19 0.66,-2.64 2.3,-4.19 4.54,-4.19 2.64,0 4.18,2.74 4.18,3.53 0,0.36 -0.29,0.5 -0.59,0.5 -0.36,0 -0.5,-0.14 -0.66,-0.5 -0.89,-2.43 -2.68,-2.43 -2.78,-2.43 -1.54,0 -1.54,3.89 -1.54,5.07 0,1.05 0,1.16 0.5,1.75 4.68,5.88 5.73,11.66 5.73,11.71 0,0.11 -0.06,0.5 -0.61,0.5 -0.5,0 -0.5,-0.14 -0.75,-1.05 -0.89,-3.14 -2.53,-6.92 -4.87,-9.86 z"
             id="path106724" /><path
             style="fill:#000000;stroke-width:0;stroke-linecap:butt;stroke-linejoin:round;stroke-miterlimit:100000"
             inkscape:connector-curvature="0"
             d="m 500.99,412.67 -0.06,-0.03 -0.06,-0.03 -0.05,-0.03 -0.05,-0.03 -0.05,-0.03 -0.05,-0.04 -0.05,-0.04 -0.05,-0.03 -0.04,-0.04 -0.04,-0.04 -0.04,-0.05 -0.04,-0.04 -0.04,-0.04 -0.04,-0.05 -0.03,-0.05 -0.03,-0.05 -0.03,-0.04 -0.03,-0.06 -0.02,-0.05 -0.03,-0.05 -0.02,-0.05 -0.02,-0.06 -0.02,-0.06 -0.02,-0.05 -0.01,-0.06 -0.01,-0.06 -0.02,-0.06 v -0.06 l -0.01,-0.06 -0.01,-0.07 v -0.06 -0.06 c 0,-0.96 0.66,-1.64 1.64,-1.64 0.94,0 1.67,0.59 1.67,1.7 0,3.11 -4.84,3.11 -5.83,3.11 -5.21,0 -8.45,-4.02 -8.45,-8.02 0,-4.39 3.72,-7.87 8.28,-7.87 5.21,0 6.42,4.11 6.42,4.53 0,0.41 -0.45,0.41 -0.59,0.41 -0.45,0 -0.48,-0.1 -0.67,-0.6 -0.77,-2.15 -2.61,-3.23 -4.74,-3.23 -2.4,0 -5.53,1.78 -5.53,6.79 0,4.43 2.16,6.86 5.39,6.86 0.46,0 2.13,0 3.38,-0.51 z"
             id="path106726" /></g>      </g>
      <g
         transform="matrix(2,0,0,2,10.186964,-48.099996)"
         id="matplotlib.axis_2"
         style="stroke-linecap:butt;stroke-linejoin:round;stroke-miterlimit:100000">
        <g
           id="ytick_1"
           style="stroke-linecap:butt;stroke-linejoin:round;stroke-miterlimit:100000">
          <g
             id="line2d_11"
             style="stroke-width:1.5;stroke-linecap:butt;stroke-linejoin:round;stroke-miterlimit:100;stroke-dasharray:none" />
          <g
             id="line2d_12"
             style="stroke-linecap:butt;stroke-linejoin:round;stroke-miterlimit:100000">
            <defs
               id="defs102873">
              <path
                 d="M 0,0 H 4"
                 id="path19777"
                 style="stroke:#000000;stroke-width:0.5;stroke-linecap:butt;stroke-linejoin:round;stroke-miterlimit:100000"
                 inkscape:connector-curvature="0" />
            </defs>
            <g
               id="g102877"
               style="stroke-linecap:butt;stroke-linejoin:round;stroke-miterlimit:100000">
              <use
                 style="stroke:#000000;stroke-width:0.5;stroke-linecap:butt;stroke-linejoin:round;stroke-miterlimit:100000"
                 x="53.422157"
                 xlink:href="#m5c0dd4e004"
                 y="238.96266"
                 id="use102875"
                 width="100%"
                 height="100%" />
            </g>
          </g>
          <g
             id="text_5"
             style="stroke-linecap:butt;stroke-linejoin:round;stroke-miterlimit:100000">
            <!-- 0 -->
            <g
               transform="matrix(0.1,0,0,-0.1,43.059659,241.72203)"
               id="g102882"
               style="stroke-linecap:butt;stroke-linejoin:round;stroke-miterlimit:100000">
              <use
                 transform="matrix(1.5,0,0,1.5,-15.894531,-18.199219)"
                 xlink:href="#BitstreamVeraSans-Roman-30"
                 id="use102880"
                 style="stroke-linecap:butt;stroke-linejoin:round;stroke-miterlimit:100000"
                 x="0"
                 y="0"
                 width="100%"
                 height="100%" />
            </g>
          </g>
        </g>
        <g
           id="ytick_2"
           style="stroke-linecap:butt;stroke-linejoin:round;stroke-miterlimit:100000">
          <g
             id="line2d_14"
             style="stroke-linecap:butt;stroke-linejoin:round;stroke-miterlimit:100000">
            <g
               id="g102891"
               style="stroke-linecap:butt;stroke-linejoin:round;stroke-miterlimit:100000">
              <use
                 style="stroke:#000000;stroke-width:0.5;stroke-linecap:butt;stroke-linejoin:round;stroke-miterlimit:100000"
                 x="53.422157"
                 xlink:href="#m5c0dd4e004"
                 y="96.187553"
                 id="use102889"
                 width="100%"
                 height="100%" />
            </g>
          </g>
          <g
             id="text_6"
             style="stroke-linecap:butt;stroke-linejoin:round;stroke-miterlimit:100000">
            <!-- $\Gamma$ -->
            <defs
               id="defs102895">
              <path
                 d="M 3.078125,0 V 3.515625 Q 13.375,3.515625 13.375,6.6875 V 61.625 q 0,3.171875 -10.296875,3.171875 V 68.3125 h 52.34375 l 2.78125,-22.90625 h -2.875 q -0.734375,6.359375 -1.6875,9.8125 -0.953125,3.46875 -2.90625,5.59375 -1.953125,2.125 -5.46875,3.046875 Q 41.75,64.796875 35.5,64.796875 h -7.71875 q -1.796875,0 -2.8125,-0.15625 -1,-0.140625 -1.640625,-0.84375 -0.625,-0.703125 -0.625,-2.171875 V 6.6875 q 0,-3.171875 12.796875,-3.171875 V 0 Z"
                 id="path19790"
                 inkscape:connector-curvature="0"
                 style="stroke-linecap:butt;stroke-linejoin:round;stroke-miterlimit:100000" />
            </defs>
            <g
               transform="matrix(0.1,0,0,-0.1,43.122159,98.946927)"
               id="g102899"
               style="stroke-linecap:butt;stroke-linejoin:round;stroke-miterlimit:100000">
              <use
                 transform="matrix(1.5,0,0,1.5,-15.320313,-16.390625)"
                 xlink:href="#Cmr10-a1"
                 id="use102897"
                 style="stroke-linecap:butt;stroke-linejoin:round;stroke-miterlimit:100000"
                 x="0"
                 y="0"
                 width="100%"
                 height="100%" />
            </g>
          </g>
        </g>
      </g>
      <text
         id="text107574"
         y="27.351562"
         x="-219.44707"
         style="font-style:normal;font-weight:normal;font-size:36px;line-height:1.25;font-family:sans-serif;text-align:center;letter-spacing:0px;word-spacing:0px;text-anchor:middle;fill:#000000;fill-opacity:1;stroke:none;stroke-width:1.5;stroke-linecap:butt;stroke-linejoin:round;stroke-miterlimit:100000"
         xml:space="preserve"
         transform="rotate(-90)"
         inkscape:transform-center-x="-273.54247"
         inkscape:transform-center-y="-269.22792"><tspan
           y="27.351562"
           x="-219.44707"
           style="font-size:36px;text-align:center;text-anchor:middle;stroke-width:1.5;stroke-linecap:butt;stroke-linejoin:round;stroke-miterlimit:100000"
           id="tspan107572"
           sodipodi:role="line">Maximal Output Noise</tspan><tspan
           id="tspan107580"
           y="72.351562"
           x="-219.44707"
           style="font-size:36px;text-align:center;text-anchor:middle;stroke-width:1.5;stroke-linecap:butt;stroke-linejoin:round;stroke-miterlimit:100000"
           sodipodi:role="line">Robustness</tspan></text>
      <g
         transform="matrix(2,0,0,2,10.186964,-48.099996)"
         id="g107924"
         style="stroke-linecap:butt;stroke-linejoin:round;stroke-miterlimit:100000">
        <g
           transform="translate(73.347349,-29.770394)"
           id="g105502"
           style="stroke-linecap:butt;stroke-linejoin:round;stroke-miterlimit:100000">
          <g
             word-spacing="normal"
             letter-spacing="normal"
             font-size-adjust="none"
             font-stretch="normal"
             font-weight="normal"
             font-variant="normal"
             font-style="normal"
             stroke-miterlimit="10.433"
             xml:space="preserve"
             transform="matrix(0.41142857,0,0,-0.41142857,-72,486)"
             id="content"
             style="font-style:normal;font-variant:normal;font-weight:normal;font-stretch:normal;letter-spacing:normal;word-spacing:normal;text-anchor:start;fill:none;fill-opacity:1;fill-rule:evenodd;stroke:#000000;stroke-linecap:butt;stroke-linejoin:round;stroke-miterlimit:100000;stroke-dasharray:none;stroke-dashoffset:0;stroke-opacity:1"><path
               id="path105491"
               d="m 472,394.25 v 0.02 0.03 0.01 0.02 0.01 l -0.01,0.02 v 0.01 l -0.01,0.02 -0.01,0.02 -0.01,0.02 -0.01,0.02 -0.02,0.03 -0.01,0.02 -0.02,0.03 -0.02,0.03 -0.03,0.03 -0.02,0.03 -0.03,0.04 -0.02,0.02 -0.01,0.02 -0.02,0.02 -0.02,0.02 -0.02,0.02 -0.02,0.03 -0.02,0.02 -0.02,0.02 -0.02,0.03 -0.03,0.02 -0.02,0.03 -0.03,0.03 -0.03,0.03 -0.02,0.03 -0.03,0.03 -0.03,0.03 -0.03,0.03 -0.03,0.03 -0.04,0.04 -0.03,0.03 -0.04,0.04 -0.03,0.03 -0.04,0.04 -0.04,0.04 c -6.22,6.28 -7.81,15.69 -7.81,23.31 0,8.67 1.89,17.35 8.01,23.56 0.64,0.61 0.64,0.71 0.64,0.86 0,0.35 -0.18,0.49 -0.48,0.49 -0.5,0 -4.98,-3.38 -7.92,-9.7 -2.55,-5.49 -3.14,-11.02 -3.14,-15.21 0,-3.89 0.54,-9.9 3.28,-15.54 2.98,-6.13 7.28,-9.36 7.78,-9.36 0.3,0 0.48,0.14 0.48,0.5 z"
               inkscape:connector-curvature="0"
               style="fill:#000000;stroke-width:0;stroke-linecap:butt;stroke-linejoin:round;stroke-miterlimit:100000" /><path
               id="path105493"
               d="m 489.93,421.95 0.2,1.28 3.39,13.56 c 0.44,1.74 0.55,1.89 2.69,1.89 h 4.78 c 4.14,0 6.78,-1.34 6.78,-4.78 0,-1.95 -1,-6.23 -2.93,-8.03 -2.5,-2.23 -5.49,-2.64 -7.69,-2.64 h -7.02 l -0.2,-1.28 h 8.47 c 7.08,0 14,5.17 14,10.75 0,3.84 -3.28,7.53 -9.81,7.53 h -16.14 c -0.96,0 -1.5,0 -1.5,-0.95 0,-0.6 0.45,-0.6 1.45,-0.6 0.64,0 1.55,-0.04 2.14,-0.09 0.8,-0.11 1.09,-0.25 1.09,-0.8 0,-0.2 -0.04,-0.36 -0.2,-0.95 l -6.67,-26.75 c -0.5,-1.95 -0.6,-2.34 -4.53,-2.34 -0.85,0 -1.39,0 -1.39,-0.96 0,-0.59 0.59,-0.59 0.73,-0.59 1.41,0 4.94,0.16 6.33,0.16 1.05,0 2.14,-0.07 3.19,-0.07 1.11,0 2.2,-0.09 3.25,-0.09 0.34,0 0.98,0 0.98,1 0,0.55 -0.44,0.55 -1.39,0.55 -1.84,0 -3.23,0 -3.23,0.89 0,0.29 0.09,0.54 0.14,0.84 z"
               inkscape:connector-curvature="0"
               style="fill:#000000;stroke-width:0;stroke-linecap:butt;stroke-linejoin:round;stroke-miterlimit:100000" /><path
               id="path105495"
               d="m 532.95,441.67 0.01,0.03 0.01,0.03 0.01,0.03 0.01,0.03 0.01,0.02 0.01,0.03 0.01,0.03 0.01,0.02 0.02,0.05 0.01,0.05 0.02,0.04 0.01,0.05 0.02,0.04 0.01,0.04 0.01,0.03 0.01,0.04 0.01,0.03 v 0.03 l 0.01,0.03 0.01,0.02 v 0.03 l 0.01,0.02 v 0.02 l 0.01,0.02 v 0.02 0.02 0.01 l 0.01,0.02 v 0.01 0.01 0.01 0.01 0.01 0.01 0.01 0 c 0,0.55 -0.45,0.99 -1,0.99 -0.35,0 -0.7,-0.14 -0.85,-0.44 l -17.29,-47.48 c -0.25,-0.64 -0.25,-0.85 -0.25,-0.89 0,-0.55 0.45,-1 1,-1 0.66,0 0.79,0.34 1.09,1.18 z"
               inkscape:connector-curvature="0"
               style="fill:#000000;stroke-width:0;stroke-linecap:butt;stroke-linejoin:round;stroke-miterlimit:100000" /><path
               id="path105497"
               d="m 570.95,435 0.09,0.37 0.05,0.18 0.06,0.17 0.06,0.18 0.07,0.17 0.07,0.16 0.08,0.16 0.08,0.16 0.09,0.16 0.1,0.15 0.11,0.14 0.11,0.14 0.13,0.14 0.13,0.13 0.14,0.12 0.15,0.12 0.17,0.11 0.17,0.11 0.19,0.11 0.19,0.09 0.22,0.09 0.22,0.09 0.24,0.07 0.25,0.07 0.27,0.07 0.28,0.05 0.3,0.05 0.31,0.04 0.33,0.04 0.35,0.03 0.18,0.01 h 0.18 c 0.25,0 0.84,0.05 0.84,1 0,0.05 0,0.55 -0.64,0.55 -1.65,0 -3.39,-0.16 -5.03,-0.16 -1.7,0 -3.44,0.16 -5.09,0.16 -0.3,0 -0.89,0 -0.89,-1 0,-0.55 0.5,-0.55 0.89,-0.55 2.84,-0.04 3.39,-1.09 3.39,-2.18 0,-0.16 -0.09,-0.91 -0.14,-1.05 l -5.58,-22.17 -11.02,26 c -0.4,0.9 -0.45,0.95 -1.59,0.95 h -6.67 c -1,0 -1.45,0 -1.45,-1 0,-0.55 0.45,-0.55 1.39,-0.55 0.25,0 3.39,0 3.39,-0.45 l -6.67,-26.75 c -0.5,-2 -1.35,-3.59 -5.38,-3.73 -0.31,0 -0.86,-0.05 -0.86,-1 0,-0.35 0.25,-0.55 0.66,-0.55 1.59,0 3.33,0.16 4.98,0.16 1.69,0 3.49,-0.16 5.13,-0.16 0.25,0 0.89,0 0.89,1 0,0.5 -0.44,0.55 -0.99,0.55 -2.89,0.09 -3.29,1.18 -3.29,2.18 0,0.35 0.04,0.6 0.2,1.14 l 6.58,26.32 c 0.2,-0.3 0.2,-0.39 0.45,-0.89 l 12.41,-29.35 c 0.34,-0.86 0.48,-0.95 0.93,-0.95 0.55,0 0.55,0.16 0.8,1.05 z"
               inkscape:connector-curvature="0"
               style="fill:#000000;stroke-width:0;stroke-linecap:butt;stroke-linejoin:round;stroke-miterlimit:100000" /><path
               id="path105499"
               d="m 593.14,418.65 v 0.37 l -0.01,0.39 v 0.39 l -0.02,0.41 -0.04,0.84 -0.06,0.88 -0.08,0.92 -0.11,0.95 -0.13,0.97 -0.16,1.01 -0.2,1.02 -0.23,1.03 -0.27,1.05 -0.3,1.06 -0.35,1.07 -0.39,1.07 -0.22,0.53 -0.22,0.53 -0.24,0.53 -0.25,0.53 c -2.98,6.12 -7.27,9.36 -7.77,9.36 -0.29,0 -0.5,-0.19 -0.5,-0.49 0,-0.15 0,-0.25 0.94,-1.15 4.89,-4.92 7.74,-12.85 7.74,-23.27 0,-8.51 -1.85,-17.28 -8.04,-23.56 -0.64,-0.59 -0.64,-0.7 -0.64,-0.84 0,-0.3 0.21,-0.5 0.5,-0.5 0.5,0 4.97,3.39 7.93,9.71 2.53,5.47 3.12,11 3.12,15.19 z"
               inkscape:connector-curvature="0"
               style="fill:#000000;stroke-width:0;stroke-linecap:butt;stroke-linejoin:round;stroke-miterlimit:100000" /></g>        </g>
        <text
           id="text107905"
           y="292.93524"
           x="133.52031"
           style="font-style:normal;font-weight:normal;font-size:18px;line-height:1.25;font-family:sans-serif;letter-spacing:0px;word-spacing:0px;fill:#000000;fill-opacity:1;stroke:none;stroke-width:0.375;stroke-linecap:butt;stroke-linejoin:round;stroke-miterlimit:100000"
           xml:space="preserve"><tspan
             y="292.93524"
             x="133.52031"
             style="font-size:18px;stroke-width:0.375;stroke-linecap:butt;stroke-linejoin:round;stroke-miterlimit:100000"
             id="tspan107903"
             sodipodi:role="line">Load</tspan></text>
      </g>
    </g>
  </g>
</svg>
