<?xml version="1.0" encoding="UTF-8" standalone="no"?>
<!-- Created with Inkscape (http://www.inkscape.org/) -->

<svg
   xmlns:dc="http://purl.org/dc/elements/1.1/"
   xmlns:cc="http://creativecommons.org/ns#"
   xmlns:rdf="http://www.w3.org/1999/02/22-rdf-syntax-ns#"
   xmlns:svg="http://www.w3.org/2000/svg"
   xmlns="http://www.w3.org/2000/svg"
   xmlns:sodipodi="http://sodipodi.sourceforge.net/DTD/sodipodi-0.dtd"
   xmlns:inkscape="http://www.inkscape.org/namespaces/inkscape"
   width="156.13438mm"
   height="102.45369mm"
   viewBox="0 0 156.13438 102.45369"
   version="1.1"
   id="svg8"
   inkscape:version="0.92.1 r15371"
   sodipodi:docname="sufficient_cond.svg">
  <sodipodi:namedview
     id="base"
     pagecolor="#ffffff"
     bordercolor="#666666"
     borderopacity="1.0"
     inkscape:pageopacity="0.0"
     inkscape:pageshadow="2"
     inkscape:zoom="1"
     inkscape:cx="183.35267"
     inkscape:cy="-44.85234"
     inkscape:document-units="mm"
     inkscape:current-layer="condition"
     showgrid="false"
     inkscape:window-width="3840"
     inkscape:window-height="2021"
     inkscape:window-x="0"
     inkscape:window-y="65"
     inkscape:window-maximized="1"
     fit-margin-top="0"
     fit-margin-left="0"
     fit-margin-right="0"
     fit-margin-bottom="0" />
  <defs
     id="defs2" />
  <metadata
     id="metadata5">
    <rdf:RDF>
      <cc:Work
         rdf:about="">
        <dc:format>image/svg+xml</dc:format>
        <dc:type
           rdf:resource="http://purl.org/dc/dcmitype/StillImage" />
        <dc:title />
      </cc:Work>
    </rdf:RDF>
  </metadata>
  <g
     id="layer1"
     inkscape:groupmode="layer"
     inkscape:label="Layer 1"
     transform="translate(-27.839131,-57.191035)">
    <g
       id="condition"
       inkscape:label="#g4575">
      <text
         xml:space="preserve"
         style="font-style:normal;font-weight:normal;font-size:9.87777805px;line-height:1.25;font-family:sans-serif;text-align:center;letter-spacing:0px;word-spacing:0px;text-anchor:middle;fill:#000000;fill-opacity:1;stroke:none;stroke-width:0.26458332"
         x="54.988548"
         y="64.695831"
         id="text4487"><tspan
           sodipodi:role="line"
           id="tspan4485"
           x="54.988548"
           y="64.695831"
           style="font-size:9.87777805px;text-align:center;text-anchor:middle;stroke-width:0.26458332">Successful</tspan><tspan
           sodipodi:role="line"
           x="54.988548"
           y="77.043053"
           style="font-size:9.87777805px;text-align:center;text-anchor:middle;stroke-width:0.26458332"
           id="tspan4489">Neuronal</tspan><tspan
           sodipodi:role="line"
           x="54.988548"
           y="89.390274"
           style="font-size:9.87777805px;text-align:center;text-anchor:middle;stroke-width:0.26458332"
           id="tspan4491">Learning</tspan></text>
      <text
         xml:space="preserve"
         style="font-style:normal;font-weight:normal;font-size:9.87777805px;line-height:1.25;font-family:sans-serif;letter-spacing:0px;word-spacing:0px;fill:#000000;fill-opacity:1;stroke:none;stroke-width:0.26458332"
         x="50.715252"
         y="111.99303"
         id="text4495"><tspan
           sodipodi:role="line"
           id="tspan4493"
           x="50.715252"
           y="111.99303"
           style="font-size:9.87777805px;stroke-width:0.26458332">+</tspan></text>
      <text
         xml:space="preserve"
         style="font-style:normal;font-weight:normal;font-size:9.8777771px;line-height:1.25;font-family:sans-serif;text-align:center;letter-spacing:0px;word-spacing:0px;text-anchor:middle;fill:#000000;fill-opacity:1;stroke:none;stroke-width:0.26458332"
         x="54.988548"
         y="134.81041"
         id="text4499"><tspan
           sodipodi:role="line"
           x="54.988548"
           y="134.81041"
           style="stroke-width:0.26458332"
           id="tspan4505">Output</tspan><tspan
           sodipodi:role="line"
           x="54.988548"
           y="147.15762"
           style="stroke-width:0.26458332"
           id="tspan4507">Noise</tspan></text>
    </g>
    <g
       id="outcome"
       inkscape:label="#g4584">
      <text
         xml:space="preserve"
         style="font-style:normal;font-weight:normal;font-size:9.8777771px;line-height:1.25;font-family:sans-serif;text-align:center;letter-spacing:0px;word-spacing:0px;text-anchor:middle;fill:#000000;fill-opacity:1;stroke:none;stroke-width:0.26458332"
         x="161.13115"
         y="98.297913"
         id="text4511"><tspan
           sodipodi:role="line"
           id="tspan4509"
           x="162.70349"
           y="98.297913"
           style="stroke-width:0.26458332">Balanced </tspan><tspan
           sodipodi:role="line"
           x="161.13115"
           y="110.64513"
           style="stroke-width:0.26458332"
           id="tspan4515">Synaptic</tspan><tspan
           sodipodi:role="line"
           x="161.13115"
           y="122.99236"
           style="stroke-width:0.26458332"
           id="tspan4519">Weights</tspan></text>
      <g
         transform="matrix(2.0962021,0,0,2.0962021,-82.56644,-95.113661)"
         id="g4541">
        <g
           style="font-style:normal;font-variant:normal;font-weight:normal;font-stretch:normal;letter-spacing:normal;word-spacing:normal;text-anchor:start;fill:none;fill-opacity:1;fill-rule:evenodd;stroke:#000000;stroke-linecap:butt;stroke-linejoin:miter;stroke-miterlimit:10.43299961;stroke-dasharray:none;stroke-dashoffset:0;stroke-opacity:1"
           id="content"
           transform="matrix(0.3,0,0,-0.3,-52.5,222.75)"
           xml:space="preserve"
           stroke-miterlimit="10.433"
           font-style="normal"
           font-variant="normal"
           font-weight="normal"
           font-stretch="normal"
           font-size-adjust="none"
           letter-spacing="normal"
           word-spacing="normal"><path
             style="fill:#000000;stroke-width:0"
             inkscape:connector-curvature="0"
             d="m 491.69,422.5 0.4,-0.34 0.4,-0.31 0.42,-0.31 0.41,-0.3 0.42,-0.28 0.42,-0.27 0.42,-0.26 0.42,-0.25 0.41,-0.23 0.4,-0.23 0.39,-0.21 0.39,-0.19 0.37,-0.19 0.35,-0.17 0.18,-0.08 0.16,-0.08 0.17,-0.08 0.15,-0.07 c -1.79,-0.79 -4.23,-2.09 -6.28,-3.83 h -31.64 c -0.84,0 -1.8,0 -1.8,-1 0,-1 0.91,-1 1.75,-1 h 29.44 c -2.39,-2.29 -4.97,-6.67 -4.97,-7.32 0,-0.55 0.64,-0.55 0.94,-0.55 0.41,0 0.75,0 0.95,0.41 1.05,1.89 2.44,4.53 5.68,7.42 3.43,3.03 6.78,4.37 9.37,5.12 0.84,0.3 0.89,0.36 0.98,0.46 0.11,0.04 0.11,0.2 0.11,0.29 0,0.11 0,0.21 -0.04,0.3 l -0.16,0.11 c -0.09,0.05 -0.16,0.09 -1.09,0.39 -6.74,2 -11.71,6.53 -14.5,11.86 -0.55,1 -0.6,1.05 -1.3,1.05 -0.3,0 -0.94,0 -0.94,-0.55 0,-0.66 2.53,-4.99 4.97,-7.33 H 460 c -0.84,0 -1.75,0 -1.75,-1 0,-0.98 0.96,-0.98 1.8,-0.98 z"
             id="path4538" /></g>      </g>
    </g>
  </g>
</svg>
