<?xml version="1.0" encoding="UTF-8" standalone="no"?>
<svg
   xmlns:dc="http://purl.org/dc/elements/1.1/"
   xmlns:cc="http://creativecommons.org/ns#"
   xmlns:rdf="http://www.w3.org/1999/02/22-rdf-syntax-ns#"
   xmlns:svg="http://www.w3.org/2000/svg"
   xmlns="http://www.w3.org/2000/svg"
   id="svg624"
   version="1.1"
   viewBox="0 0 212.55367 141.955"
   height="141.955mm"
   width="212.55367mm"
   preserveAspectRatio="xMinYMin meet">
  <defs
     id="defs618" />
  <metadata
     id="metadata621">
    <rdf:RDF>
      <cc:Work
         rdf:about="">
        <dc:format>image/svg+xml</dc:format>
        <dc:type
           rdf:resource="http://purl.org/dc/dcmitype/StillImage" />
        <dc:title></dc:title>
      </cc:Work>
    </rdf:RDF>
  </metadata>
  <g
     transform="translate(3.8452871,-20.039027)"
     id="layer1">
    <rect
       y="20.281612"
       x="22.090479"
       height="89.830421"
       width="186.50783"
       id="rect6016-3-8-9"
       style="color:#000000;clip-rule:nonzero;display:inline;overflow:visible;visibility:visible;opacity:1;isolation:auto;mix-blend-mode:normal;color-interpolation:sRGB;color-interpolation-filters:linearRGB;solid-color:#000000;solid-opacity:1;fill:#ff7a76;fill-opacity:1;fill-rule:nonzero;stroke:none;stroke-width:0.29343984;stroke-linecap:butt;stroke-linejoin:miter;stroke-miterlimit:4;stroke-dasharray:none;stroke-dashoffset:0;stroke-opacity:1;color-rendering:auto;image-rendering:auto;shape-rendering:auto;text-rendering:auto;enable-background:accumulate" />
    <rect
       y="110.16315"
       x="22.090479"
       height="13.715446"
       width="186.6179"
       id="rect6014-0-7-0"
       style="color:#000000;clip-rule:nonzero;display:inline;overflow:visible;visibility:visible;opacity:1;isolation:auto;mix-blend-mode:normal;color-interpolation:sRGB;color-interpolation-filters:linearRGB;solid-color:#000000;solid-opacity:1;fill:#b5b3cc;fill-opacity:1;fill-rule:nonzero;stroke:none;stroke-width:0.29343984;stroke-linecap:butt;stroke-linejoin:miter;stroke-miterlimit:4;stroke-dasharray:none;stroke-dashoffset:0;stroke-opacity:1;color-rendering:auto;image-rendering:auto;shape-rendering:auto;text-rendering:auto;enable-background:accumulate" />
    <path
       style="opacity:1;fill:none;stroke:#000000;stroke-width:0.750287;stroke-linecap:butt;stroke-linejoin:miter;stroke-miterlimit:4;stroke-dasharray:none;stroke-opacity:1"
       d="M 22.626908,124.64848 22.450752,20.039659"
       id="path4575-1-5-7-1-8-2" />
    <path
       style="opacity:1;fill:none;stroke:#000000;stroke-width:0.80228806;stroke-linecap:butt;stroke-linejoin:miter;stroke-miterlimit:4;stroke-dasharray:none;stroke-opacity:1"
       d="M 21.992141,124.12789 C 63.79319,123.87868 163.31906,123.87868 208.09066,123.95033"
       id="path4577-5-5-3-0-7-1" />
    <path
       style="opacity:1;fill:none;stroke:#000000;stroke-width:0.77820641;stroke-linecap:butt;stroke-linejoin:miter;stroke-miterlimit:4;stroke-dasharray:0.77820643, 0.77820643;stroke-dashoffset:0;stroke-opacity:1"
       d="M 22.662873,110.38186 H 144.7854 208.62383"
       id="path7717-7-1-1-9-1" />
    <g
       id="g4983-5-9-0-8-5"
       transform="matrix(0.64748143,0,0,0.64748143,-51.128244,-141.83924)"
       style="opacity:1">
      <g
         word-spacing="normal"
         letter-spacing="normal"
         font-size-adjust="none"
         font-stretch="normal"
         font-weight="normal"
         font-variant="normal"
         font-style="normal"
         stroke-miterlimit="10.433"
         xml:space="preserve"
         transform="matrix(0.32001901,0,0,-0.32001901,-56.003327,523.55997)"
         id="g6545-56-0-4-8-9"
         style="font-style:normal;font-variant:normal;font-weight:normal;font-stretch:normal;letter-spacing:normal;word-spacing:normal;text-anchor:start;fill:none;fill-opacity:1;fill-rule:evenodd;stroke:#000000;stroke-linecap:butt;stroke-linejoin:miter;stroke-miterlimit:10.43299961;stroke-dasharray:none;stroke-dashoffset:0;stroke-opacity:1"><path
           id="path4986-8-0-8-1-0"
           d="m 486.8,434.54 0.23,0.36 0.23,0.33 0.22,0.31 0.22,0.29 0.22,0.28 0.22,0.25 0.22,0.24 0.22,0.22 0.21,0.2 0.21,0.19 0.21,0.17 0.2,0.16 0.21,0.14 0.2,0.13 0.21,0.12 0.19,0.11 0.2,0.09 0.2,0.09 0.19,0.07 0.2,0.07 0.19,0.06 0.19,0.05 0.18,0.04 0.19,0.03 0.18,0.03 0.19,0.03 0.36,0.04 0.35,0.02 0.35,0.02 c 0.6,0.05 0.64,0.89 0.64,0.96 0,0.39 -0.25,0.59 -0.64,0.59 -1.3,0 -2.75,-0.16 -4.09,-0.16 -1.64,0 -3.35,0.16 -4.94,0.16 -0.3,0 -0.94,0 -0.94,-0.95 0,-0.55 0.46,-0.6 0.8,-0.6 1.34,-0.09 2.3,-0.59 2.3,-1.64 0,-0.75 -0.75,-1.84 -0.75,-1.89 l -15.3,-24.31 -3.39,26.34 c 0,0.85 1.14,1.5 3.44,1.5 0.7,0 1.25,0 1.25,1 0,0.44 -0.41,0.55 -0.71,0.55 -1.98,0 -4.14,-0.16 -6.17,-0.16 -0.9,0 -1.84,0.05 -2.75,0.05 -0.89,0 -1.84,0.11 -2.69,0.11 -0.34,0 -0.93,0 -0.93,-0.95 0,-0.6 0.43,-0.6 1.23,-0.6 2.8,0 2.84,-0.45 3,-1.68 l 3.92,-30.75 c 0.16,-1 0.36,-1.14 1,-1.14 0.8,0 1,0.25 1.41,0.89 z"
           style="fill:#000000;stroke-width:0" /><path
           id="path4988-1-6-0-2-2"
           d="M 491.56,412.53 H 497 v 1.25 h -5.44 v 6.4 h -1.19 c -0.03,-3.12 -1.45,-6.57 -4.8,-6.68 v -0.97 h 3.24 v -9.41 c 0,-3.91 2.92,-4.7 4.87,-4.7 2.35,0 3.94,1.98 3.94,4.73 v 1.92 h -1.19 v -1.89 c 0,-2.36 -1.11,-3.65 -2.47,-3.65 -2.4,0 -2.4,2.92 -2.4,3.56 z"
           style="fill:#000000;stroke-width:0" /><path
           id="path4990-8-30-8-0-6"
           d="m 518.09,409.32 v 0.28 l -0.01,0.28 -0.03,0.26 -0.03,0.26 -0.04,0.25 -0.05,0.24 -0.06,0.24 -0.07,0.22 -0.08,0.22 -0.08,0.21 -0.1,0.2 -0.11,0.19 -0.12,0.19 -0.13,0.17 -0.14,0.17 -0.16,0.16 -0.16,0.15 -0.17,0.14 -0.19,0.13 -0.19,0.12 -0.21,0.12 -0.22,0.1 -0.23,0.09 -0.24,0.09 -0.26,0.07 -0.27,0.07 -0.28,0.05 -0.29,0.05 -0.3,0.03 -0.32,0.03 -0.33,0.02 h -0.34 c -3.11,0 -4.82,-1.84 -5.58,-3.16 h -0.03 v 11.99 l -5.24,-0.39 v -1.25 c 2.35,0 2.63,-0.25 2.63,-1.95 v -17.85 c 0,-1.5 -0.36,-1.5 -2.63,-1.5 v -1.25 c 0.08,0 2.52,0.14 3.99,0.14 1.28,0 3.68,-0.11 4,-0.14 v 1.25 c -2.27,0 -2.61,0 -2.61,1.5 v 6.28 c 0,3.66 2.89,5.36 5.18,5.36 2.44,0 2.75,-1.92 2.75,-3.69 v -7.95 c 0,-1.5 -0.34,-1.5 -2.61,-1.5 v -1.25 c 0.08,0 2.52,0.14 3.97,0.14 1.3,0 3.71,-0.11 4.02,-0.14 v 1.25 c -2.27,0 -2.63,0 -2.63,1.5 z"
           style="fill:#000000;stroke-width:0" /></g>    </g>
    <text
       transform="rotate(1.1266492)"
       id="text6018-3-7-4"
       y="23.508112"
       x="194.37419"
       style="font-style:normal;font-weight:normal;font-size:5.63404465px;line-height:0%;font-family:sans-serif;text-align:center;letter-spacing:0px;word-spacing:0px;text-anchor:middle;fill:#fffeff;fill-opacity:1;stroke:none;stroke-width:0.46950376px;stroke-linecap:butt;stroke-linejoin:miter;stroke-opacity:1"
       xml:space="preserve"><tspan
         style="font-size:7.51206017px;line-height:1.25;font-family:sans-serif;stroke-width:0.46950376px"
         y="23.508112"
         x="194.37419"
         id="tspan6020-1-6-9">Active</tspan></text>
    <text
       xml:space="preserve"
       style="font-style:normal;font-weight:normal;font-size:5.63404465px;line-height:0%;font-family:sans-serif;text-align:center;letter-spacing:0px;word-spacing:0px;text-anchor:middle;fill:#fffeff;fill-opacity:1;stroke:none;stroke-width:0.46950376px;stroke-linecap:butt;stroke-linejoin:miter;stroke-opacity:1"
       x="189.73842"
       y="113.76357"
       id="text6022-3-0-9"
       transform="rotate(1.1266492)"><tspan
         style="font-size:7.51206017px;line-height:1.25;font-family:sans-serif;stroke-width:0.46950376px"
         id="tspan6024-6-6-5"
         x="189.73842"
         y="113.76357">Quiescent</tspan></text>
    <g
       class="fragment"
       data-fragment-index="5"
       id="g1294">
      <rect
         y="32.746838"
         x="123.81364"
         height="90.830231"
         width="11.277166"
         id="rect7979"
         style="color:#000000;clip-rule:nonzero;display:inline;overflow:visible;visibility:visible;opacity:1;isolation:auto;mix-blend-mode:normal;color-interpolation:sRGB;color-interpolation-filters:linearRGB;solid-color:#000000;solid-opacity:1;fill:#ffbb02;fill-opacity:1;fill-rule:nonzero;stroke:none;stroke-width:0.35747045;stroke-linecap:butt;stroke-linejoin:miter;stroke-miterlimit:4;stroke-dasharray:2.85976355, 0.35747045;stroke-dashoffset:0;stroke-opacity:1;color-rendering:auto;image-rendering:auto;shape-rendering:auto;text-rendering:auto;enable-background:accumulate" />
      <text
         id="text8127"
         y="29.867809"
         x="129.2706"
         style="font-style:normal;font-weight:normal;font-size:5.63404512px;line-height:0%;font-family:sans-serif;text-align:center;letter-spacing:0px;word-spacing:0px;text-anchor:middle;fill:#000000;fill-opacity:1;stroke:none;stroke-width:0.46950376px;stroke-linecap:butt;stroke-linejoin:miter;stroke-opacity:1"
         xml:space="preserve"><tspan
           y="29.867809"
           x="129.2706"
           id="tspan8129"
           style="font-size:11.28888893px;line-height:1.25;font-family:sans-serif;stroke-width:0.46950376px">E</tspan></text>
    </g>
    <g
       class="fragment"
       data-fragment-index="6"
       id="g1299">
      <rect
         y="45.094921"
         x="138.71524"
         height="78.482147"
         width="11.399756"
         id="rect7979-06"
         style="color:#000000;clip-rule:nonzero;display:inline;overflow:visible;visibility:visible;opacity:1;isolation:auto;mix-blend-mode:normal;color-interpolation:sRGB;color-interpolation-filters:linearRGB;solid-color:#000000;solid-opacity:1;fill:#007fff;fill-opacity:1;fill-rule:nonzero;stroke:none;stroke-width:0.35747045;stroke-linecap:butt;stroke-linejoin:miter;stroke-miterlimit:4;stroke-dasharray:2.85976355, 0.35747045;stroke-dashoffset:0;stroke-opacity:1;color-rendering:auto;image-rendering:auto;shape-rendering:auto;text-rendering:auto;enable-background:accumulate" />
      <text
         id="text8131"
         y="29.867809"
         x="144.41141"
         style="font-style:normal;font-weight:normal;font-size:5.63404512px;line-height:0%;font-family:sans-serif;text-align:center;letter-spacing:0px;word-spacing:0px;text-anchor:middle;fill:#000000;fill-opacity:1;stroke:none;stroke-width:0.46950376px;stroke-linecap:butt;stroke-linejoin:miter;stroke-opacity:1"
         xml:space="preserve"><tspan
           y="29.867809"
           x="144.41141"
           id="tspan8133"
           style="font-size:11.28888893px;line-height:1.25;font-family:sans-serif;stroke-width:0.46950376px">I</tspan></text>
    </g>
    <g
       class="fragment"
       data-fragment-index="2"
       id="g1284">
      <rect
         y="99.685623"
         x="51.7024"
         height="23.891434"
         width="11.277166"
         id="rect7979-0"
         style="color:#000000;clip-rule:nonzero;display:inline;overflow:visible;visibility:visible;opacity:1;isolation:auto;mix-blend-mode:normal;color-interpolation:sRGB;color-interpolation-filters:linearRGB;solid-color:#000000;solid-opacity:1;fill:#ffbb02;fill-opacity:1;fill-rule:nonzero;stroke:none;stroke-width:0.35747045;stroke-linecap:butt;stroke-linejoin:miter;stroke-miterlimit:4;stroke-dasharray:2.85976355, 0.35747045;stroke-dashoffset:0;stroke-opacity:1;color-rendering:auto;image-rendering:auto;shape-rendering:auto;text-rendering:auto;enable-background:accumulate" />
      <text
         id="text8135"
         y="96.260971"
         x="57.159409"
         style="font-style:normal;font-weight:normal;font-size:5.63404512px;line-height:0%;font-family:sans-serif;text-align:center;letter-spacing:0px;word-spacing:0px;text-anchor:middle;fill:#000000;fill-opacity:1;stroke:none;stroke-width:0.46950376px;stroke-linecap:butt;stroke-linejoin:miter;stroke-opacity:1"
         xml:space="preserve"><tspan
           y="96.260971"
           x="57.159409"
           id="tspan8137"
           style="font-size:11.28888893px;line-height:1.25;font-family:sans-serif;stroke-width:0.46950376px">E</tspan></text>
    </g>
    <g
       class="fragment"
       data-fragment-index="3"
       id="g1289">
      <rect
         y="111.80962"
         x="66.72657"
         height="11.767488"
         width="11.277166"
         id="rect7979-0-80"
         style="color:#000000;clip-rule:nonzero;display:inline;overflow:visible;visibility:visible;opacity:1;isolation:auto;mix-blend-mode:normal;color-interpolation:sRGB;color-interpolation-filters:linearRGB;solid-color:#000000;solid-opacity:1;fill:#007fff;fill-opacity:1;fill-rule:nonzero;stroke:none;stroke-width:0.35747045;stroke-linecap:butt;stroke-linejoin:miter;stroke-miterlimit:4;stroke-dasharray:2.85976355, 0.35747045;stroke-dashoffset:0;stroke-opacity:1;color-rendering:auto;image-rendering:auto;shape-rendering:auto;text-rendering:auto;enable-background:accumulate" />
      <text
         id="text8139"
         y="96.260971"
         x="72.361481"
         style="font-style:normal;font-weight:normal;font-size:5.63404512px;line-height:0%;font-family:sans-serif;text-align:center;letter-spacing:0px;word-spacing:0px;text-anchor:middle;fill:#000000;fill-opacity:1;stroke:none;stroke-width:0.46950376px;stroke-linecap:butt;stroke-linejoin:miter;stroke-opacity:1"
         xml:space="preserve"><tspan
           y="96.260971"
           x="72.361481"
           id="tspan8141"
           style="font-size:11.28888893px;line-height:1.25;font-family:sans-serif;stroke-width:0.46950376px">I</tspan></text>
    </g>
    <text
       xml:space="preserve"
       style="font-style:normal;font-weight:normal;font-size:5.63404512px;line-height:0%;font-family:sans-serif;text-align:center;letter-spacing:0px;word-spacing:0px;text-anchor:middle;fill:#000000;fill-opacity:1;stroke:none;stroke-width:0.46950376px;stroke-linecap:butt;stroke-linejoin:miter;stroke-opacity:1"
       x="-72.343109"
       y="4.7316227"
       id="text10797"
       transform="rotate(-90)"><tspan
         style="font-size:11.28888893px;line-height:1.25;font-family:sans-serif;stroke-width:0.46950376px"
         id="tspan10799"
         x="-72.343109"
         y="4.7316227">PSP Magnitude</tspan></text>
    <text
       xml:space="preserve"
       style="font-style:normal;font-weight:normal;font-size:5.63404512px;line-height:0%;font-family:sans-serif;text-align:center;letter-spacing:0px;word-spacing:0px;text-anchor:middle;fill:#000000;fill-opacity:1;stroke:none;stroke-width:0.46950376px;stroke-linecap:butt;stroke-linejoin:miter;stroke-opacity:1"
       x="17.53425"
       y="125.17397"
       id="text10801"><tspan
         style="font-size:7.51206017px;line-height:1.25;font-family:sans-serif;stroke-width:0.46950376px"
         id="tspan10803"
         x="17.53425"
         y="125.17397">0</tspan></text>
    <g
       class="fragment"
       data-fragment-index="1"
       id="g1257">
      <text
         xml:space="preserve"
         style="font-style:normal;font-weight:normal;font-size:5.63404512px;line-height:0%;font-family:sans-serif;text-align:center;letter-spacing:0px;word-spacing:0px;text-anchor:middle;fill:#000000;fill-opacity:1;stroke:none;stroke-width:0.46950376px;stroke-linecap:butt;stroke-linejoin:miter;stroke-opacity:1"
         x="65.041069"
         y="133.85681"
         id="text7975"><tspan
           id="tspan7977"
           x="65.041069"
           y="133.85681"
           style="font-size:9.8777771px;line-height:1.25;font-family:sans-serif;stroke-width:0.46950376px">Unbalanced</tspan></text>
      <g
         transform="matrix(0.6561,0,0,0.6561,-19.046481,79.99665)"
         id="g750">
        <g
           style="font-style:normal;font-variant:normal;font-weight:normal;font-stretch:normal;letter-spacing:normal;word-spacing:normal;text-anchor:start;fill:none;fill-opacity:1;fill-rule:evenodd;stroke:#000000;stroke-linecap:butt;stroke-linejoin:miter;stroke-miterlimit:10.43299961;stroke-dasharray:none;stroke-dashoffset:0;stroke-opacity:1"
           id="content"
           transform="matrix(0.3,0,0,-0.3,-52.5,222.75)"
           xml:space="preserve"
           stroke-miterlimit="10.433"
           font-style="normal"
           font-variant="normal"
           font-weight="normal"
           font-stretch="normal"
           font-size-adjust="none"
           letter-spacing="normal"
           word-spacing="normal"><path
             style="fill:#000000;stroke-width:0"
             d="m 485.66,424.73 v 0.21 l -0.01,0.2 -0.01,0.2 -0.02,0.19 -0.02,0.18 -0.03,0.18 -0.03,0.17 -0.04,0.16 -0.04,0.16 -0.04,0.16 -0.05,0.14 -0.05,0.14 -0.05,0.13 -0.06,0.13 -0.07,0.12 -0.06,0.12 -0.07,0.1 -0.07,0.1 -0.08,0.1 -0.08,0.09 -0.08,0.08 -0.08,0.07 -0.08,0.07 -0.09,0.06 -0.09,0.05 -0.09,0.05 -0.1,0.04 -0.09,0.03 -0.1,0.02 -0.1,0.02 -0.1,0.01 h -0.1 c -1.3,0 -2.64,-1.18 -2.64,-2.34 0,-0.48 0.23,-1.03 0.73,-1.48 0.86,-0.75 1.75,-2.1 1.75,-4.19 0,-2 -0.95,-4.83 -2.48,-7.13 -1.5,-2.14 -3.35,-3.82 -5.69,-3.82 -2.85,0 -4.39,1.78 -4.83,4.46 0.55,1.3 1.69,4.49 1.69,5.9 0,0.59 -0.25,1.09 -0.89,1.09 -0.41,0 -0.96,-0.11 -1.35,-0.84 -0.54,-1 -1.15,-4.24 -1.15,-6.04 -1.64,-2.34 -3.63,-4.57 -6.77,-4.57 -3.3,0 -4.34,2.93 -4.34,5.71 0,6.24 5.09,11.47 5.09,12.11 0,0.55 -0.41,0.96 -0.95,0.96 -0.66,0 -1,-0.66 -1.3,-1.11 -2.55,-3.69 -4.44,-9.61 -4.44,-14.14 0,-3.44 1.16,-7.13 5.24,-7.13 3.53,0 5.87,2.49 7.67,5.24 0.45,-2.89 2.39,-5.24 5.48,-5.24 3.89,0 6.29,3.03 8.07,6.78 1.2,2.44 3.09,9.21 3.09,12.3 z"
             id="path735" /><path
             style="fill:#000000;stroke-width:0"
             d="m 497.78,420.54 v 0.05 l -0.01,0.06 v 0.05 l -0.01,0.06 -0.01,0.05 -0.02,0.06 -0.02,0.05 -0.01,0.06 -0.03,0.06 -0.02,0.05 -0.03,0.06 -0.03,0.05 -0.03,0.06 -0.04,0.05 -0.04,0.05 -0.04,0.05 -0.04,0.05 -0.05,0.05 -0.05,0.04 -0.05,0.05 -0.06,0.04 -0.06,0.03 -0.06,0.04 -0.06,0.03 -0.07,0.03 -0.07,0.03 -0.08,0.02 -0.08,0.02 -0.08,0.01 -0.08,0.01 -0.09,0.01 h -0.09 c -0.94,0 -1.95,-0.91 -1.95,-1.92 0,-0.59 0.45,-1.33 1.4,-1.33 1,0 1.96,0.99 1.96,1.92 z"
             id="path737" /><path
             style="fill:#000000;stroke-width:0"
             d="m 490.67,402.84 -0.06,-0.17 -0.05,-0.17 -0.03,-0.08 -0.02,-0.09 -0.03,-0.08 -0.02,-0.09 -0.02,-0.09 -0.02,-0.09 -0.02,-0.1 -0.02,-0.09 -0.01,-0.1 v -0.05 l -0.01,-0.05 v -0.06 -0.05 -0.05 -0.06 c 0,-1.64 1.39,-2.95 3.29,-2.95 3.49,0 5.03,4.79 5.03,5.33 0,0.45 -0.45,0.45 -0.56,0.45 -0.48,0 -0.53,-0.2 -0.67,-0.59 -0.8,-2.79 -2.33,-4.22 -3.69,-4.22 -0.7,0 -0.87,0.45 -0.87,1.22 0,0.79 0.25,1.46 0.56,2.23 0.34,0.94 0.73,1.87 1.11,2.78 0.31,0.84 1.58,4.02 1.72,4.44 0.09,0.34 0.2,0.76 0.2,1.11 0,1.64 -1.39,2.95 -3.31,2.95 -3.46,0 -5.05,-4.73 -5.05,-5.33 0,-0.45 0.49,-0.45 0.59,-0.45 0.49,0 0.52,0.17 0.63,0.56 0.91,3 2.44,4.25 3.72,4.25 0.56,0 0.87,-0.28 0.87,-1.22 0,-0.79 -0.2,-1.32 -1.07,-3.48 z"
             id="path739" /><path
             style="fill:#000000;stroke-width:0"
             d="m 552.93,422.84 v 0.1 0.1 l -0.01,0.09 v 0.09 l -0.01,0.09 -0.01,0.08 -0.01,0.08 -0.01,0.08 -0.02,0.07 -0.01,0.07 -0.02,0.07 -0.01,0.07 -0.02,0.06 -0.02,0.05 -0.02,0.06 -0.03,0.05 -0.02,0.04 -0.03,0.05 -0.02,0.04 -0.03,0.04 -0.03,0.03 -0.03,0.03 -0.02,0.03 -0.04,0.03 -0.03,0.02 -0.03,0.02 -0.03,0.02 -0.04,0.01 -0.03,0.01 -0.04,0.01 h -0.03 -0.04 c -0.25,0 -0.65,-0.34 -0.7,-1.29 -0.2,-4.78 -3.49,-7.52 -6.99,-7.52 -3.12,0 -5.51,2.14 -7.96,4.28 -2.54,2.3 -5.13,4.58 -8.52,4.58 -5.44,0 -8.37,-5.48 -8.37,-10.02 0,-1.59 0.65,-1.59 0.7,-1.59 0.55,0 0.7,1 0.7,1.16 0.19,5.47 3.94,7.67 6.97,7.67 3.14,0 5.53,-2.14 7.97,-4.3 2.55,-2.28 5.14,-4.58 8.51,-4.58 5.44,0 8.38,5.49 8.38,10.02 z"
             id="path741" /><path
             style="fill:#000000;stroke-width:0"
             d="m 584.16,438.09 v 0.05 0.06 0.05 0.05 0.05 0.05 0.04 0.05 0.04 0.04 l -0.01,0.04 v 0.04 0.04 0.03 0.04 l -0.01,0.03 -0.01,0.07 v 0.06 l -0.02,0.05 -0.01,0.05 -0.02,0.05 -0.02,0.04 -0.02,0.04 -0.02,0.03 -0.03,0.03 -0.03,0.03 -0.04,0.03 -0.04,0.02 -0.04,0.02 -0.03,0.01 -0.02,0.01 h -0.03 l -0.02,0.01 -0.03,0.01 h -0.03 l -0.03,0.01 h -0.03 l -0.04,0.01 h -0.03 -0.04 l -0.03,0.01 h -0.04 -0.04 -0.05 -0.04 -0.04 l -0.05,0.01 h -0.05 -0.05 -0.05 -0.05 c -3.09,-3.19 -7.47,-3.19 -9.06,-3.19 v -1.55 c 1,0 3.94,0 6.51,1.3 v -25.81 c 0,-1.8 -0.14,-2.39 -4.62,-2.39 h -1.6 v -1.55 c 1.75,0.16 6.08,0.16 8.07,0.16 2,0 6.33,0 8.08,-0.16 v 1.55 h -1.6 c -4.48,0 -4.64,0.54 -4.64,2.39 z"
             id="path743" /><path
             style="fill:#000000;stroke-width:0"
             d="m 616.35,441.67 0.01,0.03 0.01,0.03 0.02,0.03 0.01,0.03 0.01,0.02 0.01,0.03 0.01,0.03 v 0.02 l 0.02,0.05 0.02,0.05 0.01,0.04 0.02,0.05 0.01,0.04 0.01,0.04 0.01,0.03 0.01,0.04 0.01,0.03 0.01,0.03 v 0.03 l 0.01,0.02 0.01,0.03 v 0.02 l 0.01,0.02 v 0.02 0.02 0.02 l 0.01,0.01 v 0.02 0.01 0.01 0.01 0.01 0.01 0.01 0.01 0 c 0,0.55 -0.45,0.99 -1,0.99 -0.34,0 -0.7,-0.14 -0.84,-0.44 l -17.3,-47.48 c -0.25,-0.64 -0.25,-0.85 -0.25,-0.89 0,-0.55 0.45,-1 1,-1 0.66,0 0.8,0.34 1.09,1.18 z"
             id="path745" /><path
             style="fill:#000000;stroke-width:0"
             d="m 654.34,435 0.1,0.37 0.05,0.18 0.06,0.17 0.06,0.18 0.07,0.17 0.07,0.16 0.08,0.16 0.08,0.16 0.09,0.16 0.1,0.15 0.11,0.14 0.11,0.14 0.12,0.14 0.14,0.13 0.14,0.12 0.15,0.12 0.16,0.11 0.18,0.11 0.18,0.11 0.2,0.09 0.21,0.09 0.23,0.09 0.24,0.07 0.25,0.07 0.26,0.07 0.29,0.05 0.29,0.05 0.32,0.04 0.33,0.04 0.34,0.03 0.18,0.01 h 0.19 c 0.25,0 0.84,0.05 0.84,1 0,0.05 0,0.55 -0.64,0.55 -1.65,0 -3.39,-0.16 -5.03,-0.16 -1.7,0 -3.44,0.16 -5.09,0.16 -0.3,0 -0.89,0 -0.89,-1 0,-0.55 0.5,-0.55 0.89,-0.55 2.84,-0.04 3.39,-1.09 3.39,-2.18 0,-0.16 -0.1,-0.91 -0.14,-1.05 l -5.58,-22.17 -11.02,26 c -0.4,0.9 -0.45,0.95 -1.59,0.95 h -6.67 c -1,0 -1.46,0 -1.46,-1 0,-0.55 0.46,-0.55 1.39,-0.55 0.26,0 3.4,0 3.4,-0.45 l -6.68,-26.75 c -0.5,-2 -1.34,-3.59 -5.37,-3.73 -0.31,0 -0.86,-0.05 -0.86,-1 0,-0.35 0.25,-0.55 0.66,-0.55 1.59,0 3.32,0.16 4.98,0.16 1.69,0 3.48,-0.16 5.13,-0.16 0.24,0 0.89,0 0.89,1 0,0.5 -0.44,0.55 -0.99,0.55 -2.89,0.09 -3.3,1.18 -3.3,2.18 0,0.35 0.05,0.6 0.21,1.14 l 6.58,26.32 c 0.2,-0.3 0.2,-0.39 0.45,-0.89 l 12.4,-29.35 c 0.35,-0.86 0.49,-0.95 0.94,-0.95 0.55,0 0.55,0.16 0.8,1.05 z"
             id="path747" /></g>      </g>
      <g
         transform="matrix(0.6561,0,0,0.6561,-20.095585,93.349572)"
         id="g1004">
        <g
           style="font-style:normal;font-variant:normal;font-weight:normal;font-stretch:normal;letter-spacing:normal;word-spacing:normal;text-anchor:start;fill:none;fill-opacity:1;fill-rule:evenodd;stroke:#000000;stroke-linecap:butt;stroke-linejoin:miter;stroke-miterlimit:10.43299961;stroke-dasharray:none;stroke-dashoffset:0;stroke-opacity:1"
           id="g1002"
           transform="matrix(0.3,0,0,-0.3,-52.5,222.75)"
           xml:space="preserve"
           stroke-miterlimit="10.433"
           font-style="normal"
           font-variant="normal"
           font-weight="normal"
           font-stretch="normal"
           font-size-adjust="none"
           letter-spacing="normal"
           word-spacing="normal"><path
             style="fill:#000000;stroke-width:0"
             d="m 463.44,441.78 v 0.16 0.17 l -0.01,0.16 v 0.08 0.08 l -0.01,0.08 -0.01,0.08 -0.01,0.07 -0.01,0.07 -0.02,0.07 -0.01,0.07 -0.02,0.07 -0.02,0.06 -0.03,0.06 -0.03,0.06 -0.03,0.06 -0.03,0.05 -0.04,0.05 -0.04,0.05 -0.05,0.04 -0.05,0.04 -0.03,0.01 -0.03,0.02 -0.03,0.02 -0.03,0.01 -0.03,0.01 -0.03,0.02 -0.03,0.01 -0.04,0.01 -0.04,0.01 -0.03,0.01 h -0.04 l -0.04,0.01 h -0.04 l -0.05,0.01 h -0.04 -0.05 c -1,0 -1,-0.89 -1,-1.78 v -46.24 c 0,-0.9 0,-1.79 1,-1.79 1,0 1,0.89 1,1.79 z"
             id="path984" /><path
             style="fill:#000000;stroke-width:0"
             d="m 487.47,413.17 0.23,0.43 0.21,0.43 0.2,0.43 0.19,0.43 0.18,0.42 0.08,0.21 0.08,0.2 0.07,0.2 0.07,0.2 0.07,0.19 0.06,0.19 0.06,0.19 0.06,0.18 0.05,0.18 0.05,0.17 0.05,0.17 0.04,0.16 0.04,0.15 0.03,0.15 0.03,0.14 0.03,0.13 0.02,0.13 0.02,0.12 0.01,0.11 0.01,0.1 0.01,0.1 v 0.08 c 0,1.1 -0.61,2.19 -1.9,2.19 -3.08,0 -3.44,-5.28 -3.49,-6.63 -0.05,-0.75 -0.09,-0.79 -0.14,-0.84 -0.75,-0.75 -2.89,-2.2 -5.53,-2.2 -3.3,0 -5.19,2.14 -5.19,4.93 0,1.55 0.91,5.29 4.35,9.97 0.43,0.55 0.54,0.69 0.54,1.1 0,0.59 -0.5,1.04 -1.04,1.04 -0.5,0 -0.8,-0.29 -0.86,-0.29 -0.24,-0.25 -5.63,-6.78 -5.63,-13.91 0,-5.03 2.55,-8.33 6.78,-8.33 3.53,0 6.33,2.41 7.42,3.6 0.65,-1.5 2.1,-3.6 5.38,-3.6 4.28,0 8.12,3.14 10.31,6.53 3.05,4.74 3.49,11.11 3.49,11.82 0,3.82 -2.29,4.62 -3.33,4.62 -1.89,0 -3.78,-1.98 -3.78,-3.78 0,-1.3 0.93,-1.89 1.43,-2.3 1.3,-0.84 2.39,-2.03 2.39,-3.62 0,-3.3 -4.28,-7.78 -9.46,-7.78 -1.44,0 -2.78,0.4 -3.69,1.89 z"
             id="path986" /><path
             style="fill:#000000;stroke-width:0"
             d="m 514.92,441.78 v 0.16 0.17 l -0.01,0.16 v 0.08 l -0.01,0.08 v 0.08 l -0.01,0.08 -0.01,0.07 -0.01,0.07 -0.02,0.07 -0.02,0.07 -0.01,0.07 -0.03,0.06 -0.02,0.06 -0.03,0.06 -0.03,0.06 -0.04,0.05 -0.03,0.05 -0.05,0.05 -0.04,0.04 -0.05,0.04 -0.03,0.01 -0.03,0.02 -0.03,0.02 -0.03,0.01 -0.03,0.01 -0.03,0.02 -0.04,0.01 -0.03,0.01 -0.04,0.01 -0.04,0.01 h -0.04 l -0.04,0.01 h -0.04 l -0.04,0.01 h -0.05 -0.04 c -1,0 -1,-0.89 -1,-1.78 v -46.24 c 0,-0.9 0,-1.79 1,-1.79 1,0 1,0.89 1,1.79 z"
             id="path988" /><path
             style="fill:#000000;stroke-width:0"
             d="m 570.68,422.84 v 0.1 0.1 l -0.01,0.09 v 0.09 l -0.01,0.09 -0.01,0.08 -0.01,0.08 -0.01,0.08 -0.02,0.07 -0.01,0.07 -0.02,0.07 -0.01,0.07 -0.02,0.06 -0.02,0.05 -0.02,0.06 -0.03,0.05 -0.02,0.04 -0.03,0.05 -0.02,0.04 -0.03,0.04 -0.03,0.03 -0.03,0.03 -0.02,0.03 -0.04,0.03 -0.03,0.02 -0.03,0.02 -0.03,0.02 -0.04,0.01 -0.03,0.01 -0.04,0.01 h -0.03 -0.04 c -0.25,0 -0.65,-0.34 -0.7,-1.29 -0.2,-4.78 -3.49,-7.52 -6.99,-7.52 -3.12,0 -5.51,2.14 -7.96,4.28 -2.54,2.3 -5.13,4.58 -8.52,4.58 -5.44,0 -8.37,-5.48 -8.37,-10.02 0,-1.59 0.65,-1.59 0.7,-1.59 0.55,0 0.7,1 0.7,1.16 0.19,5.47 3.94,7.67 6.97,7.67 3.14,0 5.53,-2.14 7.97,-4.3 2.55,-2.28 5.14,-4.58 8.51,-4.58 5.44,0 8.38,5.49 8.38,10.02 z"
             id="path990" /><path
             style="fill:#000000;stroke-width:0"
             d="m 601.91,438.09 v 0.05 0.06 0.05 0.05 0.05 0.05 0.04 0.05 0.04 0.04 l -0.01,0.04 v 0.04 0.04 0.03 0.04 l -0.01,0.03 -0.01,0.07 v 0.06 l -0.02,0.05 -0.01,0.05 -0.02,0.05 -0.02,0.04 -0.02,0.04 -0.02,0.03 -0.03,0.03 -0.03,0.03 -0.04,0.03 -0.04,0.02 -0.04,0.02 -0.03,0.01 -0.02,0.01 h -0.03 l -0.02,0.01 -0.03,0.01 h -0.03 l -0.03,0.01 h -0.03 l -0.04,0.01 h -0.03 -0.04 l -0.03,0.01 h -0.04 -0.04 -0.05 -0.04 -0.04 l -0.05,0.01 h -0.05 -0.05 -0.05 -0.05 c -3.09,-3.19 -7.47,-3.19 -9.06,-3.19 v -1.55 c 1,0 3.94,0 6.51,1.3 v -25.81 c 0,-1.8 -0.14,-2.39 -4.62,-2.39 H 592 v -1.55 c 1.75,0.16 6.08,0.16 8.07,0.16 2,0 6.33,0 8.08,-0.16 v 1.55 h -1.6 c -4.48,0 -4.64,0.54 -4.64,2.39 z"
             id="path992" /><path
             style="fill:#000000;stroke-width:0"
             d="m 634.1,441.67 0.01,0.03 0.01,0.03 0.02,0.03 0.01,0.03 0.01,0.02 0.01,0.03 0.01,0.03 v 0.02 l 0.02,0.05 0.02,0.05 0.01,0.04 0.02,0.05 0.01,0.04 0.01,0.04 0.01,0.03 0.01,0.04 0.01,0.03 0.01,0.03 v 0.03 l 0.01,0.02 0.01,0.03 v 0.02 l 0.01,0.02 v 0.02 0.02 0.02 l 0.01,0.01 v 0.02 0.01 0.01 0.01 0.01 0.01 0.01 0.01 0 c 0,0.55 -0.45,0.99 -1,0.99 -0.34,0 -0.7,-0.14 -0.84,-0.44 l -17.3,-47.48 c -0.25,-0.64 -0.25,-0.85 -0.25,-0.89 0,-0.55 0.45,-1 1,-1 0.66,0 0.8,0.34 1.09,1.18 z"
             id="path994" /><path
             style="fill:#000000;stroke-width:0"
             d="m 656.57,405.73 -8.76,19.37 c -0.34,0.8 -0.59,0.8 -0.75,0.8 -0.05,0 -0.3,0 -0.84,-0.39 l -4.74,-3.6 c -0.64,-0.5 -0.64,-0.64 -0.64,-0.79 0,-0.25 0.14,-0.55 0.5,-0.55 0.3,0 1.14,0.7 1.69,1.09 0.29,0.25 1.04,0.8 1.59,1.21 l 9.81,-21.58 c 0.36,-0.8 0.61,-0.8 1.05,-0.8 0.75,0 0.91,0.3 1.25,1 l 22.62,46.83 c 0.35,0.7 0.35,0.89 0.35,1 0,0.5 -0.41,1 -1,1 -0.39,0 -0.75,-0.25 -1.14,-1.05 z"
             id="path996" /><polyline
             style="fill:#000000;fill-rule:nonzero;stroke-width:0"
             points="679,448 724.48,448 724.48,450.04 679,450.04 "
             id="polyline998" /><path
             style="fill:#000000;stroke-width:0"
             d="m 716.27,435 0.1,0.37 0.05,0.18 0.06,0.17 0.06,0.18 0.07,0.17 0.07,0.16 0.08,0.16 0.08,0.16 0.09,0.16 0.1,0.15 0.11,0.14 0.11,0.14 0.12,0.14 0.14,0.13 0.14,0.12 0.15,0.12 0.16,0.11 0.18,0.11 0.18,0.11 0.2,0.09 0.21,0.09 0.23,0.09 0.24,0.07 0.25,0.07 0.26,0.07 0.29,0.05 0.29,0.05 0.32,0.04 0.33,0.04 0.34,0.03 0.18,0.01 h 0.19 c 0.25,0 0.84,0.05 0.84,1 0,0.05 0,0.55 -0.64,0.55 -1.65,0 -3.39,-0.16 -5.03,-0.16 -1.7,0 -3.44,0.16 -5.09,0.16 -0.3,0 -0.89,0 -0.89,-1 0,-0.55 0.5,-0.55 0.89,-0.55 2.84,-0.04 3.39,-1.09 3.39,-2.18 0,-0.16 -0.1,-0.91 -0.14,-1.05 l -5.58,-22.17 -11.02,26 c -0.4,0.9 -0.45,0.95 -1.59,0.95 h -6.67 c -1,0 -1.46,0 -1.46,-1 0,-0.55 0.46,-0.55 1.39,-0.55 0.25,0 3.4,0 3.4,-0.45 l -6.68,-26.75 c -0.5,-2 -1.34,-3.59 -5.37,-3.73 -0.31,0 -0.86,-0.05 -0.86,-1 0,-0.35 0.25,-0.55 0.66,-0.55 1.59,0 3.32,0.16 4.98,0.16 1.69,0 3.48,-0.16 5.12,-0.16 0.25,0 0.9,0 0.9,1 0,0.5 -0.44,0.55 -0.99,0.55 -2.89,0.09 -3.3,1.18 -3.3,2.18 0,0.35 0.05,0.6 0.21,1.14 l 6.58,26.32 c 0.2,-0.3 0.2,-0.39 0.45,-0.89 l 12.4,-29.35 c 0.35,-0.86 0.49,-0.95 0.94,-0.95 0.55,0 0.55,0.16 0.8,1.05 z"
             id="path1000" /></g>      </g>
    </g>
    <g
       class="fragment"
       data-fragment-index="4"
       id="g1279">
      <text
         xml:space="preserve"
         style="font-style:normal;font-weight:normal;font-size:5.63404512px;line-height:0%;font-family:sans-serif;text-align:center;letter-spacing:0px;word-spacing:0px;text-anchor:middle;fill:#000000;fill-opacity:1;stroke:none;stroke-width:0.46950376px;stroke-linecap:butt;stroke-linejoin:miter;stroke-opacity:1"
         x="137.09914"
         y="133.85681"
         id="text7971"><tspan
           id="tspan7973"
           x="137.09914"
           y="133.85681"
           style="font-size:9.8777771px;line-height:1.25;font-family:sans-serif;stroke-width:0.46950376px">Balanced</tspan></text>
      <g
         id="g866"
         transform="matrix(0.6561,0,0,0.6561,58.934281,79.99665)">
        <g
           word-spacing="normal"
           letter-spacing="normal"
           font-size-adjust="none"
           font-stretch="normal"
           font-weight="normal"
           font-variant="normal"
           font-style="normal"
           stroke-miterlimit="10.433"
           xml:space="preserve"
           transform="matrix(0.3,0,0,-0.3,-52.5,222.75)"
           id="g864"
           style="font-style:normal;font-variant:normal;font-weight:normal;font-stretch:normal;letter-spacing:normal;word-spacing:normal;text-anchor:start;fill:none;fill-opacity:1;fill-rule:evenodd;stroke:#000000;stroke-linecap:butt;stroke-linejoin:miter;stroke-miterlimit:10.43299961;stroke-dasharray:none;stroke-dashoffset:0;stroke-opacity:1"><path
             id="path846"
             d="m 485.66,424.73 v 0.21 l -0.01,0.2 -0.01,0.2 -0.02,0.19 -0.02,0.18 -0.03,0.18 -0.03,0.17 -0.04,0.16 -0.04,0.16 -0.04,0.16 -0.05,0.14 -0.05,0.14 -0.05,0.13 -0.06,0.13 -0.07,0.12 -0.06,0.12 -0.07,0.1 -0.07,0.1 -0.08,0.1 -0.08,0.09 -0.08,0.08 -0.08,0.07 -0.08,0.07 -0.09,0.06 -0.09,0.05 -0.09,0.05 -0.1,0.04 -0.09,0.03 -0.1,0.02 -0.1,0.02 -0.1,0.01 h -0.1 c -1.3,0 -2.64,-1.18 -2.64,-2.34 0,-0.48 0.23,-1.03 0.73,-1.48 0.86,-0.75 1.75,-2.1 1.75,-4.19 0,-2 -0.95,-4.83 -2.48,-7.13 -1.5,-2.14 -3.35,-3.82 -5.69,-3.82 -2.85,0 -4.39,1.78 -4.83,4.46 0.55,1.3 1.69,4.49 1.69,5.9 0,0.59 -0.25,1.09 -0.89,1.09 -0.41,0 -0.96,-0.11 -1.35,-0.84 -0.54,-1 -1.15,-4.24 -1.15,-6.04 -1.64,-2.34 -3.63,-4.57 -6.77,-4.57 -3.3,0 -4.34,2.93 -4.34,5.71 0,6.24 5.09,11.47 5.09,12.11 0,0.55 -0.41,0.96 -0.95,0.96 -0.66,0 -1,-0.66 -1.3,-1.11 -2.55,-3.69 -4.44,-9.61 -4.44,-14.14 0,-3.44 1.16,-7.13 5.24,-7.13 3.53,0 5.87,2.49 7.67,5.24 0.45,-2.89 2.39,-5.24 5.48,-5.24 3.89,0 6.29,3.03 8.07,6.78 1.2,2.44 3.09,9.21 3.09,12.3 z"
             style="fill:#000000;stroke-width:0" /><path
             id="path848"
             d="m 497.78,420.54 v 0.05 l -0.01,0.06 v 0.05 l -0.01,0.06 -0.01,0.05 -0.02,0.06 -0.02,0.05 -0.01,0.06 -0.03,0.06 -0.02,0.05 -0.03,0.06 -0.03,0.05 -0.03,0.06 -0.04,0.05 -0.04,0.05 -0.04,0.05 -0.04,0.05 -0.05,0.05 -0.05,0.04 -0.05,0.05 -0.06,0.04 -0.06,0.03 -0.06,0.04 -0.06,0.03 -0.07,0.03 -0.07,0.03 -0.08,0.02 -0.08,0.02 -0.08,0.01 -0.08,0.01 -0.09,0.01 h -0.09 c -0.94,0 -1.95,-0.91 -1.95,-1.92 0,-0.59 0.45,-1.33 1.4,-1.33 1,0 1.96,0.99 1.96,1.92 z"
             style="fill:#000000;stroke-width:0" /><path
             id="path850"
             d="m 490.67,402.84 -0.06,-0.17 -0.05,-0.17 -0.03,-0.08 -0.02,-0.09 -0.03,-0.08 -0.02,-0.09 -0.02,-0.09 -0.02,-0.09 -0.02,-0.1 -0.02,-0.09 -0.01,-0.1 v -0.05 l -0.01,-0.05 v -0.06 -0.05 -0.05 -0.06 c 0,-1.64 1.39,-2.95 3.29,-2.95 3.49,0 5.03,4.79 5.03,5.33 0,0.45 -0.45,0.45 -0.56,0.45 -0.48,0 -0.53,-0.2 -0.67,-0.59 -0.8,-2.79 -2.33,-4.22 -3.69,-4.22 -0.7,0 -0.87,0.45 -0.87,1.22 0,0.79 0.25,1.46 0.56,2.23 0.34,0.94 0.73,1.87 1.11,2.78 0.31,0.84 1.58,4.02 1.72,4.44 0.09,0.34 0.2,0.76 0.2,1.11 0,1.64 -1.39,2.95 -3.31,2.95 -3.46,0 -5.05,-4.73 -5.05,-5.33 0,-0.45 0.49,-0.45 0.59,-0.45 0.49,0 0.52,0.17 0.63,0.56 0.91,3 2.44,4.25 3.72,4.25 0.56,0 0.87,-0.28 0.87,-1.22 0,-0.79 -0.2,-1.32 -1.07,-3.48 z"
             style="fill:#000000;stroke-width:0" /><path
             id="path852"
             d="m 552.93,422.84 v 0.1 0.1 l -0.01,0.09 v 0.09 l -0.01,0.09 -0.01,0.08 -0.01,0.08 -0.01,0.08 -0.02,0.07 -0.01,0.07 -0.02,0.07 -0.01,0.07 -0.02,0.06 -0.02,0.05 -0.02,0.06 -0.03,0.05 -0.02,0.04 -0.03,0.05 -0.02,0.04 -0.03,0.04 -0.03,0.03 -0.03,0.03 -0.02,0.03 -0.04,0.03 -0.03,0.02 -0.03,0.02 -0.03,0.02 -0.04,0.01 -0.03,0.01 -0.04,0.01 h -0.03 -0.04 c -0.25,0 -0.65,-0.34 -0.7,-1.29 -0.2,-4.78 -3.49,-7.52 -6.99,-7.52 -3.12,0 -5.51,2.14 -7.96,4.28 -2.54,2.3 -5.13,4.58 -8.52,4.58 -5.44,0 -8.37,-5.48 -8.37,-10.02 0,-1.59 0.65,-1.59 0.7,-1.59 0.55,0 0.7,1 0.7,1.16 0.19,5.47 3.94,7.67 6.97,7.67 3.14,0 5.53,-2.14 7.97,-4.3 2.55,-2.28 5.14,-4.58 8.51,-4.58 5.44,0 8.38,5.49 8.38,10.02 z"
             style="fill:#000000;stroke-width:0" /><path
             id="path854"
             d="m 584.16,438.09 v 0.05 0.06 0.05 0.05 0.05 0.05 0.04 0.05 0.04 0.04 l -0.01,0.04 v 0.04 0.04 0.03 0.04 l -0.01,0.03 -0.01,0.07 v 0.06 l -0.02,0.05 -0.01,0.05 -0.02,0.05 -0.02,0.04 -0.02,0.04 -0.02,0.03 -0.03,0.03 -0.03,0.03 -0.04,0.03 -0.04,0.02 -0.04,0.02 -0.03,0.01 -0.02,0.01 h -0.03 l -0.02,0.01 -0.03,0.01 h -0.03 l -0.03,0.01 h -0.03 l -0.04,0.01 h -0.03 -0.04 l -0.03,0.01 h -0.04 -0.04 -0.05 -0.04 -0.04 l -0.05,0.01 h -0.05 -0.05 -0.05 -0.05 c -3.09,-3.19 -7.47,-3.19 -9.06,-3.19 v -1.55 c 1,0 3.94,0 6.51,1.3 v -25.81 c 0,-1.8 -0.14,-2.39 -4.62,-2.39 h -1.6 v -1.55 c 1.75,0.16 6.08,0.16 8.07,0.16 2,0 6.33,0 8.08,-0.16 v 1.55 h -1.6 c -4.48,0 -4.64,0.54 -4.64,2.39 z"
             style="fill:#000000;stroke-width:0" /><path
             id="path856"
             d="m 616.35,441.67 0.01,0.03 0.01,0.03 0.02,0.03 0.01,0.03 0.01,0.02 0.01,0.03 0.01,0.03 v 0.02 l 0.02,0.05 0.02,0.05 0.01,0.04 0.02,0.05 0.01,0.04 0.01,0.04 0.01,0.03 0.01,0.04 0.01,0.03 0.01,0.03 v 0.03 l 0.01,0.02 0.01,0.03 v 0.02 l 0.01,0.02 v 0.02 0.02 0.02 l 0.01,0.01 v 0.02 0.01 0.01 0.01 0.01 0.01 0.01 0.01 0 c 0,0.55 -0.45,0.99 -1,0.99 -0.34,0 -0.7,-0.14 -0.84,-0.44 l -17.3,-47.48 c -0.25,-0.64 -0.25,-0.85 -0.25,-0.89 0,-0.55 0.45,-1 1,-1 0.66,0 0.8,0.34 1.09,1.18 z"
             style="fill:#000000;stroke-width:0" /><path
             id="path858"
             d="m 638.82,405.73 -8.77,19.37 c -0.34,0.8 -0.59,0.8 -0.75,0.8 -0.05,0 -0.3,0 -0.84,-0.39 l -4.74,-3.6 c -0.64,-0.5 -0.64,-0.64 -0.64,-0.79 0,-0.25 0.14,-0.55 0.5,-0.55 0.3,0 1.14,0.7 1.69,1.09 0.3,0.25 1.05,0.8 1.59,1.21 l 9.82,-21.58 c 0.35,-0.8 0.6,-0.8 1.04,-0.8 0.75,0 0.91,0.3 1.25,1 l 22.63,46.83 c 0.34,0.7 0.34,0.89 0.34,1 0,0.5 -0.41,1 -1,1 -0.39,0 -0.75,-0.25 -1.14,-1.05 z"
             style="fill:#000000;stroke-width:0" /><polyline
             id="polyline860"
             points="661,448 706.48,448 706.48,450.04 661,450.04 "
             style="fill:#000000;fill-rule:nonzero;stroke-width:0" /><path
             id="path862"
             d="m 698.51,435 0.1,0.37 0.05,0.18 0.06,0.17 0.06,0.18 0.07,0.17 0.07,0.16 0.08,0.16 0.08,0.16 0.09,0.16 0.1,0.15 0.1,0.14 0.12,0.14 0.12,0.14 0.13,0.13 0.15,0.12 0.15,0.12 0.16,0.11 0.18,0.11 0.18,0.11 0.2,0.09 0.21,0.09 0.23,0.09 0.23,0.07 0.26,0.07 0.26,0.07 0.28,0.05 0.3,0.05 0.32,0.04 0.33,0.04 0.34,0.03 0.18,0.01 h 0.19 c 0.25,0 0.84,0.05 0.84,1 0,0.05 0,0.55 -0.64,0.55 -1.66,0 -3.39,-0.16 -5.03,-0.16 -1.71,0 -3.44,0.16 -5.09,0.16 -0.3,0 -0.9,0 -0.9,-1 0,-0.55 0.5,-0.55 0.9,-0.55 2.84,-0.04 3.38,-1.09 3.38,-2.18 0,-0.16 -0.09,-0.91 -0.13,-1.05 l -5.58,-22.17 -11.02,26 c -0.4,0.9 -0.45,0.95 -1.59,0.95 h -6.68 c -1,0 -1.45,0 -1.45,-1 0,-0.55 0.45,-0.55 1.39,-0.55 0.25,0 3.39,0 3.39,-0.45 l -6.67,-26.75 c -0.5,-2 -1.34,-3.59 -5.37,-3.73 -0.32,0 -0.86,-0.05 -0.86,-1 0,-0.35 0.25,-0.55 0.65,-0.55 1.6,0 3.33,0.16 4.99,0.16 1.68,0 3.48,-0.16 5.12,-0.16 0.25,0 0.89,0 0.89,1 0,0.5 -0.43,0.55 -0.98,0.55 -2.89,0.09 -3.3,1.18 -3.3,2.18 0,0.35 0.05,0.6 0.2,1.14 l 6.58,26.32 c 0.21,-0.3 0.21,-0.39 0.46,-0.89 l 12.4,-29.35 c 0.35,-0.86 0.49,-0.95 0.94,-0.95 0.55,0 0.55,0.16 0.8,1.05 z"
             style="fill:#000000;stroke-width:0" /></g>      </g>
      <g
         id="g1156"
         transform="matrix(0.6561,0,0,0.6561,57.885177,93.349572)">
        <g
           word-spacing="normal"
           letter-spacing="normal"
           font-size-adjust="none"
           font-stretch="normal"
           font-weight="normal"
           font-variant="normal"
           font-style="normal"
           stroke-miterlimit="10.433"
           xml:space="preserve"
           transform="matrix(0.3,0,0,-0.3,-52.5,222.75)"
           id="g1154"
           style="font-style:normal;font-variant:normal;font-weight:normal;font-stretch:normal;letter-spacing:normal;word-spacing:normal;text-anchor:start;fill:none;fill-opacity:1;fill-rule:evenodd;stroke:#000000;stroke-linecap:butt;stroke-linejoin:miter;stroke-miterlimit:10.43299961;stroke-dasharray:none;stroke-dashoffset:0;stroke-opacity:1"><path
             id="path1144"
             d="m 463.44,441.78 v 0.16 0.17 l -0.01,0.16 v 0.08 0.08 l -0.01,0.08 -0.01,0.08 -0.01,0.07 -0.01,0.07 -0.02,0.07 -0.01,0.07 -0.02,0.07 -0.02,0.06 -0.03,0.06 -0.03,0.06 -0.03,0.06 -0.03,0.05 -0.04,0.05 -0.04,0.05 -0.05,0.04 -0.05,0.04 -0.03,0.01 -0.03,0.02 -0.03,0.02 -0.03,0.01 -0.03,0.01 -0.03,0.02 -0.03,0.01 -0.04,0.01 -0.04,0.01 -0.03,0.01 h -0.04 l -0.04,0.01 h -0.04 l -0.05,0.01 h -0.04 -0.05 c -1,0 -1,-0.89 -1,-1.78 v -46.24 c 0,-0.9 0,-1.79 1,-1.79 1,0 1,0.89 1,1.79 z"
             style="fill:#000000;stroke-width:0" /><path
             id="path1146"
             d="m 487.47,413.17 0.23,0.43 0.21,0.43 0.2,0.43 0.19,0.43 0.18,0.42 0.08,0.21 0.08,0.2 0.07,0.2 0.07,0.2 0.07,0.19 0.06,0.19 0.06,0.19 0.06,0.18 0.05,0.18 0.05,0.17 0.05,0.17 0.04,0.16 0.04,0.15 0.03,0.15 0.03,0.14 0.03,0.13 0.02,0.13 0.02,0.12 0.01,0.11 0.01,0.1 0.01,0.1 v 0.08 c 0,1.1 -0.61,2.19 -1.9,2.19 -3.08,0 -3.44,-5.28 -3.49,-6.63 -0.05,-0.75 -0.09,-0.79 -0.14,-0.84 -0.75,-0.75 -2.89,-2.2 -5.53,-2.2 -3.3,0 -5.19,2.14 -5.19,4.93 0,1.55 0.91,5.29 4.35,9.97 0.43,0.55 0.54,0.69 0.54,1.1 0,0.59 -0.5,1.04 -1.04,1.04 -0.5,0 -0.8,-0.29 -0.86,-0.29 -0.24,-0.25 -5.63,-6.78 -5.63,-13.91 0,-5.03 2.55,-8.33 6.78,-8.33 3.53,0 6.33,2.41 7.42,3.6 0.65,-1.5 2.1,-3.6 5.38,-3.6 4.28,0 8.12,3.14 10.31,6.53 3.05,4.74 3.49,11.11 3.49,11.82 0,3.82 -2.29,4.62 -3.33,4.62 -1.89,0 -3.78,-1.98 -3.78,-3.78 0,-1.3 0.93,-1.89 1.43,-2.3 1.3,-0.84 2.39,-2.03 2.39,-3.62 0,-3.3 -4.28,-7.78 -9.46,-7.78 -1.44,0 -2.78,0.4 -3.69,1.89 z"
             style="fill:#000000;stroke-width:0" /><path
             id="path1148"
             d="m 514.92,441.78 v 0.16 0.17 l -0.01,0.16 v 0.08 l -0.01,0.08 v 0.08 l -0.01,0.08 -0.01,0.07 -0.01,0.07 -0.02,0.07 -0.02,0.07 -0.01,0.07 -0.03,0.06 -0.02,0.06 -0.03,0.06 -0.03,0.06 -0.04,0.05 -0.03,0.05 -0.05,0.05 -0.04,0.04 -0.05,0.04 -0.03,0.01 -0.03,0.02 -0.03,0.02 -0.03,0.01 -0.03,0.01 -0.03,0.02 -0.04,0.01 -0.03,0.01 -0.04,0.01 -0.04,0.01 h -0.04 l -0.04,0.01 h -0.04 l -0.04,0.01 h -0.05 -0.04 c -1,0 -1,-0.89 -1,-1.78 v -46.24 c 0,-0.9 0,-1.79 1,-1.79 1,0 1,0.89 1,1.79 z"
             style="fill:#000000;stroke-width:0" /><path
             id="path1150"
             d="m 570.68,422.84 v 0.1 0.1 l -0.01,0.09 v 0.09 l -0.01,0.09 -0.01,0.08 -0.01,0.08 -0.01,0.08 -0.02,0.07 -0.01,0.07 -0.02,0.07 -0.01,0.07 -0.02,0.06 -0.02,0.05 -0.02,0.06 -0.03,0.05 -0.02,0.04 -0.03,0.05 -0.02,0.04 -0.03,0.04 -0.03,0.03 -0.03,0.03 -0.02,0.03 -0.04,0.03 -0.03,0.02 -0.03,0.02 -0.03,0.02 -0.04,0.01 -0.03,0.01 -0.04,0.01 h -0.03 -0.04 c -0.25,0 -0.65,-0.34 -0.7,-1.29 -0.2,-4.78 -3.49,-7.52 -6.99,-7.52 -3.12,0 -5.51,2.14 -7.96,4.28 -2.54,2.3 -5.13,4.58 -8.52,4.58 -5.44,0 -8.37,-5.48 -8.37,-10.02 0,-1.59 0.65,-1.59 0.7,-1.59 0.55,0 0.7,1 0.7,1.16 0.19,5.47 3.94,7.67 6.97,7.67 3.14,0 5.53,-2.14 7.97,-4.3 2.55,-2.28 5.14,-4.58 8.51,-4.58 5.44,0 8.38,5.49 8.38,10.02 z"
             style="fill:#000000;stroke-width:0" /><path
             id="path1152"
             d="m 601.91,438.09 v 0.05 0.06 0.05 0.05 0.05 0.05 0.04 0.05 0.04 0.04 l -0.01,0.04 v 0.04 0.04 0.03 0.04 l -0.01,0.03 -0.01,0.07 v 0.06 l -0.02,0.05 -0.01,0.05 -0.02,0.05 -0.02,0.04 -0.02,0.04 -0.02,0.03 -0.03,0.03 -0.03,0.03 -0.04,0.03 -0.04,0.02 -0.04,0.02 -0.03,0.01 -0.02,0.01 h -0.03 l -0.02,0.01 -0.03,0.01 h -0.03 l -0.03,0.01 h -0.03 l -0.04,0.01 h -0.03 -0.04 l -0.03,0.01 h -0.04 -0.04 -0.05 -0.04 -0.04 l -0.05,0.01 h -0.05 -0.05 -0.05 -0.05 c -3.09,-3.19 -7.47,-3.19 -9.06,-3.19 v -1.55 c 1,0 3.94,0 6.51,1.3 v -25.81 c 0,-1.8 -0.14,-2.39 -4.62,-2.39 H 592 v -1.55 c 1.75,0.16 6.08,0.16 8.07,0.16 2,0 6.33,0 8.08,-0.16 v 1.55 h -1.6 c -4.48,0 -4.64,0.54 -4.64,2.39 z"
             style="fill:#000000;stroke-width:0" /></g>      </g>
    </g>
  </g>
</svg>
