<?xml version="1.0" encoding="UTF-8" standalone="no"?>
<!-- Created with Inkscape (http://www.inkscape.org/) -->

<svg
   xmlns:dc="http://purl.org/dc/elements/1.1/"
   xmlns:cc="http://creativecommons.org/ns#"
   xmlns:rdf="http://www.w3.org/1999/02/22-rdf-syntax-ns#"
   xmlns:svg="http://www.w3.org/2000/svg"
   xmlns="http://www.w3.org/2000/svg"
   xmlns:xlink="http://www.w3.org/1999/xlink"
   xmlns:sodipodi="http://sodipodi.sourceforge.net/DTD/sodipodi-0.dtd"
   xmlns:inkscape="http://www.inkscape.org/namespaces/inkscape"
   width="209.79306mm"
   height="148.79163mm"
   viewBox="0 0 209.79305 148.79163"
   version="1.1"
   id="svg32404"
   inkscape:version="0.92.1 r15371"
   sodipodi:docname="capacity.svg">
  <sodipodi:namedview
     id="base"
     pagecolor="#ffffff"
     bordercolor="#666666"
     borderopacity="1.0"
     inkscape:pageopacity="0.0"
     inkscape:pageshadow="2"
     inkscape:zoom="1.979899"
     inkscape:cx="241.13687"
     inkscape:cy="308.48615"
     inkscape:document-units="mm"
     inkscape:current-layer="axes_1"
     showgrid="false"
     inkscape:window-width="3840"
     inkscape:window-height="2021"
     inkscape:window-x="0"
     inkscape:window-y="65"
     inkscape:window-maximized="1"
     fit-margin-top="0"
     fit-margin-left="0"
     fit-margin-right="0"
     fit-margin-bottom="0" />
  <defs
     id="defs32398">
    <clipPath
       id="p2cedc9d7a2">
      <rect
         id="rect32138"
         y="21.92"
         x="42.599777"
         width="58.407574"
         height="79.980392" />
    </clipPath>
    <clipPath
       id="clipPath32167">
      <rect
         id="rect32165"
         y="21.92"
         x="42.599777"
         width="58.407574"
         height="79.980392" />
    </clipPath>
    <path
       style="stroke:#000000;stroke-width:0.5"
       id="m5e8a867127"
       d="M 0,0 V -4"
       inkscape:connector-curvature="0" />
    <path
       id="DejaVuSans-30"
       d="m 31.78125,66.40625 q -7.609375,0 -11.453125,-7.5 Q 16.5,51.421875 16.5,36.375 q 0,-14.984375 3.828125,-22.484375 3.84375,-7.5 11.453125,-7.5 7.671875,0 11.5,7.5 3.84375,7.5 3.84375,22.484375 0,15.046875 -3.84375,22.53125 -3.828125,7.5 -11.5,7.5 m 0,7.8125 q 12.265625,0 18.734375,-9.703125 6.46875,-9.6875 6.46875,-28.140625 0,-18.40625 -6.46875,-28.109375 -6.46875,-9.6875 -18.734375,-9.6875 -12.25,0 -18.71875,9.6875 Q 6.59375,17.96875 6.59375,36.375 q 0,18.453125 6.46875,28.140625 6.46875,9.703125 18.71875,9.703125"
       inkscape:connector-curvature="0" />
    <path
       id="Cmmi10-66"
       d="m 9.71875,-16.5 q 1.859375,-1.421875 4.484375,-1.421875 3.578125,0 5.8125,7.90625 0.9375,3.8125 5.078125,25.109375 l 4.59375,24.5 h -8.59375 q -0.96875,0 -0.96875,1.328125 0.390625,2.1875 1.265625,2.1875 h 8.9375 l 1.171875,6.5 q 0.578125,3.03125 1.0625,5.203125 0.5,2.171875 1.0625,4.015625 0.5625,1.859375 1.671875,4.15625 1.71875,3.28125 4.625,5.40625 2.90625,2.125 6.265625,2.125 2.203125,0 4.28125,-0.8125 2.078125,-0.8125 3.390625,-2.421875 1.3125,-1.609375 1.3125,-3.796875 0,-2.546875 -1.6875,-4.4375 -1.671875,-1.875 -4.0625,-1.875 -1.625,0 -2.765625,1 -1.140625,1.015625 -1.140625,2.625 0,2.1875 1.484375,3.828125 1.484375,1.640625 3.6875,1.875 -1.859375,1.421875 -4.59375,1.421875 -1.515625,0 -2.859375,-1.421875 Q 41.890625,65.09375 41.5,63.484375 40.875,60.9375 38.71875,49.703125 L 37.5,43.109375 h 10.296875 q 0.984375,0 0.984375,-1.3125 -0.04687,-0.25 -0.203125,-0.859375 Q 48.4375,40.328125 48.171875,39.953125 47.90625,39.59375 47.515625,39.59375 H 36.8125 L 32.171875,15.1875 Q 31.296875,9.859375 30.140625,4.359375 29,-1.125 26.921875,-6.90625 q -2.0625,-5.796875 -5.296875,-9.703125 -3.21875,-3.90625 -7.609375,-3.90625 -3.375,0 -6.03125,1.9375 -2.65625,1.921875 -2.65625,5.09375 0,2.546875 1.625,4.4375 1.640625,1.875 4.125,1.875 1.671875,0 2.78125,-1 1.125,-1.015625 1.125,-2.625 0,-2.140625 -1.59375,-3.921875 Q 11.8125,-16.5 9.71875,-16.5"
       inkscape:connector-curvature="0" />
    <path
       id="STIXGeneral-Regular-22c6"
       d="M 66.5,36.5 43.90625,22.796875 54.59375,-1.296875 35,16.59375 15.40625,-1.296875 26.09375,22.796875 3.5,36.5 29.703125,33.5 35,59.703125 40.296875,33.5 Z"
       inkscape:connector-curvature="0" />
    <path
       id="Cmr10-65"
       d="m 24.90625,-1.125 q -6.109375,0 -11.21875,3.203125 -5.09375,3.203125 -8,8.546875 -2.90625,5.34375 -2.90625,11.296875 0,5.859375 2.65625,11.125 2.671875,5.28125 7.421875,8.53125 4.765625,3.25 10.625,3.25 4.59375,0 7.984375,-1.546875 Q 34.859375,41.75 37.0625,39.015625 39.265625,36.28125 40.375,32.5625 41.5,28.859375 41.5,24.421875 41.5,23.09375 40.484375,23.09375 H 11.53125 v -1.078125 q 0,-8.296875 3.34375,-14.25 Q 18.21875,1.8125 25.78125,1.8125 q 3.078125,0 5.6875,1.359375 2.609375,1.375 4.53125,3.8125 1.9375,2.4375 2.625,5.21875 0.09375,0.34375 0.359375,0.609375 0.28125,0.28125 0.609375,0.28125 h 0.890625 Q 41.5,13.09375 41.5,11.8125 40.09375,6.15625 35.40625,2.515625 30.71875,-1.125 24.90625,-1.125 M 11.625,25.59375 h 22.796875 q 0,3.75 -1.046875,7.609375 -1.046875,3.859375 -3.5,6.421875 -2.4375,2.5625 -6.390625,2.5625 -5.65625,0 -8.765625,-5.296875 Q 11.625,31.59375 11.625,25.59375"
       inkscape:connector-curvature="0" />
    <path
       id="Cmr10-78"
       d="m 1.21875,0 v 3.515625 q 3.8125,0 7.171875,1.484375 3.375,1.5 5.71875,4.421875 L 23.1875,21 11.375,36.375 Q 9.625,38.578125 7.546875,39.078125 5.46875,39.59375 1.703125,39.59375 v 3.515625 h 20.8125 V 39.59375 q -1.328125,0 -2.484375,-0.59375 -1.140625,-0.578125 -1.140625,-1.6875 0,-0.390625 0.296875,-0.9375 l 8.015625,-10.390625 6,7.703125 q 1.21875,1.46875 1.21875,2.9375 0,1.21875 -0.8125,2.09375 -0.796875,0.875 -2.109375,0.875 v 3.515625 H 49.90625 V 39.59375 q -3.859375,0 -7.25,-1.484375 Q 39.265625,36.625 36.921875,33.6875 L 29,23.578125 41.796875,6.6875 Q 43.703125,4.5 45.75,4 47.796875,3.515625 51.609375,3.515625 V 0 H 30.8125 v 3.515625 q 1.21875,0 2.34375,0.578125 1.125,0.59375 1.125,1.71875 0,0.4375 -0.296875,0.875 L 25,18.609375 17.828125,9.421875 q -1.125,-1.265625 -1.125,-2.921875 0,-1.21875 0.828125,-2.109375 0.828125,-0.875 1.953125,-0.875 V 0 Z"
       inkscape:connector-curvature="0" />
    <path
       id="Cmr10-63"
       d="m 24.90625,-1.125 q -6.0625,0 -11,3.140625 -4.921875,3.15625 -7.75,8.40625 -2.828125,5.25 -2.828125,11.15625 0,5.90625 2.796875,11.328125 2.8125,5.421875 7.765625,8.671875 4.953125,3.25 11.015625,3.25 5.859375,0 10.65625,-2.296875 4.8125,-2.296875 4.8125,-7.515625 0,-1.953125 -1.390625,-3.40625 -1.390625,-1.4375 -3.390625,-1.4375 -2,0 -3.390625,1.4375 -1.390625,1.453125 -1.390625,3.40625 0,1.75 1.125,3.046875 1.125,1.296875 2.78125,1.640625 -3.46875,2.1875 -9.71875,2.1875 -4.78125,0 -7.71875,-3.171875 -2.921875,-3.171875 -4.09375,-7.859375 -1.171875,-4.6875 -1.171875,-9.28125 0,-4.828125 1.4375,-9.34375 1.4375,-4.515625 4.640625,-7.46875 Q 21.296875,1.8125 26.125,1.8125 q 4.734375,0 8.046875,2.90625 Q 37.5,7.625 38.71875,12.3125 q 0,0.578125 0.78125,0.578125 h 1.21875 q 0.296875,0 0.53125,-0.265625 0.25,-0.265625 0.25,-0.609375 V 11.71875 Q 39.984375,5.8125 35.484375,2.34375 31,-1.125 24.90625,-1.125"
       inkscape:connector-curvature="0" />
    <path
       id="DejaVuSans-31"
       d="m 12.40625,8.296875 h 16.109375 v 55.625 L 10.984375,60.40625 v 8.984375 l 17.4375,3.515625 H 38.28125 V 8.296875 H 54.390625 V 0 H 12.40625 Z"
       inkscape:connector-curvature="0" />
    <path
       style="stroke:#000000;stroke-width:0.5"
       id="mca979985ba"
       d="M 0,0 V -2"
       inkscape:connector-curvature="0" />
    <path
       id="DejaVuSans-45"
       d="m 9.8125,72.90625 h 46.09375 v -8.3125 H 19.671875 V 43.015625 h 34.71875 V 34.71875 H 19.671875 V 8.296875 H 56.78125 V 0 H 9.8125 Z"
       inkscape:connector-curvature="0" />
    <path
       id="DejaVuSans-78"
       d="M 54.890625,54.6875 35.109375,28.078125 55.90625,0 H 45.3125 L 29.390625,21.484375 13.484375,0 H 2.875 L 24.125,28.609375 4.6875,54.6875 h 10.59375 l 14.5,-19.484375 14.5,19.484375 z"
       inkscape:connector-curvature="0" />
    <path
       id="DejaVuSans-63"
       d="M 48.78125,52.59375 V 44.1875 q -3.8125,2.109375 -7.640625,3.15625 -3.828125,1.046875 -7.734375,1.046875 -8.75,0 -13.59375,-5.546875 -4.828125,-5.53125 -4.828125,-15.546875 0,-10.015625 4.828125,-15.5625 4.84375,-5.53125 13.59375,-5.53125 3.90625,0 7.734375,1.046875 3.828125,1.046875 7.640625,3.15625 v -8.3125 q -3.765625,-1.75 -7.796875,-2.625 -4.015625,-0.890625 -8.5625,-0.890625 -12.359375,0 -19.640625,7.765625 -7.265625,7.765625 -7.265625,20.953125 0,13.375 7.34375,21.03125 Q 20.21875,56 33.015625,56 q 4.140625,0 8.09375,-0.859375 3.953125,-0.84375 7.671875,-2.546875"
       inkscape:connector-curvature="0" />
    <path
       id="DejaVuSans-69"
       d="M 9.421875,54.6875 H 18.40625 V 0 H 9.421875 Z m 0,21.296875 H 18.40625 V 64.59375 H 9.421875 Z"
       inkscape:connector-curvature="0" />
    <path
       id="DejaVuSans-74"
       d="M 18.3125,70.21875 V 54.6875 h 18.5 v -6.984375 h -18.5 v -29.6875 q 0,-6.6875 1.828125,-8.59375 1.828125,-1.90625 7.453125,-1.90625 H 36.8125 V 0 H 27.59375 Q 17.1875,0 13.234375,3.875 9.28125,7.765625 9.28125,18.015625 v 29.6875 H 2.6875 V 54.6875 h 6.59375 v 15.53125 z"
       inkscape:connector-curvature="0" />
    <path
       id="DejaVuSans-61"
       d="m 34.28125,27.484375 q -10.890625,0 -15.09375,-2.484375 -4.203125,-2.484375 -4.203125,-8.5 0,-4.78125 3.15625,-7.59375 3.15625,-2.796875 8.5625,-2.796875 7.484375,0 12,5.296875 4.515625,5.296875 4.515625,14.078125 v 2 z m 17.921875,3.71875 V 0 H 43.21875 v 8.296875 q -3.078125,-4.96875 -7.671875,-7.34375 -4.59375,-2.375 -11.234375,-2.375 -8.390625,0 -13.359375,4.71875 Q 6,8.015625 6,15.921875 q 0,9.21875 6.171875,13.90625 6.1875,4.6875 18.4375,4.6875 H 43.21875 v 0.890625 q 0,6.203125 -4.078125,9.59375 -4.078125,3.390625 -11.453125,3.390625 -4.6875,0 -9.140625,-1.125 -4.4375,-1.125 -8.53125,-3.375 v 8.3125 q 4.921875,1.90625 9.5625,2.84375 Q 24.21875,56 28.609375,56 q 11.875,0 17.734375,-6.15625 5.859375,-6.140625 5.859375,-18.640625"
       inkscape:connector-curvature="0" />
    <path
       id="DejaVuSans-6f"
       d="m 30.609375,48.390625 q -7.21875,0 -11.421875,-5.640625 -4.203125,-5.640625 -4.203125,-15.453125 0,-9.8125 4.171875,-15.453125 4.1875,-5.640625 11.453125,-5.640625 7.1875,0 11.375,5.65625 4.203125,5.671875 4.203125,15.4375 0,9.71875 -4.203125,15.40625 -4.1875,5.6875 -11.375,5.6875 m 0,7.609375 q 11.71875,0 18.40625,-7.625 6.703125,-7.609375 6.703125,-21.078125 0,-13.421875 -6.703125,-21.078125 -6.6875,-7.640625 -18.40625,-7.640625 -11.765625,0 -18.4375,7.640625 -6.65625,7.65625 -6.65625,21.078125 0,13.46875 6.65625,21.078125 Q 18.84375,56 30.609375,56"
       inkscape:connector-curvature="0" />
    <path
       id="DejaVuSans-72"
       d="m 41.109375,46.296875 q -1.515625,0.875 -3.296875,1.28125 Q 36.03125,48 33.890625,48 26.265625,48 22.1875,43.046875 18.109375,38.09375 18.109375,28.8125 V 0 h -9.03125 v 54.6875 h 9.03125 v -8.5 q 2.84375,4.984375 7.375,7.390625 Q 30.03125,56 36.53125,56 q 0.921875,0 2.046875,-0.125 1.125,-0.109375 2.484375,-0.359375 z"
       inkscape:connector-curvature="0" />
    <path
       id="DejaVuSans-79"
       d="M 32.171875,-5.078125 Q 28.375,-14.84375 24.75,-17.8125 q -3.609375,-2.984375 -9.65625,-2.984375 h -7.1875 v 7.515625 h 5.28125 q 3.703125,0 5.75,1.765625 2.0625,1.75 4.546875,8.296875 L 25.09375,0.875 2.984375,54.6875 H 12.5 L 29.59375,11.921875 46.6875,54.6875 h 9.515625 z"
       inkscape:connector-curvature="0" />
    <path
       id="DejaVuSans-20"
       d=""
       inkscape:connector-curvature="0" />
    <path
       id="DejaVuSans-49"
       d="m 9.8125,72.90625 h 9.859375 V 0 H 9.8125 Z"
       inkscape:connector-curvature="0" />
    <path
       id="DejaVuSans-6e"
       d="M 54.890625,33.015625 V 0 H 45.90625 v 32.71875 q 0,7.765625 -3.03125,11.609375 -3.03125,3.859375 -9.078125,3.859375 -7.28125,0 -11.484375,-4.640625 -4.203125,-4.625 -4.203125,-12.640625 V 0 h -9.03125 v 54.6875 h 9.03125 v -8.5 q 3.234375,4.9375 7.59375,7.375 4.375,2.4375 10.09375,2.4375 9.421875,0 14.25,-5.828125 4.84375,-5.828125 4.84375,-17.15625"
       inkscape:connector-curvature="0" />
    <path
       id="DejaVuSans-70"
       d="m 18.109375,8.203125 v -29 H 9.078125 V 54.6875 h 9.03125 v -8.296875 q 2.84375,4.875 7.15625,7.234375 Q 29.59375,56 35.59375,56 q 9.96875,0 16.1875,-7.90625 6.234375,-7.90625 6.234375,-20.796875 0,-12.890625 -6.234375,-20.8125 -6.21875,-7.90625 -16.1875,-7.90625 -6,0 -10.328125,2.375 -4.3125,2.375 -7.15625,7.25 M 48.6875,27.296875 q 0,9.90625 -4.078125,15.546875 -4.078125,5.640625 -11.203125,5.640625 -7.140625,0 -11.21875,-5.640625 -4.078125,-5.640625 -4.078125,-15.546875 0,-9.90625 4.078125,-15.546875 4.078125,-5.640625 11.21875,-5.640625 7.125,0 11.203125,5.640625 4.078125,5.640625 4.078125,15.546875"
       inkscape:connector-curvature="0" />
    <path
       id="DejaVuSans-75"
       d="M 8.5,21.578125 V 54.6875 h 8.984375 V 21.921875 q 0,-7.765625 3.015625,-11.65625 3.03125,-3.875 9.09375,-3.875 7.265625,0 11.484375,4.640625 4.234375,4.640625 4.234375,12.65625 v 31 h 8.984375 V 0 H 45.3125 V 8.40625 Q 42.046875,3.421875 37.71875,1 33.40625,-1.421875 27.6875,-1.421875 18.265625,-1.421875 13.375,4.4375 8.5,10.296875 8.5,21.578125 M 31.109375,56 Z"
       inkscape:connector-curvature="0" />
    <path
       id="DejaVuSans-73"
       d="m 44.28125,53.078125 v -8.5 Q 40.484375,46.53125 36.375,47.5 q -4.09375,0.984375 -8.5,0.984375 -6.6875,0 -10.03125,-2.046875 Q 14.5,44.390625 14.5,40.28125 q 0,-3.125 2.390625,-4.90625 2.390625,-1.78125 9.625,-3.390625 l 3.078125,-0.6875 Q 39.15625,29.25 43.1875,25.515625 47.21875,21.78125 47.21875,15.09375 q 0,-7.625 -6.03125,-12.078125 -6.03125,-4.4375 -16.578125,-4.4375 -4.390625,0 -9.15625,0.859375 Q 10.6875,0.296875 5.421875,2 v 9.28125 q 4.984375,-2.59375 9.8125,-3.890625 4.828125,-1.28125 9.578125,-1.28125 6.34375,0 9.75,2.171875 3.421875,2.171875 3.421875,6.125 0,3.65625 -2.46875,5.609375 -2.453125,1.953125 -10.8125,3.765625 l -3.125,0.734375 q -8.34375,1.75 -12.0625,5.390625 -3.703125,3.640625 -3.703125,9.984375 0,7.71875 5.46875,11.90625 Q 16.75,56 26.8125,56 q 4.96875,0 9.359375,-0.734375 4.40625,-0.71875 8.109375,-2.1875"
       inkscape:connector-curvature="0" />
    <path
       id="DejaVuSans-46"
       d="m 9.8125,72.90625 h 41.890625 v -8.3125 H 19.671875 V 43.109375 h 28.90625 V 34.8125 H 19.671875 V 0 H 9.8125 Z"
       inkscape:connector-curvature="0" />
    <path
       style="stroke:#000000;stroke-width:0.5"
       id="m6cda6140a3"
       d="M 0,0 H 4"
       inkscape:connector-curvature="0" />
    <path
       id="DejaVuSans-2e"
       d="M 10.6875,12.40625 H 21 V 0 H 10.6875 Z"
       inkscape:connector-curvature="0" />
    <path
       id="DejaVuSans-35"
       d="m 10.796875,72.90625 h 38.71875 v -8.3125 h -29.6875 V 46.734375 q 2.140625,0.734375 4.28125,1.09375 2.15625,0.359375 4.3125,0.359375 Q 40.625,48.1875 47.75,41.5 54.890625,34.8125 54.890625,23.390625 54.890625,11.625 47.5625,5.09375 40.234375,-1.421875 26.90625,-1.421875 q -4.59375,0 -9.359375,0.78125 -4.75,0.78125 -9.828125,2.34375 V 11.625 q 4.390625,-2.390625 9.078125,-3.5625 4.6875,-1.171875 9.90625,-1.171875 8.453125,0 13.375,4.4375 4.9375,4.4375 4.9375,12.0625 0,7.609375 -4.9375,12.046875 -4.921875,4.453125 -13.375,4.453125 -3.953125,0 -7.890625,-0.875 -3.921875,-0.875 -8.015625,-2.734375 z"
       inkscape:connector-curvature="0" />
    <path
       id="DejaVuSans-4c"
       d="m 9.8125,72.90625 h 9.859375 V 8.296875 h 35.5 V 0 H 9.8125 Z"
       inkscape:connector-curvature="0" />
    <path
       id="DejaVuSans-64"
       d="m 45.40625,46.390625 v 29.59375 h 8.984375 V 0 H 45.40625 v 8.203125 q -2.828125,-4.875 -7.15625,-7.25 -4.3125,-2.375 -10.375,-2.375 -9.90625,0 -16.140625,7.90625 -6.21875,7.921875 -6.21875,20.8125 0,12.890625 6.21875,20.796875 Q 17.96875,56 27.875,56 q 6.0625,0 10.375,-2.375 4.328125,-2.359375 7.15625,-7.234375 M 14.796875,27.296875 q 0,-9.90625 4.078125,-15.546875 4.078125,-5.640625 11.203125,-5.640625 7.125,0 11.21875,5.640625 4.109375,5.640625 4.109375,15.546875 0,9.90625 -4.109375,15.546875 -4.09375,5.640625 -11.21875,5.640625 -7.125,0 -11.203125,-5.640625 -4.078125,-5.640625 -4.078125,-15.546875"
       inkscape:connector-curvature="0" />
    <path
       id="DejaVuSans-42"
       d="M 19.671875,34.8125 V 8.109375 H 35.5 q 7.953125,0 11.78125,3.296875 3.84375,3.296875 3.84375,10.078125 0,6.84375 -3.84375,10.078125 -3.828125,3.25 -11.78125,3.25 z m 0,29.984375 V 42.828125 H 34.28125 q 7.21875,0 10.75,2.703125 3.546875,2.71875 3.546875,8.28125 0,5.515625 -3.546875,8.25 -3.53125,2.734375 -10.75,2.734375 z M 9.8125,72.90625 h 25.203125 q 11.28125,0 17.375,-4.6875 Q 58.5,63.53125 58.5,54.890625 58.5,48.1875 55.375,44.234375 52.25,40.28125 46.1875,39.3125 53.46875,37.75 57.5,32.78125 q 4.03125,-4.953125 4.03125,-12.375 0,-9.765625 -6.640625,-15.09375 Q 48.25,0 35.984375,0 H 9.8125 Z"
       inkscape:connector-curvature="0" />
    <path
       id="DejaVuSans-2b"
       d="M 46,62.703125 V 35.5 H 73.1875 V 27.203125 H 46 V 0 H 37.796875 V 27.203125 H 10.59375 V 35.5 h 27.203125 v 27.203125 z"
       inkscape:connector-curvature="0" />
    <path
       id="DejaVuSans-55"
       d="m 8.6875,72.90625 h 9.921875 V 28.609375 q 0,-11.71875 4.234375,-16.875 4.25,-5.140625 13.78125,-5.140625 9.46875,0 13.71875,5.140625 4.25,5.15625 4.25,16.875 V 72.90625 H 64.5 V 27.390625 q 0,-14.25 -7.0625,-21.53125 -7.046875,-7.28125 -20.8125,-7.28125 -13.828125,0 -20.890625,7.28125 Q 8.6875,13.140625 8.6875,27.390625 Z"
       inkscape:connector-curvature="0" />
    <path
       id="DejaVuSans-4e"
       d="M 9.8125,72.90625 H 23.09375 L 55.421875,11.921875 V 72.90625 h 9.5625 V 0 h -13.28125 l -32.3125,60.984375 V 0 H 9.8125 Z"
       inkscape:connector-curvature="0" />
    <path
       id="DejaVuSans-53"
       d="m 53.515625,70.515625 v -9.625 q -5.609375,2.6875 -10.59375,4 -4.984375,1.328125 -9.625,1.328125 -8.046875,0 -12.421875,-3.125 -4.375,-3.125 -4.375,-8.890625 0,-4.84375 2.90625,-7.3125 2.90625,-2.453125 11.015625,-3.96875 L 36.375,41.703125 Q 47.40625,39.59375 52.65625,34.296875 57.90625,29 57.90625,20.125 q 0,-10.609375 -7.109375,-16.078125 -7.09375,-5.46875 -20.8125,-5.46875 -5.171875,0 -11.015625,1.171875 Q 13.140625,0.921875 6.890625,3.21875 V 13.375 q 6,-3.359375 11.765625,-5.078125 5.765625,-1.703125 11.328125,-1.703125 8.4375,0 13.03125,3.3125 4.59375,3.328125 4.59375,9.484375 0,5.359375 -3.296875,8.390625 Q 41.015625,30.8125 33.5,32.328125 L 27.484375,33.5 q -11.03125,2.1875 -15.96875,6.875 -4.921875,4.6875 -4.921875,13.046875 0,9.671875 6.8125,15.234375 6.8125,5.5625 18.765625,5.5625 5.140625,0 10.453125,-0.9375 5.328125,-0.921875 10.890625,-2.765625"
       inkscape:connector-curvature="0" />
    <path
       id="DejaVuSans-6c"
       d="M 9.421875,75.984375 H 18.40625 V 0 H 9.421875 Z"
       inkscape:connector-curvature="0" />
    <path
       id="DejaVuSans-28"
       d="M 31,75.875 Q 24.46875,64.65625 21.28125,53.65625 18.109375,42.671875 18.109375,31.390625 18.109375,20.125 21.3125,9.0625 24.515625,-2 31,-13.1875 H 23.1875 Q 15.875,-1.703125 12.234375,9.375 8.59375,20.453125 8.59375,31.390625 q 0,10.890625 3.609375,21.921875 3.625,11.046875 10.984375,22.5625 z"
       inkscape:connector-curvature="0" />
    <path
       id="DejaVuSans-29"
       d="m 8.015625,75.875 h 7.8125 q 7.3125,-11.515625 10.953125,-22.5625 3.640625,-11.03125 3.640625,-21.921875 0,-10.9375 -3.640625,-22.015625 -3.640625,-11.078125 -10.953125,-22.5625 h -7.8125 Q 14.5,-2 17.703125,9.0625 20.90625,20.125 20.90625,31.390625 q 0,11.28125 -3.203125,22.265625 -3.203125,11 -9.6875,22.21875"
       inkscape:connector-curvature="0" />
    <path
       id="Cmmi10-ae"
       d="m 20.125,-1.125 q -4.75,0 -8.4375,2.25 Q 8.015625,3.375 6,7.171875 4,10.984375 4,15.828125 4,22.609375 7.78125,29.25 11.578125,35.890625 17.84375,40.03125 24.125,44.1875 31,44.1875 q 5.078125,0 8.9375,-2.65625 3.859375,-2.65625 5.859375,-7.078125 2,-4.421875 2,-9.453125 l 0.109375,-6.6875 q 3.40625,4.734375 5.78125,9.828125 2.375,5.109375 3.640625,10.578125 0.1875,0.59375 0.78125,0.59375 h 1.171875 q 0.921875,0 0.921875,-0.9375 0,-0.09375 -0.09375,-0.28125 -1.171875,-4.59375 -2.9375,-8.828125 -1.75,-4.21875 -4.125,-8.171875 -2.359375,-3.953125 -5.140625,-7.171875 0,-12.40625 2.875,-12.40625 1.859375,0 3.046875,1.09375 1.203125,1.109375 2.109375,2.71875 0.90625,1.609375 1.140625,1.65625 h 1.21875 q 0.78125,0 0.78125,-0.984375 0,-2.484375 -2.859375,-4.8125 -2.84375,-2.3125 -5.625,-2.3125 -3.625,0 -6.015625,2.34375 Q 42.1875,3.5625 41.3125,7.328125 36.625,3.328125 31.15625,1.09375 25.6875,-1.125 20.125,-1.125 m 0.1875,2.640625 q 10.6875,0 20.515625,8.78125 -0.0625,0.59375 -0.15625,1.4375 -0.09375,0.859375 -0.09375,0.96875 v 10.78125 q 0,18.125 -9.765625,18.125 -5.859375,0 -10.265625,-5.015625 -4.390625,-5 -6.609375,-11.96875 -2.21875,-6.953125 -2.21875,-12.703125 0,-4.359375 2.21875,-7.390625 2.21875,-3.015625 6.375,-3.015625"
       inkscape:connector-curvature="0" />
    <path
       id="Cmr10-62"
       d="m 10.40625,0 v 59.1875 q 0,2.671875 -0.8125,3.875 -0.796875,1.203125 -2.3125,1.46875 -1.515625,0.265625 -4.6875,0.265625 V 68.3125 l 14.796875,1.078125 V 38.09375 q 1.65625,1.84375 3.875,3.234375 2.21875,1.390625 4.75,2.125 2.546875,0.734375 5.1875,0.734375 4.484375,0 8.3125,-1.8125 3.84375,-1.796875 6.671875,-4.96875 2.84375,-3.171875 4.421875,-7.296875 1.59375,-4.125 1.59375,-8.53125 0,-6.046875 -2.953125,-11.28125 Q 46.296875,5.078125 41.1875,1.96875 36.078125,-1.125 29.984375,-1.125 q -3.8125,0 -7.375,1.953125 Q 19.046875,2.78125 16.703125,6 L 13.28125,0 Z m 7.265625,9.8125 q 1.671875,-3.65625 4.796875,-5.984375 3.125,-2.3125 6.921875,-2.3125 5.1875,0 8.375,2.96875 Q 40.96875,7.46875 42.234375,12 43.5,16.546875 43.5,21.578125 q 0,8.453125 -2.1875,12.84375 -0.984375,1.953125 -2.671875,3.609375 -1.671875,1.671875 -3.75,2.625 -2.078125,0.953125 -4.375,0.953125 -4,0 -7.421875,-2.125 -3.421875,-2.125 -5.421875,-5.6875 z"
       inkscape:connector-curvature="0" />
    <defs
       id="defs31584">
      <path
         id="path33324"
         d="m 9.8125,72.90625 h 46.09375 v -8.3125 H 19.671875 V 43.015625 h 34.71875 V 34.71875 H 19.671875 V 8.296875 H 56.78125 V 0 H 9.8125 Z"
         inkscape:connector-curvature="0" />
      <path
         id="path33326"
         d="M 54.890625,54.6875 35.109375,28.078125 55.90625,0 H 45.3125 L 29.390625,21.484375 13.484375,0 H 2.875 L 24.125,28.609375 4.6875,54.6875 h 10.59375 l 14.5,-19.484375 14.5,19.484375 z"
         inkscape:connector-curvature="0" />
      <path
         id="path33328"
         d="M 48.78125,52.59375 V 44.1875 q -3.8125,2.109375 -7.640625,3.15625 -3.828125,1.046875 -7.734375,1.046875 -8.75,0 -13.59375,-5.546875 -4.828125,-5.53125 -4.828125,-15.546875 0,-10.015625 4.828125,-15.5625 4.84375,-5.53125 13.59375,-5.53125 3.90625,0 7.734375,1.046875 3.828125,1.046875 7.640625,3.15625 v -8.3125 q -3.765625,-1.75 -7.796875,-2.625 -4.015625,-0.890625 -8.5625,-0.890625 -12.359375,0 -19.640625,7.765625 -7.265625,7.765625 -7.265625,20.953125 0,13.375 7.34375,21.03125 Q 20.21875,56 33.015625,56 q 4.140625,0 8.09375,-0.859375 3.953125,-0.84375 7.671875,-2.546875"
         inkscape:connector-curvature="0" />
      <path
         id="path33330"
         d="M 9.421875,54.6875 H 18.40625 V 0 H 9.421875 Z m 0,21.296875 H 18.40625 V 64.59375 H 9.421875 Z"
         inkscape:connector-curvature="0" />
      <path
         id="path33332"
         d="M 18.3125,70.21875 V 54.6875 h 18.5 v -6.984375 h -18.5 v -29.6875 q 0,-6.6875 1.828125,-8.59375 1.828125,-1.90625 7.453125,-1.90625 H 36.8125 V 0 H 27.59375 Q 17.1875,0 13.234375,3.875 9.28125,7.765625 9.28125,18.015625 v 29.6875 H 2.6875 V 54.6875 h 6.59375 v 15.53125 z"
         inkscape:connector-curvature="0" />
      <path
         id="path33334"
         d="m 34.28125,27.484375 q -10.890625,0 -15.09375,-2.484375 -4.203125,-2.484375 -4.203125,-8.5 0,-4.78125 3.15625,-7.59375 3.15625,-2.796875 8.5625,-2.796875 7.484375,0 12,5.296875 4.515625,5.296875 4.515625,14.078125 v 2 z m 17.921875,3.71875 V 0 H 43.21875 v 8.296875 q -3.078125,-4.96875 -7.671875,-7.34375 -4.59375,-2.375 -11.234375,-2.375 -8.390625,0 -13.359375,4.71875 Q 6,8.015625 6,15.921875 q 0,9.21875 6.171875,13.90625 6.1875,4.6875 18.4375,4.6875 H 43.21875 v 0.890625 q 0,6.203125 -4.078125,9.59375 -4.078125,3.390625 -11.453125,3.390625 -4.6875,0 -9.140625,-1.125 -4.4375,-1.125 -8.53125,-3.375 v 8.3125 q 4.921875,1.90625 9.5625,2.84375 Q 24.21875,56 28.609375,56 q 11.875,0 17.734375,-6.15625 5.859375,-6.140625 5.859375,-18.640625"
         inkscape:connector-curvature="0" />
      <path
         id="path33336"
         d="m 30.609375,48.390625 q -7.21875,0 -11.421875,-5.640625 -4.203125,-5.640625 -4.203125,-15.453125 0,-9.8125 4.171875,-15.453125 4.1875,-5.640625 11.453125,-5.640625 7.1875,0 11.375,5.65625 4.203125,5.671875 4.203125,15.4375 0,9.71875 -4.203125,15.40625 -4.1875,5.6875 -11.375,5.6875 m 0,7.609375 q 11.71875,0 18.40625,-7.625 6.703125,-7.609375 6.703125,-21.078125 0,-13.421875 -6.703125,-21.078125 -6.6875,-7.640625 -18.40625,-7.640625 -11.765625,0 -18.4375,7.640625 -6.65625,7.65625 -6.65625,21.078125 0,13.46875 6.65625,21.078125 Q 18.84375,56 30.609375,56"
         inkscape:connector-curvature="0" />
      <path
         id="path33338"
         d="m 41.109375,46.296875 q -1.515625,0.875 -3.296875,1.28125 Q 36.03125,48 33.890625,48 26.265625,48 22.1875,43.046875 18.109375,38.09375 18.109375,28.8125 V 0 h -9.03125 v 54.6875 h 9.03125 v -8.5 q 2.84375,4.984375 7.375,7.390625 Q 30.03125,56 36.53125,56 q 0.921875,0 2.046875,-0.125 1.125,-0.109375 2.484375,-0.359375 z"
         inkscape:connector-curvature="0" />
      <path
         id="path33340"
         d="M 32.171875,-5.078125 Q 28.375,-14.84375 24.75,-17.8125 q -3.609375,-2.984375 -9.65625,-2.984375 h -7.1875 v 7.515625 h 5.28125 q 3.703125,0 5.75,1.765625 2.0625,1.75 4.546875,8.296875 L 25.09375,0.875 2.984375,54.6875 H 12.5 L 29.59375,11.921875 46.6875,54.6875 h 9.515625 z"
         inkscape:connector-curvature="0" />
      <path
         id="path33342"
         d=""
         inkscape:connector-curvature="0" />
      <path
         id="path33344"
         d="m 9.8125,72.90625 h 9.859375 V 0 H 9.8125 Z"
         inkscape:connector-curvature="0" />
      <path
         id="path33346"
         d="M 54.890625,33.015625 V 0 H 45.90625 v 32.71875 q 0,7.765625 -3.03125,11.609375 -3.03125,3.859375 -9.078125,3.859375 -7.28125,0 -11.484375,-4.640625 -4.203125,-4.625 -4.203125,-12.640625 V 0 h -9.03125 v 54.6875 h 9.03125 v -8.5 q 3.234375,4.9375 7.59375,7.375 4.375,2.4375 10.09375,2.4375 9.421875,0 14.25,-5.828125 4.84375,-5.828125 4.84375,-17.15625"
         inkscape:connector-curvature="0" />
      <path
         id="path33348"
         d="m 18.109375,8.203125 v -29 H 9.078125 V 54.6875 h 9.03125 v -8.296875 q 2.84375,4.875 7.15625,7.234375 Q 29.59375,56 35.59375,56 q 9.96875,0 16.1875,-7.90625 6.234375,-7.90625 6.234375,-20.796875 0,-12.890625 -6.234375,-20.8125 -6.21875,-7.90625 -16.1875,-7.90625 -6,0 -10.328125,2.375 -4.3125,2.375 -7.15625,7.25 M 48.6875,27.296875 q 0,9.90625 -4.078125,15.546875 -4.078125,5.640625 -11.203125,5.640625 -7.140625,0 -11.21875,-5.640625 -4.078125,-5.640625 -4.078125,-15.546875 0,-9.90625 4.078125,-15.546875 4.078125,-5.640625 11.21875,-5.640625 7.125,0 11.203125,5.640625 4.078125,5.640625 4.078125,15.546875"
         inkscape:connector-curvature="0" />
      <path
         id="path33350"
         d="M 8.5,21.578125 V 54.6875 h 8.984375 V 21.921875 q 0,-7.765625 3.015625,-11.65625 3.03125,-3.875 9.09375,-3.875 7.265625,0 11.484375,4.640625 4.234375,4.640625 4.234375,12.65625 v 31 h 8.984375 V 0 H 45.3125 V 8.40625 Q 42.046875,3.421875 37.71875,1 33.40625,-1.421875 27.6875,-1.421875 18.265625,-1.421875 13.375,4.4375 8.5,10.296875 8.5,21.578125 M 31.109375,56 Z"
         inkscape:connector-curvature="0" />
      <path
         id="path33352"
         d="m 44.28125,53.078125 v -8.5 Q 40.484375,46.53125 36.375,47.5 q -4.09375,0.984375 -8.5,0.984375 -6.6875,0 -10.03125,-2.046875 Q 14.5,44.390625 14.5,40.28125 q 0,-3.125 2.390625,-4.90625 2.390625,-1.78125 9.625,-3.390625 l 3.078125,-0.6875 Q 39.15625,29.25 43.1875,25.515625 47.21875,21.78125 47.21875,15.09375 q 0,-7.625 -6.03125,-12.078125 -6.03125,-4.4375 -16.578125,-4.4375 -4.390625,0 -9.15625,0.859375 Q 10.6875,0.296875 5.421875,2 v 9.28125 q 4.984375,-2.59375 9.8125,-3.890625 4.828125,-1.28125 9.578125,-1.28125 6.34375,0 9.75,2.171875 3.421875,2.171875 3.421875,6.125 0,3.65625 -2.46875,5.609375 -2.453125,1.953125 -10.8125,3.765625 l -3.125,0.734375 q -8.34375,1.75 -12.0625,5.390625 -3.703125,3.640625 -3.703125,9.984375 0,7.71875 5.46875,11.90625 Q 16.75,56 26.8125,56 q 4.96875,0 9.359375,-0.734375 4.40625,-0.71875 8.109375,-2.1875"
         inkscape:connector-curvature="0" />
    </defs>
    <defs
       id="defs31623">
      <path
         id="path33373"
         d="m 9.8125,72.90625 h 41.890625 v -8.3125 H 19.671875 V 43.109375 h 28.90625 V 34.8125 H 19.671875 V 0 H 9.8125 Z"
         inkscape:connector-curvature="0" />
    </defs>
    <path
       inkscape:connector-curvature="0"
       d="m 9.71875,-16.5 q 1.859375,-1.421875 4.484375,-1.421875 3.578125,0 5.8125,7.90625 0.9375,3.8125 5.078125,25.109375 l 4.59375,24.5 h -8.59375 q -0.96875,0 -0.96875,1.328125 0.390625,2.1875 1.265625,2.1875 h 8.9375 l 1.171875,6.5 q 0.578125,3.03125 1.0625,5.203125 0.5,2.171875 1.0625,4.015625 0.5625,1.859375 1.671875,4.15625 1.71875,3.28125 4.625,5.40625 2.90625,2.125 6.265625,2.125 2.203125,0 4.28125,-0.8125 2.078125,-0.8125 3.390625,-2.421875 1.3125,-1.609375 1.3125,-3.796875 0,-2.546875 -1.6875,-4.4375 -1.671875,-1.875 -4.0625,-1.875 -1.625,0 -2.765625,1 -1.140625,1.015625 -1.140625,2.625 0,2.1875 1.484375,3.828125 1.484375,1.640625 3.6875,1.875 -1.859375,1.421875 -4.59375,1.421875 -1.515625,0 -2.859375,-1.421875 Q 41.890625,65.09375 41.5,63.484375 40.875,60.9375 38.71875,49.703125 L 37.5,43.109375 h 10.296875 q 0.984375,0 0.984375,-1.3125 -0.04687,-0.25 -0.203125,-0.859375 Q 48.4375,40.328125 48.171875,39.953125 47.90625,39.59375 47.515625,39.59375 H 36.8125 L 32.171875,15.1875 Q 31.296875,9.859375 30.140625,4.359375 29,-1.125 26.921875,-6.90625 q -2.0625,-5.796875 -5.296875,-9.703125 -3.21875,-3.90625 -7.609375,-3.90625 -3.375,0 -6.03125,1.9375 -2.65625,1.921875 -2.65625,5.09375 0,2.546875 1.625,4.4375 1.640625,1.875 4.125,1.875 1.671875,0 2.78125,-1 1.125,-1.015625 1.125,-2.625 0,-2.140625 -1.59375,-3.921875 Q 11.8125,-16.5 9.71875,-16.5"
       id="path33256" />
    <path
       inkscape:connector-curvature="0"
       d="M 66.5,36.5 43.90625,22.796875 54.59375,-1.296875 35,16.59375 15.40625,-1.296875 26.09375,22.796875 3.5,36.5 29.703125,33.5 35,59.703125 40.296875,33.5 Z"
       id="path33258" />
    <path
       inkscape:connector-curvature="0"
       d="m 24.90625,-1.125 q -6.109375,0 -11.21875,3.203125 -5.09375,3.203125 -8,8.546875 -2.90625,5.34375 -2.90625,11.296875 0,5.859375 2.65625,11.125 2.671875,5.28125 7.421875,8.53125 4.765625,3.25 10.625,3.25 4.59375,0 7.984375,-1.546875 Q 34.859375,41.75 37.0625,39.015625 39.265625,36.28125 40.375,32.5625 41.5,28.859375 41.5,24.421875 41.5,23.09375 40.484375,23.09375 H 11.53125 v -1.078125 q 0,-8.296875 3.34375,-14.25 Q 18.21875,1.8125 25.78125,1.8125 q 3.078125,0 5.6875,1.359375 2.609375,1.375 4.53125,3.8125 1.9375,2.4375 2.625,5.21875 0.09375,0.34375 0.359375,0.609375 0.28125,0.28125 0.609375,0.28125 h 0.890625 Q 41.5,13.09375 41.5,11.8125 40.09375,6.15625 35.40625,2.515625 30.71875,-1.125 24.90625,-1.125 M 11.625,25.59375 h 22.796875 q 0,3.75 -1.046875,7.609375 -1.046875,3.859375 -3.5,6.421875 -2.4375,2.5625 -6.390625,2.5625 -5.65625,0 -8.765625,-5.296875 Q 11.625,31.59375 11.625,25.59375"
       id="path33260" />
    <path
       inkscape:connector-curvature="0"
       d="m 1.21875,0 v 3.515625 q 3.8125,0 7.171875,1.484375 3.375,1.5 5.71875,4.421875 L 23.1875,21 11.375,36.375 Q 9.625,38.578125 7.546875,39.078125 5.46875,39.59375 1.703125,39.59375 v 3.515625 h 20.8125 V 39.59375 q -1.328125,0 -2.484375,-0.59375 -1.140625,-0.578125 -1.140625,-1.6875 0,-0.390625 0.296875,-0.9375 l 8.015625,-10.390625 6,7.703125 q 1.21875,1.46875 1.21875,2.9375 0,1.21875 -0.8125,2.09375 -0.796875,0.875 -2.109375,0.875 v 3.515625 H 49.90625 V 39.59375 q -3.859375,0 -7.25,-1.484375 Q 39.265625,36.625 36.921875,33.6875 L 29,23.578125 41.796875,6.6875 Q 43.703125,4.5 45.75,4 47.796875,3.515625 51.609375,3.515625 V 0 H 30.8125 v 3.515625 q 1.21875,0 2.34375,0.578125 1.125,0.59375 1.125,1.71875 0,0.4375 -0.296875,0.875 L 25,18.609375 17.828125,9.421875 q -1.125,-1.265625 -1.125,-2.921875 0,-1.21875 0.828125,-2.109375 0.828125,-0.875 1.953125,-0.875 V 0 Z"
       id="path33262" />
    <path
       inkscape:connector-curvature="0"
       d="m 24.90625,-1.125 q -6.0625,0 -11,3.140625 -4.921875,3.15625 -7.75,8.40625 -2.828125,5.25 -2.828125,11.15625 0,5.90625 2.796875,11.328125 2.8125,5.421875 7.765625,8.671875 4.953125,3.25 11.015625,3.25 5.859375,0 10.65625,-2.296875 4.8125,-2.296875 4.8125,-7.515625 0,-1.953125 -1.390625,-3.40625 -1.390625,-1.4375 -3.390625,-1.4375 -2,0 -3.390625,1.4375 -1.390625,1.453125 -1.390625,3.40625 0,1.75 1.125,3.046875 1.125,1.296875 2.78125,1.640625 -3.46875,2.1875 -9.71875,2.1875 -4.78125,0 -7.71875,-3.171875 -2.921875,-3.171875 -4.09375,-7.859375 -1.171875,-4.6875 -1.171875,-9.28125 0,-4.828125 1.4375,-9.34375 1.4375,-4.515625 4.640625,-7.46875 Q 21.296875,1.8125 26.125,1.8125 q 4.734375,0 8.046875,2.90625 Q 37.5,7.625 38.71875,12.3125 q 0,0.578125 0.78125,0.578125 h 1.21875 q 0.296875,0 0.53125,-0.265625 0.25,-0.265625 0.25,-0.609375 V 11.71875 Q 39.984375,5.8125 35.484375,2.34375 31,-1.125 24.90625,-1.125"
       id="path33264" />
  </defs>
  <metadata
     id="metadata32401">
    <rdf:RDF>
      <cc:Work
         rdf:about="">
        <dc:format>image/svg+xml</dc:format>
        <dc:type
           rdf:resource="http://purl.org/dc/dcmitype/StillImage" />
        <dc:title></dc:title>
      </cc:Work>
    </rdf:RDF>
  </metadata>
  <g
     id="layer1"
     inkscape:groupmode="layer"
     inkscape:label="Layer 1"
     transform="translate(-40.487735,-51.923938)">
    <g
       id="axes_1"
       transform="matrix(1.4111111,0,0,1.4111111,24.546744,21.697938)">
      <g
         id="patch_2">
        <path
           id="path31440"
           style="fill:#ffffff"
           d="M 42.599779,101.90039 H 101.00735 V 21.92 H 42.599779 Z"
           inkscape:connector-curvature="0" />
      </g>
      <g
         id="patch_3">
        <path
           id="path31449"
           style="fill:none;stroke:#000000;stroke-linecap:square;stroke-linejoin:miter"
           d="M 42.599779,101.90039 V 21.92"
           inkscape:connector-curvature="0" />
      </g>
      <g
         id="patch_4"
         transform="matrix(1.3369317,0,0,0.99693612,-14.296562,0.21719122)">
        <path
           id="path31452"
           style="fill:none;stroke:#000000;stroke-linecap:square;stroke-linejoin:miter"
           d="M 42.599779,101.90039 H 101.00735"
           inkscape:connector-curvature="0" />
      </g>
      <g
         id="line2d_3"
         transform="matrix(1.3369317,0,0,0.99693612,-14.296562,0.21719122)">
        <defs
           id="defs31456">
          <path
             style="stroke:#000000;stroke-width:0.5"
             id="path33240"
             d="M 0,0 V -4"
             inkscape:connector-curvature="0" />
        </defs>
        <g
           id="g31460">
          <use
             id="use31458"
             y="101.90039"
             xlink:href="#m5e8a867127"
             x="42.599777"
             style="stroke:#000000;stroke-width:0.5"
             width="100%"
             height="100%" />
        </g>
      </g>
      <g
         id="text_1">
        <!-- 0 -->
        <defs
           id="defs31464">
          <path
             id="path33246"
             d="m 31.78125,66.40625 q -7.609375,0 -11.453125,-7.5 Q 16.5,51.421875 16.5,36.375 q 0,-14.984375 3.828125,-22.484375 3.84375,-7.5 11.453125,-7.5 7.671875,0 11.5,7.5 3.84375,7.5 3.84375,22.484375 0,15.046875 -3.84375,22.53125 -3.828125,7.5 -11.5,7.5 m 0,7.8125 q 12.265625,0 18.734375,-9.703125 6.46875,-9.6875 6.46875,-28.140625 0,-18.40625 -6.46875,-28.109375 -6.46875,-9.6875 -18.734375,-9.6875 -12.25,0 -18.71875,9.6875 Q 6.59375,17.96875 6.59375,36.375 q 0,18.453125 6.46875,28.140625 6.46875,9.703125 18.71875,9.703125"
             inkscape:connector-curvature="0" />
        </defs>
        <g
           id="g31468"
           transform="matrix(0.09,0,0,-0.09,39.736654,112.73898)">
          <use
             id="use31466"
             xlink:href="#DejaVuSans-30"
             x="0"
             y="0"
             width="100%"
             height="100%" />
        </g>
      </g>
      <g
         id="line2d_5"
         transform="matrix(1.3369317,0,0,0.99693612,-14.296562,0.21719122)">
        <g
           id="g31500">
          <use
             id="use31498"
             y="101.90039"
             xlink:href="#m5e8a867127"
             x="101.00735"
             style="stroke:#000000;stroke-width:0.5"
             width="100%"
             height="100%" />
        </g>
      </g>
      <g
         id="text_3">
        <!-- 1 -->
        <defs
           id="defs31504">
          <path
             id="path33278"
             d="m 12.40625,8.296875 h 16.109375 v 55.625 L 10.984375,60.40625 v 8.984375 l 17.4375,3.515625 H 38.28125 V 8.296875 H 54.390625 V 0 H 12.40625 Z"
             inkscape:connector-curvature="0" />
        </defs>
        <g
           id="g31508"
           transform="matrix(0.09,0,0,-0.09,117.64423,112.73898)">
          <use
             id="use31506"
             xlink:href="#DejaVuSans-31"
             x="0"
             y="0"
             width="100%"
             height="100%" />
        </g>
      </g>
      <g
         id="line2d_6"
         transform="matrix(1.3369317,0,0,0.99693612,-14.296562,0.21719122)">
        <defs
           id="defs31513">
          <path
             style="stroke:#000000;stroke-width:0.5"
             id="path33285"
             d="M 0,0 V -2"
             inkscape:connector-curvature="0" />
        </defs>
        <g
           id="g31517">
          <use
             id="use31515"
             y="101.90039"
             xlink:href="#mca979985ba"
             x="48.440536"
             style="stroke:#000000;stroke-width:0.5"
             width="100%"
             height="100%" />
        </g>
      </g>
      <g
         id="line2d_7"
         transform="matrix(1.3369317,0,0,0.99693612,-14.296562,0.21719122)">
        <g
           id="g31523">
          <use
             id="use31521"
             y="101.90039"
             xlink:href="#mca979985ba"
             x="54.281296"
             style="stroke:#000000;stroke-width:0.5"
             width="100%"
             height="100%" />
        </g>
      </g>
      <g
         id="line2d_8"
         transform="matrix(1.3369317,0,0,0.99693612,-14.296562,0.21719122)">
        <g
           id="g31529">
          <use
             id="use31527"
             y="101.90039"
             xlink:href="#mca979985ba"
             x="60.122051"
             style="stroke:#000000;stroke-width:0.5"
             width="100%"
             height="100%" />
        </g>
      </g>
      <g
         id="line2d_9"
         transform="matrix(1.3369317,0,0,0.99693612,-14.296562,0.21719122)">
        <g
           id="g31535">
          <use
             id="use31533"
             y="101.90039"
             xlink:href="#mca979985ba"
             x="65.962807"
             style="stroke:#000000;stroke-width:0.5"
             width="100%"
             height="100%" />
        </g>
      </g>
      <g
         id="line2d_10"
         transform="matrix(1.3369317,0,0,0.99693612,-14.296562,0.21719122)">
        <g
           id="g31541">
          <use
             id="use31539"
             y="101.90039"
             xlink:href="#mca979985ba"
             x="71.803566"
             style="stroke:#000000;stroke-width:0.5"
             width="100%"
             height="100%" />
        </g>
      </g>
      <g
         id="line2d_11"
         transform="matrix(1.3369317,0,0,0.99693612,-14.296562,0.21719122)">
        <g
           id="g31547">
          <use
             id="use31545"
             y="101.90039"
             xlink:href="#mca979985ba"
             x="77.644325"
             style="stroke:#000000;stroke-width:0.5"
             width="100%"
             height="100%" />
        </g>
      </g>
      <g
         id="line2d_12"
         transform="matrix(1.3369317,0,0,0.99693612,-14.296562,0.21719122)">
        <g
           id="g31553">
          <use
             id="use31551"
             y="101.90039"
             xlink:href="#mca979985ba"
             x="83.485085"
             style="stroke:#000000;stroke-width:0.5"
             width="100%"
             height="100%" />
        </g>
      </g>
      <g
         id="line2d_13"
         transform="matrix(1.3369317,0,0,0.99693612,-14.296562,0.21719122)">
        <g
           id="g31559">
          <use
             id="use31557"
             y="101.90039"
             xlink:href="#mca979985ba"
             x="89.325836"
             style="stroke:#000000;stroke-width:0.5"
             width="100%"
             height="100%" />
        </g>
      </g>
      <g
         id="line2d_14"
         transform="matrix(1.3369317,0,0,0.99693612,-14.296562,0.21719122)">
        <g
           id="g31565">
          <use
             id="use31563"
             y="101.90039"
             xlink:href="#mca979985ba"
             x="95.166595"
             style="stroke:#000000;stroke-width:0.5"
             width="100%"
             height="100%" />
        </g>
      </g>
      <g
         id="g31620"
         transform="matrix(0.08,0,0,-0.08,29.214191,125.19914)">
        <use
           id="use31586"
           xlink:href="#DejaVuSans-45"
           x="0"
           y="0"
           width="100%"
           height="100%" />
        <use
           id="use31588"
           xlink:href="#DejaVuSans-78"
           x="63.183594"
           y="0"
           width="100%"
           height="100%" />
        <use
           id="use31590"
           xlink:href="#DejaVuSans-63"
           x="122.34766"
           y="0"
           width="100%"
           height="100%" />
        <use
           id="use31592"
           xlink:href="#DejaVuSans-69"
           x="177.32812"
           y="0"
           width="100%"
           height="100%" />
        <use
           id="use31594"
           xlink:href="#DejaVuSans-74"
           x="205.11133"
           y="0"
           width="100%"
           height="100%" />
        <use
           id="use31596"
           xlink:href="#DejaVuSans-61"
           x="244.32031"
           y="0"
           width="100%"
           height="100%" />
        <use
           id="use31598"
           xlink:href="#DejaVuSans-74"
           x="305.59961"
           y="0"
           width="100%"
           height="100%" />
        <use
           id="use31600"
           xlink:href="#DejaVuSans-6f"
           x="344.80859"
           y="0"
           width="100%"
           height="100%" />
        <use
           id="use31602"
           xlink:href="#DejaVuSans-72"
           x="405.99023"
           y="0"
           width="100%"
           height="100%" />
        <use
           id="use31604"
           xlink:href="#DejaVuSans-79"
           x="447.10352"
           y="0"
           width="100%"
           height="100%" />
        <use
           id="use31606"
           xlink:href="#DejaVuSans-20"
           x="506.2832"
           y="0"
           width="100%"
           height="100%" />
        <use
           id="use31608"
           xlink:href="#DejaVuSans-49"
           x="538.07031"
           y="0"
           width="100%"
           height="100%" />
        <use
           id="use31610"
           xlink:href="#DejaVuSans-6e"
           x="567.5625"
           y="0"
           width="100%"
           height="100%" />
        <use
           id="use31612"
           xlink:href="#DejaVuSans-70"
           x="630.94141"
           y="0"
           width="100%"
           height="100%" />
        <use
           id="use31614"
           xlink:href="#DejaVuSans-75"
           x="694.41797"
           y="0"
           width="100%"
           height="100%" />
        <use
           id="use31616"
           xlink:href="#DejaVuSans-74"
           x="757.79688"
           y="0"
           width="100%"
           height="100%" />
        <use
           id="use31618"
           xlink:href="#DejaVuSans-73"
           x="797.00586"
           y="0"
           width="100%"
           height="100%" />
      </g>
      <g
         id="g31641"
         transform="matrix(0.08,0,0,-0.08,99.80044,125.53239)">
        <use
           id="use31625"
           xlink:href="#DejaVuSans-46"
           x="0"
           y="0"
           width="100%"
           height="100%" />
        <use
           id="use31627"
           xlink:href="#DejaVuSans-72"
           x="57.410156"
           y="0"
           width="100%"
           height="100%" />
        <use
           id="use31629"
           xlink:href="#DejaVuSans-61"
           x="98.523438"
           y="0"
           width="100%"
           height="100%" />
        <use
           id="use31631"
           xlink:href="#DejaVuSans-63"
           x="159.80273"
           y="0"
           width="100%"
           height="100%" />
        <use
           id="use31633"
           xlink:href="#DejaVuSans-74"
           x="214.7832"
           y="0"
           width="100%"
           height="100%" />
        <use
           id="use31635"
           xlink:href="#DejaVuSans-69"
           x="253.99219"
           y="0"
           width="100%"
           height="100%" />
        <use
           id="use31637"
           xlink:href="#DejaVuSans-6f"
           x="281.77539"
           y="0"
           width="100%"
           height="100%" />
        <use
           id="use31639"
           xlink:href="#DejaVuSans-6e"
           x="342.95703"
           y="0"
           width="100%"
           height="100%" />
      </g>
      <g
         id="matplotlib.axis_2">
        <g
           id="ytick_1">
          <g
             id="line2d_15">
            <defs
               id="defs31646">
              <path
                 style="stroke:#000000;stroke-width:0.5"
                 id="path33387"
                 d="M 0,0 H 4"
                 inkscape:connector-curvature="0" />
            </defs>
            <g
               id="g31650">
              <use
                 id="use31648"
                 y="101.90039"
                 xlink:href="#m6cda6140a3"
                 x="42.599777"
                 style="stroke:#000000;stroke-width:0.5"
                 width="100%"
                 height="100%" />
            </g>
          </g>
          <g
             id="text_5">
            <!-- 0 -->
            <g
               id="g31655"
               transform="matrix(0.09,0,0,-0.09,32.873529,105.31969)">
              <use
                 id="use31653"
                 xlink:href="#DejaVuSans-30"
                 x="0"
                 y="0"
                 width="100%"
                 height="100%" />
            </g>
          </g>
        </g>
        <g
           id="ytick_2">
          <g
             id="line2d_16">
            <g
               id="g31661">
              <use
                 id="use31659"
                 y="71.138702"
                 xlink:href="#m6cda6140a3"
                 x="42.599777"
                 style="stroke:#000000;stroke-width:0.5"
                 width="100%"
                 height="100%" />
            </g>
          </g>
          <g
             id="text_6">
            <!-- 0.5 -->
            <defs
               id="defs31666">
              <path
                 id="path33400"
                 d="M 10.6875,12.40625 H 21 V 0 H 10.6875 Z"
                 inkscape:connector-curvature="0" />
              <path
                 id="path33402"
                 d="m 10.796875,72.90625 h 38.71875 v -8.3125 h -29.6875 V 46.734375 q 2.140625,0.734375 4.28125,1.09375 2.15625,0.359375 4.3125,0.359375 Q 40.625,48.1875 47.75,41.5 54.890625,34.8125 54.890625,23.390625 54.890625,11.625 47.5625,5.09375 40.234375,-1.421875 26.90625,-1.421875 q -4.59375,0 -9.359375,0.78125 -4.75,0.78125 -9.828125,2.34375 V 11.625 q 4.390625,-2.390625 9.078125,-3.5625 4.6875,-1.171875 9.90625,-1.171875 8.453125,0 13.375,4.4375 4.9375,4.4375 4.9375,12.0625 0,7.609375 -4.9375,12.046875 -4.921875,4.453125 -13.375,4.453125 -3.953125,0 -7.890625,-0.875 -3.921875,-0.875 -8.015625,-2.734375 z"
                 inkscape:connector-curvature="0" />
            </defs>
            <g
               id="g31674"
               transform="matrix(0.09,0,0,-0.09,24.286967,74.557999)">
              <use
                 id="use31668"
                 xlink:href="#DejaVuSans-30"
                 x="0"
                 y="0"
                 width="100%"
                 height="100%" />
              <use
                 id="use31670"
                 xlink:href="#DejaVuSans-2e"
                 x="63.623047"
                 y="0"
                 width="100%"
                 height="100%" />
              <use
                 id="use31672"
                 xlink:href="#DejaVuSans-35"
                 x="95.410156"
                 y="0"
                 width="100%"
                 height="100%" />
            </g>
          </g>
        </g>
        <g
           id="ytick_3">
          <g
             id="line2d_17">
            <g
               id="g31680">
              <use
                 id="use31678"
                 y="40.377014"
                 xlink:href="#m6cda6140a3"
                 x="42.599777"
                 style="stroke:#000000;stroke-width:0.5"
                 width="100%"
                 height="100%" />
            </g>
          </g>
          <g
             id="text_7">
            <!-- 1 -->
            <g
               id="g31685"
               transform="matrix(0.09,0,0,-0.09,32.873529,43.79631)">
              <use
                 id="use31683"
                 xlink:href="#DejaVuSans-31"
                 x="0"
                 y="0"
                 width="100%"
                 height="100%" />
            </g>
          </g>
        </g>
        <g
           id="text_8"
           transform="translate(0,13.125)">
          <!-- Load -->
          <defs
             id="defs31691">
            <path
               id="path33418"
               d="m 9.8125,72.90625 h 9.859375 V 8.296875 h 35.5 V 0 H 9.8125 Z"
               inkscape:connector-curvature="0" />
            <path
               id="path33420"
               d="m 45.40625,46.390625 v 29.59375 h 8.984375 V 0 H 45.40625 v 8.203125 q -2.828125,-4.875 -7.15625,-7.25 -4.3125,-2.375 -10.375,-2.375 -9.90625,0 -16.140625,7.90625 -6.21875,7.921875 -6.21875,20.8125 0,12.890625 6.21875,20.796875 Q 17.96875,56 27.875,56 q 6.0625,0 10.375,-2.375 4.328125,-2.359375 7.15625,-7.234375 M 14.796875,27.296875 q 0,-9.90625 4.078125,-15.546875 4.078125,-5.640625 11.203125,-5.640625 7.125,0 11.21875,5.640625 4.109375,5.640625 4.109375,15.546875 0,9.90625 -4.109375,15.546875 -4.09375,5.640625 -11.21875,5.640625 -7.125,0 -11.203125,-5.640625 -4.078125,-5.640625 -4.078125,-15.546875"
               inkscape:connector-curvature="0" />
          </defs>
          <g
             id="g31701"
             transform="matrix(0,-0.08,-0.08,0,17.623217,71.576445)">
            <use
               id="use31693"
               xlink:href="#DejaVuSans-4c"
               x="0"
               y="0"
               width="100%"
               height="100%" />
            <use
               id="use31695"
               xlink:href="#DejaVuSans-6f"
               x="55.697266"
               y="0"
               width="100%"
               height="100%" />
            <use
               id="use31697"
               xlink:href="#DejaVuSans-61"
               x="116.87891"
               y="0"
               width="100%"
               height="100%" />
            <use
               id="use31699"
               xlink:href="#DejaVuSans-64"
               x="178.1582"
               y="0"
               width="100%"
               height="100%" />
          </g>
        </g>
      </g>
      <g
         id="line2d_18"
         transform="translate(45,-60)" />
      <g
         id="line2d_19"
         transform="translate(45,-60)" />
      <g
         id="alpha_c"
         inkscape:label="#g34128">
        <g
           id="line2d_1">
          <path
             inkscape:connector-curvature="0"
             clip-path="url(#p2cedc9d7a2)"
             d="m 42.599779,101.90039 0.292038,-2.473923 0.292038,-1.870459 0.876114,-4.605437 1.168151,-5.043545 1.46019,-5.364527 1.752227,-5.562355 1.752227,-4.881121 2.044265,-5.031683 2.044265,-4.446548 2.044265,-3.945899 2.044265,-3.500541 2.044265,-3.092703 2.044265,-2.710554 2.044265,-2.345585 2.044266,-1.991238 1.752227,-1.428815 1.752227,-1.172823 1.752227,-0.914807 1.752227,-0.652288 1.752228,-0.382649 1.460189,-0.105777 24.23914,-1e-4 v 0"
             style="fill:none;stroke:#000000;stroke-width:1.53458345;stroke-linecap:square;stroke-miterlimit:4;stroke-dasharray:none"
             id="path31443"
             transform="matrix(1.3369317,0,0,0.99693612,-14.296562,0.21719122)" />
        </g>
        <g
           id="text_11">
          <!-- No Solution -->
          <defs
             id="defs31727">
            <path
               inkscape:connector-curvature="0"
               d="M 9.8125,72.90625 H 23.09375 L 55.421875,11.921875 V 72.90625 h 9.5625 V 0 h -13.28125 l -32.3125,60.984375 V 0 H 9.8125 Z"
               id="path33445" />
            <path
               inkscape:connector-curvature="0"
               d="m 53.515625,70.515625 v -9.625 q -5.609375,2.6875 -10.59375,4 -4.984375,1.328125 -9.625,1.328125 -8.046875,0 -12.421875,-3.125 -4.375,-3.125 -4.375,-8.890625 0,-4.84375 2.90625,-7.3125 2.90625,-2.453125 11.015625,-3.96875 L 36.375,41.703125 Q 47.40625,39.59375 52.65625,34.296875 57.90625,29 57.90625,20.125 q 0,-10.609375 -7.109375,-16.078125 -7.09375,-5.46875 -20.8125,-5.46875 -5.171875,0 -11.015625,1.171875 Q 13.140625,0.921875 6.890625,3.21875 V 13.375 q 6,-3.359375 11.765625,-5.078125 5.765625,-1.703125 11.328125,-1.703125 8.4375,0 13.03125,3.3125 4.59375,3.328125 4.59375,9.484375 0,5.359375 -3.296875,8.390625 Q 41.015625,30.8125 33.5,32.328125 L 27.484375,33.5 q -11.03125,2.1875 -15.96875,6.875 -4.921875,4.6875 -4.921875,13.046875 0,9.671875 6.8125,15.234375 6.8125,5.5625 18.765625,5.5625 5.140625,0 10.453125,-0.9375 5.328125,-0.921875 10.890625,-2.765625"
               id="path33447" />
            <path
               inkscape:connector-curvature="0"
               d="M 9.421875,75.984375 H 18.40625 V 0 H 9.421875 Z"
               id="path33449" />
          </defs>
          <g
             transform="matrix(0.09,0,0,-0.09,45.520158,31.76374)"
             id="g31751">
            <use
               height="100%"
               width="100%"
               y="0"
               x="0"
               xlink:href="#DejaVuSans-4e"
               id="use31729" />
            <use
               height="100%"
               width="100%"
               y="0"
               x="74.804688"
               xlink:href="#DejaVuSans-6f"
               id="use31731" />
            <use
               height="100%"
               width="100%"
               y="0"
               x="135.98633"
               xlink:href="#DejaVuSans-20"
               id="use31733" />
            <use
               height="100%"
               width="100%"
               y="0"
               x="167.77344"
               xlink:href="#DejaVuSans-53"
               id="use31735" />
            <use
               height="100%"
               width="100%"
               y="0"
               x="231.25"
               xlink:href="#DejaVuSans-6f"
               id="use31737" />
            <use
               height="100%"
               width="100%"
               y="0"
               x="292.43164"
               xlink:href="#DejaVuSans-6c"
               id="use31739" />
            <use
               height="100%"
               width="100%"
               y="0"
               x="320.21484"
               xlink:href="#DejaVuSans-75"
               id="use31741" />
            <use
               height="100%"
               width="100%"
               y="0"
               x="383.59375"
               xlink:href="#DejaVuSans-74"
               id="use31743" />
            <use
               height="100%"
               width="100%"
               y="0"
               x="422.80273"
               xlink:href="#DejaVuSans-69"
               id="use31745" />
            <use
               height="100%"
               width="100%"
               y="0"
               x="450.58594"
               xlink:href="#DejaVuSans-6f"
               id="use31747" />
            <use
               height="100%"
               width="100%"
               y="0"
               x="511.76758"
               xlink:href="#DejaVuSans-6e"
               id="use31749" />
          </g>
        </g>
        <path
           id="path31770"
           style="fill:none;stroke:#000000;stroke-width:2;stroke-linecap:square"
           d="m 129.83235,25.294142 h 19.2"
           inkscape:connector-curvature="0" />
        <g
           transform="translate(64.125,-60)"
           id="text_13">
          <!-- $\alpha_\mathrm{c}$ -->
          <defs
             id="defs31775">
            <path
               id="path33480"
               d="m 20.125,-1.125 q -4.75,0 -8.4375,2.25 Q 8.015625,3.375 6,7.171875 4,10.984375 4,15.828125 4,22.609375 7.78125,29.25 11.578125,35.890625 17.84375,40.03125 24.125,44.1875 31,44.1875 q 5.078125,0 8.9375,-2.65625 3.859375,-2.65625 5.859375,-7.078125 2,-4.421875 2,-9.453125 l 0.109375,-6.6875 q 3.40625,4.734375 5.78125,9.828125 2.375,5.109375 3.640625,10.578125 0.1875,0.59375 0.78125,0.59375 h 1.171875 q 0.921875,0 0.921875,-0.9375 0,-0.09375 -0.09375,-0.28125 -1.171875,-4.59375 -2.9375,-8.828125 -1.75,-4.21875 -4.125,-8.171875 -2.359375,-3.953125 -5.140625,-7.171875 0,-12.40625 2.875,-12.40625 1.859375,0 3.046875,1.09375 1.203125,1.109375 2.109375,2.71875 0.90625,1.609375 1.140625,1.65625 h 1.21875 q 0.78125,0 0.78125,-0.984375 0,-2.484375 -2.859375,-4.8125 -2.84375,-2.3125 -5.625,-2.3125 -3.625,0 -6.015625,2.34375 Q 42.1875,3.5625 41.3125,7.328125 36.625,3.328125 31.15625,1.09375 25.6875,-1.125 20.125,-1.125 m 0.1875,2.640625 q 10.6875,0 20.515625,8.78125 -0.0625,0.59375 -0.15625,1.4375 -0.09375,0.859375 -0.09375,0.96875 v 10.78125 q 0,18.125 -9.765625,18.125 -5.859375,0 -10.265625,-5.015625 -4.390625,-5 -6.609375,-11.96875 -2.21875,-6.953125 -2.21875,-12.703125 0,-4.359375 2.21875,-7.390625 2.21875,-3.015625 6.375,-3.015625"
               inkscape:connector-curvature="0" />
          </defs>
          <g
             id="g31781"
             transform="matrix(0.08,0,0,-0.08,87.807353,88.094141)">
            <use
               id="use31777"
               xlink:href="#Cmmi10-ae"
               transform="translate(0,0.8125)"
               x="0"
               y="0"
               width="100%"
               height="100%" />
            <use
               id="use31779"
               xlink:href="#Cmr10-63"
               transform="matrix(0.7,0,0,0.7,63.916016,-16.19375)"
               x="0"
               y="0"
               width="100%"
               height="100%" />
          </g>
        </g>
        <g
           id="g34394">
          <g
             transform="matrix(1.3369317,0,0,0.99693612,-14.296562,0.21719122)"
             id="line2d_4">
            <g
               id="g31474">
              <use
                 height="100%"
                 width="100%"
                 style="stroke:#000000;stroke-width:0.5"
                 x="76.81414"
                 xlink:href="#m5e8a867127"
                 y="101.90039"
                 id="use31472" />
            </g>
          </g>
          <g
             transform="translate(13.5)"
             id="text_2">
            <!-- $f_\mathrm{exc}^\star$ -->
            <defs
               id="defs31482">
              <path
                 inkscape:connector-curvature="0"
                 d="m 9.71875,-16.5 q 1.859375,-1.421875 4.484375,-1.421875 3.578125,0 5.8125,7.90625 0.9375,3.8125 5.078125,25.109375 l 4.59375,24.5 h -8.59375 q -0.96875,0 -0.96875,1.328125 0.390625,2.1875 1.265625,2.1875 h 8.9375 l 1.171875,6.5 q 0.578125,3.03125 1.0625,5.203125 0.5,2.171875 1.0625,4.015625 0.5625,1.859375 1.671875,4.15625 1.71875,3.28125 4.625,5.40625 2.90625,2.125 6.265625,2.125 2.203125,0 4.28125,-0.8125 2.078125,-0.8125 3.390625,-2.421875 1.3125,-1.609375 1.3125,-3.796875 0,-2.546875 -1.6875,-4.4375 -1.671875,-1.875 -4.0625,-1.875 -1.625,0 -2.765625,1 -1.140625,1.015625 -1.140625,2.625 0,2.1875 1.484375,3.828125 1.484375,1.640625 3.6875,1.875 -1.859375,1.421875 -4.59375,1.421875 -1.515625,0 -2.859375,-1.421875 Q 41.890625,65.09375 41.5,63.484375 40.875,60.9375 38.71875,49.703125 L 37.5,43.109375 h 10.296875 q 0.984375,0 0.984375,-1.3125 -0.04687,-0.25 -0.203125,-0.859375 Q 48.4375,40.328125 48.171875,39.953125 47.90625,39.59375 47.515625,39.59375 H 36.8125 L 32.171875,15.1875 Q 31.296875,9.859375 30.140625,4.359375 29,-1.125 26.921875,-6.90625 q -2.0625,-5.796875 -5.296875,-9.703125 -3.21875,-3.90625 -7.609375,-3.90625 -3.375,0 -6.03125,1.9375 -2.65625,1.921875 -2.65625,5.09375 0,2.546875 1.625,4.4375 1.640625,1.875 4.125,1.875 1.671875,0 2.78125,-1 1.125,-1.015625 1.125,-2.625 0,-2.140625 -1.59375,-3.921875 Q 11.8125,-16.5 9.71875,-16.5"
                 id="path34450" />
              <path
                 inkscape:connector-curvature="0"
                 d="M 66.5,36.5 43.90625,22.796875 54.59375,-1.296875 35,16.59375 15.40625,-1.296875 26.09375,22.796875 3.5,36.5 29.703125,33.5 35,59.703125 40.296875,33.5 Z"
                 id="path34452" />
              <path
                 inkscape:connector-curvature="0"
                 d="m 24.90625,-1.125 q -6.109375,0 -11.21875,3.203125 -5.09375,3.203125 -8,8.546875 -2.90625,5.34375 -2.90625,11.296875 0,5.859375 2.65625,11.125 2.671875,5.28125 7.421875,8.53125 4.765625,3.25 10.625,3.25 4.59375,0 7.984375,-1.546875 Q 34.859375,41.75 37.0625,39.015625 39.265625,36.28125 40.375,32.5625 41.5,28.859375 41.5,24.421875 41.5,23.09375 40.484375,23.09375 H 11.53125 v -1.078125 q 0,-8.296875 3.34375,-14.25 Q 18.21875,1.8125 25.78125,1.8125 q 3.078125,0 5.6875,1.359375 2.609375,1.375 4.53125,3.8125 1.9375,2.4375 2.625,5.21875 0.09375,0.34375 0.359375,0.609375 0.28125,0.28125 0.609375,0.28125 h 0.890625 Q 41.5,13.09375 41.5,11.8125 40.09375,6.15625 35.40625,2.515625 30.71875,-1.125 24.90625,-1.125 M 11.625,25.59375 h 22.796875 q 0,3.75 -1.046875,7.609375 -1.046875,3.859375 -3.5,6.421875 -2.4375,2.5625 -6.390625,2.5625 -5.65625,0 -8.765625,-5.296875 Q 11.625,31.59375 11.625,25.59375"
                 id="path34454" />
              <path
                 inkscape:connector-curvature="0"
                 d="m 1.21875,0 v 3.515625 q 3.8125,0 7.171875,1.484375 3.375,1.5 5.71875,4.421875 L 23.1875,21 11.375,36.375 Q 9.625,38.578125 7.546875,39.078125 5.46875,39.59375 1.703125,39.59375 v 3.515625 h 20.8125 V 39.59375 q -1.328125,0 -2.484375,-0.59375 -1.140625,-0.578125 -1.140625,-1.6875 0,-0.390625 0.296875,-0.9375 l 8.015625,-10.390625 6,7.703125 q 1.21875,1.46875 1.21875,2.9375 0,1.21875 -0.8125,2.09375 -0.796875,0.875 -2.109375,0.875 v 3.515625 H 49.90625 V 39.59375 q -3.859375,0 -7.25,-1.484375 Q 39.265625,36.625 36.921875,33.6875 L 29,23.578125 41.796875,6.6875 Q 43.703125,4.5 45.75,4 47.796875,3.515625 51.609375,3.515625 V 0 H 30.8125 v 3.515625 q 1.21875,0 2.34375,0.578125 1.125,0.59375 1.125,1.71875 0,0.4375 -0.296875,0.875 L 25,18.609375 17.828125,9.421875 q -1.125,-1.265625 -1.125,-2.921875 0,-1.21875 0.828125,-2.109375 0.828125,-0.875 1.953125,-0.875 V 0 Z"
                 id="path34456" />
              <path
                 inkscape:connector-curvature="0"
                 d="m 24.90625,-1.125 q -6.0625,0 -11,3.140625 -4.921875,3.15625 -7.75,8.40625 -2.828125,5.25 -2.828125,11.15625 0,5.90625 2.796875,11.328125 2.8125,5.421875 7.765625,8.671875 4.953125,3.25 11.015625,3.25 5.859375,0 10.65625,-2.296875 4.8125,-2.296875 4.8125,-7.515625 0,-1.953125 -1.390625,-3.40625 -1.390625,-1.4375 -3.390625,-1.4375 -2,0 -3.390625,1.4375 -1.390625,1.453125 -1.390625,3.40625 0,1.75 1.125,3.046875 1.125,1.296875 2.78125,1.640625 -3.46875,2.1875 -9.71875,2.1875 -4.78125,0 -7.71875,-3.171875 -2.921875,-3.171875 -4.09375,-7.859375 -1.171875,-4.6875 -1.171875,-9.28125 0,-4.828125 1.4375,-9.34375 1.4375,-4.515625 4.640625,-7.46875 Q 21.296875,1.8125 26.125,1.8125 q 4.734375,0 8.046875,2.90625 Q 37.5,7.625 38.71875,12.3125 q 0,0.578125 0.78125,0.578125 h 1.21875 q 0.296875,0 0.53125,-0.265625 0.25,-0.265625 0.25,-0.609375 V 11.71875 Q 39.984375,5.8125 35.484375,2.34375 31,-1.125 24.90625,-1.125"
                 id="path34458" />
            </defs>
            <g
               transform="matrix(0.09,0,0,-0.09,69.839144,113.19039)"
               id="g31494">
              <use
                 height="100%"
                 width="100%"
                 y="0"
                 x="0"
                 transform="translate(0,0.94375)"
                 xlink:href="#Cmmi10-66"
                 id="use31484" />
              <use
                 height="100%"
                 width="100%"
                 y="0"
                 x="0"
                 transform="matrix(0.7,0,0,0.7,73.000156,39.207813)"
                 xlink:href="#STIXGeneral-Regular-22c6"
                 id="use31486" />
              <use
                 height="100%"
                 width="100%"
                 y="0"
                 x="0"
                 transform="matrix(0.7,0,0,0.7,48.876953,-24.565625)"
                 xlink:href="#Cmr10-65"
                 id="use31488" />
              <use
                 height="100%"
                 width="100%"
                 y="0"
                 x="0"
                 transform="matrix(0.7,0,0,0.7,79.946289,-24.565625)"
                 xlink:href="#Cmr10-78"
                 id="use31490" />
              <use
                 height="100%"
                 width="100%"
                 y="0"
                 x="0"
                 transform="matrix(0.7,0,0,0.7,116.82617,-24.565625)"
                 xlink:href="#Cmr10-63"
                 id="use31492" />
            </g>
          </g>
        </g>
      </g>
      <g
         id="line2d_21"
         transform="translate(45,-60)" />
      <g
         id="alpha_b"
         inkscape:label="#g34099">
        <g
           id="line2d_2">
          <path
             inkscape:connector-curvature="0"
             clip-path="url(#p2cedc9d7a2)"
             d="m 42.599779,101.90039 0.292038,-2.473923 0.292038,-1.870459 0.876114,-4.605437 1.168151,-5.043545 1.46019,-5.364527 1.752227,-5.562355 1.752227,-4.881121 2.044265,-5.031683 2.044265,-4.446548 2.044265,-3.945899 2.044265,-3.500541 2.044265,-3.092703 2.044265,-2.710554 2.044265,-2.345585 2.044266,-1.991238 1.752227,-1.428815 1.752227,-1.172823 1.752227,-0.914807 1.752227,-0.652288 1.752228,-0.382649 1.460189,-0.105777 1.460189,0.09589 1.46019,0.306914 1.460189,0.529487 1.460189,0.76625 1.46019,1.020482 1.460189,1.296356 1.460189,1.599313 1.46019,1.936659 1.460189,2.31852 1.460189,2.759507 1.46019,3.281712 1.460189,3.920683 1.168151,3.713526 1.168152,4.377527 1.168151,5.276656 0.876114,4.800674 0.876114,5.928044 0.584076,5.000326 0.58408,6.777753 0.29203,5.816998 v 0"
             style="fill:none;stroke:#999999;stroke-width:1.22766685;stroke-miterlimit:4;stroke-dasharray:3.6830004, 3.6830004;stroke-dashoffset:0"
             id="path31446"
             transform="matrix(1.3369317,0,0,0.99693612,-14.296562,0.21719122)" />
        </g>
        <g
           id="text_9">
          <!-- B+U -->
          <defs
             id="defs31708">
            <path
               inkscape:connector-curvature="0"
               d="M 19.671875,34.8125 V 8.109375 H 35.5 q 7.953125,0 11.78125,3.296875 3.84375,3.296875 3.84375,10.078125 0,6.84375 -3.84375,10.078125 -3.828125,3.25 -11.78125,3.25 z m 0,29.984375 V 42.828125 H 34.28125 q 7.21875,0 10.75,2.703125 3.546875,2.71875 3.546875,8.28125 0,5.515625 -3.546875,8.25 -3.53125,2.734375 -10.75,2.734375 z M 9.8125,72.90625 h 25.203125 q 11.28125,0 17.375,-4.6875 Q 58.5,63.53125 58.5,54.890625 58.5,48.1875 55.375,44.234375 52.25,40.28125 46.1875,39.3125 53.46875,37.75 57.5,32.78125 q 4.03125,-4.953125 4.03125,-12.375 0,-9.765625 -6.640625,-15.09375 Q 48.25,0 35.984375,0 H 9.8125 Z"
               id="path33430" />
            <path
               inkscape:connector-curvature="0"
               d="M 46,62.703125 V 35.5 H 73.1875 V 27.203125 H 46 V 0 H 37.796875 V 27.203125 H 10.59375 V 35.5 h 27.203125 v 27.203125 z"
               id="path33432" />
            <path
               inkscape:connector-curvature="0"
               d="m 8.6875,72.90625 h 9.921875 V 28.609375 q 0,-11.71875 4.234375,-16.875 4.25,-5.140625 13.78125,-5.140625 9.46875,0 13.71875,5.140625 4.25,5.15625 4.25,16.875 V 72.90625 H 64.5 V 27.390625 q 0,-14.25 -7.0625,-21.53125 -7.046875,-7.28125 -20.8125,-7.28125 -13.828125,0 -20.890625,7.28125 Q 8.6875,13.140625 8.6875,27.390625 Z"
               id="path33434" />
          </defs>
          <g
             transform="matrix(0.1,0,0,-0.1,63.04243,69.908234)"
             id="g31716">
            <use
               height="100%"
               width="100%"
               y="0"
               x="0"
               xlink:href="#DejaVuSans-42"
               id="use31710"
               transform="translate(120)" />
            <use
               height="100%"
               width="100%"
               y="0"
               x="68.603516"
               xlink:href="#DejaVuSans-2b"
               id="use31712"
               transform="translate(120)" />
            <use
               height="100%"
               width="100%"
               y="0"
               x="152.39258"
               xlink:href="#DejaVuSans-55"
               id="use31714"
               transform="translate(120)" />
          </g>
        </g>
        <g
           id="text_10">
          <!-- U -->
          <g
             transform="matrix(0.1,0,0,-0.1,93.414368,52.681689)"
             id="g31721">
            <use
               height="100%"
               width="100%"
               y="0"
               x="0"
               xlink:href="#DejaVuSans-55"
               id="use31719"
               transform="translate(191.25)" />
          </g>
        </g>
        <g
           transform="translate(45,-60)"
           id="line2d_20">
          <path
             id="path31784"
             style="fill:none;stroke:#999999;stroke-width:2;stroke-dasharray:6, 6;stroke-dashoffset:0"
             d="M 84.832353,93.036641 H 104.03235"
             inkscape:connector-curvature="0" />
        </g>
        <g
           transform="translate(45,-60)"
           id="text_14">
          <!-- $\alpha_\mathrm{b}$ -->
          <defs
             id="defs31789">
            <path
               id="path33490"
               d="m 10.40625,0 v 59.1875 q 0,2.671875 -0.8125,3.875 -0.796875,1.203125 -2.3125,1.46875 -1.515625,0.265625 -4.6875,0.265625 V 68.3125 l 14.796875,1.078125 V 38.09375 q 1.65625,1.84375 3.875,3.234375 2.21875,1.390625 4.75,2.125 2.546875,0.734375 5.1875,0.734375 4.484375,0 8.3125,-1.8125 3.84375,-1.796875 6.671875,-4.96875 2.84375,-3.171875 4.421875,-7.296875 1.59375,-4.125 1.59375,-8.53125 0,-6.046875 -2.953125,-11.28125 Q 46.296875,5.078125 41.1875,1.96875 36.078125,-1.125 29.984375,-1.125 q -3.8125,0 -7.375,1.953125 Q 19.046875,2.78125 16.703125,6 L 13.28125,0 Z m 7.265625,9.8125 q 1.671875,-3.65625 4.796875,-5.984375 3.125,-2.3125 6.921875,-2.3125 5.1875,0 8.375,2.96875 Q 40.96875,7.46875 42.234375,12 43.5,16.546875 43.5,21.578125 q 0,8.453125 -2.1875,12.84375 -0.984375,1.953125 -2.671875,3.609375 -1.671875,1.671875 -3.75,2.625 -2.078125,0.953125 -4.375,0.953125 -4,0 -7.421875,-2.125 -3.421875,-2.125 -5.421875,-5.6875 z"
               inkscape:connector-curvature="0" />
          </defs>
          <g
             id="g31795"
             transform="matrix(0.08,0,0,-0.08,87.807353,95.836641)">
            <use
               id="use31791"
               xlink:href="#Cmmi10-ae"
               transform="translate(239.0625,0.8125)"
               x="0"
               y="0"
               width="100%"
               height="100%" />
            <use
               id="use31793"
               xlink:href="#Cmr10-62"
               transform="matrix(0.7,0,0,0.7,302.97852,-16.19375)"
               x="0"
               y="0"
               width="100%"
               height="100%" />
          </g>
        </g>
      </g>
      <g
         id="g33777"
         transform="matrix(0,-0.4782969,0.4782969,0,-31.597857,100.2758)">
        <g
           word-spacing="normal"
           letter-spacing="normal"
           font-size-adjust="none"
           font-stretch="normal"
           font-weight="normal"
           font-variant="normal"
           font-style="normal"
           stroke-miterlimit="10.433"
           xml:space="preserve"
           transform="matrix(0.3,0,0,-0.3,-52.5,222.75)"
           id="content"
           style="font-style:normal;font-variant:normal;font-weight:normal;font-stretch:normal;letter-spacing:normal;word-spacing:normal;text-anchor:start;fill:none;fill-opacity:1;fill-rule:evenodd;stroke:#000000;stroke-linecap:butt;stroke-linejoin:miter;stroke-miterlimit:10.43299961;stroke-dasharray:none;stroke-dashoffset:0;stroke-opacity:1"><path
             id="path33766"
             d="m 472,394.25 v 0.02 0.03 0.01 0.02 0.01 l -0.01,0.02 v 0.01 l -0.01,0.02 -0.01,0.02 -0.01,0.02 -0.01,0.02 -0.02,0.03 -0.01,0.02 -0.02,0.03 -0.02,0.03 -0.03,0.03 -0.02,0.03 -0.03,0.04 -0.02,0.02 -0.01,0.02 -0.02,0.02 -0.02,0.02 -0.02,0.02 -0.02,0.03 -0.02,0.02 -0.02,0.02 -0.02,0.03 -0.03,0.02 -0.02,0.03 -0.03,0.03 -0.03,0.03 -0.02,0.03 -0.03,0.03 -0.03,0.03 -0.03,0.03 -0.03,0.03 -0.04,0.04 -0.03,0.03 -0.04,0.04 -0.03,0.03 -0.04,0.04 -0.04,0.04 c -6.22,6.28 -7.81,15.69 -7.81,23.31 0,8.67 1.89,17.35 8.01,23.56 0.64,0.61 0.64,0.71 0.64,0.86 0,0.35 -0.18,0.49 -0.48,0.49 -0.5,0 -4.98,-3.38 -7.92,-9.7 -2.55,-5.49 -3.14,-11.02 -3.14,-15.21 0,-3.89 0.54,-9.9 3.28,-15.54 2.98,-6.13 7.28,-9.36 7.78,-9.36 0.3,0 0.48,0.14 0.48,0.5 z"
             inkscape:connector-curvature="0"
             style="fill:#000000;stroke-width:0" /><path
             id="path33768"
             d="m 489.93,421.95 0.2,1.28 3.39,13.56 c 0.44,1.74 0.55,1.89 2.69,1.89 h 4.78 c 4.14,0 6.78,-1.34 6.78,-4.78 0,-1.95 -1,-6.23 -2.93,-8.03 -2.5,-2.23 -5.49,-2.64 -7.69,-2.64 h -7.02 l -0.2,-1.28 h 8.47 c 7.08,0 14,5.17 14,10.75 0,3.84 -3.28,7.53 -9.81,7.53 h -16.14 c -0.96,0 -1.5,0 -1.5,-0.95 0,-0.6 0.45,-0.6 1.45,-0.6 0.64,0 1.55,-0.04 2.14,-0.09 0.8,-0.11 1.09,-0.25 1.09,-0.8 0,-0.2 -0.04,-0.36 -0.2,-0.95 l -6.67,-26.75 c -0.5,-1.95 -0.6,-2.34 -4.53,-2.34 -0.85,0 -1.39,0 -1.39,-0.96 0,-0.59 0.59,-0.59 0.73,-0.59 1.41,0 4.94,0.16 6.33,0.16 1.05,0 2.14,-0.07 3.19,-0.07 1.11,0 2.2,-0.09 3.25,-0.09 0.34,0 0.98,0 0.98,1 0,0.55 -0.44,0.55 -1.39,0.55 -1.84,0 -3.23,0 -3.23,0.89 0,0.29 0.09,0.54 0.14,0.84 z"
             inkscape:connector-curvature="0"
             style="fill:#000000;stroke-width:0" /><path
             id="path33770"
             d="m 532.95,441.67 0.01,0.03 0.01,0.03 0.01,0.03 0.01,0.03 0.01,0.02 0.01,0.03 0.01,0.03 0.01,0.02 0.02,0.05 0.01,0.05 0.02,0.04 0.01,0.05 0.02,0.04 0.01,0.04 0.01,0.03 0.01,0.04 0.01,0.03 v 0.03 l 0.01,0.03 0.01,0.02 v 0.03 l 0.01,0.02 v 0.02 l 0.01,0.02 v 0.02 0.02 0.01 l 0.01,0.02 v 0.01 0.01 0.01 0.01 0.01 0.01 0.01 0 c 0,0.55 -0.45,0.99 -1,0.99 -0.35,0 -0.7,-0.14 -0.85,-0.44 l -17.29,-47.48 c -0.25,-0.64 -0.25,-0.85 -0.25,-0.89 0,-0.55 0.45,-1 1,-1 0.66,0 0.79,0.34 1.09,1.18 z"
             inkscape:connector-curvature="0"
             style="fill:#000000;stroke-width:0" /><path
             id="path33772"
             d="m 570.95,435 0.09,0.37 0.05,0.18 0.06,0.17 0.06,0.18 0.07,0.17 0.07,0.16 0.08,0.16 0.08,0.16 0.09,0.16 0.1,0.15 0.11,0.14 0.11,0.14 0.13,0.14 0.13,0.13 0.14,0.12 0.15,0.12 0.17,0.11 0.17,0.11 0.19,0.11 0.19,0.09 0.22,0.09 0.22,0.09 0.24,0.07 0.25,0.07 0.27,0.07 0.28,0.05 0.3,0.05 0.31,0.04 0.33,0.04 0.35,0.03 0.18,0.01 h 0.18 c 0.25,0 0.84,0.05 0.84,1 0,0.05 0,0.55 -0.64,0.55 -1.65,0 -3.39,-0.16 -5.03,-0.16 -1.7,0 -3.44,0.16 -5.09,0.16 -0.3,0 -0.89,0 -0.89,-1 0,-0.55 0.5,-0.55 0.89,-0.55 2.84,-0.04 3.39,-1.09 3.39,-2.18 0,-0.16 -0.09,-0.91 -0.14,-1.05 l -5.58,-22.17 -11.02,26 c -0.4,0.9 -0.45,0.95 -1.59,0.95 h -6.67 c -1,0 -1.45,0 -1.45,-1 0,-0.55 0.45,-0.55 1.39,-0.55 0.25,0 3.39,0 3.39,-0.45 l -6.67,-26.75 c -0.5,-2 -1.35,-3.59 -5.38,-3.73 -0.31,0 -0.86,-0.05 -0.86,-1 0,-0.35 0.25,-0.55 0.66,-0.55 1.59,0 3.33,0.16 4.98,0.16 1.69,0 3.49,-0.16 5.13,-0.16 0.25,0 0.89,0 0.89,1 0,0.5 -0.44,0.55 -0.99,0.55 -2.89,0.09 -3.29,1.18 -3.29,2.18 0,0.35 0.04,0.6 0.2,1.14 l 6.58,26.32 c 0.2,-0.3 0.2,-0.39 0.45,-0.89 l 12.41,-29.35 c 0.34,-0.86 0.48,-0.95 0.93,-0.95 0.55,0 0.55,0.16 0.8,1.05 z"
             inkscape:connector-curvature="0"
             style="fill:#000000;stroke-width:0" /><path
             id="path33774"
             d="m 593.14,418.65 v 0.37 l -0.01,0.39 v 0.39 l -0.02,0.41 -0.04,0.84 -0.06,0.88 -0.08,0.92 -0.11,0.95 -0.13,0.97 -0.16,1.01 -0.2,1.02 -0.23,1.03 -0.27,1.05 -0.3,1.06 -0.35,1.07 -0.39,1.07 -0.22,0.53 -0.22,0.53 -0.24,0.53 -0.25,0.53 c -2.98,6.12 -7.27,9.36 -7.77,9.36 -0.29,0 -0.5,-0.19 -0.5,-0.49 0,-0.15 0,-0.25 0.94,-1.15 4.89,-4.92 7.74,-12.85 7.74,-23.27 0,-8.51 -1.85,-17.28 -8.04,-23.56 -0.64,-0.59 -0.64,-0.7 -0.64,-0.84 0,-0.3 0.21,-0.5 0.5,-0.5 0.5,0 4.97,3.39 7.93,9.71 2.53,5.47 3.12,11 3.12,15.19 z"
             inkscape:connector-curvature="0"
             style="fill:#000000;stroke-width:0" /></g>      </g>
    </g>
  </g>
</svg>
