<?xml version="1.0" encoding="UTF-8" standalone="no"?>
<!-- Created with Inkscape (http://www.inkscape.org/) -->

<svg
   xmlns:dc="http://purl.org/dc/elements/1.1/"
   xmlns:cc="http://creativecommons.org/ns#"
   xmlns:rdf="http://www.w3.org/1999/02/22-rdf-syntax-ns#"
   xmlns:svg="http://www.w3.org/2000/svg"
   xmlns="http://www.w3.org/2000/svg"
   xmlns:sodipodi="http://sodipodi.sourceforge.net/DTD/sodipodi-0.dtd"
   xmlns:inkscape="http://www.inkscape.org/namespaces/inkscape"
   width="132.11848mm"
   height="99.982193mm"
   viewBox="0 0 468.13636 354.26761"
   id="svg6046"
   version="1.1"
   inkscape:version="0.92.1 r15371"
   sodipodi:docname="neuronal_selectivity.svg"
   preserveAspectRatio="xMinYMin meet">
  <defs
     id="defs6048">
    <marker
       orient="auto"
       refY="0"
       refX="0"
       id="Arrow2Lend-7-1"
       style="overflow:visible">
      <path
         id="path4784-9-7"
         style="fill-rule:evenodd;stroke-width:0.625;stroke-linejoin:round"
         d="M 8.7185878,4.0337352 -2.2072895,0.01601326 8.7185884,-4.0017078 c -1.7454984,2.3720609 -1.7354408,5.6174519 -6e-7,8.035443 z"
         transform="matrix(-1.1,0,0,-1.1,-1.1,0)"
         inkscape:connector-curvature="0" />
    </marker>
    <marker
       inkscape:isstock="true"
       style="overflow:visible"
       id="marker6957-9-2-4"
       refX="0"
       refY="0"
       orient="auto"
       inkscape:stockid="Arrow2Lend">
      <path
         inkscape:connector-curvature="0"
         transform="matrix(-1.1,0,0,-1.1,-1.1,0)"
         d="M 8.7185878,4.0337352 -2.2072895,0.01601326 8.7185884,-4.0017078 c -1.7454984,2.3720609 -1.7354408,5.6174519 -6e-7,8.035443 z"
         style="fill:#000000;fill-opacity:1;fill-rule:evenodd;stroke:#000000;stroke-width:0.625;stroke-linejoin:round;stroke-opacity:1"
         id="path6720-7-5-4" />
    </marker>
    <marker
       orient="auto"
       refY="0"
       refX="0"
       id="Arrow2Lend-7-1-4"
       style="overflow:visible">
      <path
         id="path4784-9-7-2"
         style="fill-rule:evenodd;stroke-width:0.625;stroke-linejoin:round"
         d="M 8.7185878,4.0337352 -2.2072895,0.01601326 8.7185884,-4.0017078 c -1.7454984,2.3720609 -1.7354408,5.6174519 -6e-7,8.035443 z"
         transform="matrix(-1.1,0,0,-1.1,-1.1,0)"
         inkscape:connector-curvature="0" />
    </marker>
    <marker
       inkscape:isstock="true"
       style="overflow:visible"
       id="marker6957-9-2-4-2"
       refX="0"
       refY="0"
       orient="auto"
       inkscape:stockid="Arrow2Lend">
      <path
         inkscape:connector-curvature="0"
         transform="matrix(-1.1,0,0,-1.1,-1.1,0)"
         d="M 8.7185878,4.0337352 -2.2072895,0.01601326 8.7185884,-4.0017078 c -1.7454984,2.3720609 -1.7354408,5.6174519 -6e-7,8.035443 z"
         style="fill:#000000;fill-opacity:1;fill-rule:evenodd;stroke:#000000;stroke-width:0.625;stroke-linejoin:round;stroke-opacity:1"
         id="path6720-7-5-4-8" />
    </marker>
    <marker
       orient="auto"
       refY="0"
       refX="0"
       id="Arrow2Lend-7-1-4-1"
       style="overflow:visible">
      <path
         id="path4784-9-7-2-8"
         style="fill-rule:evenodd;stroke-width:0.625;stroke-linejoin:round"
         d="M 8.7185878,4.0337352 -2.2072895,0.01601326 8.7185884,-4.0017078 c -1.7454984,2.3720609 -1.7354408,5.6174519 -6e-7,8.035443 z"
         transform="matrix(-1.1,0,0,-1.1,-1.1,0)"
         inkscape:connector-curvature="0" />
    </marker>
    <marker
       inkscape:isstock="true"
       style="overflow:visible"
       id="marker6957-9-2-4-2-1-2"
       refX="0"
       refY="0"
       orient="auto"
       inkscape:stockid="Arrow2Lend">
      <path
         inkscape:connector-curvature="0"
         transform="matrix(-1.1,0,0,-1.1,-1.1,0)"
         d="M 8.7185878,4.0337352 -2.2072895,0.01601326 8.7185884,-4.0017078 c -1.7454984,2.3720609 -1.7354408,5.6174519 -6e-7,8.035443 z"
         style="fill:#000000;fill-opacity:1;fill-rule:evenodd;stroke:#000000;stroke-width:0.625;stroke-linejoin:round;stroke-opacity:1"
         id="path6720-7-5-4-8-5-1" />
    </marker>
    <marker
       orient="auto"
       refY="0"
       refX="0"
       id="Arrow2Lend-7-1-4-1-7-0"
       style="overflow:visible">
      <path
         id="path4784-9-7-2-8-9-4"
         style="fill-rule:evenodd;stroke-width:0.625;stroke-linejoin:round"
         d="M 8.7185878,4.0337352 -2.2072895,0.01601326 8.7185884,-4.0017078 c -1.7454984,2.3720609 -1.7354408,5.6174519 -6e-7,8.035443 z"
         transform="matrix(-1.1,0,0,-1.1,-1.1,0)"
         inkscape:connector-curvature="0" />
    </marker>
    <marker
       inkscape:stockid="Arrow2Mend"
       orient="auto"
       refY="0"
       refX="0"
       id="Arrow2Mend"
       style="overflow:visible"
       inkscape:isstock="true">
      <path
         id="path10774"
         style="fill:#000000;fill-opacity:1;fill-rule:evenodd;stroke:#000000;stroke-width:0.625;stroke-linejoin:round;stroke-opacity:1"
         d="M 8.7185878,4.0337352 -2.2072895,0.01601326 8.7185884,-4.0017078 c -1.7454984,2.3720609 -1.7354408,5.6174519 -6e-7,8.035443 z"
         transform="scale(-0.6)"
         inkscape:connector-curvature="0" />
    </marker>
  </defs>
  <sodipodi:namedview
     id="base"
     pagecolor="#ffffff"
     bordercolor="#666666"
     borderopacity="1.0"
     inkscape:pageopacity="0.0"
     inkscape:pageshadow="2"
     inkscape:zoom="1.1464242"
     inkscape:cx="150.85955"
     inkscape:cy="105.29216"
     inkscape:document-units="px"
     inkscape:current-layer="g6960-7-57-7-7"
     showgrid="false"
     fit-margin-top="0"
     fit-margin-left="0"
     fit-margin-right="0"
     fit-margin-bottom="0"
     inkscape:window-width="3840"
     inkscape:window-height="2021"
     inkscape:window-x="0"
     inkscape:window-y="65"
     inkscape:window-maximized="1" />
  <metadata
     id="metadata6051">
    <rdf:RDF>
      <cc:Work
         rdf:about="">
        <dc:format>image/svg+xml</dc:format>
        <dc:type
           rdf:resource="http://purl.org/dc/dcmitype/StillImage" />
        <dc:title />
      </cc:Work>
    </rdf:RDF>
  </metadata>
  <g
     inkscape:label="Layer 1"
     inkscape:groupmode="layer"
     id="layer1"
     transform="translate(284.43326,-680.32694)">
    <g
       transform="matrix(1.25,0,0,-1.25,-1597.1147,2126.9416)"
       id="g10530">
      <g
         id="g6472"
         transform="matrix(2.0894267,0,0,-2.0894267,-62.926947,3375.9815)">
        <g
           id="g6960-7-57-7-7"
           transform="translate(288.14286,210.13522)">
          <rect
             style="color:#000000;clip-rule:nonzero;display:inline;overflow:visible;visibility:visible;opacity:1;isolation:auto;mix-blend-mode:normal;color-interpolation:sRGB;color-interpolation-filters:linearRGB;solid-color:#000000;solid-opacity:1;fill:#ff7a76;fill-opacity:1;fill-rule:nonzero;stroke:none;stroke-width:0.625;stroke-linecap:butt;stroke-linejoin:miter;stroke-miterlimit:4;stroke-dasharray:none;stroke-dashoffset:0;stroke-opacity:1;color-rendering:auto;image-rendering:auto;shape-rendering:auto;text-rendering:auto;enable-background:accumulate"
             id="rect6016-3-8"
             width="125"
             height="55"
             x="297.3558"
             y="853.24658" />
          <rect
             style="color:#000000;clip-rule:nonzero;display:inline;overflow:visible;visibility:visible;opacity:1;isolation:auto;mix-blend-mode:normal;color-interpolation:sRGB;color-interpolation-filters:linearRGB;solid-color:#000000;solid-opacity:1;fill:#b5b3cc;fill-opacity:1;fill-rule:nonzero;stroke:none;stroke-width:0.625;stroke-linecap:butt;stroke-linejoin:miter;stroke-miterlimit:4;stroke-dasharray:none;stroke-dashoffset:0;stroke-opacity:1;color-rendering:auto;image-rendering:auto;shape-rendering:auto;text-rendering:auto;enable-background:accumulate"
             id="rect6014-0-7"
             width="125"
             height="50"
             x="297.3558"
             y="908.24658" />
          <path
             id="path4575-1-5-7-1-8"
             d="M 297.89952,959.02678 297.72095,853.00133"
             style="opacity:1;fill:none;stroke:#000000;stroke-width:0.7604478;stroke-linecap:butt;stroke-linejoin:miter;stroke-miterlimit:4;stroke-dasharray:none;stroke-opacity:1;marker-mid:none;marker-end:"
             inkscape:connector-curvature="0"
             sodipodi:nodetypes="cc" />
          <path
             id="path4577-5-5-3-0-7"
             d="m 297.25613,958.49916 c 40.79798,-0.24321 77.29827,-0.25221 120.46634,-0.18773 1.66035,0.002 3.33055,0.005 5.01125,0.008"
             style="opacity:1;fill:none;stroke:#000000;stroke-width:0.81264049;stroke-linecap:butt;stroke-linejoin:miter;stroke-miterlimit:4;stroke-dasharray:none;stroke-opacity:1;marker-mid:none;marker-end:"
             inkscape:connector-curvature="0"
             sodipodi:nodetypes="csc" />
          <path
             id="path7717-7-1-1-9"
             d="m 297.93594,908.02071 h 123.77641 v 0"
             style="opacity:1;fill:none;stroke:#000000;stroke-width:0.78874534;stroke-linecap:butt;stroke-linejoin:miter;stroke-miterlimit:4;stroke-dasharray:0.78874537, 0.78874537;stroke-dashoffset:0;stroke-opacity:1"
             inkscape:connector-curvature="0" />
          <g
             style="opacity:1"
             transform="matrix(0.7,0,0,0.7,215.69645,633.8263)"
             id="g4983-5-9-0-8">
            <g
               style="font-style:normal;font-variant:normal;font-weight:normal;font-stretch:normal;letter-spacing:normal;word-spacing:normal;text-anchor:start;fill:none;fill-opacity:1;fill-rule:evenodd;stroke:#000000;stroke-linecap:butt;stroke-linejoin:miter;stroke-miterlimit:10.43299961;stroke-dasharray:none;stroke-dashoffset:0;stroke-opacity:1"
               id="g6545-56-0-4-8"
               transform="matrix(0.32001901,0,0,-0.32001901,-56.003327,523.55997)"
               xml:space="preserve"
               stroke-miterlimit="10.433"
               font-style="normal"
               font-variant="normal"
               font-weight="normal"
               font-stretch="normal"
               font-size-adjust="none"
               letter-spacing="normal"
               word-spacing="normal"><path
                 style="fill:#000000;stroke-width:0"
                 d="m 486.8,434.54 0.23,0.36 0.23,0.33 0.22,0.31 0.22,0.29 0.22,0.28 0.22,0.25 0.22,0.24 0.22,0.22 0.21,0.2 0.21,0.19 0.21,0.17 0.2,0.16 0.21,0.14 0.2,0.13 0.21,0.12 0.19,0.11 0.2,0.09 0.2,0.09 0.19,0.07 0.2,0.07 0.19,0.06 0.19,0.05 0.18,0.04 0.19,0.03 0.18,0.03 0.19,0.03 0.36,0.04 0.35,0.02 0.35,0.02 c 0.6,0.05 0.64,0.89 0.64,0.96 0,0.39 -0.25,0.59 -0.64,0.59 -1.3,0 -2.75,-0.16 -4.09,-0.16 -1.64,0 -3.35,0.16 -4.94,0.16 -0.3,0 -0.94,0 -0.94,-0.95 0,-0.55 0.46,-0.6 0.8,-0.6 1.34,-0.09 2.3,-0.59 2.3,-1.64 0,-0.75 -0.75,-1.84 -0.75,-1.89 l -15.3,-24.31 -3.39,26.34 c 0,0.85 1.14,1.5 3.44,1.5 0.7,0 1.25,0 1.25,1 0,0.44 -0.41,0.55 -0.71,0.55 -1.98,0 -4.14,-0.16 -6.17,-0.16 -0.9,0 -1.84,0.05 -2.75,0.05 -0.89,0 -1.84,0.11 -2.69,0.11 -0.34,0 -0.93,0 -0.93,-0.95 0,-0.6 0.43,-0.6 1.23,-0.6 2.8,0 2.84,-0.45 3,-1.68 l 3.92,-30.75 c 0.16,-1 0.36,-1.14 1,-1.14 0.8,0 1,0.25 1.41,0.89 z"
                 id="path4986-8-0-8-1"
                 inkscape:connector-curvature="0" /><path
                 style="fill:#000000;stroke-width:0"
                 d="M 491.56,412.53 H 497 v 1.25 h -5.44 v 6.4 h -1.19 c -0.03,-3.12 -1.45,-6.57 -4.8,-6.68 v -0.97 h 3.24 v -9.41 c 0,-3.91 2.92,-4.7 4.87,-4.7 2.35,0 3.94,1.98 3.94,4.73 v 1.92 h -1.19 v -1.89 c 0,-2.36 -1.11,-3.65 -2.47,-3.65 -2.4,0 -2.4,2.92 -2.4,3.56 z"
                 id="path4988-1-6-0-2"
                 inkscape:connector-curvature="0" /><path
                 style="fill:#000000;stroke-width:0"
                 d="m 518.09,409.32 v 0.28 l -0.01,0.28 -0.03,0.26 -0.03,0.26 -0.04,0.25 -0.05,0.24 -0.06,0.24 -0.07,0.22 -0.08,0.22 -0.08,0.21 -0.1,0.2 -0.11,0.19 -0.12,0.19 -0.13,0.17 -0.14,0.17 -0.16,0.16 -0.16,0.15 -0.17,0.14 -0.19,0.13 -0.19,0.12 -0.21,0.12 -0.22,0.1 -0.23,0.09 -0.24,0.09 -0.26,0.07 -0.27,0.07 -0.28,0.05 -0.29,0.05 -0.3,0.03 -0.32,0.03 -0.33,0.02 h -0.34 c -3.11,0 -4.82,-1.84 -5.58,-3.16 h -0.03 v 11.99 l -5.24,-0.39 v -1.25 c 2.35,0 2.63,-0.25 2.63,-1.95 v -17.85 c 0,-1.5 -0.36,-1.5 -2.63,-1.5 v -1.25 c 0.08,0 2.52,0.14 3.99,0.14 1.28,0 3.68,-0.11 4,-0.14 v 1.25 c -2.27,0 -2.61,0 -2.61,1.5 v 6.28 c 0,3.66 2.89,5.36 5.18,5.36 2.44,0 2.75,-1.92 2.75,-3.69 v -7.95 c 0,-1.5 -0.34,-1.5 -2.61,-1.5 v -1.25 c 0.08,0 2.52,0.14 3.97,0.14 1.3,0 3.71,-0.11 4.02,-0.14 v 1.25 c -2.27,0 -2.63,0 -2.63,1.5 z"
                 id="path4990-8-30-8-0"
                 inkscape:connector-curvature="0" /></g>          </g>
          <text
             xml:space="preserve"
             style="font-style:normal;font-weight:normal;font-size:8.75000095px;line-height:125%;font-family:Sans;text-align:center;letter-spacing:0px;word-spacing:0px;text-anchor:middle;fill:#fffeff;fill-opacity:1;stroke:none;stroke-width:1px;stroke-linecap:butt;stroke-linejoin:miter;stroke-opacity:1"
             x="-876.73193"
             y="324.47095"
             id="text6018-3-7"
             transform="rotate(-88.873351)"><tspan
               sodipodi:role="line"
               id="tspan6020-1-6"
               x="-876.73193"
               y="324.47095">Active</tspan></text>
          <text
             transform="rotate(-88.873351)"
             id="text6022-3-0"
             y="325.45438"
             x="-926.72278"
             style="font-style:normal;font-weight:normal;font-size:8.75000095px;line-height:125%;font-family:Sans;text-align:center;letter-spacing:0px;word-spacing:0px;text-anchor:middle;fill:#fffeff;fill-opacity:1;stroke:none;stroke-width:1px;stroke-linecap:butt;stroke-linejoin:miter;stroke-opacity:1"
             xml:space="preserve"><tspan
               y="325.45438"
               x="-926.72278"
               id="tspan6024-6-6"
               sodipodi:role="line">Quiescent</tspan></text>
        </g>
        <g
           id="g19475">
          <g
             transform="translate(13.59488,88.13522)"
             id="g6300-5-2">
            <path
               id="path7729-9-1-9-2-8-5-3"
               d="m 584.72757,1037.2224 h 9.94552 v 0"
               style="opacity:1;fill:none;stroke:#000000;stroke-width:2.5;stroke-linecap:butt;stroke-linejoin:miter;stroke-miterlimit:4;stroke-dasharray:none;stroke-opacity:1"
               inkscape:connector-curvature="0"
               transform="translate(-0.3571467,-1.3395102e-6)" />
          </g>
          <g
             inkscape:tile-y0="426.63251"
             inkscape:tile-x0="227.95962"
             id="use8958-8-0"
             transform="translate(29.345937,110.01491)">
            <g
               id="g19404">
              <path
                 id="path19400"
                 d="m 584.72757,1037.2224 h 9.94552 v 0"
                 style="opacity:1;fill:none;stroke:#000000;stroke-width:2.5;stroke-linecap:butt;stroke-linejoin:miter;stroke-miterlimit:4;stroke-dasharray:none;stroke-opacity:1"
                 inkscape:connector-curvature="0"
                 transform="translate(-0.3571467,-1.3395102e-6)" />
            </g>
          </g>
          <g
             inkscape:tile-y0="426.63251"
             inkscape:tile-x0="227.95962"
             id="use8960-3-1"
             transform="translate(45.801378,47.00872)">
            <g
               id="g19392">
              <path
                 id="path19388"
                 d="m 584.72757,1037.2224 h 9.94552 v 0"
                 style="opacity:1;fill:none;stroke:#000000;stroke-width:2.5;stroke-linecap:butt;stroke-linejoin:miter;stroke-miterlimit:4;stroke-dasharray:none;stroke-opacity:1"
                 inkscape:connector-curvature="0"
                 transform="translate(-0.3571467,-1.3395102e-6)" />
            </g>
          </g>
          <g
             inkscape:tile-y0="426.63251"
             inkscape:tile-x0="227.95962"
             id="use8962-4-8"
             transform="translate(60.649134,99.46792)">
            <g
               id="g19380">
              <path
                 id="path19376"
                 d="m 584.72757,1037.2224 h 9.94552 v 0"
                 style="opacity:1;fill:none;stroke:#000000;stroke-width:2.5;stroke-linecap:butt;stroke-linejoin:miter;stroke-miterlimit:4;stroke-dasharray:none;stroke-opacity:1"
                 inkscape:connector-curvature="0"
                 transform="translate(-0.3571467,-1.3395102e-6)" />
            </g>
          </g>
          <g
             inkscape:tile-y0="426.63251"
             inkscape:tile-x0="227.95962"
             id="use8964-6-0"
             transform="translate(76.465903,68.13522)">
            <g
               id="g19368">
              <path
                 id="path19364"
                 d="m 584.72757,1037.2224 h 9.94552 v 0"
                 style="opacity:1;fill:none;stroke:#000000;stroke-width:2.5;stroke-linecap:butt;stroke-linejoin:miter;stroke-miterlimit:4;stroke-dasharray:none;stroke-opacity:1"
                 inkscape:connector-curvature="0"
                 transform="translate(-0.3571467,-1.3395102e-6)" />
            </g>
          </g>
          <g
             inkscape:tile-y0="426.63251"
             inkscape:tile-x0="227.95962"
             id="use8966-1-0"
             transform="translate(92.049779,94.59632)">
            <g
               id="g19356">
              <path
                 id="path19352"
                 d="m 584.72757,1037.2224 h 9.94552 v 0"
                 style="opacity:1;fill:none;stroke:#000000;stroke-width:2.5;stroke-linecap:butt;stroke-linejoin:miter;stroke-miterlimit:4;stroke-dasharray:none;stroke-opacity:1"
                 inkscape:connector-curvature="0"
                 transform="translate(-0.3571467,-1.3395102e-6)" />
            </g>
          </g>
          <g
             inkscape:tile-y0="426.63251"
             inkscape:tile-x0="227.95962"
             id="use8968-7-3"
             transform="translate(107.88358,63.200737)">
            <g
               id="g19344">
              <path
                 id="path19340"
                 d="m 584.72757,1037.2224 h 9.94552 v 0"
                 style="opacity:1;fill:none;stroke:#000000;stroke-width:2.5;stroke-linecap:butt;stroke-linejoin:miter;stroke-miterlimit:4;stroke-dasharray:none;stroke-opacity:1"
                 inkscape:connector-curvature="0"
                 transform="translate(-0.3571467,-1.3395102e-6)" />
            </g>
          </g>
        </g>
        <text
           xml:space="preserve"
           style="font-style:normal;font-weight:normal;font-size:10px;line-height:125%;font-family:Sans;text-align:center;letter-spacing:0px;word-spacing:0px;text-anchor:middle;fill:#000000;fill-opacity:1;stroke:none;stroke-width:1px;stroke-linecap:butt;stroke-linejoin:miter;stroke-opacity:1"
           x="563.63092"
           y="1178.6729"
           id="text11638"><tspan
             sodipodi:role="line"
             id="tspan11640"
             x="563.63092"
             y="1187.5205" /></text>
        <text
           transform="rotate(-90)"
           id="text17582-8"
           y="548.22272"
           x="-1109.1572"
           style="font-style:normal;font-weight:normal;font-size:9.57200336px;line-height:125%;font-family:Sans;text-align:center;letter-spacing:0px;word-spacing:0px;text-anchor:middle;opacity:1;fill:#000000;fill-opacity:1;stroke:none"
           xml:space="preserve"><tspan
             style="font-size:9.57200336px"
             y="548.22272"
             x="-1109.1572"
             id="tspan17584-9">Membrane</tspan></text>
        <text
           transform="rotate(-90)"
           y="559.70905"
           x="-1109.8751"
           style="font-style:normal;font-weight:normal;font-size:9.57200336px;line-height:125%;font-family:Sans;text-align:center;letter-spacing:0px;word-spacing:0px;text-anchor:middle;opacity:1;fill:#000000;fill-opacity:1;stroke:none"
           xml:space="preserve"
           id="text19264"><tspan
             style="font-size:9.57200336px"
             y="559.70905"
             x="-1109.8751"
             id="tspan19266"> Potential</tspan></text>
        <g
           id="g19453">
          <g
             id="g6030-4-1-0-0-9-5"
             transform="matrix(0.35328126,0,0,0.561,504.17542,675.02523)">
            <g
               transform="translate(3.0350179e-8,-9.7402608)"
               id="g6030-8-4">
              <rect
                 y="894.60864"
                 x="265.37341"
                 height="20.00407"
                 width="28.369408"
                 id="rect6028-7-1-9-2-6-5"
                 style="opacity:1;fill:#b5b3cc;fill-opacity:1;stroke:none;stroke-width:0.5;stroke-miterlimit:3.4000001;stroke-dasharray:none;stroke-dashoffset:0;stroke-opacity:1" />
              <text
                 xml:space="preserve"
                 style="font-style:normal;font-weight:normal;font-size:22.46251106px;line-height:125%;font-family:Sans;text-align:center;letter-spacing:0px;word-spacing:0px;text-anchor:middle;fill:#000000;fill-opacity:1;stroke:none;stroke-width:1px;stroke-linecap:butt;stroke-linejoin:miter;stroke-opacity:1"
                 x="221.89491"
                 y="1147.9133"
                 id="text6026-1-3"
                 transform="scale(1.2601468,0.79355834)"><tspan
                   sodipodi:role="line"
                   id="tspan6028-5-4"
                   x="221.89491"
                   y="1147.9133">-</tspan></text>
            </g>
          </g>
          <g
             id="g6030-4-1-0-0-8-6-9"
             transform="matrix(0.35328126,0,0,0.561,536.37879,675.56094)">
            <g
               transform="translate(3.0350179e-8,-10.695188)"
               id="g6030-1-3-9">
              <rect
                 y="894.60864"
                 x="265.37341"
                 height="20.00407"
                 width="28.369408"
                 id="rect6028-7-1-9-2-8-0-0"
                 style="opacity:1;fill:#ff006c;fill-opacity:1;stroke:none;stroke-width:0.5;stroke-miterlimit:3.4000001;stroke-dasharray:none;stroke-dashoffset:0;stroke-opacity:1" />
              <text
                 xml:space="preserve"
                 style="font-style:normal;font-weight:normal;font-size:22.46251106px;line-height:125%;font-family:Sans;text-align:center;letter-spacing:0px;word-spacing:0px;text-anchor:middle;fill:#000000;fill-opacity:1;stroke:none;stroke-width:1px;stroke-linecap:butt;stroke-linejoin:miter;stroke-opacity:1"
                 x="221.89491"
                 y="1147.9133"
                 id="text6026-7-0-0"
                 transform="scale(1.2601468,0.79355834)"><tspan
                   sodipodi:role="line"
                   id="tspan6028-3-1-6"
                   x="221.89491"
                   y="1147.9133">+</tspan></text>
            </g>
          </g>
          <g
             transform="matrix(0.35328126,0,0,0.561,519.8664,669.56094)"
             id="g6030-7-6-2">
            <rect
               y="894.60864"
               x="265.37341"
               height="20.00407"
               width="28.369408"
               id="rect6028-7-1-9-2-7-6-0"
               style="opacity:1;fill:#b5b3cc;fill-opacity:1;stroke:none;stroke-width:0.5;stroke-miterlimit:3.4000001;stroke-dasharray:none;stroke-dashoffset:0;stroke-opacity:1" />
            <text
               xml:space="preserve"
               style="font-style:normal;font-weight:normal;font-size:22.46251106px;line-height:125%;font-family:Sans;text-align:center;letter-spacing:0px;word-spacing:0px;text-anchor:middle;fill:#000000;fill-opacity:1;stroke:none;stroke-width:1px;stroke-linecap:butt;stroke-linejoin:miter;stroke-opacity:1"
               x="221.89491"
               y="1147.9133"
               id="text6026-0-7-9"
               transform="scale(1.2601468,0.79355834)"><tspan
                 sodipodi:role="line"
                 id="tspan6028-4-1-3"
                 x="221.89491"
                 y="1147.9133">-</tspan></text>
          </g>
          <g
             transform="matrix(0.35328126,0,0,0.561,551.21265,669.56094)"
             id="g6030-7-7-6-6">
            <rect
               y="894.60864"
               x="265.37341"
               height="20.00407"
               width="28.369408"
               id="rect6028-7-1-9-2-7-0-5-6"
               style="opacity:1;fill:#b5b3cc;fill-opacity:1;stroke:none;stroke-width:0.5;stroke-miterlimit:3.4000001;stroke-dasharray:none;stroke-dashoffset:0;stroke-opacity:1" />
            <text
               xml:space="preserve"
               style="font-style:normal;font-weight:normal;font-size:22.46251106px;line-height:125%;font-family:Sans;text-align:center;letter-spacing:0px;word-spacing:0px;text-anchor:middle;fill:#000000;fill-opacity:1;stroke:none;stroke-width:1px;stroke-linecap:butt;stroke-linejoin:miter;stroke-opacity:1"
               x="221.89491"
               y="1147.9133"
               id="text6026-0-3-4-1"
               transform="scale(1.2601468,0.79355834)"><tspan
                 sodipodi:role="line"
                 id="tspan6028-4-5-6-6"
                 x="221.89491"
                 y="1147.9133">-</tspan></text>
          </g>
          <g
             transform="matrix(0.35328126,0,0,0.561,582.42844,669.56094)"
             id="g6030-7-7-3-6-5">
            <rect
               y="894.60864"
               x="265.37341"
               height="20.00407"
               width="28.369408"
               id="rect6028-7-1-9-2-7-0-4-4-8"
               style="opacity:1;fill:#b5b3cc;fill-opacity:1;stroke:none;stroke-width:0.5;stroke-miterlimit:3.4000001;stroke-dasharray:none;stroke-dashoffset:0;stroke-opacity:1" />
            <text
               xml:space="preserve"
               style="font-style:normal;font-weight:normal;font-size:22.46251106px;line-height:125%;font-family:Sans;text-align:center;letter-spacing:0px;word-spacing:0px;text-anchor:middle;fill:#000000;fill-opacity:1;stroke:none;stroke-width:1px;stroke-linecap:butt;stroke-linejoin:miter;stroke-opacity:1"
               x="221.89491"
               y="1147.9133"
               id="text6026-0-3-0-8-5"
               transform="scale(1.2601468,0.79355834)"><tspan
                 sodipodi:role="line"
                 id="tspan6028-4-5-9-9-5"
                 x="221.89491"
                 y="1147.9133">-</tspan></text>
          </g>
          <g
             id="g6030-4-1-0-0-8-7-9-9"
             transform="matrix(0.35328126,0,0,0.561,567.04645,675.56094)">
            <g
               transform="translate(3.0350179e-8,-10.695188)"
               id="g6030-1-9-6-8">
              <rect
                 y="894.60864"
                 x="265.37341"
                 height="20.00407"
                 width="28.369408"
                 id="rect6028-7-1-9-2-8-6-1-9"
                 style="opacity:1;fill:#ff006c;fill-opacity:1;stroke:none;stroke-width:0.5;stroke-miterlimit:3.4000001;stroke-dasharray:none;stroke-dashoffset:0;stroke-opacity:1" />
              <text
                 xml:space="preserve"
                 style="font-style:normal;font-weight:normal;font-size:22.46251106px;line-height:125%;font-family:Sans;text-align:center;letter-spacing:0px;word-spacing:0px;text-anchor:middle;fill:#000000;fill-opacity:1;stroke:none;stroke-width:1px;stroke-linecap:butt;stroke-linejoin:miter;stroke-opacity:1"
                 x="221.89491"
                 y="1147.9133"
                 id="text6026-7-3-9-1"
                 transform="scale(1.2601468,0.79355834)"><tspan
                   sodipodi:role="line"
                   id="tspan6028-3-9-1-5"
                   x="221.89491"
                   y="1147.9133">+</tspan></text>
            </g>
          </g>
          <g
             id="g6030-4-1-0-0-8-3-2-8"
             transform="matrix(0.35328126,0,0,0.561,598.46412,675.56094)">
            <g
               transform="translate(3.0350179e-8,-10.695188)"
               id="g6030-1-2-4-2">
              <rect
                 y="894.60864"
                 x="265.37341"
                 height="20.00407"
                 width="28.369408"
                 id="rect6028-7-1-9-2-8-5-0-4"
                 style="opacity:1;fill:#ff006c;fill-opacity:1;stroke:none;stroke-width:0.5;stroke-miterlimit:3.4000001;stroke-dasharray:none;stroke-dashoffset:0;stroke-opacity:1" />
              <text
                 xml:space="preserve"
                 style="font-style:normal;font-weight:normal;font-size:22.46251106px;line-height:125%;font-family:Sans;text-align:center;letter-spacing:0px;word-spacing:0px;text-anchor:middle;fill:#000000;fill-opacity:1;stroke:none;stroke-width:1px;stroke-linecap:butt;stroke-linejoin:miter;stroke-opacity:1"
                 x="221.89491"
                 y="1147.9133"
                 id="text6026-7-7-3-1"
                 transform="scale(1.2601468,0.79355834)"><tspan
                   sodipodi:role="line"
                   id="tspan6028-3-3-4-7"
                   x="221.89491"
                   y="1147.9133">+</tspan></text>
            </g>
          </g>
          <text
             xml:space="preserve"
             style="font-style:normal;font-weight:normal;font-size:9.57200336px;line-height:125%;font-family:Sans;text-align:center;letter-spacing:0px;word-spacing:0px;text-anchor:middle;fill:#000000;fill-opacity:1;stroke:none;stroke-width:1px;stroke-linecap:butt;stroke-linejoin:miter;stroke-opacity:1"
             x="552.89343"
             y="1183.6951"
             id="text7018-6"><tspan
               sodipodi:role="line"
               x="552.89343"
               y="1183.6951"
               id="tspan7022-4">Stimulus</tspan><tspan
               sodipodi:role="line"
               x="552.89343"
               y="1195.66"
               id="tspan11612">Class</tspan></text>
          <path
             style="fill:none;fill-rule:evenodd;stroke:#000000;stroke-width:1px;stroke-linecap:butt;stroke-linejoin:miter;stroke-opacity:1;marker-end:url(#Arrow2Mend)"
             d="m 574.83743,1179.6708 h 15.41666"
             id="path10665"
             inkscape:connector-curvature="0" />
        </g>
        <text
           xml:space="preserve"
           style="font-style:normal;font-weight:normal;font-size:11.48640442px;line-height:125%;font-family:Sans;text-align:center;letter-spacing:0px;word-spacing:0px;text-anchor:middle;fill:#000000;fill-opacity:1;stroke:none;stroke-width:1px;stroke-linecap:butt;stroke-linejoin:miter;stroke-opacity:1"
           x="579.79236"
           y="1171.3795"
           id="text4471-66"><tspan
             sodipodi:role="line"
             id="tspan4473-8"
             x="579.79236"
             y="1171.3795">0</tspan></text>
      </g>
      <text
         transform="scale(1,-1)"
         id="text17576-7"
         y="-874.16083"
         x="1232.1766"
         style="font-style:normal;font-weight:normal;font-size:20px;line-height:125%;font-family:Sans;text-align:start;letter-spacing:0px;word-spacing:0px;text-anchor:start;opacity:1;fill:#000000;fill-opacity:1;stroke:none"
         xml:space="preserve"><tspan
           style="font-size:20px"
           id="tspan17580-9"
           y="-874.16083"
           x="1232.1766">Stimulus #</tspan></text>
    </g>
  </g>
</svg>
