<?xml version="1.0" encoding="UTF-8" standalone="no"?>
<!-- Created with Inkscape (http://www.inkscape.org/) -->

<svg
   xmlns:dc="http://purl.org/dc/elements/1.1/"
   xmlns:cc="http://creativecommons.org/ns#"
   xmlns:rdf="http://www.w3.org/1999/02/22-rdf-syntax-ns#"
   xmlns:svg="http://www.w3.org/2000/svg"
   xmlns="http://www.w3.org/2000/svg"
   xmlns:sodipodi="http://sodipodi.sourceforge.net/DTD/sodipodi-0.dtd"
   xmlns:inkscape="http://www.inkscape.org/namespaces/inkscape"
   width="348.80038mm"
   height="97.20034mm"
   viewBox="0 0 348.80039 97.20034"
   version="1.1"
   id="svg8"
   inkscape:version="0.92.1 r15371"
   sodipodi:docname="theory.svg">
  <sodipodi:namedview
     id="base"
     pagecolor="#ffffff"
     bordercolor="#666666"
     borderopacity="1.0"
     inkscape:pageopacity="0.0"
     inkscape:pageshadow="2"
     inkscape:zoom="1.4142136"
     inkscape:cx="495.17759"
     inkscape:cy="-69.886574"
     inkscape:document-units="mm"
     inkscape:current-layer="layer1"
     showgrid="false"
     inkscape:window-width="3840"
     inkscape:window-height="2021"
     inkscape:window-x="0"
     inkscape:window-y="65"
     inkscape:window-maximized="1"
     fit-margin-top="0"
     fit-margin-left="0"
     fit-margin-right="0"
     fit-margin-bottom="0" />
  <defs
     id="defs2" />
  <metadata
     id="metadata5">
    <rdf:RDF>
      <cc:Work
         rdf:about="">
        <dc:format>image/svg+xml</dc:format>
        <dc:type
           rdf:resource="http://purl.org/dc/dcmitype/StillImage" />
        <dc:title></dc:title>
      </cc:Work>
    </rdf:RDF>
  </metadata>
  <g
     inkscape:label="Layer 1"
     inkscape:groupmode="layer"
     id="layer1"
     transform="translate(30.362357,-16.37658)">
    <path
       style="font-style:normal;font-variant:normal;font-weight:normal;font-stretch:normal;letter-spacing:normal;word-spacing:normal;text-anchor:start;fill:#000000;fill-opacity:1;fill-rule:evenodd;stroke:#000000;stroke-width:0;stroke-linecap:butt;stroke-linejoin:miter;stroke-miterlimit:10.43299961;stroke-dasharray:none;stroke-dashoffset:0;stroke-opacity:1"
       inkscape:connector-curvature="0"
       d="m -21.818354,25.03158 0.069,-0.105 0.069,-0.099 0.066,-0.093 0.066,-0.09 0.066,-0.081 0.066,-0.075 0.066,-0.072 0.066,-0.066 0.063,-0.06 0.063,-0.057 0.063,-0.051 0.06,-0.048 0.063,-0.042 0.06,-0.039 0.063,-0.036 0.057,-0.033 0.06,-0.027 0.06,-0.027 0.057,-0.021 0.06,-0.021 0.057,-0.018 0.057,-0.015 0.054,-0.012 0.057,-0.012 0.054,-0.009 0.057,-0.006 0.108,-0.012 0.105,-0.009 0.105,-0.006 c 0.18,-0.012 0.192,-0.267 0.192,-0.285 0,-0.117 -0.075,-0.177 -0.192,-0.177 -0.39,0 -0.825,0.045 -1.227,0.045 -0.492,0 -1.005,-0.045 -1.482,-0.045 -0.09,0 -0.282,0 -0.282,0.285 0,0.165 0.137999,0.177 0.24,0.177 0.401999,0.03 0.69,0.18 0.69,0.492 0,0.225 -0.225001,0.555 -0.225001,0.57 l -4.589999,7.293 -1.017001,-7.905 c 0,-0.252 0.342001,-0.45 1.032001,-0.45 0.21,0 0.375,0 0.375,-0.3 0,-0.129 -0.123,-0.162 -0.213,-0.162 -0.594,0 -1.242001,0.045 -1.851001,0.045 -0.27,0 -0.552,-0.012 -0.825001,-0.012 -0.267,0 -0.552,-0.033 -0.807,-0.033 -0.102,0 -0.279,0 -0.279,0.285 0,0.177 0.129,0.177 0.369,0.177 0.84,0 0.852,0.138 0.9,0.507 l 1.176001,9.225 c 0.048,0.3 0.108,0.342 0.3,0.342 0.240001,0 0.300001,-0.075 0.423001,-0.267 z"
       id="path4488" />
    <path
       style="font-style:normal;font-variant:normal;font-weight:normal;font-stretch:normal;letter-spacing:normal;word-spacing:normal;text-anchor:start;fill:#000000;fill-opacity:1;fill-rule:evenodd;stroke:#000000;stroke-width:0;stroke-linecap:butt;stroke-linejoin:miter;stroke-miterlimit:10.43299961;stroke-dasharray:none;stroke-dashoffset:0;stroke-opacity:1"
       inkscape:connector-curvature="0"
       d="m -14.705354,33.75558 v -0.042 l 0.003,-0.039 v -0.036 l 0.003,-0.033 0.003,-0.033 0.006,-0.03 0.006,-0.027 0.006,-0.024 0.009,-0.024 0.012,-0.021 0.009,-0.021 0.015,-0.015 0.015,-0.018 0.015,-0.015 0.018,-0.012 0.021,-0.012 0.024,-0.009 0.024,-0.009 0.027,-0.009 0.03,-0.006 0.03,-0.006 0.033,-0.003 0.039,-0.003 0.018,-0.003 0.021,-0.003 h 0.021 0.021 l 0.021,-0.003 h 0.024 0.021 0.027 0.024 l 0.027,-0.003 h 0.024 0.027 0.03 0.03 0.027 0.033 0.03 0.033 v -0.375 c -0.075,0 -0.834,0.039 -1.35,0.039 -0.552,0 -1.347,0 -1.89,-0.039 v 0.375 h 0.399 c 1.044,0 1.044,0.135 1.044,0.48 v 0.669 c 0,0.231 0,0.636 -0.6,0.933 -0.51,0.258 -1.095,0.258 -1.23,0.258 -1.182,0 -3.114,-0.681 -3.114,-3.408 0,-2.781 1.983,-3.393 3.018,-3.393 1.017,0 2.271,0.678 2.541,2.484 0.024,0.126 0.117,0.126 0.189,0.126 0.186,0 0.186,-0.06 0.186,-0.273 v -2.445 c 0,-0.18 0,-0.273 -0.144,-0.273 -0.042,0 -0.096,0 -0.18,0.126 l -0.552,0.798 c -0.51,-0.525 -1.257,-0.924 -2.175,-0.924 -2.175,0 -4.002,1.683 -4.002,3.774 0,2.073 1.776,3.786 4.035,3.786 0.576,0 1.734,-0.108 2.226,-0.837 0.177,0.27 0.564,0.627 0.672,0.627 0.12,0 0.12,-0.117 0.12,-0.273 z"
       id="path4490" />
    <path
       style="font-style:normal;font-variant:normal;font-weight:normal;font-stretch:normal;letter-spacing:normal;word-spacing:normal;text-anchor:start;fill:#000000;fill-opacity:1;fill-rule:evenodd;stroke:#000000;stroke-width:0;stroke-linecap:butt;stroke-linejoin:miter;stroke-miterlimit:10.43299961;stroke-dasharray:none;stroke-dashoffset:0;stroke-opacity:1"
       inkscape:connector-curvature="0"
       d="m 1.9266444,28.64658 h 0.042 0.045 l 0.042,-0.003 h 0.021 0.024 l 0.021,-0.003 0.021,-0.003 0.021,-0.003 0.021,-0.003 0.021,-0.003 0.018,-0.006 0.021,-0.006 0.018,-0.006 0.018,-0.009 0.018,-0.006 0.018,-0.009 0.015,-0.012 0.015,-0.012 0.015,-0.012 0.012,-0.012 0.012,-0.015 0.006,-0.009 0.006,-0.009 0.003,-0.009 0.006,-0.009 0.003,-0.009 0.006,-0.009 0.003,-0.009 0.003,-0.012 0.003,-0.009 0.003,-0.012 v -0.012 l 0.003,-0.012 v -0.012 l 0.003,-0.012 v -0.015 -0.012 c 0,-0.3 -0.2849999,-0.3 -0.4919996,-0.3 h -8.9519982 c -0.213,0 -0.492,0 -0.492,0.3 0,0.294 0.279,0.294 0.504,0.294 z"
       id="path4492" />
    <path
       style="font-style:normal;font-variant:normal;font-weight:normal;font-stretch:normal;letter-spacing:normal;word-spacing:normal;text-anchor:start;fill:#000000;fill-opacity:1;fill-rule:evenodd;stroke:#000000;stroke-width:0;stroke-linecap:butt;stroke-linejoin:miter;stroke-miterlimit:10.43299961;stroke-dasharray:none;stroke-dashoffset:0;stroke-opacity:1"
       inkscape:connector-curvature="0"
       d="m 1.9416444,31.54758 h 0.021 0.018 0.042 0.042 l 0.021,-0.003 h 0.021 l 0.021,-0.003 0.021,-0.003 0.018,-0.003 0.021,-0.003 0.021,-0.003 0.018,-0.006 0.021,-0.006 0.018,-0.006 0.018,-0.009 0.018,-0.006 0.015,-0.012 0.015,-0.009 0.015,-0.012 0.015,-0.012 0.012,-0.015 0.006,-0.006 0.006,-0.009 0.006,-0.009 0.006,-0.006 0.003,-0.009 0.006,-0.009 0.003,-0.009 0.006,-0.012 0.003,-0.009 0.003,-0.012 0.003,-0.009 0.003,-0.012 v -0.012 l 0.003,-0.012 v -0.012 l 0.003,-0.015 v -0.012 -0.015 c 0,-0.3 -0.2849999,-0.3 -0.5069996,-0.3 h -8.9249982 c -0.225,0 -0.504,0 -0.504,0.3 0,0.3 0.279,0.3 0.492,0.3 z"
       id="path4494" />
    <path
       style="font-style:normal;font-variant:normal;font-weight:normal;font-stretch:normal;letter-spacing:normal;word-spacing:normal;text-anchor:start;fill:#000000;fill-opacity:1;fill-rule:evenodd;stroke:#000000;stroke-width:0;stroke-linecap:butt;stroke-linejoin:miter;stroke-miterlimit:10.43299961;stroke-dasharray:none;stroke-dashoffset:0;stroke-opacity:1"
       inkscape:connector-curvature="0"
       d="m 11.526638,34.66458 -0.012,0.114 -0.009,0.111 -0.021,0.216 -0.024,0.204 -0.024,0.195 -0.027,0.183 -0.03,0.177 -0.03,0.165 -0.033,0.159 -0.036,0.147 -0.036,0.141 -0.039,0.132 -0.042,0.123 -0.042,0.114 -0.045,0.108 -0.048,0.099 -0.048,0.093 -0.051,0.087 -0.051,0.078 -0.057,0.072 -0.054,0.063 -0.06,0.06 -0.06,0.051 -0.063,0.048 -0.063,0.039 -0.066,0.036 -0.069,0.03 -0.069,0.024 -0.072,0.021 -0.072,0.015 -0.078,0.009 -0.075,0.006 -0.081,0.003 c -0.192,0 -0.6419997,-0.042 -0.9539997,-0.315 0.435,-0.054 0.5519997,-0.402 0.5519997,-0.609 0,-0.435 -0.3269997,-0.627 -0.6149994,-0.627 -0.294,0 -0.6209987,0.192 -0.6209987,0.642 0,0.717 0.7439984,1.236 1.6379981,1.236 1.421999,0 2.138999,-1.296 2.465999,-2.643 0.198,-0.777 0.738,-5.127 0.855,-6.783 l 0.285,-3.72 c 0.207,-2.754 0.716999,-3.129 1.385999,-3.129 0.15,0 0.615,0.033 0.944999,0.315 -0.431999,0.06 -0.554999,0.402 -0.554999,0.615 0,0.432 0.33,0.627 0.614999,0.627 0.3,0 0.627,-0.195 0.627,-0.642 0,-0.717 -0.749999,-1.242 -1.643999,-1.242 -1.421999,0 -2.000999,1.449 -2.255999,2.589 -0.183,0.819 -0.717,5.034 -0.852,6.843 z"
       id="path4496" />
    <path
       style="font-style:normal;font-variant:normal;font-weight:normal;font-stretch:normal;letter-spacing:normal;word-spacing:normal;text-anchor:start;fill:#000000;fill-opacity:1;fill-rule:evenodd;stroke:#000000;stroke-width:0;stroke-linecap:butt;stroke-linejoin:miter;stroke-miterlimit:10.43299961;stroke-dasharray:none;stroke-dashoffset:0;stroke-opacity:1"
       inkscape:connector-curvature="0"
       d="m 22.929634,33.53658 0.075,-0.822 c 1.707,-4.17 2.019,-6.771 2.232,-8.562 0.996,0 4.821,0 4.821,3.285 0,2.931 -2.628,5.277 -6.243,5.277 h -0.81 l -0.075,0.822 c 3.483,0 8.4,-2.664 8.4,-6.741 0,-1.332 -0.624,-2.166 -1.359,-2.631 -1.284,-0.837 -2.658,-0.837 -4.08,-0.837 -1.284,0 -2.169,0 -3.42,0.537 -1.989,0.882 -2.274,2.124 -2.274,2.241 0,0.09 0.06,0.123 0.15,0.123 0.24,0 0.579,-0.21 0.702,-0.285 0.315,-0.207 0.357,-0.3 0.447,-0.582 0.21,-0.6 0.627,-1.122 2.511,-1.209 -0.24,3.12 -1.002,5.976 -2.049,8.592 -0.552,0.192 -0.909,0.537 -0.909,0.687 0,0.09 0.015,0.105 0.342,0.105 z"
       id="path4498" />
    <path
       style="font-style:normal;font-variant:normal;font-weight:normal;font-stretch:normal;letter-spacing:normal;word-spacing:normal;text-anchor:start;fill:#000000;fill-opacity:1;fill-rule:evenodd;stroke:#000000;stroke-width:0;stroke-linecap:butt;stroke-linejoin:miter;stroke-miterlimit:10.43299961;stroke-dasharray:none;stroke-dashoffset:0;stroke-opacity:1"
       inkscape:connector-curvature="0"
       d="m 39.261634,37.12158 v -0.009 -0.006 -0.006 -0.003 l -0.003,-0.003 v -0.006 l -0.003,-0.006 v -0.003 l -0.003,-0.006 -0.003,-0.006 -0.003,-0.009 -0.006,-0.006 -0.003,-0.006 -0.006,-0.009 -0.006,-0.009 -0.009,-0.009 -0.006,-0.012 -0.009,-0.009 -0.006,-0.006 -0.006,-0.006 -0.003,-0.006 -0.006,-0.006 -0.006,-0.009 -0.006,-0.006 -0.006,-0.006 -0.006,-0.009 -0.009,-0.006 -0.006,-0.009 -0.006,-0.006 -0.009,-0.009 -0.009,-0.009 -0.006,-0.009 -0.009,-0.009 -0.009,-0.009 -0.009,-0.009 -0.012,-0.009 -0.009,-0.012 -0.009,-0.009 -0.012,-0.012 -0.009,-0.012 -0.012,-0.009 -0.012,-0.012 c -1.866,-1.884 -2.343,-4.707 -2.343,-6.993 0,-2.604 0.567,-5.205 2.403,-7.071 0.192,-0.183 0.192,-0.21 0.192,-0.258 0,-0.102 -0.054,-0.144 -0.144,-0.144 -0.15,0 -1.497,1.011 -2.376,2.91 -0.765,1.647 -0.945,3.306 -0.945,4.563 0,1.167 0.165,2.97 0.987,4.662 0.894,1.839 2.184,2.808 2.334,2.808 0.09,0 0.144,-0.042 0.144,-0.15 z"
       id="path4500" />
    <path
       style="font-style:normal;font-variant:normal;font-weight:normal;font-stretch:normal;letter-spacing:normal;word-spacing:normal;text-anchor:start;fill:#000000;fill-opacity:1;fill-rule:evenodd;stroke:#000000;stroke-width:0;stroke-linecap:butt;stroke-linejoin:miter;stroke-miterlimit:10.43299961;stroke-dasharray:none;stroke-dashoffset:0;stroke-opacity:1"
       inkscape:connector-curvature="0"
       d="m 49.146634,24.26958 0.003,-0.012 0.003,-0.009 0.003,-0.009 0.003,-0.009 0.003,-0.012 v -0.006 l 0.003,-0.009 0.003,-0.009 0.003,-0.009 v -0.006 l 0.003,-0.009 0.003,-0.006 0.003,-0.009 v -0.006 l 0.003,-0.006 0.003,-0.006 0.003,-0.012 0.003,-0.012 0.006,-0.009 0.003,-0.012 0.003,-0.009 0.006,-0.006 0.003,-0.009 0.006,-0.006 0.003,-0.006 0.006,-0.006 0.006,-0.003 0.003,-0.006 0.006,-0.003 0.006,-0.003 0.006,-0.003 0.006,-0.003 0.006,-0.003 h 0.009 l 0.006,-0.003 0.009,-0.003 h 0.009 l 0.009,-0.003 h 0.009 l 0.009,-0.003 c 0.177,-0.027 0.39,-0.027 0.567,-0.027 0.39,0 0.627,0 0.627,-0.435 0,-0.03 -0.012,-0.267 -0.312,-0.267 -0.3,0 -0.63,0.027 -0.942,0.027 -0.33,0 -0.69,0.015 -1.032,0.015 -0.582,0 -2.016,-0.042 -2.601,-0.042 -0.18,0 -0.447,0 -0.447,0.429 0,0.273 0.24,0.273 0.507,0.273 h 0.525 c 0.582,0 0.609,0 0.969,0.042 l -1.809,7.251 c -0.375,1.524 -1.317,1.971 -2.001,1.971 -0.135,0 -0.777,-0.015 -1.227,-0.357 0.807,-0.198 1.077,-0.897 1.077,-1.305 0,-0.492 -0.402,-0.846 -0.915,-0.846 -0.594,0 -1.326,0.477 -1.326,1.419 0,1.032 1.032,1.626 2.466,1.626 1.674,0 3.483,-0.684 3.915,-2.436 z"
       id="path4502" />
    <path
       style="font-style:normal;font-variant:normal;font-weight:normal;font-stretch:normal;letter-spacing:normal;word-spacing:normal;text-anchor:start;fill:#000000;fill-opacity:1;fill-rule:evenodd;stroke:#000000;stroke-width:0;stroke-linecap:butt;stroke-linejoin:miter;stroke-miterlimit:10.43299961;stroke-dasharray:none;stroke-dashoffset:0;stroke-opacity:1"
       inkscape:connector-curvature="0"
       d="m 55.407634,29.80158 v -0.114 -0.114 l -0.003,-0.117 -0.006,-0.123 -0.012,-0.252 -0.018,-0.264 -0.024,-0.276 -0.03,-0.285 -0.042,-0.294 -0.048,-0.3 -0.06,-0.306 -0.069,-0.312 -0.081,-0.315 -0.09,-0.318 -0.105,-0.318 -0.117,-0.321 -0.066,-0.159 -0.066,-0.159 -0.072,-0.159 -0.075,-0.159 c -0.894,-1.839 -2.178,-2.808 -2.328,-2.808 -0.09,0 -0.15,0.057 -0.15,0.144 0,0.048 0,0.075 0.279,0.348 1.467,1.476 2.322,3.852 2.322,6.981 0,2.553 -0.555,5.184 -2.409,7.068 -0.192,0.177 -0.192,0.21 -0.192,0.252 0,0.09 0.06,0.15 0.15,0.15 0.15,0 1.491,-1.017 2.376,-2.916 0.759,-1.641 0.936,-3.3 0.936,-4.554 z"
       id="path4504" />
    <path
       style="font-style:normal;font-variant:normal;font-weight:normal;font-stretch:normal;letter-spacing:normal;word-spacing:normal;text-anchor:start;fill:#000000;fill-opacity:1;fill-rule:evenodd;stroke:#000000;stroke-width:0;stroke-linecap:butt;stroke-linejoin:miter;stroke-miterlimit:10.43299961;stroke-dasharray:none;stroke-dashoffset:0;stroke-opacity:1"
       inkscape:connector-curvature="0"
       d="m 64.740625,37.28958 v -0.6 c -1.541991,0 -1.541991,-0.732 -1.541991,-1.182 v -12.567 h 6.446964 v 12.567 c 0,0.45 0,1.182 -1.544991,1.182 v 0.6 h 4.529973 v -0.6 c -1.538991,0 -1.538991,-0.732 -1.538991,-1.182 v -11.391 c 0,-0.444 0,-1.176 1.538991,-1.176 v -0.6 H 60.213634 v 0.6 c 1.536,0 1.536,0.732 1.536,1.176 v 11.391 c 0,0.45 0,1.182 -1.536,1.182 v 0.6 z"
       id="path4506" />
    <path
       style="font-style:normal;font-variant:normal;font-weight:normal;font-stretch:normal;letter-spacing:normal;word-spacing:normal;text-anchor:start;fill:#000000;fill-opacity:1;fill-rule:evenodd;stroke:#000000;stroke-width:0;stroke-linecap:butt;stroke-linejoin:miter;stroke-miterlimit:10.43299961;stroke-dasharray:none;stroke-dashoffset:0;stroke-opacity:1"
       inkscape:connector-curvature="0"
       d="m 77.046556,22.80858 0.045,-0.336 0.710994,-2.832 c 0.084,-0.324 0.093,-0.357 0.533997,-0.357 h 1.223994 c 0.971994,0 1.574991,0.297 1.574991,1.038 0,0.324 -0.123,1.149 -0.647997,1.62 -0.374997,0.333 -0.968994,0.531 -1.724988,0.531 h -1.670991 l -0.045,0.336 h 1.895988 c 1.766991,0 3.260982,-1.128 3.260982,-2.268 0,-0.882 -0.857994,-1.632 -2.291988,-1.632 h -3.653979 c -0.212997,0 -0.335997,0 -0.335997,0.231 0,0.144 0.114,0.144 0.344997,0.144 0.168,0 0.21,0 0.396,0.024 0.212997,0.021 0.230997,0.042 0.230997,0.147 0,0.018 0,0.069 -0.042,0.228 l -1.379991,5.508 c -0.105,0.408 -0.114,0.483 -0.929994,0.483 -0.189,0 -0.315,0 -0.315,0.231 0,0.009 0,0.144 0.168,0.144 0.305997,0 1.055994,-0.042 1.358991,-0.042 0.18,0 0.542997,0 0.722997,0.009 0.207,0.015 0.467997,0.033 0.668997,0.033 0.063,0 0.215997,0 0.215997,-0.228 0,-0.147 -0.119997,-0.147 -0.332997,-0.147 -0.009,0 -0.21,0 -0.395997,-0.024 -0.24,-0.018 -0.24,-0.051 -0.24,-0.153 0,-0.009 0,-0.075 0.042,-0.231 z"
       id="path4508" />
    <path
       style="font-style:normal;font-variant:normal;font-weight:normal;font-stretch:normal;letter-spacing:normal;word-spacing:normal;text-anchor:start;fill:#000000;fill-opacity:1;fill-rule:evenodd;stroke:#000000;stroke-width:0;stroke-linecap:butt;stroke-linejoin:miter;stroke-miterlimit:10.43299961;stroke-dasharray:none;stroke-dashoffset:0;stroke-opacity:1"
       inkscape:connector-curvature="0"
       d="m 74.046574,39.71958 -0.003,0.015 -0.003,0.012 -0.003,0.012 -0.003,0.015 v 0.012 l -0.003,0.009 -0.003,0.012 -0.003,0.012 v 0.009 l -0.003,0.009 v 0.009 l -0.003,0.009 v 0.009 l -0.003,0.006 v 0.006 0.009 l -0.003,0.006 v 0.006 0.006 0.003 0.006 l -0.003,0.003 v 0.003 0.006 0.003 0.003 0.003 0 0.003 0 0.003 0 c 0,0.231 0.185997,0.333 0.350997,0.333 0.380997,0 0.458997,-0.342 0.500997,-0.519 0.024,-0.051 0.231,-0.891 0.482997,-1.914 0.323997,0.216 0.740997,0.3 1.121994,0.3 0.893994,0 1.478991,-0.732 1.502991,-0.75 0.198,0.723 0.920994,0.75 1.073994,0.75 0.380997,0 0.638997,-0.228 0.830997,-0.552 0.227997,-0.408 0.365997,-1.005 0.365997,-1.047 0,-0.135 -0.138,-0.135 -0.171,-0.135 -0.144,0 -0.159,0.042 -0.227997,0.324 -0.126,0.501 -0.324,1.119 -0.764997,1.119 -0.269997,0 -0.344997,-0.228 -0.344997,-0.51 0,-0.177 0.084,-0.558 0.158997,-0.831 0.075,-0.279 0.177,-0.705 0.228,-0.936 l 0.24,-0.933 c 0.066,-0.261 0.176997,-0.723 0.176997,-0.774 0,-0.207 -0.165,-0.333 -0.341997,-0.333 -0.117,0 -0.312,0.051 -0.431997,0.249 -0.03,0.066 -0.111,0.399 -0.168,0.609 l -0.216,0.867 -0.320997,1.308 c -0.075,0.258 -0.075,0.282 -0.171,0.417 -0.323997,0.459 -0.782994,0.867 -1.382991,0.867 -0.851994,0 -0.851994,-0.741 -0.851994,-0.933 0,-0.27 0.027,-0.408 0.176997,-0.969 0.105,-0.459 0.123,-0.534 0.231,-0.942 l 0.143997,-0.585 c 0.054,-0.216 0.156,-0.615 0.156,-0.657 0,-0.189 -0.147,-0.333 -0.356997,-0.333 -0.374997,0 -0.467997,0.366 -0.500997,0.486 z"
       id="path4510" />
    <path
       style="font-style:normal;font-variant:normal;font-weight:normal;font-stretch:normal;letter-spacing:normal;word-spacing:normal;text-anchor:start;fill:#000000;fill-opacity:1;fill-rule:evenodd;stroke:#000000;stroke-width:0;stroke-linecap:butt;stroke-linejoin:miter;stroke-miterlimit:10.43299961;stroke-dasharray:none;stroke-dashoffset:0;stroke-opacity:1"
       inkscape:connector-curvature="0"
       d="m 88.78549,34.52658 0.015,-0.003 h 0.015 0.018 0.015 0.033 0.015 l 0.018,-0.003 h 0.015 l 0.018,-0.003 0.015,-0.003 0.018,-0.003 0.015,-0.003 0.015,-0.006 0.015,-0.006 0.015,-0.003 0.015,-0.009 0.015,-0.006 0.012,-0.009 0.015,-0.009 0.012,-0.009 0.012,-0.012 0.009,-0.012 0.006,-0.006 0.003,-0.006 0.006,-0.009 0.003,-0.006 0.006,-0.009 0.003,-0.006 0.003,-0.009 0.003,-0.009 0.003,-0.009 0.003,-0.009 0.003,-0.009 0.003,-0.012 v -0.009 l 0.003,-0.012 v -0.009 -0.012 l 0.003,-0.012 v -0.012 c 0,-0.252 -0.249,-0.252 -0.383997,-0.252 h -6.920961 c -0.135,0 -0.387,0 -0.387,0.252 0,0.264 0.237,0.264 0.396,0.264 z"
       id="path4512" />
    <path
       style="font-style:normal;font-variant:normal;font-weight:normal;font-stretch:normal;letter-spacing:normal;word-spacing:normal;text-anchor:start;fill:#000000;fill-opacity:1;fill-rule:evenodd;stroke:#000000;stroke-width:0;stroke-linecap:butt;stroke-linejoin:miter;stroke-miterlimit:10.43299961;stroke-dasharray:none;stroke-dashoffset:0;stroke-opacity:1"
       inkscape:connector-curvature="0"
       d="m 88.79749,36.82158 h 0.012 0.015 0.012 0.015 0.015 0.015 l 0.015,-0.003 h 0.018 l 0.015,-0.003 h 0.015 l 0.018,-0.003 0.015,-0.003 0.015,-0.003 0.018,-0.006 0.015,-0.003 0.015,-0.006 0.015,-0.006 0.012,-0.009 0.015,-0.006 0.012,-0.009 0.012,-0.009 0.012,-0.012 0.012,-0.012 0.003,-0.006 0.006,-0.006 0.006,-0.006 0.003,-0.006 0.003,-0.009 0.006,-0.006 0.003,-0.009 0.003,-0.009 0.003,-0.006 0.003,-0.009 0.003,-0.009 0.003,-0.012 v -0.009 l 0.003,-0.009 v -0.012 -0.009 l 0.003,-0.012 v -0.012 c 0,-0.261 -0.24,-0.261 -0.395997,-0.261 h -6.899961 c -0.159,0 -0.396,0 -0.396,0.261 0,0.249 0.252,0.249 0.387,0.249 z"
       id="path4514" />
    <path
       style="font-style:normal;font-variant:normal;font-weight:normal;font-stretch:normal;letter-spacing:normal;word-spacing:normal;text-anchor:start;fill:#000000;fill-opacity:1;fill-rule:evenodd;stroke:#000000;stroke-width:0;stroke-linecap:butt;stroke-linejoin:miter;stroke-miterlimit:10.43299961;stroke-dasharray:none;stroke-dashoffset:0;stroke-opacity:1"
       inkscape:connector-curvature="0"
       d="m 93.438462,31.38858 v -0.012 -0.012 -0.015 -0.012 -0.009 -0.012 l -0.003,-0.012 v -0.009 -0.012 -0.009 -0.009 -0.009 l -0.003,-0.009 v -0.009 -0.009 l -0.003,-0.006 v -0.009 l -0.003,-0.006 v -0.009 l -0.003,-0.006 -0.003,-0.012 -0.003,-0.012 -0.006,-0.009 -0.006,-0.009 -0.006,-0.009 -0.009,-0.009 -0.006,-0.006 -0.009,-0.006 -0.012,-0.006 -0.009,-0.003 -0.015,-0.003 -0.012,-0.006 h -0.006 -0.009 l -0.006,-0.003 h -0.009 l -0.009,-0.003 h -0.009 -0.009 -0.009 -0.009 l -0.009,-0.003 h -0.012 -0.009 -0.012 -0.012 -0.009 -0.012 -0.015 -0.012 -0.012 -0.015 c -0.668993,0.66 -1.616987,0.669 -2.048987,0.669 v 0.375 c 0.255,0 0.941997,0 1.514994,-0.291 v 5.331 c 0,0.348 0,0.483 -1.043997,0.483 h -0.395997 v 0.375 c 0.189,-0.009 1.472991,-0.042 1.862991,-0.042 0.323996,0 1.637986,0.033 1.868986,0.042 v -0.375 h -0.399 c -1.04399,0 -1.04399,-0.135 -1.04399,-0.483 z"
       id="path4516" />
    <path
       style="font-style:normal;font-variant:normal;font-weight:normal;font-stretch:normal;letter-spacing:normal;word-spacing:normal;text-anchor:start;fill:#000000;fill-opacity:1;fill-rule:evenodd;stroke:#000000;stroke-width:0;stroke-linecap:butt;stroke-linejoin:miter;stroke-miterlimit:10.43299961;stroke-dasharray:none;stroke-dashoffset:0;stroke-opacity:1"
       inkscape:connector-curvature="0"
       d="m 109.89337,28.46958 -0.006,-0.285 -0.018,-0.279 -0.033,-0.276 -0.045,-0.27 -0.054,-0.267 -0.069,-0.261 -0.078,-0.255 -0.09,-0.249 -0.102,-0.243 -0.111,-0.234 -0.12,-0.231 -0.132,-0.222 -0.138,-0.213 -0.15,-0.207 -0.156,-0.198 -0.165,-0.189 -0.174,-0.18 -0.183,-0.171 -0.18899,-0.162 -0.195,-0.153 -0.201,-0.141 -0.21,-0.129 -0.213,-0.12 -0.219,-0.111 -0.228,-0.096 -0.228,-0.084 -0.237,-0.075 -0.237,-0.06 -0.24599,-0.048 -0.246,-0.033 -0.252,-0.021 -0.252,-0.009 v 0.33 c 1.50899,0 3.53098,1.359 3.53098,5.142 0,3.81 -2.11199,5.052 -3.51598,5.052 v 0 c -1.47599,0 -3.52498,-1.284 -3.52498,-5.052 0,-3.84 2.07599,-5.142 3.50998,-5.142 v -0.33 c -2.67599,0 -4.958967,2.391 -4.958967,5.472 0,3.066 2.300977,5.394 4.958967,5.394 2.71799,0 4.97698,-2.376 4.97698,-5.394 z"
       id="path4518" />
    <polygon
       style="font-style:normal;font-variant:normal;font-weight:normal;font-stretch:normal;letter-spacing:normal;word-spacing:normal;text-anchor:start;fill:#000000;fill-opacity:1;fill-rule:evenodd;stroke:#000000;stroke-width:0;stroke-linecap:butt;stroke-linejoin:miter;stroke-miterlimit:10.43299961;stroke-dasharray:none;stroke-dashoffset:0;stroke-opacity:1"
       points="901.62,412.21 901.62,413.9 916.92,413.9 916.92,412.21 918.17,412.21 918.17,419.39 916.92,419.39 916.92,417.7 901.62,417.7 901.62,419.39 900.39,419.39 900.39,412.21 "
       id="polygon4520"
       transform="matrix(0.3,0,0,-0.3,-167.85863,153.16458)" />
    <polygon
       style="font-style:normal;font-variant:normal;font-weight:normal;font-stretch:normal;letter-spacing:normal;word-spacing:normal;text-anchor:start;fill:#000000;fill-opacity:1;fill-rule:evenodd;stroke:#000000;stroke-width:0;stroke-linecap:butt;stroke-linejoin:miter;stroke-miterlimit:10.43299961;stroke-dasharray:none;stroke-dashoffset:0;stroke-opacity:1"
       points="948.23,455.96 948.23,366.32 959.52,366.32 959.52,368.66 950.55,368.66 950.55,453.62 959.52,453.62 959.52,455.96 "
       id="polygon4522"
       transform="matrix(0.3,0,0,-0.3,-167.85863,153.16458)" />
    <path
       style="font-style:normal;font-variant:normal;font-weight:normal;font-stretch:normal;letter-spacing:normal;word-spacing:normal;text-anchor:start;fill:#000000;fill-opacity:1;fill-rule:evenodd;stroke:#000000;stroke-width:0;stroke-linecap:butt;stroke-linejoin:miter;stroke-miterlimit:10.43299961;stroke-dasharray:none;stroke-dashoffset:0;stroke-opacity:1"
       inkscape:connector-curvature="0"
       d="m 183.43333,43.10358 v 0.003 0 0 0.003 0 0.003 0 0.003 0.003 0 0.006 l 0.03,0.006 v 0.006 0.006 0.006 0.006 l 0.03,0.009 v 0.006 0.006 l 0.03,0.015 v 0.009 0.006 0.009 l 0.03,0.006 v 0.006 0.006 0.006 0.006 l 0.03,0.006 v 0.003 0.003 0.003 0 0.003 0 0.003 0 0 0.003 0 0 h 0.03 0.33 c 0.03,0 0.15,-0.015 0.15,-0.15 0,-0.06 -0.03,-0.09 -0.06,-0.135 -0.54,-0.54 -1.35,-1.359 -2.28,-3.006 -1.59,-2.868 -2.19,-6.561 -2.19,-10.149 0,-6.636 1.86,-10.536 4.5,-13.179 0.03,-0.048 0.03,-0.09 0.03,-0.123 0,-0.15 -0.12,-0.15 -0.27,-0.15 -0.21,0 -0.24,0 -0.36,0.123 -1.44,1.221 -3.03,3.303 -4.05,6.453 -0.66,1.974 -0.99,4.383 -0.99,6.864 0,3.543 0.63,7.545 2.97,11.013 0.42,0.582 0.96,1.197 0.96,1.212 0.15,0.177 0.36,0.42 0.48,0.525 z"
       id="path4528" />
    <path
       style="font-style:normal;font-variant:normal;font-weight:normal;font-stretch:normal;letter-spacing:normal;word-spacing:normal;text-anchor:start;fill:#000000;fill-opacity:1;fill-rule:evenodd;stroke:#000000;stroke-width:0;stroke-linecap:butt;stroke-linejoin:miter;stroke-miterlimit:10.43299961;stroke-dasharray:none;stroke-dashoffset:0;stroke-opacity:1"
       inkscape:connector-curvature="0"
       d="m 193.66333,24.26958 v -0.012 -0.009 -0.009 -0.009 -0.012 -0.006 -0.009 -0.009 -0.009 -0.006 -0.009 l 0.03,-0.006 v -0.009 -0.006 -0.006 -0.006 -0.006 -0.006 -0.012 -0.009 -0.012 -0.009 l 0.03,-0.006 v -0.009 -0.006 -0.006 -0.006 -0.003 l 0.03,-0.006 v -0.003 -0.003 -0.003 -0.003 l 0.03,-0.003 v 0 -0.003 -0.003 h 0.03 v -0.003 0 l 0.03,-0.003 c 0.18,-0.027 0.36,-0.027 0.54,-0.027 0.39,0 0.63,0 0.63,-0.435 0,-0.03 0,-0.267 -0.3,-0.267 -0.3,0 -0.63,0.027 -0.96,0.027 -0.3,0 -0.66,0.015 -1.02,0.015 -0.57,0 -2.01,-0.042 -2.61,-0.042 -0.18,0 -0.42,0 -0.42,0.429 0,0.273 0.24,0.273 0.48,0.273 h 0.54 c 0.57,0 0.6,0 0.96,0.042 l -1.8,7.251 c -0.36,1.524 -1.32,1.971 -2.01,1.971 -0.12,0 -0.78,-0.015 -1.23,-0.357 0.81,-0.198 1.08,-0.897 1.08,-1.305 0,-0.492 -0.39,-0.846 -0.9,-0.846 -0.6,0 -1.32,0.477 -1.32,1.419 0,1.032 1.02,1.626 2.46,1.626 1.68,0 3.48,-0.684 3.9,-2.436 z"
       id="path4530" />
    <path
       style="font-style:normal;font-variant:normal;font-weight:normal;font-stretch:normal;letter-spacing:normal;word-spacing:normal;text-anchor:start;fill:#000000;fill-opacity:1;fill-rule:evenodd;stroke:#000000;stroke-width:0;stroke-linecap:butt;stroke-linejoin:miter;stroke-miterlimit:10.43299961;stroke-dasharray:none;stroke-dashoffset:0;stroke-opacity:1"
       inkscape:connector-curvature="0"
       d="m 203.35333,19.91658 h -7.08 l -0.21,2.403 h 0.36 c 0.15,-1.803 0.45,-2.025 2.04,-2.025 0.21,0 0.51,0 0.63,0.009 0.24,0.042 0.24,0.156 0.24,0.399 v 5.424 c 0,0.348 0,0.483 -1.11,0.483 h -0.42 v 0.375 c 0.51,-0.042 1.47,-0.042 2.01,-0.042 0.54,0 1.53,0 2.04,0.042 v -0.375 h -0.45 c -1.08,0 -1.08,-0.135 -1.08,-0.483 v -5.424 c 0,-0.243 0,-0.357 0.24,-0.399 0.09,-0.009 0.39,-0.009 0.6,-0.009 0.6,0 1.05,0 1.41,0.207 0.45,0.285 0.54,0.951 0.54,1.002 l 0.09,0.816 h 0.36 z"
       id="path4532" />
    <path
       style="font-style:normal;font-variant:normal;font-weight:normal;font-stretch:normal;letter-spacing:normal;word-spacing:normal;text-anchor:start;fill:#000000;fill-opacity:1;fill-rule:evenodd;stroke:#000000;stroke-width:0;stroke-linecap:butt;stroke-linejoin:miter;stroke-miterlimit:10.43299961;stroke-dasharray:none;stroke-dashoffset:0;stroke-opacity:1"
       inkscape:connector-curvature="0"
       d="m 212.86333,27.53958 -0.06,0.015 -0.03,0.018 -0.06,0.018 -0.03,0.021 -0.06,0.024 -0.03,0.024 -0.06,0.027 -0.03,0.027 -0.03,0.027 -0.03,0.03 -0.06,0.033 -0.03,0.033 -0.03,0.033 -0.03,0.033 v 0.036 l -0.03,0.036 -0.03,0.036 -0.03,0.036 -0.03,0.039 v 0.036 l -0.03,0.039 v 0.039 l -0.03,0.039 v 0.036 l -0.03,0.039 v 0.039 0.036 l -0.03,0.039 v 0.036 0.036 0.036 0.036 c 0,0.333 0.24,0.69 0.75,0.69 0.51,0 1.08,-0.432 1.08,-1.167 0,-0.792 -0.81,-1.314 -1.71,-1.314 -0.84,0 -1.41,0.642 -1.59,0.909 -0.39,-0.627 -1.23,-0.909 -2.07,-0.909 -1.89,0 -2.91,1.839 -2.91,2.331 0,0.21 0.24,0.21 0.36,0.21 0.18,0 0.3,0 0.36,-0.195 0.42,-1.362 1.5,-1.806 2.1,-1.806 0.57,0 0.84,0.267 0.84,0.744 0,0.288 -0.21,1.107 -0.33,1.647 l -0.51,2.049 c -0.24,0.909 -0.78,1.359 -1.26,1.359 -0.09,0 -0.42,0 -0.72,-0.225 0.54,-0.15 0.78,-0.657 0.78,-1.032 0,-0.327 -0.24,-0.69 -0.72,-0.69 -0.54,0 -1.08,0.438 -1.08,1.167 0,0.792 0.78,1.317 1.71,1.317 0.84,0 1.38,-0.645 1.59,-0.912 0.36,0.627 1.2,0.912 2.07,0.912 1.86,0 2.88,-1.842 2.88,-2.334 0,-0.21 -0.21,-0.21 -0.36,-0.21 -0.18,0 -0.27,0 -0.33,0.198 -0.45,1.359 -1.5,1.809 -2.13,1.809 -0.57,0 -0.84,-0.273 -0.84,-0.75 0,-0.315 0.21,-1.107 0.33,-1.659 0.12,-0.39 0.45,-1.791 0.54,-2.031 0.21,-0.9 0.72,-1.359 1.26,-1.359 0.06,0 0.42,0 0.72,0.219 z"
       id="path4534" />
    <path
       style="font-style:normal;font-variant:normal;font-weight:normal;font-stretch:normal;letter-spacing:normal;word-spacing:normal;text-anchor:start;fill:#000000;fill-opacity:1;fill-rule:evenodd;stroke:#000000;stroke-width:0;stroke-linecap:butt;stroke-linejoin:miter;stroke-miterlimit:10.43299961;stroke-dasharray:none;stroke-dashoffset:0;stroke-opacity:1"
       inkscape:connector-curvature="0"
       d="m 215.26333,29.81958 v 0.015 0.012 0.012 0.015 0.012 0.009 0.012 0.012 0.009 0.009 l -0.03,0.009 v 0.009 0.009 0.006 0.006 0.009 0.006 0.006 0.006 0.003 0.006 0.003 0.003 0.006 0.003 0.003 0.003 0 0.003 0 0.003 0 c 0,0.231 0.18,0.333 0.36,0.333 0.36,0 0.45,-0.342 0.51,-0.519 0,-0.051 0.21,-0.891 0.48,-1.914 0.3,0.216 0.72,0.3 1.11,0.3 0.9,0 1.47,-0.732 1.5,-0.75 0.21,0.723 0.93,0.75 1.08,0.75 0.39,0 0.63,-0.228 0.84,-0.552 0.21,-0.408 0.36,-1.005 0.36,-1.047 0,-0.135 -0.15,-0.135 -0.18,-0.135 -0.15,0 -0.15,0.042 -0.24,0.324 -0.12,0.501 -0.3,1.119 -0.75,1.119 -0.27,0 -0.36,-0.228 -0.36,-0.51 0,-0.177 0.09,-0.558 0.18,-0.831 0.06,-0.279 0.18,-0.705 0.21,-0.936 l 0.24,-0.933 c 0.09,-0.261 0.18,-0.723 0.18,-0.774 0,-0.207 -0.15,-0.333 -0.33,-0.333 -0.12,0 -0.3,0.051 -0.42,0.249 -0.06,0.066 -0.12,0.399 -0.18,0.609 l -0.21,0.867 -0.33,1.308 c -0.06,0.258 -0.06,0.282 -0.18,0.417 -0.3,0.459 -0.78,0.867 -1.38,0.867 -0.84,0 -0.84,-0.741 -0.84,-0.933 0,-0.27 0.03,-0.408 0.18,-0.969 0.09,-0.459 0.12,-0.534 0.21,-0.942 l 0.15,-0.585 c 0.06,-0.216 0.15,-0.615 0.15,-0.657 0,-0.189 -0.12,-0.333 -0.33,-0.333 -0.39,0 -0.48,0.366 -0.51,0.486 z"
       id="path4536" />
    <path
       style="font-style:normal;font-variant:normal;font-weight:normal;font-stretch:normal;letter-spacing:normal;word-spacing:normal;text-anchor:start;fill:#000000;fill-opacity:1;fill-rule:evenodd;stroke:#000000;stroke-width:0;stroke-linecap:butt;stroke-linejoin:miter;stroke-miterlimit:10.43299961;stroke-dasharray:none;stroke-dashoffset:0;stroke-opacity:1"
       inkscape:connector-curvature="0"
       d="m 235.90333,30.10158 0.03,-0.003 h 0.06 0.06 v -0.003 h 0.03 l 0.03,-0.003 0.03,-0.003 v -0.003 l 0.03,-0.003 0.03,-0.003 0.03,-0.006 v -0.006 l 0.03,-0.006 v -0.006 l 0.03,-0.009 0.03,-0.009 v -0.012 l 0.03,-0.012 v -0.012 -0.015 l 0.03,-0.015 v -0.006 -0.009 -0.009 l 0.03,-0.009 v -0.009 -0.012 -0.009 -0.009 -0.012 -0.012 -0.012 -0.012 -0.012 -0.012 -0.015 -0.012 c 0,-0.3 -0.27,-0.3 -0.51,-0.3 h -8.1 c -0.24,0 -0.51,0 -0.51,0.3 0,0.3 0.27,0.3 0.51,0.3 z"
       id="path4538" />
    <path
       style="font-style:normal;font-variant:normal;font-weight:normal;font-stretch:normal;letter-spacing:normal;word-spacing:normal;text-anchor:start;fill:#000000;fill-opacity:1;fill-rule:evenodd;stroke:#000000;stroke-width:0;stroke-linecap:butt;stroke-linejoin:miter;stroke-miterlimit:10.43299961;stroke-dasharray:none;stroke-dashoffset:0;stroke-opacity:1"
       inkscape:connector-curvature="0"
       d="m 250.36333,25.03158 0.09,-0.105 0.06,-0.099 0.06,-0.093 0.06,-0.09 0.09,-0.081 0.06,-0.075 0.06,-0.072 0.06,-0.066 0.06,-0.06 0.06,-0.057 0.06,-0.051 0.09,-0.048 0.06,-0.042 0.06,-0.039 0.06,-0.036 0.06,-0.033 0.06,-0.027 0.06,-0.027 0.06,-0.021 0.03,-0.021 0.06,-0.018 0.06,-0.015 0.06,-0.012 0.06,-0.012 0.06,-0.009 0.06,-0.006 0.09,-0.012 0.12,-0.009 0.09,-0.006 c 0.18,-0.012 0.21,-0.267 0.21,-0.285 0,-0.117 -0.09,-0.177 -0.21,-0.177 -0.39,0 -0.81,0.045 -1.23,0.045 -0.48,0 -0.99,-0.045 -1.47,-0.045 -0.09,0 -0.27,0 -0.27,0.285 0,0.165 0.12,0.177 0.24,0.177 0.39,0.03 0.69,0.18 0.69,0.492 0,0.225 -0.24,0.555 -0.24,0.57 l -4.59,7.293 -1.02,-7.905 c 0,-0.252 0.36,-0.45 1.05,-0.45 0.21,0 0.36,0 0.36,-0.3 0,-0.129 -0.12,-0.162 -0.21,-0.162 -0.6,0 -1.23,0.045 -1.86,0.045 -0.27,0 -0.54,-0.012 -0.81,-0.012 -0.27,0 -0.57,-0.033 -0.81,-0.033 -0.09,0 -0.27,0 -0.27,0.285 0,0.177 0.12,0.177 0.36,0.177 0.84,0 0.84,0.138 0.9,0.507 l 1.17,9.225 c 0.06,0.3 0.12,0.342 0.3,0.342 0.24,0 0.3,-0.075 0.42,-0.267 z"
       id="path4540" />
    <path
       style="font-style:normal;font-variant:normal;font-weight:normal;font-stretch:normal;letter-spacing:normal;word-spacing:normal;text-anchor:start;fill:#000000;fill-opacity:1;fill-rule:evenodd;stroke:#000000;stroke-width:0;stroke-linecap:butt;stroke-linejoin:miter;stroke-miterlimit:10.43299961;stroke-dasharray:none;stroke-dashoffset:0;stroke-opacity:1"
       inkscape:connector-curvature="0"
       d="m 251.80333,31.67658 h 1.62 v -0.375 h -1.62 v -1.923 h -0.36 c 0,0.936 -0.42,1.974 -1.44,2.007 v 0.291 h 0.99 v 2.82 c 0,1.173 0.87,1.41 1.44,1.41 0.72,0 1.2,-0.594 1.2,-1.419 v -0.576 h -0.36 v 0.567 c 0,0.708 -0.33,1.098 -0.75,1.098 -0.72,0 -0.72,-0.879 -0.72,-1.071 z"
       id="path4542" />
    <path
       style="font-style:normal;font-variant:normal;font-weight:normal;font-stretch:normal;letter-spacing:normal;word-spacing:normal;text-anchor:start;fill:#000000;fill-opacity:1;fill-rule:evenodd;stroke:#000000;stroke-width:0;stroke-linecap:butt;stroke-linejoin:miter;stroke-miterlimit:10.43299961;stroke-dasharray:none;stroke-dashoffset:0;stroke-opacity:1"
       inkscape:connector-curvature="0"
       d="m 259.75333,32.63658 v -0.084 -0.084 -0.078 -0.078 l -0.03,-0.075 v -0.072 l -0.03,-0.069 -0.03,-0.069 v -0.066 l -0.03,-0.063 -0.03,-0.06 -0.03,-0.057 -0.06,-0.057 -0.03,-0.051 -0.03,-0.051 -0.06,-0.048 -0.03,-0.045 -0.06,-0.042 -0.06,-0.039 -0.06,-0.036 -0.06,-0.033 -0.06,-0.033 -0.09,-0.027 -0.06,-0.027 -0.09,-0.021 -0.06,-0.021 -0.09,-0.015 -0.09,-0.015 -0.09,-0.009 -0.09,-0.009 -0.09,-0.003 -0.12,-0.003 c -0.93,0 -1.44,0.555 -1.68,0.948 v 0 -3.597 l -1.56,0.117 v 0.375 c 0.69,0 0.78,0.075 0.78,0.588 v 5.352 c 0,0.45 -0.12,0.45 -0.78,0.45 v 0.375 c 0,0 0.75,-0.042 1.2,-0.042 0.36,0 1.08,0.033 1.2,0.042 v -0.375 c -0.69,0 -0.81,0 -0.81,-0.45 v -1.884 c 0,-1.098 0.87,-1.608 1.56,-1.608 0.75,0 0.84,0.576 0.84,1.107 v 2.385 c 0,0.45 -0.12,0.45 -0.78,0.45 v 0.375 c 0.03,0 0.75,-0.042 1.17,-0.042 0.39,0 1.11,0.033 1.23,0.042 v -0.375 c -0.69,0 -0.81,0 -0.81,-0.45 z"
       id="path4544" />
    <path
       style="font-style:normal;font-variant:normal;font-weight:normal;font-stretch:normal;letter-spacing:normal;word-spacing:normal;text-anchor:start;fill:#000000;fill-opacity:1;fill-rule:evenodd;stroke:#000000;stroke-width:0;stroke-linecap:butt;stroke-linejoin:miter;stroke-miterlimit:10.43299961;stroke-dasharray:none;stroke-dashoffset:0;stroke-opacity:1"
       inkscape:connector-curvature="0"
       d="m 267.94333,29.81658 v -0.807 l -0.06,-0.813 -0.06,-0.813 -0.09,-0.813 -0.12,-0.81 -0.15,-0.807 -0.18,-0.801 -0.21,-0.792 -0.24,-0.78 -0.15,-0.384 -0.15,-0.381 -0.15,-0.381 -0.15,-0.372 -0.18,-0.369 -0.18,-0.366 -0.21,-0.36 -0.21,-0.357 -0.21,-0.348 -0.24,-0.345 -0.21,-0.336 -0.27,-0.333 -0.24,-0.327 -0.27,-0.318 c -0.21,-0.237 -0.78,-0.819 -1.14,-1.134 -0.09,-0.093 -0.12,-0.093 -0.33,-0.093 -0.15,0 -0.27,0 -0.27,0.15 0,0.06 0.06,0.123 0.09,0.15 0.51,0.525 1.32,1.344 2.22,2.991 1.62,2.868 2.22,6.561 2.22,10.149 0,6.486 -1.8,10.446 -4.47,13.179 -0.03,0.033 -0.06,0.075 -0.06,0.123 0,0.15 0.12,0.15 0.27,0.15 0.21,0 0.24,0 0.36,-0.123 1.44,-1.221 3.03,-3.3 4.05,-6.453 0.66,-2.049 0.99,-4.473 0.99,-6.876 z"
       id="path4546" />
    <path
       style="font-style:normal;font-variant:normal;font-weight:normal;font-stretch:normal;letter-spacing:normal;word-spacing:normal;text-anchor:start;fill:#000000;fill-opacity:1;fill-rule:evenodd;stroke:#000000;stroke-width:0;stroke-linecap:butt;stroke-linejoin:miter;stroke-miterlimit:10.43299961;stroke-dasharray:none;stroke-dashoffset:0;stroke-opacity:1"
       inkscape:connector-curvature="0"
       d="m 283.81333,30.10158 0.06,-0.003 h 0.03 0.06 l 0.03,-0.003 v 0 l 0.03,-0.003 0.03,-0.003 0.03,-0.003 v -0.003 l 0.03,-0.003 0.03,-0.006 v -0.006 l 0.03,-0.006 0.03,-0.006 v -0.009 l 0.03,-0.009 v -0.012 l 0.03,-0.012 v -0.012 l 0.03,-0.015 v -0.015 -0.006 -0.009 l 0.03,-0.009 v -0.009 -0.009 -0.012 -0.009 -0.009 -0.012 -0.012 -0.012 -0.012 l 0.03,-0.012 v -0.012 -0.015 -0.012 c 0,-0.3 -0.3,-0.3 -0.54,-0.3 h -8.07 c -0.27,0 -0.54,0 -0.54,0.3 0,0.3 0.27,0.3 0.54,0.3 z"
       id="path4548" />
    <path
       style="font-style:normal;font-variant:normal;font-weight:normal;font-stretch:normal;letter-spacing:normal;word-spacing:normal;text-anchor:start;fill:#000000;fill-opacity:1;fill-rule:evenodd;stroke:#000000;stroke-width:0;stroke-linecap:butt;stroke-linejoin:miter;stroke-miterlimit:10.43299961;stroke-dasharray:none;stroke-dashoffset:0;stroke-opacity:1"
       inkscape:connector-curvature="0"
       d="m 296.50333,27.49758 v -0.003 -0.006 -0.006 -0.006 -0.006 -0.006 -0.006 -0.006 -0.006 -0.009 l -0.03,-0.006 v -0.009 -0.015 -0.015 -0.015 -0.015 l -0.03,-0.006 v -0.009 -0.006 -0.009 -0.006 -0.006 -0.006 -0.006 -0.006 -0.006 -0.003 -0.006 c 0,-0.015 0.27,-0.225 0.42,-0.342 l 2.64,-2.019 c 1.38,-1.032 1.98,-1.089 2.43,-1.137 0.12,-0.012 0.27,-0.027 0.27,-0.3 0,-0.054 -0.06,-0.162 -0.18,-0.162 -0.33,0 -0.69,0.045 -1.05,0.045 -0.54,0 -1.11,-0.045 -1.65,-0.045 -0.12,0 -0.3,0 -0.3,0.3 0,0.102 0.09,0.15 0.18,0.162 0.33,0.03 0.45,0.105 0.45,0.315 0,0.267 -0.45,0.615 -0.51,0.69 l -5.85,4.482 1.2,-4.797 c 0.15,-0.54 0.18,-0.69 1.26,-0.69 0.36,0 0.51,0 0.51,-0.3 0,-0.129 -0.12,-0.162 -0.21,-0.162 -0.42,0 -1.5,0.045 -1.92,0.045 -0.42,0 -1.5,-0.045 -1.92,-0.045 -0.12,0 -0.3,0 -0.3,0.285 0,0.177 0.15,0.177 0.42,0.177 0.21,0 0.48,0.015 0.66,0.03 0.24,0.033 0.33,0.075 0.33,0.237 0,0.063 -0.03,0.108 -0.06,0.288 l -2.01,8.025 c -0.15,0.585 -0.18,0.702 -1.35,0.702 -0.27,0 -0.42,0 -0.42,0.285 0,0.18 0.18,0.18 0.21,0.18 0.42,0 1.5,-0.048 1.92,-0.048 0.3,0 0.63,0.018 0.93,0.018 0.33,0 0.66,0.03 0.99,0.03 0.09,0 0.3,0 0.3,-0.3 0,-0.165 -0.15,-0.165 -0.42,-0.165 -0.57,0 -0.99,0 -0.99,-0.267 0,-0.108 0.09,-0.435 0.15,-0.66 0.21,-0.774 0.39,-1.566 0.6,-2.343 l 2.22,-1.737 1.74,4.023 c 0.18,0.402 0.18,0.432 0.18,0.519 0,0.45 -0.66,0.465 -0.78,0.465 -0.18,0 -0.33,0 -0.33,0.3 0,0.165 0.18,0.165 0.21,0.165 0.6,0 1.23,-0.048 1.83,-0.048 0.33,0 1.11,0.048 1.47,0.048 0.06,0 0.24,0 0.24,-0.3 0,-0.165 -0.15,-0.165 -0.3,-0.165 -0.6,-0.015 -0.78,-0.15 -1.02,-0.669 z"
       id="path4550" />
    <polygon
       style="font-style:normal;font-variant:normal;font-weight:normal;font-stretch:normal;letter-spacing:normal;word-spacing:normal;text-anchor:start;fill:#000000;fill-opacity:1;fill-rule:evenodd;stroke:#000000;stroke-width:0;stroke-linecap:butt;stroke-linejoin:miter;stroke-miterlimit:10.43299961;stroke-dasharray:none;stroke-dashoffset:0;stroke-opacity:1"
       points="1445.9,368.66 1445.9,366.32 1457.2,366.32 1457.2,455.96 1445.9,455.96 1445.9,453.62 1454.9,453.62 1454.9,368.66 "
       id="polygon4552"
       transform="matrix(0.3,0,0,-0.3,-130.81667,153.16458)" />
    <g
       inkscape:label="#g5297"
       id="integration_measure"
       transform="translate(-35.454183)">
      <path
         style="fill:none;stroke:#000000;stroke-width:0.26458332px;stroke-linecap:butt;stroke-linejoin:miter;stroke-opacity:1"
         d="m 57.94375,45.116658 v 7.672916 h 32.014583 v -7.9375 0"
         id="path4597"
         inkscape:connector-curvature="0" />
      <text
         xml:space="preserve"
         style="font-style:normal;font-weight:normal;font-size:6.3499999px;line-height:1.25;font-family:sans-serif;text-align:center;letter-spacing:0px;word-spacing:0px;text-anchor:middle;fill:#000000;fill-opacity:1;stroke:none;stroke-width:0.26458332"
         x="74.083344"
         y="60.46249"
         id="text4601"><tspan
           sodipodi:role="line"
           x="75.094131"
           y="60.46249"
           style="font-size:6.3499999px;stroke-width:0.26458332"
           id="tspan4603">Sign </tspan><tspan
           id="tspan4719"
           sodipodi:role="line"
           x="74.083344"
           y="68.399986"
           style="font-size:6.3499999px;stroke-width:0.26458332">constraints</tspan><tspan
           id="tspan4721"
           sodipodi:role="line"
           x="74.083344"
           y="76.337486"
           style="font-size:6.3499999px;stroke-width:0.26458332">+</tspan></text>
      <g
         transform="matrix(0.64,0,0,0.64,4.0419576,21.746091)"
         id="g4666">
        <g
           style="font-style:normal;font-variant:normal;font-weight:normal;font-stretch:normal;letter-spacing:normal;word-spacing:normal;text-anchor:start;fill:none;fill-opacity:1;fill-rule:evenodd;stroke:#000000;stroke-linecap:butt;stroke-linejoin:miter;stroke-miterlimit:10.43299961;stroke-dasharray:none;stroke-dashoffset:0;stroke-opacity:1"
           id="g4664"
           transform="matrix(0.3,0,0,-0.3,-52.5,222.75)"
           xml:space="preserve"
           stroke-miterlimit="10.433"
           font-style="normal"
           font-variant="normal"
           font-weight="normal"
           font-stretch="normal"
           font-size-adjust="none"
           letter-spacing="normal"
           word-spacing="normal"><path
             style="fill:#000000;stroke-width:0"
             inkscape:connector-curvature="0"
             d="m 463.44,441.78 v 0.16 0.17 l -0.01,0.16 v 0.08 0.08 l -0.01,0.08 -0.01,0.08 -0.01,0.07 -0.01,0.07 -0.02,0.07 -0.01,0.07 -0.02,0.07 -0.02,0.06 -0.03,0.06 -0.03,0.06 -0.03,0.06 -0.03,0.05 -0.04,0.05 -0.04,0.05 -0.05,0.04 -0.05,0.04 -0.03,0.01 -0.03,0.02 -0.03,0.02 -0.03,0.01 -0.03,0.01 -0.03,0.02 -0.03,0.01 -0.04,0.01 -0.04,0.01 -0.03,0.01 h -0.04 l -0.04,0.01 h -0.04 l -0.05,0.01 h -0.04 -0.05 c -1,0 -1,-0.89 -1,-1.78 v -46.24 c 0,-0.9 0,-1.79 1,-1.79 1,0 1,0.89 1,1.79 z"
             id="path4652" /><path
             style="fill:#000000;stroke-width:0"
             inkscape:connector-curvature="0"
             d="m 499.44,437.09 0.01,0.03 0.01,0.04 v 0.03 l 0.01,0.03 0.01,0.03 0.01,0.03 v 0.03 l 0.01,0.03 0.01,0.03 0.01,0.02 v 0.03 l 0.01,0.02 0.01,0.03 0.01,0.02 v 0.02 l 0.01,0.02 0.01,0.04 0.02,0.04 0.01,0.03 0.01,0.03 0.02,0.03 0.01,0.03 0.02,0.02 0.01,0.03 0.02,0.02 0.01,0.01 0.02,0.02 0.01,0.01 0.02,0.02 0.02,0.01 0.02,0.01 0.02,0.01 0.03,0.01 h 0.02 l 0.02,0.01 h 0.03 l 0.03,0.01 0.03,0.01 h 0.03 0.03 c 0.59,0.1 1.3,0.1 1.89,0.1 1.3,0 2.1,0 2.1,1.45 0,0.09 -0.05,0.89 -1.05,0.89 -1,0 -2.09,-0.09 -3.14,-0.09 -1.1,0 -2.3,-0.05 -3.44,-0.05 -1.94,0 -6.72,0.14 -8.67,0.14 -0.6,0 -1.49,0 -1.49,-1.44 0,-0.9 0.8,-0.9 1.69,-0.9 h 1.75 c 1.94,0 2.03,0 3.24,-0.14 l -6.03,-24.18 c -1.26,-5.07 -4.4,-6.56 -6.68,-6.56 -0.45,0 -2.59,0.05 -4.09,1.19 2.69,0.66 3.59,2.98 3.59,4.34 0,1.64 -1.34,2.83 -3.04,2.83 -1.99,0 -4.43,-1.59 -4.43,-4.73 0,-3.44 3.44,-5.42 8.22,-5.42 5.58,0 11.61,2.28 13.05,8.12 z"
             id="path4654" /><path
             style="fill:#000000;stroke-width:0"
             inkscape:connector-curvature="0"
             d="m 513.72,441.78 -0.01,0.16 v 0.17 0.16 l -0.01,0.08 v 0.08 l -0.01,0.08 -0.01,0.08 -0.01,0.07 -0.01,0.07 -0.01,0.07 -0.02,0.07 -0.02,0.07 -0.02,0.06 -0.02,0.06 -0.03,0.06 -0.03,0.06 -0.04,0.05 -0.04,0.05 -0.04,0.05 -0.05,0.04 -0.05,0.04 -0.02,0.01 -0.03,0.02 -0.03,0.02 -0.03,0.01 -0.03,0.01 -0.04,0.02 -0.03,0.01 -0.03,0.01 -0.04,0.01 -0.04,0.01 h -0.04 l -0.04,0.01 h -0.04 l -0.04,0.01 h -0.05 -0.04 c -1.01,0 -1.01,-0.89 -1.01,-1.78 v -46.24 c 0,-0.9 0,-1.79 1.01,-1.79 1,0 1,0.89 1,1.79 z"
             id="path4656" /><path
             style="fill:#000000;stroke-width:0"
             inkscape:connector-curvature="0"
             d="m 567.14,435.79 0.1,0.05 0.1,0.05 0.04,0.02 0.05,0.03 0.04,0.02 0.05,0.03 0.04,0.02 0.04,0.03 0.04,0.02 0.04,0.03 0.04,0.03 0.03,0.03 0.04,0.03 0.03,0.03 0.03,0.03 0.03,0.04 0.03,0.03 0.02,0.04 0.03,0.03 0.02,0.04 0.02,0.04 0.02,0.04 0.01,0.04 0.02,0.05 0.01,0.04 0.01,0.05 0.01,0.05 0.01,0.05 v 0.05 0.06 c 0,0.54 -0.41,1 -1,1 -0.25,0 -0.7,-0.21 -0.89,-0.3 l -27.56,-13 c -0.85,-0.41 -0.99,-0.75 -0.99,-1.16 0,-0.43 0.3,-0.79 0.99,-1.09 l 27.56,-12.95 c 0.64,-0.35 0.75,-0.35 0.89,-0.35 0.55,0 1,0.44 1,1 0,0.44 -0.2,0.74 -1.05,1.14 l -26.06,12.25 z"
             id="path4658" /><path
             style="fill:#000000;stroke-width:0"
             inkscape:connector-curvature="0"
             d="m 566.34,399.37 h 0.16 0.16 l 0.15,0.01 h 0.08 l 0.08,0.01 h 0.08 l 0.07,0.01 0.07,0.01 0.07,0.01 0.07,0.02 0.07,0.01 0.07,0.02 0.06,0.03 0.06,0.02 0.06,0.03 0.06,0.03 0.05,0.04 0.05,0.03 0.04,0.05 0.05,0.04 0.04,0.05 0.01,0.03 0.02,0.03 0.02,0.03 0.01,0.03 0.01,0.03 0.02,0.03 0.01,0.04 0.01,0.03 0.01,0.04 0.01,0.04 v 0.03 l 0.01,0.04 v 0.05 l 0.01,0.04 v 0.04 0.05 c 0,1 -1.05,1 -1.8,1 h -26.86 c -0.73,0 -1.78,0 -1.78,-1 0,-1 0.89,-1 1.74,-1 z"
             id="path4660" /><path
             style="fill:#000000;stroke-width:0"
             inkscape:connector-curvature="0"
             d="m 613.66,440.07 h -25.95 v -1.54 h 1.2 c 3.83,0 3.94,-0.55 3.94,-2.33 v -26.11 c 0,-1.8 -0.11,-2.34 -3.94,-2.34 h -1.2 v -1.55 c 1.75,0.16 5.64,0.16 7.58,0.16 2.05,0 6.58,0 8.37,-0.16 v 1.55 h -1.65 c -4.74,0 -4.74,0.64 -4.74,2.39 v 26.4 c 0,1.64 0.11,1.99 2.46,1.99 h 5.12 c 7.13,0 8.17,-2.94 8.97,-9.66 h 1.25 z"
             id="path4662" /></g>      </g>
      <g
         id="g4788"
         transform="matrix(0.64,0,0,0.64,4.7132769,34.313794)">
        <g
           word-spacing="normal"
           letter-spacing="normal"
           font-size-adjust="none"
           font-stretch="normal"
           font-weight="normal"
           font-variant="normal"
           font-style="normal"
           stroke-miterlimit="10.433"
           xml:space="preserve"
           transform="matrix(0.3,0,0,-0.3,-52.5,222.75)"
           id="g4786"
           style="font-style:normal;font-variant:normal;font-weight:normal;font-stretch:normal;letter-spacing:normal;word-spacing:normal;text-anchor:start;fill:none;fill-opacity:1;fill-rule:evenodd;stroke:#000000;stroke-linecap:butt;stroke-linejoin:miter;stroke-miterlimit:10.43299961;stroke-dasharray:none;stroke-dashoffset:0;stroke-opacity:1"><path
             id="path4774"
             d="m 483.11,440.07 h -25.95 v -1.54 h 1.2 c 3.83,0 3.94,-0.55 3.94,-2.33 v -26.11 c 0,-1.8 -0.11,-2.34 -3.94,-2.34 h -1.2 v -1.55 c 1.75,0.16 5.64,0.16 7.58,0.16 2.05,0 6.58,0 8.37,-0.16 v 1.55 h -1.65 c -4.74,0 -4.74,0.64 -4.74,2.39 v 26.4 c 0,1.64 0.11,1.99 2.46,1.99 h 5.12 c 7.13,0 8.17,-2.94 8.97,-9.66 h 1.25 z"
             inkscape:connector-curvature="0"
             style="fill:#000000;stroke-width:0" /><path
             id="path4776"
             d="m 536.49,422.84 v 0.1 l -0.01,0.1 v 0.09 l -0.01,0.09 v 0.09 l -0.01,0.08 -0.01,0.08 -0.01,0.08 -0.02,0.07 -0.01,0.07 -0.02,0.07 -0.02,0.07 -0.02,0.06 -0.02,0.05 -0.02,0.06 -0.02,0.05 -0.02,0.04 -0.03,0.05 -0.02,0.04 -0.03,0.04 -0.03,0.03 -0.03,0.03 -0.03,0.03 -0.03,0.03 -0.03,0.02 -0.03,0.02 -0.03,0.02 -0.04,0.01 -0.03,0.01 -0.04,0.01 h -0.03 -0.04 c -0.25,0 -0.65,-0.34 -0.7,-1.29 -0.2,-4.78 -3.49,-7.52 -6.99,-7.52 -3.12,0 -5.51,2.14 -7.96,4.28 -2.54,2.3 -5.13,4.58 -8.52,4.58 -5.44,0 -8.38,-5.48 -8.38,-10.02 0,-1.59 0.66,-1.59 0.71,-1.59 0.54,0 0.7,1 0.7,1.16 0.19,5.47 3.94,7.67 6.97,7.67 3.14,0 5.53,-2.14 7.97,-4.3 2.55,-2.28 5.14,-4.58 8.51,-4.58 5.44,0 8.38,5.49 8.38,10.02 z"
             inkscape:connector-curvature="0"
             style="fill:#000000;stroke-width:0" /><path
             id="path4778"
             d="m 591.79,430.21 -0.01,0.59 -0.02,0.58 -0.04,0.57 -0.06,0.56 -0.07,0.55 -0.1,0.53 -0.1,0.52 -0.13,0.51 -0.14,0.5 -0.16,0.48 -0.18,0.46 -0.19,0.45 -0.21,0.43 -0.23,0.42 -0.25,0.4 -0.27,0.38 -0.28,0.37 -0.3,0.34 -0.32,0.32 -0.33,0.31 -0.36,0.28 -0.37,0.26 -0.39,0.24 -0.41,0.22 -0.43,0.19 -0.45,0.17 -0.46,0.15 -0.49,0.12 -0.5,0.09 -0.52,0.07 -0.54,0.04 -0.56,0.01 c -5.19,0 -9.57,-4.18 -9.92,-4.48 -3.99,-3.94 -5.47,-8.42 -5.47,-8.52 0,-0.29 0.25,-0.36 0.5,-0.36 0.94,0 1.73,0.5 2.48,1.05 0.89,0.66 0.96,0.8 1.5,1.95 0.44,0.99 1.59,3.44 3.44,5.54 1.19,1.34 2.19,2.09 4.19,2.09 4.83,0 7.9,-4 7.9,-10.52 0,-10.17 -7.22,-20.23 -16.44,-20.23 -7.07,0 -10.95,5.64 -10.95,12.75 0,6.78 3.49,14.25 10.77,18.55 0.48,0.29 1.98,1.18 1.98,1.84 0,0.34 -0.39,0.34 -0.5,0.34 -1.73,0 -16.48,-7.92 -16.48,-22.87 0,-6.97 3.64,-13.34 11.9,-13.34 9.72,0 23.97,9.76 23.97,25.1 z"
             inkscape:connector-curvature="0"
             style="fill:#000000;stroke-width:0" /><path
             id="path4780"
             d="m 618.88,394.25 v 0.02 0.03 0.01 l -0.01,0.02 v 0.01 0.02 l -0.01,0.01 -0.01,0.02 -0.01,0.02 -0.01,0.02 -0.01,0.02 -0.01,0.03 -0.02,0.02 -0.02,0.03 -0.02,0.03 -0.02,0.03 -0.03,0.03 -0.03,0.04 -0.01,0.02 -0.02,0.02 -0.02,0.02 -0.02,0.02 -0.01,0.02 -0.02,0.03 -0.03,0.02 -0.02,0.02 -0.02,0.03 -0.02,0.02 -0.03,0.03 -0.02,0.03 -0.03,0.03 -0.03,0.03 -0.03,0.03 -0.03,0.03 -0.03,0.03 -0.03,0.03 -0.03,0.04 -0.04,0.03 -0.03,0.04 -0.04,0.03 -0.04,0.04 -0.04,0.04 c -6.21,6.28 -7.81,15.69 -7.81,23.31 0,8.67 1.89,17.35 8.02,23.56 0.64,0.61 0.64,0.71 0.64,0.86 0,0.35 -0.19,0.49 -0.48,0.49 -0.5,0 -4.99,-3.38 -7.93,-9.7 -2.54,-5.49 -3.14,-11.02 -3.14,-15.21 0,-3.89 0.55,-9.9 3.28,-15.54 2.99,-6.13 7.29,-9.36 7.79,-9.36 0.29,0 0.48,0.14 0.48,0.5 z"
             inkscape:connector-curvature="0"
             style="fill:#000000;stroke-width:0" /><path
             id="path4782"
             d="m 636.47,438.09 v 0.05 0.06 0.05 0.05 0.05 0.05 0.04 0.05 0.04 l -0.01,0.04 v 0.04 0.04 0.04 0.03 l -0.01,0.04 v 0.03 l -0.01,0.07 -0.01,0.06 -0.01,0.05 -0.01,0.05 -0.02,0.05 -0.02,0.04 -0.02,0.04 -0.02,0.03 -0.03,0.03 -0.03,0.03 -0.04,0.03 -0.04,0.02 -0.04,0.02 -0.03,0.01 -0.02,0.01 h -0.03 l -0.02,0.01 -0.03,0.01 h -0.03 l -0.03,0.01 h -0.04 l -0.03,0.01 h -0.03 -0.04 l -0.04,0.01 h -0.04 -0.04 -0.04 -0.04 -0.04 l -0.05,0.01 h -0.05 -0.05 -0.05 -0.05 c -3.1,-3.19 -7.47,-3.19 -9.06,-3.19 v -1.55 c 1,0 3.93,0 6.51,1.3 v -25.81 c 0,-1.8 -0.14,-2.39 -4.62,-2.39 h -1.6 v -1.55 c 1.75,0.16 6.08,0.16 8.06,0.16 2,0 6.33,0 8.08,-0.16 v 1.55 h -1.59 c -4.49,0 -4.64,0.54 -4.64,2.39 z"
             inkscape:connector-curvature="0"
             style="fill:#000000;stroke-width:0" /><path
             id="path4784"
             d="m 661.18,418.65 -0.01,0.37 v 0.39 l -0.01,0.39 -0.01,0.41 -0.04,0.84 -0.06,0.88 -0.08,0.92 -0.11,0.95 -0.14,0.97 -0.16,1.01 -0.2,1.02 -0.23,1.03 -0.26,1.05 -0.31,1.06 -0.35,1.07 -0.39,1.07 -0.21,0.53 -0.23,0.53 -0.24,0.53 -0.24,0.53 c -2.99,6.12 -7.27,9.36 -7.77,9.36 -0.3,0 -0.5,-0.19 -0.5,-0.49 0,-0.15 0,-0.25 0.94,-1.15 4.89,-4.92 7.73,-12.85 7.73,-23.27 0,-8.51 -1.84,-17.28 -8.03,-23.56 -0.64,-0.59 -0.64,-0.7 -0.64,-0.84 0,-0.3 0.2,-0.5 0.5,-0.5 0.5,0 4.97,3.39 7.92,9.71 2.53,5.47 3.13,11 3.13,15.19 z"
             inkscape:connector-curvature="0"
             style="fill:#000000;stroke-width:0" /></g>      </g>
    </g>
    <g
       inkscape:label="#g5303"
       id="desired_state"
       transform="translate(-27.516668)">
      <path
         style="fill:none;stroke:#000000;stroke-width:0.26458332px;stroke-linecap:butt;stroke-linejoin:miter;stroke-opacity:1"
         d="m 154.91353,45.116659 v 7.672916 h 18.12399 v -7.9375 0"
         id="path4597-3"
         inkscape:connector-curvature="0"
         sodipodi:nodetypes="ccccc" />
      <text
         xml:space="preserve"
         style="font-style:normal;font-weight:normal;font-size:6.3499999px;line-height:1.25;font-family:sans-serif;text-align:center;letter-spacing:0px;word-spacing:0px;text-anchor:middle;fill:#000000;fill-opacity:1;stroke:none;stroke-width:0.26458332"
         x="164.04167"
         y="60.46249"
         id="text4601-6"><tspan
           id="tspan4721-3"
           sodipodi:role="line"
           x="164.04167"
           y="60.46249"
           style="font-size:6.3499999px;stroke-width:0.26458332">Desired</tspan><tspan
           sodipodi:role="line"
           x="164.04167"
           y="68.399986"
           style="font-size:6.3499999px;stroke-width:0.26458332"
           id="tspan4894">state</tspan></text>
    </g>
    <g
       inkscape:label="#g5309"
       id="membrane_potential">
      <path
         style="fill:none;stroke:#000000;stroke-width:0.26458332px;stroke-linecap:butt;stroke-linejoin:miter;stroke-opacity:1"
         d="m 184.41466,45.116657 v 7.672916 h 32.0146 v -7.9375 0"
         id="path4597-5"
         inkscape:connector-curvature="0" />
      <text
         xml:space="preserve"
         style="font-style:normal;font-weight:normal;font-size:6.3499999px;line-height:1.25;font-family:sans-serif;text-align:center;letter-spacing:0px;word-spacing:0px;text-anchor:middle;fill:#000000;fill-opacity:1;stroke:none;stroke-width:0.26458332"
         x="200.55414"
         y="60.46249"
         id="text4601-6-6"><tspan
           sodipodi:role="line"
           x="200.55414"
           y="60.46249"
           style="font-size:6.3499999px;stroke-width:0.26458332"
           id="tspan4894-9">Membrane</tspan><tspan
           sodipodi:role="line"
           x="200.55414"
           y="68.399986"
           style="font-size:6.3499999px;stroke-width:0.26458332"
           id="tspan4934">potential</tspan></text>
    </g>
    <text
       id="text4940"
       y="67.209366"
       x="188.25104"
       style="font-style:normal;font-weight:normal;font-size:4.23333311px;line-height:1.25;font-family:sans-serif;text-align:center;letter-spacing:0px;word-spacing:0px;text-anchor:middle;fill:#000000;fill-opacity:1;stroke:none;stroke-width:0.26458332"
       xml:space="preserve"><tspan
         style="stroke-width:0.26458332"
         y="70.954872"
         x="188.25104"
         id="tspan4938"
         sodipodi:role="line" /></text>
    <text
       id="text4959"
       y="63.108326"
       x="294.61353"
       style="font-style:normal;font-weight:normal;font-size:4.23333311px;line-height:1.25;font-family:sans-serif;text-align:center;letter-spacing:0px;word-spacing:0px;text-anchor:middle;fill:#000000;fill-opacity:1;stroke:none;stroke-width:0.26458332"
       xml:space="preserve"><tspan
         style="stroke-width:0.26458332"
         y="66.853836"
         x="294.61353"
         id="tspan4957"
         sodipodi:role="line" /></text>
    <flowRoot
       xml:space="preserve"
       id="flowRoot5179"
       style="font-style:normal;font-weight:normal;font-size:16px;line-height:1.25;font-family:sans-serif;text-align:center;letter-spacing:0px;word-spacing:0px;text-anchor:middle;fill:#000000;fill-opacity:1;stroke:none"><flowRegion
         id="flowRegion5181"><rect
           id="rect5183"
           width="230.5"
           height="18"
           x="446"
           y="358.01965" /></flowRegion><flowPara
         id="flowPara5185" /></flowRoot>    <g
       inkscape:label="#g5339"
       id="robustness">
      <path
         style="fill:none;stroke:#000000;stroke-width:0.26458332px;stroke-linecap:butt;stroke-linejoin:miter;stroke-opacity:1"
         d="m 285.61777,45.116659 v 7.672916 h 18.12399 v -7.9375 0"
         id="path4597-3-1"
         inkscape:connector-curvature="0"
         sodipodi:nodetypes="ccccc" />
      <g
         id="g5287"
         transform="matrix(0.64,0,0,0.64,217.47676,46.616922)">
        <g
           word-spacing="normal"
           letter-spacing="normal"
           font-size-adjust="none"
           font-stretch="normal"
           font-weight="normal"
           font-variant="normal"
           font-style="normal"
           stroke-miterlimit="10.433"
           xml:space="preserve"
           transform="matrix(0.3,0,0,-0.3,-52.5,222.75)"
           id="g5285"
           style="font-style:normal;font-variant:normal;font-weight:normal;font-stretch:normal;letter-spacing:normal;word-spacing:normal;text-anchor:start;fill:none;fill-opacity:1;fill-rule:evenodd;stroke:#000000;stroke-linecap:butt;stroke-linejoin:miter;stroke-miterlimit:10.43299961;stroke-dasharray:none;stroke-dashoffset:0;stroke-opacity:1"><path
             id="path5265"
             d="m 480.88,426.32 -0.01,0.02 v 0.02 l -0.01,0.01 -0.01,0.02 v 0.02 l -0.01,0.02 -0.01,0.03 -0.01,0.02 -0.01,0.02 -0.01,0.02 -0.01,0.03 -0.01,0.02 -0.02,0.05 -0.02,0.06 -0.02,0.05 -0.02,0.05 -0.01,0.02 -0.01,0.03 -0.01,0.02 -0.01,0.02 -0.01,0.03 v 0.02 l -0.01,0.02 v 0.02 l -0.01,0.02 v 0.02 0.01 0.02 c 0,0.04 0.89,0.75 1.45,1.14 l 8.72,6.73 c 4.67,3.44 6.63,3.63 8.11,3.78 0.41,0.05 0.91,0.1 0.91,1 0,0.19 -0.16,0.55 -0.55,0.55 -1.11,0 -2.34,-0.16 -3.55,-0.16 -1.79,0 -3.73,0.16 -5.53,0.16 -0.34,0 -0.94,0 -0.94,-1 0,-0.34 0.25,-0.5 0.6,-0.55 1.09,-0.09 1.54,-0.34 1.54,-1.04 0,-0.89 -1.5,-2.05 -1.79,-2.3 l -19.44,-14.94 4,15.99 c 0.44,1.79 0.55,2.29 4.17,2.29 1.25,0 1.71,0 1.71,1 0,0.44 -0.41,0.55 -0.71,0.55 -1.39,0 -4.98,-0.16 -6.37,-0.16 -1.44,0 -4.99,0.16 -6.42,0.16 -0.36,0 -1,0 -1,-0.95 0,-0.6 0.45,-0.6 1.43,-0.6 0.66,0 1.55,-0.04 2.14,-0.09 0.8,-0.11 1.11,-0.25 1.11,-0.8 0,-0.2 -0.06,-0.36 -0.2,-0.95 l -6.67,-26.75 c -0.5,-1.95 -0.61,-2.34 -4.55,-2.34 -0.84,0 -1.39,0 -1.39,-0.96 0,-0.59 0.59,-0.59 0.75,-0.59 1.39,0 4.94,0.16 6.33,0.16 1.05,0 2.14,-0.07 3.19,-0.07 1.09,0 2.18,-0.09 3.23,-0.09 0.36,0 1,0 1,1 0,0.55 -0.45,0.55 -1.39,0.55 -1.84,0 -3.23,0 -3.23,0.89 0,0.36 0.29,1.45 0.43,2.2 0.71,2.58 1.35,5.22 2,7.81 l 7.42,5.78 5.79,-13.4 c 0.59,-1.35 0.59,-1.44 0.59,-1.74 0,-1.5 -2.14,-1.54 -2.59,-1.54 -0.55,0 -1.1,0 -1.1,-1 0,-0.55 0.6,-0.55 0.71,-0.55 1.98,0 4.07,0.16 6.07,0.16 1.1,0 3.78,-0.16 4.88,-0.16 0.25,0 0.9,0 0.9,1 0,0.55 -0.56,0.55 -1,0.55 -2.04,0.04 -2.68,0.5 -3.43,2.23 z"
             inkscape:connector-curvature="0"
             style="fill:#000000;stroke-width:0" /><path
             id="path5267"
             d="m 549.52,422.5 h 0.14 0.14 0.14 l 0.08,0.01 h 0.07 l 0.07,0.01 0.07,0.01 0.07,0.01 0.07,0.01 0.07,0.01 0.07,0.02 0.06,0.02 0.06,0.02 0.07,0.02 0.05,0.03 0.06,0.03 0.05,0.04 0.05,0.03 0.05,0.05 0.04,0.04 0.04,0.05 0.02,0.03 0.02,0.03 0.01,0.02 0.02,0.03 0.01,0.03 0.02,0.04 0.01,0.03 0.01,0.04 0.01,0.03 0.01,0.04 0.01,0.04 v 0.04 l 0.01,0.04 v 0.04 0.04 0.05 c 0,1 -0.95,1 -1.64,1 h -29.84 c -0.7,0 -1.64,0 -1.64,-1 0,-0.98 0.94,-0.98 1.69,-0.98 z"
             inkscape:connector-curvature="0"
             style="fill:#000000;stroke-width:0" /><path
             id="path5269"
             d="m 549.56,412.82 h 0.07 0.06 l 0.14,0.01 h 0.14 0.07 l 0.07,0.01 0.07,0.01 h 0.07 l 0.07,0.01 0.06,0.02 0.07,0.01 0.07,0.02 0.06,0.02 0.06,0.02 0.06,0.02 0.06,0.03 0.05,0.03 0.06,0.04 0.04,0.04 0.05,0.04 0.04,0.05 0.02,0.02 0.02,0.03 0.02,0.02 0.02,0.03 0.02,0.03 0.01,0.03 0.01,0.03 0.02,0.03 0.01,0.04 0.01,0.03 0.01,0.04 0.01,0.04 0.01,0.04 v 0.04 l 0.01,0.04 v 0.04 0.05 0.04 c 0,1 -0.95,1 -1.68,1 h -29.75 c -0.75,0 -1.69,0 -1.69,-1 0,-1 0.94,-1 1.64,-1 z"
             inkscape:connector-curvature="0"
             style="fill:#000000;stroke-width:0" /><path
             id="path5271"
             d="m 575.76,441.78 v 0.16 0.17 l -0.01,0.16 v 0.08 l -0.01,0.08 v 0.08 l -0.01,0.08 -0.01,0.07 -0.01,0.07 -0.02,0.07 -0.02,0.07 -0.02,0.07 -0.02,0.06 -0.02,0.06 -0.03,0.06 -0.03,0.06 -0.04,0.05 -0.03,0.05 -0.05,0.05 -0.04,0.04 -0.05,0.04 -0.03,0.01 -0.03,0.02 -0.03,0.02 -0.03,0.01 -0.03,0.01 -0.03,0.02 -0.04,0.01 -0.03,0.01 -0.04,0.01 -0.04,0.01 h -0.04 l -0.04,0.01 h -0.04 l -0.04,0.01 h -0.05 -0.04 c -1,0 -1,-0.89 -1,-1.78 v -46.24 c 0,-0.9 0,-1.79 1,-1.79 1,0 1,0.89 1,1.79 z"
             inkscape:connector-curvature="0"
             style="fill:#000000;stroke-width:0" /><path
             id="path5273"
             d="m 611.63,437.09 0.01,0.03 0.01,0.04 0.01,0.03 0.01,0.03 v 0.03 l 0.01,0.03 0.01,0.03 0.01,0.03 v 0.03 l 0.01,0.02 0.01,0.03 0.01,0.02 v 0.03 l 0.01,0.02 0.01,0.02 v 0.02 l 0.02,0.04 0.01,0.04 0.01,0.03 0.02,0.03 0.01,0.03 0.02,0.03 0.01,0.02 0.02,0.03 0.01,0.02 0.02,0.01 0.01,0.02 0.02,0.01 0.02,0.02 0.02,0.01 0.02,0.01 0.02,0.01 0.02,0.01 h 0.02 l 0.03,0.01 h 0.03 l 0.02,0.01 0.03,0.01 h 0.03 0.04 c 0.59,0.1 1.29,0.1 1.89,0.1 1.29,0 2.09,0 2.09,1.45 0,0.09 -0.05,0.89 -1.05,0.89 -1,0 -2.09,-0.09 -3.14,-0.09 -1.09,0 -2.29,-0.05 -3.43,-0.05 -1.94,0 -6.72,0.14 -8.68,0.14 -0.59,0 -1.48,0 -1.48,-1.44 0,-0.9 0.8,-0.9 1.69,-0.9 h 1.75 c 1.93,0 2.03,0 3.23,-0.14 l -6.03,-24.18 c -1.25,-5.07 -4.39,-6.56 -6.67,-6.56 -0.45,0 -2.6,0.05 -4.1,1.19 2.69,0.66 3.6,2.98 3.6,4.34 0,1.64 -1.35,2.83 -3.05,2.83 -1.98,0 -4.42,-1.59 -4.42,-4.73 0,-3.44 3.44,-5.42 8.22,-5.42 5.58,0 11.61,2.28 13.05,8.12 z"
             inkscape:connector-curvature="0"
             style="fill:#000000;stroke-width:0" /><path
             id="path5275"
             d="m 626.03,441.78 v 0.16 0.17 0.16 l -0.01,0.08 v 0.08 l -0.01,0.08 -0.01,0.08 -0.01,0.07 -0.01,0.07 -0.01,0.07 -0.02,0.07 -0.02,0.07 -0.02,0.06 -0.02,0.06 -0.03,0.06 -0.03,0.06 -0.04,0.05 -0.04,0.05 -0.04,0.05 -0.05,0.04 -0.05,0.04 -0.02,0.01 -0.03,0.02 -0.03,0.02 -0.03,0.01 -0.03,0.01 -0.04,0.02 -0.03,0.01 -0.03,0.01 -0.04,0.01 -0.04,0.01 h -0.04 l -0.04,0.01 h -0.04 l -0.04,0.01 h -0.05 -0.05 c -1,0 -1,-0.89 -1,-1.78 v -46.24 c 0,-0.9 0,-1.79 1,-1.79 1,0 1,0.89 1,1.79 z"
             inkscape:connector-curvature="0"
             style="fill:#000000;stroke-width:0" /><path
             id="path5277"
             d="m 643.25,408.14 -0.01,-0.03 -0.01,-0.04 -0.02,-0.06 -0.02,-0.05 -0.01,-0.06 -0.02,-0.05 -0.01,-0.04 -0.01,-0.05 -0.01,-0.04 -0.01,-0.04 -0.01,-0.04 -0.01,-0.04 -0.01,-0.04 v -0.03 l -0.01,-0.03 -0.01,-0.03 v -0.03 l -0.01,-0.03 v -0.03 -0.03 l -0.01,-0.02 v -0.06 -0.05 l -0.01,-0.05 v -0.05 -0.03 -0.03 -0.03 -0.03 c 0,-0.89 0.71,-1.35 1.46,-1.35 1.48,0 1.79,1.19 2.18,2.78 0.5,1.8 0.21,0.86 2.35,9.22 4.19,-0.14 8.51,-0.98 8.51,-4.23 0,-0.35 0,-0.6 -0.09,-1.1 -0.2,-0.79 -0.25,-1.34 -0.25,-1.73 0,-2.95 1.98,-4.94 4.58,-4.94 1.59,0 2.89,0.89 3.89,2.6 1.25,2.09 1.84,4.98 1.84,5.07 0,0.5 -0.45,0.5 -0.59,0.5 -0.5,0 -0.55,-0.2 -0.7,-0.9 -0.96,-3.44 -2.1,-6.17 -4.33,-6.17 -1.05,0 -1.6,0.65 -1.6,2.39 0,0.75 0.19,1.93 0.39,2.79 0.11,0.44 0.25,1.1 0.25,1.64 0,4.69 -6.87,5.04 -9.67,5.13 1.66,0.91 3.25,2.25 4.59,3.39 2.3,1.95 3.74,3.14 5.74,3.98 -0.11,-0.25 -0.25,-0.84 -0.25,-1.09 0,-0.59 0.34,-1.75 1.89,-1.75 1.59,0 2.69,1.45 2.69,2.7 0,0.44 -0.2,1.74 -2,1.74 -3.03,0 -5.97,-2.49 -8.17,-4.33 -3.38,-2.89 -4.58,-3.64 -6.38,-4.23 0.16,0.54 0.75,3.03 1,3.89 0.3,1.28 0.89,3.62 0.89,3.87 0,0.84 -0.59,1.34 -1.44,1.34 -0.15,0 -1.54,0 -2,-1.78 z"
             inkscape:connector-curvature="0"
             style="fill:#000000;stroke-width:0" /><path
             id="path5279"
             d="m 676.36,420.26 v 0.1 l -0.01,0.09 -0.01,0.1 -0.02,0.09 -0.02,0.09 -0.03,0.09 -0.03,0.09 -0.03,0.09 -0.04,0.09 -0.04,0.08 -0.05,0.08 -0.05,0.09 -0.05,0.07 -0.06,0.08 -0.07,0.07 -0.06,0.07 -0.07,0.07 -0.07,0.07 -0.08,0.06 -0.08,0.06 -0.08,0.05 -0.08,0.05 -0.09,0.05 -0.09,0.04 -0.1,0.04 -0.09,0.03 -0.1,0.03 -0.1,0.02 -0.11,0.02 -0.1,0.01 -0.11,0.01 -0.11,0.01 c -1.05,0 -1.99,-0.83 -1.99,-1.99 0,-1.25 1.02,-2.01 1.99,-2.01 1.12,0 2.03,0.86 2.03,2.01 z"
             inkscape:connector-curvature="0"
             style="fill:#000000;stroke-width:0" /><path
             id="path5281"
             d="m 671.06,413.75 v -1.25 c 2.19,0 2.5,-0.22 2.5,-1.93 v -9.06 c 0,-1.5 -0.34,-1.5 -2.61,-1.5 v -1.25 c 0.07,0 2.5,0.14 3.91,0.14 1.22,0 2.47,-0.03 3.69,-0.14 v 1.25 c -2.02,0 -2.38,0 -2.38,1.47 v 12.64 z"
             inkscape:connector-curvature="0"
             style="fill:#000000;stroke-width:0" /><path
             id="path5283"
             d="m 698.22,409.32 -0.01,0.28 -0.01,0.28 -0.02,0.26 -0.04,0.26 -0.04,0.25 -0.05,0.24 -0.06,0.24 -0.07,0.22 -0.07,0.22 -0.09,0.21 -0.1,0.2 -0.11,0.19 -0.12,0.19 -0.13,0.17 -0.14,0.17 -0.15,0.16 -0.17,0.15 -0.17,0.14 -0.19,0.13 -0.19,0.12 -0.21,0.12 -0.22,0.1 -0.23,0.09 -0.24,0.09 -0.26,0.07 -0.27,0.07 -0.28,0.05 -0.29,0.05 -0.3,0.03 -0.32,0.03 -0.33,0.02 H 693 c -2.86,0 -4.71,-1.56 -5.69,-3.37 h -0.03 v 3.37 l -5.13,-0.37 v -1.25 c 2.35,0 2.63,-0.25 2.63,-1.96 v -9.03 c 0,-1.5 -0.36,-1.5 -2.63,-1.5 v -1.25 c 0.08,0 2.52,0.14 3.99,0.14 1.28,0 3.68,-0.11 4,-0.14 v 1.25 c -2.27,0 -2.61,0 -2.61,1.5 v 6.28 c 0,3.66 2.89,5.36 5.19,5.36 2.43,0 2.75,-1.92 2.75,-3.69 v -7.95 c 0,-1.5 -0.35,-1.5 -2.62,-1.5 v -1.25 c 0.08,0 2.52,0.14 3.97,0.14 1.3,0 3.71,-0.11 4.02,-0.14 v 1.25 c -2.27,0 -2.62,0 -2.62,1.5 z"
             inkscape:connector-curvature="0"
             style="fill:#000000;stroke-width:0" /></g>      </g>
      <g
         transform="matrix(0.64,0,0,0.64,220.6246,13.868519)"
         id="g5487">
        <g
           style="font-style:normal;font-variant:normal;font-weight:normal;font-stretch:normal;letter-spacing:normal;word-spacing:normal;text-anchor:start;fill:none;fill-opacity:1;fill-rule:evenodd;stroke:#000000;stroke-linecap:butt;stroke-linejoin:miter;stroke-miterlimit:10.43299961;stroke-dasharray:none;stroke-dashoffset:0;stroke-opacity:1"
           id="g5485"
           transform="matrix(0.3,0,0,-0.3,-52.5,222.75)"
           xml:space="preserve"
           stroke-miterlimit="10.433"
           font-style="normal"
           font-variant="normal"
           font-weight="normal"
           font-stretch="normal"
           font-size-adjust="none"
           letter-spacing="normal"
           word-spacing="normal"><path
             style="fill:#000000;stroke-width:0"
             inkscape:connector-curvature="0"
             d="m 480.88,426.32 -0.01,0.02 v 0.02 l -0.01,0.01 -0.01,0.02 v 0.02 l -0.01,0.02 -0.01,0.03 -0.01,0.02 -0.01,0.02 -0.01,0.02 -0.01,0.03 -0.01,0.02 -0.02,0.05 -0.02,0.06 -0.02,0.05 -0.02,0.05 -0.01,0.02 -0.01,0.03 -0.01,0.02 -0.01,0.02 -0.01,0.03 v 0.02 l -0.01,0.02 v 0.02 l -0.01,0.02 v 0.02 0.01 0.02 c 0,0.04 0.89,0.75 1.45,1.14 l 8.72,6.73 c 4.67,3.44 6.63,3.63 8.11,3.78 0.41,0.05 0.91,0.1 0.91,1 0,0.19 -0.16,0.55 -0.55,0.55 -1.11,0 -2.34,-0.16 -3.55,-0.16 -1.79,0 -3.73,0.16 -5.53,0.16 -0.34,0 -0.94,0 -0.94,-1 0,-0.34 0.25,-0.5 0.6,-0.55 1.09,-0.09 1.54,-0.34 1.54,-1.04 0,-0.89 -1.5,-2.05 -1.79,-2.3 l -19.44,-14.94 4,15.99 c 0.44,1.79 0.55,2.29 4.17,2.29 1.25,0 1.71,0 1.71,1 0,0.44 -0.41,0.55 -0.71,0.55 -1.39,0 -4.98,-0.16 -6.37,-0.16 -1.44,0 -4.99,0.16 -6.42,0.16 -0.36,0 -1,0 -1,-0.95 0,-0.6 0.45,-0.6 1.43,-0.6 0.66,0 1.55,-0.04 2.14,-0.09 0.8,-0.11 1.11,-0.25 1.11,-0.8 0,-0.2 -0.06,-0.36 -0.2,-0.95 l -6.67,-26.75 c -0.5,-1.95 -0.61,-2.34 -4.55,-2.34 -0.84,0 -1.39,0 -1.39,-0.96 0,-0.59 0.59,-0.59 0.75,-0.59 1.39,0 4.94,0.16 6.33,0.16 1.05,0 2.14,-0.07 3.19,-0.07 1.09,0 2.18,-0.09 3.23,-0.09 0.36,0 1,0 1,1 0,0.55 -0.45,0.55 -1.39,0.55 -1.84,0 -3.23,0 -3.23,0.89 0,0.36 0.29,1.45 0.43,2.2 0.71,2.58 1.35,5.22 2,7.81 l 7.42,5.78 5.79,-13.4 c 0.59,-1.35 0.59,-1.44 0.59,-1.74 0,-1.5 -2.14,-1.54 -2.59,-1.54 -0.55,0 -1.1,0 -1.1,-1 0,-0.55 0.6,-0.55 0.71,-0.55 1.98,0 4.07,0.16 6.07,0.16 1.1,0 3.78,-0.16 4.88,-0.16 0.25,0 0.9,0 0.9,1 0,0.55 -0.56,0.55 -1,0.55 -2.04,0.04 -2.68,0.5 -3.43,2.23 z"
             id="path5471" /><path
             style="fill:#000000;stroke-width:0"
             inkscape:connector-curvature="0"
             d="m 549.52,422.5 h 0.14 0.14 0.14 l 0.08,0.01 h 0.07 l 0.07,0.01 0.07,0.01 0.07,0.01 0.07,0.01 0.07,0.01 0.07,0.02 0.06,0.02 0.06,0.02 0.07,0.02 0.05,0.03 0.06,0.03 0.05,0.04 0.05,0.03 0.05,0.05 0.04,0.04 0.04,0.05 0.02,0.03 0.02,0.03 0.01,0.02 0.02,0.03 0.01,0.03 0.02,0.04 0.01,0.03 0.01,0.04 0.01,0.03 0.01,0.04 0.01,0.04 v 0.04 l 0.01,0.04 v 0.04 0.04 0.05 c 0,1 -0.95,1 -1.64,1 h -29.84 c -0.7,0 -1.64,0 -1.64,-1 0,-0.98 0.94,-0.98 1.69,-0.98 z"
             id="path5473" /><path
             style="fill:#000000;stroke-width:0"
             inkscape:connector-curvature="0"
             d="m 549.56,412.82 h 0.07 0.06 l 0.14,0.01 h 0.14 0.07 l 0.07,0.01 0.07,0.01 h 0.07 l 0.07,0.01 0.06,0.02 0.07,0.01 0.07,0.02 0.06,0.02 0.06,0.02 0.06,0.02 0.06,0.03 0.05,0.03 0.06,0.04 0.04,0.04 0.05,0.04 0.04,0.05 0.02,0.02 0.02,0.03 0.02,0.02 0.02,0.03 0.02,0.03 0.01,0.03 0.01,0.03 0.02,0.03 0.01,0.04 0.01,0.03 0.01,0.04 0.01,0.04 0.01,0.04 v 0.04 l 0.01,0.04 v 0.04 0.05 0.04 c 0,1 -0.95,1 -1.68,1 h -29.75 c -0.75,0 -1.69,0 -1.69,-1 0,-1 0.94,-1 1.64,-1 z"
             id="path5475" /><path
             style="fill:#000000;stroke-width:0"
             inkscape:connector-curvature="0"
             d="m 570.77,408.14 -0.01,-0.03 -0.01,-0.04 -0.01,-0.06 -0.02,-0.05 -0.01,-0.06 -0.02,-0.05 -0.01,-0.04 -0.01,-0.05 -0.01,-0.04 -0.01,-0.04 -0.01,-0.04 -0.01,-0.04 -0.01,-0.04 -0.01,-0.03 v -0.03 l -0.01,-0.03 v -0.03 l -0.01,-0.03 v -0.03 l -0.01,-0.03 v -0.02 -0.06 l -0.01,-0.05 v -0.05 -0.05 -0.03 -0.03 -0.03 -0.03 c 0,-0.89 0.7,-1.35 1.45,-1.35 1.49,0 1.8,1.19 2.19,2.78 0.5,1.8 0.2,0.86 2.34,9.22 4.19,-0.14 8.52,-0.98 8.52,-4.23 0,-0.35 0,-0.6 -0.09,-1.1 -0.21,-0.79 -0.25,-1.34 -0.25,-1.73 0,-2.95 1.98,-4.94 4.57,-4.94 1.6,0 2.9,0.89 3.9,2.6 1.25,2.09 1.84,4.98 1.84,5.07 0,0.5 -0.45,0.5 -0.59,0.5 -0.5,0 -0.55,-0.2 -0.71,-0.9 -0.95,-3.44 -2.09,-6.17 -4.33,-6.17 -1.04,0 -1.59,0.65 -1.59,2.39 0,0.75 0.19,1.93 0.39,2.79 0.11,0.44 0.25,1.1 0.25,1.64 0,4.69 -6.87,5.04 -9.67,5.13 1.66,0.91 3.25,2.25 4.59,3.39 2.3,1.95 3.74,3.14 5.74,3.98 -0.11,-0.25 -0.25,-0.84 -0.25,-1.09 0,-0.59 0.34,-1.75 1.89,-1.75 1.59,0 2.69,1.45 2.69,2.7 0,0.44 -0.21,1.74 -2,1.74 -3.04,0 -5.97,-2.49 -8.18,-4.33 -3.37,-2.89 -4.57,-3.64 -6.37,-4.23 0.15,0.54 0.75,3.03 1,3.89 0.3,1.28 0.89,3.62 0.89,3.87 0,0.84 -0.59,1.34 -1.44,1.34 -0.15,0 -1.55,0 -2,-1.78 z"
             id="path5477" /><path
             style="fill:#000000;stroke-width:0"
             inkscape:connector-curvature="0"
             d="m 614.96,406.18 -0.01,0.41 -0.04,0.4 -0.05,0.4 -0.07,0.39 -0.1,0.39 -0.11,0.38 -0.13,0.38 -0.15,0.36 -0.17,0.36 -0.19,0.35 -0.2,0.34 -0.22,0.33 -0.23,0.32 -0.25,0.31 -0.27,0.3 -0.28,0.28 -0.3,0.27 -0.3,0.26 -0.33,0.25 -0.33,0.23 -0.35,0.21 -0.35,0.2 -0.37,0.19 -0.38,0.16 -0.39,0.15 -0.4,0.13 -0.41,0.12 -0.42,0.09 -0.43,0.07 -0.43,0.06 -0.44,0.03 -0.45,0.01 v -0.99 c 2.06,0 3.53,-0.96 4.3,-2.04 0.97,-1.36 1.07,-3.11 1.07,-4.78 0,-1.68 -0.1,-3.52 -1.12,-4.96 -0.94,-1.31 -2.53,-2.01 -4.25,-2.01 v 0 c -1.28,0 -3.17,0.42 -4.31,2.12 -0.94,1.44 -1.05,3.24 -1.05,4.85 0,1.5 0.03,3.56 1.25,5.04 0.88,1.02 2.35,1.78 4.11,1.78 v 0.99 c -4.8,0 -8.53,-3.77 -8.53,-8.13 0,-4.32 3.83,-7.76 8.53,-7.76 4.7,0 8.55,3.44 8.55,7.76 z"
             id="path5479" /><path
             style="fill:#000000;stroke-width:0"
             inkscape:connector-curvature="0"
             d="m 628.9,413.75 v -1.25 c 2.32,0 2.6,-0.25 2.6,-1.96 v -5.97 c 0,-3.06 -1.98,-5.18 -4.62,-5.18 -3.17,0 -3.31,1.5 -3.31,3.28 v 11.45 l -5.38,-0.37 v -1.25 c 2.63,0 2.63,-0.11 2.63,-3.22 v -5.22 c 0,-2.41 0,-5.64 5.81,-5.64 0.77,0 3.31,0 4.98,2.92 h 0.04 v -2.92 l 5.23,0.34 v 1.25 c -2.35,0 -2.63,0.25 -2.63,1.95 v 12.16 z"
             id="path5481" /><path
             style="fill:#000000;stroke-width:0"
             inkscape:connector-curvature="0"
             d="m 645.27,412.53 h 5.44 v 1.25 h -5.44 v 6.4 h -1.18 c -0.04,-3.12 -1.46,-6.57 -4.8,-6.68 v -0.97 h 3.23 v -9.41 c 0,-3.91 2.93,-4.7 4.88,-4.7 2.34,0 3.94,1.98 3.94,4.73 v 1.92 h -1.19 v -1.89 c 0,-2.36 -1.11,-3.65 -2.47,-3.65 -2.41,0 -2.41,2.92 -2.41,3.56 z"
             id="path5483" /></g>      </g>
      <text
         xml:space="preserve"
         style="font-style:normal;font-weight:normal;font-size:6.3499999px;line-height:1.25;font-family:sans-serif;text-align:center;letter-spacing:0px;word-spacing:0px;text-anchor:middle;fill:#000000;fill-opacity:1;stroke:none;stroke-width:0.26458332"
         x="293.66464"
         y="92.859993"
         id="text4601-6-6-2-9"><tspan
           sodipodi:role="line"
           x="293.66464"
           y="92.859993"
           style="font-size:6.3499999px;stroke-width:0.26458332"
           id="tspan4934-0-3">Input noise</tspan><tspan
           id="tspan5608"
           sodipodi:role="line"
           x="293.66464"
           y="100.79749"
           style="font-size:6.3499999px;stroke-width:0.26458332">robustness:</tspan></text>
      <text
         xml:space="preserve"
         style="font-style:normal;font-weight:normal;font-size:6.3499999px;line-height:1.25;font-family:sans-serif;text-align:center;letter-spacing:0px;word-spacing:0px;text-anchor:middle;fill:#000000;fill-opacity:1;stroke:none;stroke-width:0.26458332"
         x="293.66464"
         y="61.110004"
         id="text4601-6-6-2-9-6"><tspan
           sodipodi:role="line"
           x="293.66464"
           y="61.110004"
           style="font-size:6.3499999px;stroke-width:0.26458332"
           id="tspan4934-0-3-0">Output noise</tspan><tspan
           id="tspan5608-6"
           sodipodi:role="line"
           x="293.66464"
           y="69.047501"
           style="font-size:6.3499999px;stroke-width:0.26458332">robustness:</tspan></text>
    </g>
    <g
       id="g4880"
       transform="matrix(2.1435888,0,0,2.1435888,34.641285,-346.81461)">
      <g
         word-spacing="normal"
         letter-spacing="normal"
         font-size-adjust="none"
         font-stretch="normal"
         font-weight="normal"
         font-variant="normal"
         font-style="normal"
         stroke-miterlimit="10.433"
         xml:space="preserve"
         transform="matrix(0.13810168,0,0,-0.13810168,-24.167793,233.81902)"
         id="g4878"
         style="font-style:normal;font-variant:normal;font-weight:normal;font-stretch:normal;letter-spacing:normal;word-spacing:normal;text-anchor:start;fill:none;fill-opacity:1;fill-rule:evenodd;stroke:#000000;stroke-linecap:butt;stroke-linejoin:miter;stroke-miterlimit:10.43299961;stroke-dasharray:none;stroke-dashoffset:0;stroke-opacity:1"><path
           id="path4860"
           d="m 472,394.25 v 0.02 0.03 0.01 0.02 0.01 l -0.01,0.02 v 0.01 l -0.01,0.02 -0.01,0.02 -0.01,0.02 -0.01,0.02 -0.02,0.03 -0.01,0.02 -0.02,0.03 -0.02,0.03 -0.03,0.03 -0.02,0.03 -0.03,0.04 -0.02,0.02 -0.01,0.02 -0.02,0.02 -0.02,0.02 -0.02,0.02 -0.02,0.03 -0.02,0.02 -0.02,0.02 -0.02,0.03 -0.03,0.02 -0.02,0.03 -0.03,0.03 -0.03,0.03 -0.02,0.03 -0.03,0.03 -0.03,0.03 -0.03,0.03 -0.03,0.03 -0.04,0.04 -0.03,0.03 -0.04,0.04 -0.03,0.03 -0.04,0.04 -0.04,0.04 c -6.22,6.28 -7.81,15.69 -7.81,23.31 0,8.67 1.89,17.35 8.01,23.56 0.64,0.61 0.64,0.71 0.64,0.86 0,0.35 -0.18,0.49 -0.48,0.49 -0.5,0 -4.98,-3.38 -7.92,-9.7 -2.55,-5.49 -3.14,-11.02 -3.14,-15.21 0,-3.89 0.54,-9.9 3.28,-15.54 2.98,-6.13 7.28,-9.36 7.78,-9.36 0.3,0 0.48,0.14 0.48,0.5 z"
           inkscape:connector-curvature="0"
           style="fill:#000000;stroke-width:0" /><path
           id="path4862"
           d="m 481.29,410.04 5.28,5.13 c 7.76,6.87 10.76,9.56 10.76,14.54 0,5.69 -4.48,9.68 -10.56,9.68 -5.64,0 -9.33,-4.6 -9.33,-9.03 0,-2.79 2.5,-2.79 2.64,-2.79 0.86,0 2.6,0.6 2.6,2.64 0,1.3 -0.89,2.6 -2.64,2.6 -0.4,0 -0.5,0 -0.65,-0.05 1.15,3.24 3.83,5.08 6.72,5.08 4.53,0 6.69,-4.05 6.69,-8.13 0,-3.98 -2.5,-7.92 -5.23,-11.01 L 478,408.04 c -0.56,-0.54 -0.56,-0.64 -0.56,-1.84 h 18.49 l 1.4,8.67 h -1.25 c -0.25,-1.5 -0.59,-3.69 -1.09,-4.44 -0.36,-0.39 -3.64,-0.39 -4.74,-0.39 z"
           inkscape:connector-curvature="0"
           style="fill:#000000;stroke-width:0" /><path
           id="path4864"
           d="m 516.55,421.25 0.04,0.13 0.03,0.15 0.04,0.16 0.05,0.18 0.05,0.19 0.06,0.21 0.07,0.22 0.07,0.22 0.08,0.23 0.09,0.24 0.09,0.25 0.1,0.24 0.12,0.25 0.12,0.25 0.12,0.25 0.14,0.25 0.15,0.24 0.16,0.24 0.16,0.23 0.18,0.22 0.19,0.22 0.2,0.2 0.21,0.19 0.22,0.18 0.23,0.16 0.24,0.14 0.13,0.07 0.13,0.06 0.13,0.05 0.14,0.05 0.14,0.05 0.14,0.04 0.14,0.03 0.15,0.03 0.16,0.02 0.15,0.02 0.16,0.01 h 0.16 c 0.25,0 1.44,0 2.49,-0.64 -1.39,-0.25 -2.39,-1.5 -2.39,-2.69 0,-0.79 0.54,-1.75 1.89,-1.75 1.09,0 2.68,0.89 2.68,2.89 0,2.6 -2.93,3.28 -4.62,3.28 -2.89,0 -4.64,-2.64 -5.24,-3.78 -1.25,3.28 -3.93,3.78 -5.37,3.78 -5.19,0 -8.03,-6.42 -8.03,-7.67 0,-0.5 0.5,-0.5 0.61,-0.5 0.39,0 0.54,0.11 0.64,0.55 1.69,5.28 4.98,6.53 6.67,6.53 0.95,0 2.69,-0.44 2.69,-3.33 0,-1.54 -0.85,-4.89 -2.69,-11.86 -0.8,-3.09 -2.53,-5.18 -4.73,-5.18 -0.3,0 -1.44,0 -2.49,0.65 1.25,0.24 2.35,1.28 2.35,2.69 0,1.34 -1.1,1.73 -1.85,1.73 -1.5,0 -2.75,-1.29 -2.75,-2.89 0,-2.28 2.5,-3.28 4.69,-3.28 3.3,0 5.08,3.49 5.23,3.78 0.6,-1.84 2.39,-3.78 5.38,-3.78 5.14,0 7.98,6.42 7.98,7.67 0,0.5 -0.45,0.5 -0.61,0.5 -0.43,0 -0.54,-0.2 -0.64,-0.54 -1.64,-5.33 -5.03,-6.53 -6.62,-6.53 -1.96,0 -2.75,1.59 -2.75,3.29 0,1.1 0.29,2.19 0.86,4.38 z"
           inkscape:connector-curvature="0"
           style="fill:#000000;stroke-width:0" /><path
           id="path4866"
           d="m 530.23,424.47 -0.01,-0.05 -0.01,-0.04 -0.01,-0.05 -0.01,-0.04 -0.01,-0.04 v -0.04 l -0.01,-0.03 -0.01,-0.04 v -0.03 l -0.01,-0.03 -0.01,-0.03 v -0.03 -0.03 l -0.01,-0.02 v -0.03 l -0.01,-0.02 v -0.02 -0.02 -0.02 -0.02 l -0.01,-0.01 v -0.02 -0.01 -0.01 -0.01 -0.01 -0.01 -0.01 0 -0.01 0 -0.01 c 0,-0.76 0.62,-1.11 1.17,-1.11 1.27,0 1.53,1.15 1.67,1.74 0.08,0.17 0.77,2.97 1.61,6.37 1.08,-0.71 2.47,-1 3.74,-1 2.98,0 4.93,2.44 5.01,2.5 0.66,-2.4 3.07,-2.5 3.58,-2.5 1.27,0 2.13,0.77 2.77,1.85 0.76,1.36 1.22,3.34 1.22,3.48 0,0.46 -0.46,0.46 -0.57,0.46 -0.48,0 -0.53,-0.14 -0.76,-1.08 -0.43,-1.67 -1.08,-3.74 -2.55,-3.74 -0.91,0 -1.16,0.77 -1.16,1.71 0,0.59 0.28,1.86 0.54,2.76 0.24,0.94 0.59,2.36 0.76,3.13 l 0.8,3.11 c 0.22,0.87 0.59,2.4 0.59,2.57 0,0.69 -0.55,1.11 -1.14,1.11 -0.39,0 -1.05,-0.17 -1.44,-0.82 -0.11,-0.22 -0.37,-1.33 -0.56,-2.04 l -0.72,-2.89 -1.08,-4.36 c -0.25,-0.86 -0.25,-0.93 -0.56,-1.39 -1.08,-1.53 -2.61,-2.89 -4.61,-2.89 -2.84,0 -2.84,2.47 -2.84,3.11 0,0.91 0.09,1.36 0.59,3.24 0.35,1.53 0.41,1.78 0.77,3.14 l 0.48,1.95 c 0.17,0.72 0.52,2.05 0.52,2.19 0,0.62 -0.49,1.11 -1.19,1.11 -1.25,0 -1.56,-1.22 -1.67,-1.63 z"
           inkscape:connector-curvature="0"
           style="fill:#000000;stroke-width:0" /><path
           id="path4868"
           d="m 539.66,414.06 -0.01,0.05 v 0.06 l -0.01,0.05 v 0.06 l -0.02,0.05 -0.01,0.06 -0.02,0.05 -0.02,0.06 -0.02,0.06 -0.02,0.05 -0.03,0.06 -0.03,0.05 -0.03,0.06 -0.04,0.05 -0.04,0.05 -0.04,0.05 -0.04,0.05 -0.05,0.05 -0.05,0.04 -0.05,0.04 -0.06,0.05 -0.06,0.03 -0.06,0.04 -0.07,0.03 -0.06,0.03 -0.07,0.03 -0.08,0.02 -0.08,0.02 -0.08,0.01 -0.08,0.01 -0.09,0.01 h -0.09 c -0.94,0 -1.95,-0.91 -1.95,-1.92 0,-0.59 0.45,-1.33 1.4,-1.33 1,0 1.96,0.98 1.96,1.92 z"
           inkscape:connector-curvature="0"
           style="fill:#000000;stroke-width:0" /><path
           id="path4870"
           d="m 532.55,396.36 -0.06,-0.17 -0.05,-0.17 -0.03,-0.08 -0.02,-0.09 -0.03,-0.08 -0.02,-0.09 -0.02,-0.09 -0.02,-0.09 -0.02,-0.1 -0.02,-0.09 -0.01,-0.1 v -0.05 l -0.01,-0.05 V 395.05 395 l -0.01,-0.05 v -0.06 c 0,-1.64 1.39,-2.95 3.3,-2.95 3.49,0 5.03,4.79 5.03,5.33 0,0.45 -0.45,0.45 -0.56,0.45 -0.48,0 -0.53,-0.2 -0.67,-0.6 -0.8,-2.78 -2.33,-4.21 -3.69,-4.21 -0.7,0 -0.87,0.45 -0.87,1.21 0,0.8 0.25,1.47 0.56,2.24 0.34,0.94 0.73,1.87 1.11,2.78 0.31,0.84 1.58,4.02 1.72,4.44 0.09,0.34 0.2,0.76 0.2,1.11 0,1.64 -1.39,2.95 -3.31,2.95 -3.46,0 -5.05,-4.73 -5.05,-5.33 0,-0.45 0.48,-0.45 0.59,-0.45 0.49,0 0.52,0.17 0.63,0.56 0.9,3 2.44,4.25 3.72,4.25 0.56,0 0.87,-0.28 0.87,-1.22 0,-0.79 -0.2,-1.33 -1.08,-3.48 z"
           inkscape:connector-curvature="0"
           style="fill:#000000;stroke-width:0" /><path
           id="path4872"
           d="m 598.87,417.65 h 0.16 0.15 l 0.16,0.01 h 0.08 l 0.08,0.01 h 0.07 l 0.08,0.01 0.07,0.01 0.07,0.01 0.07,0.02 0.07,0.02 0.07,0.02 0.06,0.02 0.06,0.02 0.06,0.03 0.05,0.03 0.06,0.04 0.05,0.03 0.04,0.05 0.04,0.04 0.04,0.05 0.02,0.03 0.02,0.03 0.01,0.03 0.02,0.03 0.01,0.03 0.01,0.03 0.02,0.04 0.01,0.03 0.01,0.04 v 0.04 l 0.01,0.04 0.01,0.04 v 0.04 0.04 l 0.01,0.05 v 0.04 c 0,1 -0.91,1 -1.75,1 h -26.96 c -0.84,0 -1.73,0 -1.73,-1 0,-1 0.89,-1 1.73,-1 z"
           inkscape:connector-curvature="0"
           style="fill:#000000;stroke-width:0" /><path
           id="path4874"
           d="m 630.6,438.09 v 0.05 0.06 0.05 0.05 0.05 0.05 0.04 0.05 l -0.01,0.04 v 0.04 0.04 0.04 0.04 0.03 l -0.01,0.04 v 0.03 l -0.01,0.07 -0.01,0.06 -0.01,0.05 -0.01,0.05 -0.02,0.05 -0.02,0.04 -0.02,0.04 -0.02,0.03 -0.03,0.03 -0.04,0.03 -0.03,0.03 -0.04,0.02 -0.04,0.02 -0.03,0.01 -0.02,0.01 h -0.03 l -0.03,0.01 -0.02,0.01 h -0.03 l -0.03,0.01 h -0.04 l -0.03,0.01 h -0.03 -0.04 l -0.04,0.01 h -0.04 -0.04 -0.04 -0.04 -0.05 l -0.04,0.01 h -0.05 -0.05 -0.05 -0.05 c -3.1,-3.19 -7.47,-3.19 -9.06,-3.19 v -1.55 c 1,0 3.93,0 6.51,1.3 v -25.81 c 0,-1.8 -0.14,-2.39 -4.63,-2.39 h -1.59 v -1.55 c 1.75,0.16 6.08,0.16 8.06,0.16 2,0 6.33,0 8.08,-0.16 v 1.55 h -1.59 c -4.49,0 -4.64,0.54 -4.64,2.39 z"
           inkscape:connector-curvature="0"
           style="fill:#000000;stroke-width:0" /><path
           id="path4876"
           d="m 655.3,418.65 v 0.37 0.39 l -0.01,0.39 -0.01,0.41 -0.04,0.84 -0.06,0.88 -0.09,0.92 -0.1,0.95 -0.14,0.97 -0.16,1.01 -0.2,1.02 -0.23,1.03 -0.26,1.05 -0.31,1.06 -0.35,1.07 -0.39,1.07 -0.21,0.53 -0.23,0.53 -0.24,0.53 -0.25,0.53 c -2.98,6.12 -7.26,9.36 -7.76,9.36 -0.3,0 -0.5,-0.19 -0.5,-0.49 0,-0.15 0,-0.25 0.94,-1.15 4.89,-4.92 7.73,-12.85 7.73,-23.27 0,-8.51 -1.84,-17.28 -8.03,-23.56 -0.64,-0.59 -0.64,-0.7 -0.64,-0.84 0,-0.3 0.2,-0.5 0.5,-0.5 0.5,0 4.97,3.39 7.92,9.71 2.53,5.47 3.12,11 3.12,15.19 z"
           inkscape:connector-curvature="0"
           style="fill:#000000;stroke-width:0" /></g>    </g>
  </g>
</svg>
