<?xml version="1.0" encoding="UTF-8" standalone="no"?>
<!-- Created with Inkscape (http://www.inkscape.org/) -->

<svg
   xmlns:dc="http://purl.org/dc/elements/1.1/"
   xmlns:cc="http://creativecommons.org/ns#"
   xmlns:rdf="http://www.w3.org/1999/02/22-rdf-syntax-ns#"
   xmlns:svg="http://www.w3.org/2000/svg"
   xmlns="http://www.w3.org/2000/svg"
   xmlns:sodipodi="http://sodipodi.sourceforge.net/DTD/sodipodi-0.dtd"
   xmlns:inkscape="http://www.inkscape.org/namespaces/inkscape"
   version="1.1"
   id="svg4794"
   xml:space="preserve"
   width="418.86023"
   height="594.42358"
   viewBox="0 0 418.86023 594.42358"
   sodipodi:docname="BirdSongArchitecture.svg"
   inkscape:version="0.92.1 r15371"><metadata
     id="metadata4800"><rdf:RDF><cc:Work
         rdf:about=""><dc:format>image/svg+xml</dc:format><dc:type
           rdf:resource="http://purl.org/dc/dcmitype/StillImage" /><dc:title></dc:title></cc:Work></rdf:RDF></metadata><defs
     id="defs4798" /><sodipodi:namedview
     pagecolor="#ffffff"
     bordercolor="#666666"
     borderopacity="1"
     objecttolerance="10"
     gridtolerance="10"
     guidetolerance="10"
     inkscape:pageopacity="0"
     inkscape:pageshadow="2"
     inkscape:window-width="3840"
     inkscape:window-height="2021"
     id="namedview4796"
     showgrid="false"
     inkscape:zoom="2.7077533"
     inkscape:cx="232.74825"
     inkscape:cy="322.23313"
     inkscape:window-x="0"
     inkscape:window-y="65"
     inkscape:window-maximized="1"
     inkscape:current-layer="g4802"
     fit-margin-top="0"
     fit-margin-left="0"
     fit-margin-right="0"
     fit-margin-bottom="0" /><g
     id="g4802"
     inkscape:groupmode="layer"
     inkscape:label="BirdSongArchitecture"
     transform="matrix(1.3333333,0,0,-1.3333333,-88.693331,631.88879)"><g
       id="mindlin"
       inkscape:label="#g6254"
       transform="translate(0,37.5)"><rect
         style="opacity:1;vector-effect:none;fill:#ecfaec;fill-opacity:1;stroke:none;stroke-width:0.75;stroke-linecap:butt;stroke-linejoin:miter;stroke-miterlimit:100;stroke-dasharray:none;stroke-dashoffset:0;stroke-opacity:1"
         id="rect6494"
         width="177.05396"
         height="190.76389"
         x="118.68882"
         y="-181.36278"
         transform="scale(1,-1)" /><g
         id="g6214"><text
           id="text5096"
           style="font-variant:normal;font-weight:normal;font-size:10.00033379px;font-family:Roboto;-inkscape-font-specification:Roboto-Regular;writing-mode:lr-tb;fill:#000000;fill-opacity:1;fill-rule:nonzero;stroke:none"
           transform="scale(1,-1)"
           x="136.36049"
           y="-161.14084"><tspan
             id="tspan5092"
             sodipodi:role="line"
             y="-161.14084"
             x="136.36049 142.88071 145.3008 148.68091 151.15099 157.45119 160.83131 166.12149 171.27165 176.42183 181.93201 185.31212">Air Pressure</tspan><tspan
             id="tspan5094"
             sodipodi:role="line"
             y="-148.64043"
             x="147.88431 154.40453 159.91472 165.34489 167.76498 173.46516">Analog</tspan></text>
<g
           transform="matrix(1,0,0,-1,0,473.91516)"
           id="g5098"><path
             inkscape:connector-curvature="0"
             id="path5100"
             style="fill:none;stroke:#030006;stroke-width:1.14289498;stroke-linecap:butt;stroke-linejoin:miter;stroke-miterlimit:4;stroke-dasharray:none;stroke-opacity:1"
             d="m 125.727,298.711 h 75.328 v 35.5 h -75.328 z" /></g><text
           id="text5106"
           style="font-variant:normal;font-weight:normal;font-size:10.00033379px;font-family:Roboto;-inkscape-font-specification:Roboto-Regular;writing-mode:lr-tb;fill:#000000;fill-opacity:1;fill-rule:nonzero;stroke:none"
           transform="scale(1,-1)"
           x="221.10667"
           y="-161.12125"><tspan
             id="tspan5102"
             sodipodi:role="line"
             y="-161.12125"
             x="221.10667 226.48686 231.91704 237.52722 239.94731 245.37749 247.79758 250.08765 256.04785 261.33801 266.84821 271.99838 274.41846 280.11865">Labial Tension</tspan><tspan
             id="tspan5104"
             sodipodi:role="line"
             y="-148.62082"
             x="237.80646 244.32668 249.83685 255.26704 257.68713 263.3873">Analog</tspan></text>
<g
           transform="matrix(1,0,0,-1,0,473.91516)"
           id="g5108"><path
             inkscape:connector-curvature="0"
             id="path5110"
             style="fill:none;stroke:#030006;stroke-width:1.14289498;stroke-linecap:butt;stroke-linejoin:miter;stroke-miterlimit:4;stroke-dasharray:none;stroke-opacity:1"
             d="m 215.648,298.73 h 75.328 v 35.5 h -75.328 z" /></g><text
           id="text5116"
           style="font-variant:normal;font-weight:normal;font-size:10.00033379px;font-family:Roboto;-inkscape-font-specification:Roboto-Regular;writing-mode:lr-tb;fill:#000000;fill-opacity:1;fill-rule:nonzero;stroke:none"
           transform="scale(1,-1)"
           x="184.25723"
           y="-86.663712"><tspan
             id="tspan5112"
             sodipodi:role="line"
             y="-86.663712"
             x="184.25723 190.40744 196.10764 201.33781 206.76799 209.18806 211.46815 217.06833 220.24844 225.67862 230.9088">Vocal Tract</tspan><tspan
             id="tspan5114"
             sodipodi:role="line"
             y="-74.1633"
             x="170.82906 177.37929 182.10944 187.61963 193.0498 201.81009 204.23018 209.46036 214.92053 217.34061 219.8107 228.54099 234.24118 239.87137 245.16154">Dynamical Model</tspan></text>
<g
           transform="matrix(1,0,0,-1,0,473.91516)"
           id="g5118"><path
             inkscape:connector-curvature="0"
             id="path5120"
             style="fill:none;stroke:#030006;stroke-width:1.14289498;stroke-linecap:butt;stroke-linejoin:miter;stroke-miterlimit:4;stroke-dasharray:none;stroke-opacity:1"
             d="m 165.922,373.188 h 84.312 v 35.5 h -84.312 z" /></g><g
           transform="matrix(1,0,0,-1,0,473.91516)"
           id="g5122"><path
             inkscape:connector-curvature="0"
             id="path5124"
             style="fill:none;stroke:#000000;stroke-width:0.57144803;stroke-linecap:butt;stroke-linejoin:miter;stroke-miterlimit:4;stroke-dasharray:none;stroke-opacity:1"
             d="m 174.039,334.211 23.387,38.977" /></g><g
           transform="matrix(-0.600009,1,1,0.600009,0,473.91516)"
           id="g5126"><path
             inkscape:connector-curvature="0"
             id="path5128"
             style="fill:#000000;fill-opacity:1;fill-rule:evenodd;stroke:#000000;stroke-width:0.245005;stroke-linecap:butt;stroke-linejoin:miter;stroke-miterlimit:4;stroke-dasharray:none;stroke-opacity:1"
             d="m -359.54,-19.477 0.978,-0.98 -3.429,0.982 3.429,0.979 z" /></g><g
           transform="matrix(1,0,0,-1,0,473.91516)"
           id="g5130"><path
             inkscape:connector-curvature="0"
             id="path5132"
             style="fill:none;stroke:#000000;stroke-width:0.57144803;stroke-linecap:butt;stroke-linejoin:miter;stroke-miterlimit:4;stroke-dasharray:none;stroke-opacity:1"
             d="m 242.527,334.23 -23.668,38.958" /></g><g
           transform="matrix(0.60753,1,1,-0.60753,0,473.91516)"
           id="g5134"><path
             inkscape:connector-curvature="0"
             id="path5136"
             style="fill:#000000;fill-opacity:1;fill-rule:evenodd;stroke:#000000;stroke-width:0.24419101;stroke-linecap:butt;stroke-linejoin:miter;stroke-miterlimit:4;stroke-dasharray:none;stroke-opacity:1"
             d="m -173.509,325.459 0.978,-0.977 -3.42,0.976 3.419,0.978 z" /></g><text
           id="text5140"
           style="font-variant:normal;font-weight:normal;font-size:10.00033379px;font-family:Roboto;-inkscape-font-specification:Roboto-Regular;writing-mode:lr-tb;fill:#000000;fill-opacity:1;fill-rule:nonzero;stroke:none"
           transform="scale(1,-1)"
           x="180.73676"
           y="-15.151135"><tspan
             id="tspan5138"
             sodipodi:role="line"
             y="-15.151135"
             x="180.73676 186.66696 192.36714 197.87733 203.38751 209.0177 211.48779 217.41798 219.83807 225.44826 230.95844 236.41862">Sound Signal</tspan></text>
<g
           transform="matrix(1,0,0,-1,0,473.91516)"
           id="g5142"><path
             inkscape:connector-curvature="0"
             id="path5144"
             style="fill:none;stroke:#030006;stroke-width:1.14289498;stroke-linecap:butt;stroke-linejoin:miter;stroke-miterlimit:4;stroke-dasharray:none;stroke-opacity:1"
             d="m 166.492,437.844 h 84.312 v 35.5 h -84.312 z" /></g><g
           transform="matrix(1,0,0,-1,0,473.91516)"
           id="g5146"><path
             inkscape:connector-curvature="0"
             id="path5148"
             style="fill:none;stroke:#000000;stroke-width:0.57144803;stroke-linecap:butt;stroke-linejoin:miter;stroke-miterlimit:4;stroke-dasharray:none;stroke-opacity:1"
             d="m 208.234,408.688 0.258,29.156" /></g><g
           transform="matrix(-0.00883844,1,1,0.00883844,0,473.91516)"
           id="g5150"><path
             inkscape:connector-curvature="0"
             id="path5152"
             style="fill:#000000;fill-opacity:1;fill-rule:evenodd;stroke:#000000;stroke-width:0.28571299;stroke-linecap:butt;stroke-linejoin:miter;stroke-miterlimit:4;stroke-dasharray:none;stroke-opacity:1"
             d="m -437.367,204.607 1.143,-1.142 -3.998,1.14 4.001,1.145 z" /></g></g><text
         transform="scale(1,-1)"
         id="text6218"
         y="-73.055038"
         x="330.64487"
         style="font-style:normal;font-weight:normal;font-size:12px;line-height:1.25;font-family:sans-serif;text-align:center;letter-spacing:0px;word-spacing:0px;text-anchor:middle;fill:#000000;fill-opacity:1;stroke:none;stroke-width:0.75"
         xml:space="preserve"><tspan
           style="font-size:12px;stroke-width:0.75"
           y="-73.055038"
           x="330.64487"
           id="tspan6216"
           sodipodi:role="line">Mindlin et al</tspan></text>
</g><g
       id="RA-Motor"
       inkscape:label="#g6483"
       transform="translate(0,36)"><g
         id="g6331"><path
           inkscape:connector-curvature="0"
           id="path4806"
           style="fill:#d7e1e7;fill-opacity:1;fill-rule:nonzero;stroke:none"
           d="m 215.012,256.607 h 71.434 v -29.293 h -71.434 z" /><path
           inkscape:connector-curvature="0"
           id="path4808"
           style="fill:#d7e1e7;fill-opacity:1;fill-rule:nonzero;stroke:none"
           d="m 139.688,256.732 h 51.375 v -29.297 h -51.375 z" /><g
           id="g6275"><g
             id="g4910"
             transform="matrix(1,0,0,-1,0,473.91516)"><path
               d="m 139.742,138.293 13.598,90.934"
               style="fill:none;stroke:#000000;stroke-width:0.57144803;stroke-linecap:butt;stroke-linejoin:miter;stroke-miterlimit:4;stroke-dasharray:none;stroke-opacity:1"
               id="path4912"
               inkscape:connector-curvature="0" /></g><g
             id="g4914"
             transform="matrix(1,0,0,-1,0,473.91516)"><path
               d="M 169.207,138.293 153.34,229.227"
               style="fill:none;stroke:#000000;stroke-width:0.57144803;stroke-linecap:butt;stroke-linejoin:miter;stroke-miterlimit:4;stroke-dasharray:none;stroke-opacity:1"
               id="path4916"
               inkscape:connector-curvature="0" /></g><g
             id="g4918"
             transform="matrix(1,0,0,-1,0,473.91516)"><path
               d="m 139.742,138.293 37.856,90.934"
               style="fill:none;stroke:#000000;stroke-width:0.57144803;stroke-linecap:butt;stroke-linejoin:miter;stroke-miterlimit:4;stroke-dasharray:none;stroke-opacity:1"
               id="path4920"
               inkscape:connector-curvature="0" /></g><g
             id="g4922"
             transform="matrix(1,0,0,-1,0,473.91516)"><path
               d="m 169.207,138.293 8.391,90.934"
               style="fill:none;stroke:#000000;stroke-width:0.57144803;stroke-linecap:butt;stroke-linejoin:miter;stroke-miterlimit:4;stroke-dasharray:none;stroke-opacity:1"
               id="path4924"
               inkscape:connector-curvature="0" /></g></g><g
           id="g6285"><g
             id="g4926"
             transform="matrix(1,0,0,-1,0,473.91516)"><path
               d="m 206.215,138.293 22.031,92.078"
               style="fill:none;stroke:#000000;stroke-width:0.57144803;stroke-linecap:butt;stroke-linejoin:miter;stroke-miterlimit:4;stroke-dasharray:none;stroke-opacity:1"
               id="path4928"
               inkscape:connector-curvature="0" /></g><g
             id="g4930"
             transform="matrix(1,0,0,-1,0,473.91516)"><path
               d="m 267.789,138.293 -39.543,92.078"
               style="fill:none;stroke:#000000;stroke-width:0.57144803;stroke-linecap:butt;stroke-linejoin:miter;stroke-miterlimit:4;stroke-dasharray:none;stroke-opacity:1"
               id="path4932"
               inkscape:connector-curvature="0" /></g><g
             id="g4934"
             transform="matrix(1,0,0,-1,0,473.91516)"><path
               d="m 206.215,138.293 70.23,92.078"
               style="fill:none;stroke:#000000;stroke-width:0.57144803;stroke-linecap:butt;stroke-linejoin:miter;stroke-miterlimit:4;stroke-dasharray:none;stroke-opacity:1"
               id="path4936"
               inkscape:connector-curvature="0" /></g><g
             id="g4938"
             transform="matrix(1,0,0,-1,0,473.91516)"><path
               d="m 267.789,138.293 8.656,92.078"
               style="fill:none;stroke:#000000;stroke-width:0.57144803;stroke-linecap:butt;stroke-linejoin:miter;stroke-miterlimit:4;stroke-dasharray:none;stroke-opacity:1"
               id="path4940"
               inkscape:connector-curvature="0" /></g></g><g
           transform="matrix(1,0,0,-1,-3.7500001e-8,473.91516)"
           id="g4942"><path
             inkscape:connector-curvature="0"
             id="path4944"
             style="fill:#f4f8f8;fill-opacity:1;fill-rule:nonzero;stroke:#a694fb;stroke-width:2.34293509;stroke-linecap:butt;stroke-linejoin:miter;stroke-miterlimit:4;stroke-dasharray:none;stroke-opacity:1"
             d="m 161.277,229.227 c 0,4.703 -3.554,8.515 -7.937,8.515 -4.383,0 -7.938,-3.812 -7.938,-8.515 0,-4.7 3.555,-8.512 7.938,-8.512 4.383,0 7.937,3.812 7.937,8.512 z" /></g><g
           transform="matrix(1,0,0,-1,-3.7500001e-8,473.91516)"
           id="g4946"><path
             inkscape:connector-curvature="0"
             id="path4948"
             style="fill:#f4f8f8;fill-opacity:1;fill-rule:nonzero;stroke:#a694fb;stroke-width:2.34293509;stroke-linecap:butt;stroke-linejoin:miter;stroke-miterlimit:4;stroke-dasharray:none;stroke-opacity:1"
             d="m 185.535,229.227 c 0,4.703 -3.555,8.515 -7.937,8.515 -4.387,0 -7.938,-3.812 -7.938,-8.515 0,-4.7 3.551,-8.512 7.938,-8.512 4.382,0 7.937,3.812 7.937,8.512 z" /></g><g
           transform="matrix(1,0,0,-1,-3.7500001e-8,473.91516)"
           id="g4950"><path
             inkscape:connector-curvature="0"
             id="path4952"
             style="fill:#f4f8f8;fill-opacity:1;fill-rule:nonzero;stroke:#a694fb;stroke-width:2.34293509;stroke-linecap:butt;stroke-linejoin:miter;stroke-miterlimit:4;stroke-dasharray:none;stroke-opacity:1"
             d="m 236.184,230.371 c 0,4.703 -3.555,8.516 -7.938,8.516 -4.387,0 -7.937,-3.813 -7.937,-8.516 0,-4.703 3.55,-8.516 7.937,-8.516 4.383,0 7.938,3.813 7.938,8.516 z" /></g><g
           transform="matrix(1,0,0,-1,-3.7500001e-8,473.91516)"
           id="g4954"><path
             inkscape:connector-curvature="0"
             id="path4956"
             style="fill:#f4f8f8;fill-opacity:1;fill-rule:nonzero;stroke:#a694fb;stroke-width:2.34293509;stroke-linecap:butt;stroke-linejoin:miter;stroke-miterlimit:4;stroke-dasharray:none;stroke-opacity:1"
             d="m 260.281,230.371 c 0,4.703 -3.551,8.516 -7.937,8.516 -4.383,0 -7.938,-3.813 -7.938,-8.516 0,-4.703 3.555,-8.516 7.938,-8.516 4.386,0 7.937,3.813 7.937,8.516 z" /></g><g
           transform="matrix(1,0,0,-1,0,473.91516)"
           id="g4958"><path
             inkscape:connector-curvature="0"
             id="path4960"
             style="fill:#f4f8f8;fill-opacity:1;fill-rule:nonzero;stroke:#a694fb;stroke-width:2.34293509;stroke-linecap:butt;stroke-linejoin:miter;stroke-miterlimit:4;stroke-dasharray:none;stroke-opacity:1"
             d="m 284.383,230.371 c 0,4.703 -3.555,8.516 -7.938,8.516 -4.383,0 -7.937,-3.813 -7.937,-8.516 0,-4.703 3.554,-8.516 7.937,-8.516 4.383,0 7.938,3.813 7.938,8.516 z" /></g><text
           id="text4992"
           style="font-variant:normal;font-weight:normal;font-size:7.14309502px;font-family:Roboto;-inkscape-font-specification:Roboto-Regular;writing-mode:lr-tb;fill:#000000;fill-opacity:1;fill-rule:nonzero;stroke:none"
           transform="scale(1,-1)"
           x="148.1033"
           y="-229.8804"><tspan
             id="tspan4988"
             sodipodi:role="line"
             y="-229.8804"
             x="148.1033 152.49631 156.27499 159.95369 163.96097 165.68961 167.94682 171.82552 174.08987 178.16144 180.57581">Respiratory</tspan><tspan
             id="tspan4990"
             sodipodi:role="line"
             y="-228.54218"
             x="237.56625 241.80211 245.1808 247.59515 249.32379 253.25963 257.26691 261.04559 264.92432">Syringeal</tspan></text>
</g><g
         id="g6292"><text
           id="text4986"
           style="font-variant:normal;font-weight:normal;font-size:10.00033283px;font-family:Roboto;-inkscape-font-specification:Roboto-Regular;writing-mode:lr-tb;fill:#000000;fill-opacity:1;fill-rule:nonzero;stroke:none"
           transform="scale(1,-1)"
           x="105.63396"
           y="-245.80164"><tspan
             id="tspan4982"
             sodipodi:role="line"
             y="-245.80164"
             x="105.63396 114.36425 120.06444 123.22455 128.92473">Motor</tspan><tspan
             id="tspan4984"
             sodipodi:role="line"
             y="-233.30122"
             x="100.1748 107.29504 112.58521 118.0954 121.3655 127.0657 132.57588">Neurons</tspan></text>
<g
           transform="matrix(1,0,0,-1,0,473.91516)"
           id="g4994"><path
             inkscape:connector-curvature="0"
             id="path4996"
             style="fill:none;stroke:#030006;stroke-width:1.14289498;stroke-linecap:butt;stroke-linejoin:miter;stroke-miterlimit:4;stroke-dasharray:none;stroke-opacity:1"
             d="m 97.512,210.172 h 192.227 v 38.961 H 97.512 Z" /></g></g><g
         id="g6351"><g
           transform="matrix(1,0,0,-1,0,473.91516)"
           id="g5034"><path
             inkscape:connector-curvature="0"
             id="path5036"
             style="fill:none;stroke:#000000;stroke-width:0.57144803;stroke-linecap:butt;stroke-linejoin:miter;stroke-miterlimit:4;stroke-dasharray:none;stroke-opacity:1"
             d="m 326.816,246.051 h 52.758" /></g><g
           transform="matrix(-1,0,0,1,0,473.91516)"
           id="g5038"><path
             inkscape:connector-curvature="0"
             id="path5040"
             style="fill:#000000;fill-opacity:1;fill-rule:evenodd;stroke:#000000;stroke-width:0.28572401;stroke-linecap:butt;stroke-linejoin:miter;stroke-miterlimit:4;stroke-dasharray:none;stroke-opacity:1"
             d="m -377.285,-246.051 1.14,-1.14 -4,1.14 4,1.145 z" /></g><g
           transform="matrix(1,0,0,-1,0,473.91516)"
           id="g5042"><path
             inkscape:connector-curvature="0"
             id="path5044"
             style="fill:none;stroke:#000000;stroke-width:0.57144803;stroke-linecap:butt;stroke-linejoin:miter;stroke-miterlimit:4;stroke-dasharray:none;stroke-opacity:1"
             d="m 327.43,212.375 v 35" /></g><g
           transform="matrix(0,-1,-1,0,0,473.91516)"
           id="g5046"><path
             inkscape:connector-curvature="0"
             id="path5048"
             style="fill:#000000;fill-opacity:1;fill-rule:evenodd;stroke:#000000;stroke-width:0.28572401;stroke-linecap:butt;stroke-linejoin:miter;stroke-miterlimit:4;stroke-dasharray:none;stroke-opacity:1"
             d="m 214.66,-327.43 1.145,-1.14 -4,1.14 4,1.145 z" /></g><g
           transform="matrix(1,0,0,-1,0,473.91516)"
           id="g5050"><path
             inkscape:connector-curvature="0"
             id="path5052"
             style="fill:none;stroke:#000000;stroke-width:0.57144803;stroke-linecap:butt;stroke-linejoin:miter;stroke-miterlimit:4;stroke-dasharray:none;stroke-opacity:1"
             d="m 327.531,242.988 h 29.797 c 6.613,-13.511 9.117,-24.023 21.328,-23.676" /></g><g
           transform="matrix(1,0,0,-1,0,473.91516)"
           id="g5054"><path
             inkscape:connector-curvature="0"
             id="path5056"
             style="fill:none;stroke:#000000;stroke-width:0.57144803;stroke-linecap:butt;stroke-linejoin:miter;stroke-miterlimit:4;stroke-dasharray:none;stroke-opacity:1"
             d="m 326.508,218.906 h 2.043" /></g><g
           transform="matrix(1,0,0,-1,0,473.91516)"
           id="g5058"><path
             inkscape:connector-curvature="0"
             id="path5060"
             style="fill:none;stroke:#000000;stroke-width:0.57144803;stroke-linecap:butt;stroke-linejoin:miter;stroke-miterlimit:4;stroke-dasharray:none;stroke-opacity:1"
             d="m 357.328,244.723 v 3.265" /></g><text
           id="text5064"
           style="font-variant:normal;font-weight:normal;font-size:7.14309597px;font-family:Roboto;-inkscape-font-specification:Roboto-Regular;writing-mode:lr-tb;fill:#000000;fill-opacity:1;fill-rule:nonzero;stroke:none"
           transform="scale(1,-1)"
           x="336.20239"
           y="-217.39598"><tspan
             id="tspan5062"
             sodipodi:role="line"
             y="-217.39598"
             x="336.20239 338.13818 342.07401 346.0813 350.01715 352.34579 354.11014 358.76743 365.02478 369.03207">Input Amp.</tspan></text>
<text
           id="text5068"
           style="font-variant:normal;font-weight:normal;font-size:7.14309597px;font-family:Roboto;-inkscape-font-specification:Roboto-Regular;writing-mode:lr-tb;fill:#000000;fill-opacity:1;fill-rule:nonzero;stroke:none"
           transform="matrix(0,1,1,0,0,0)"
           x="229.146"
           y="322.87665"><tspan
             id="tspan5066"
             sodipodi:role="line"
             y="322.87665"
             x="229.146 233.539 237.3177 240.9964 245.00368 249.07524 253.01108 256.68979">Response</tspan></text>
</g><g
         id="g6265"><path
           inkscape:connector-curvature="0"
           id="path5184"
           style="fill:#000000;fill-opacity:1;fill-rule:evenodd;stroke:none"
           d="m 80.387,294.997 0.074,0.129 0.078,0.129 0.156,0.242 0.039,0.059 0.043,0.054 0.047,0.055 0.039,0.051 0.094,0.102 0.051,0.05 0.051,0.043 0.05,0.047 0.11,0.086 0.058,0.035 0.063,0.039 0.062,0.035 0.063,0.032 0.066,0.027 0.074,0.031 0.149,0.047 0.082,0.02 0.082,0.015 0.086,0.016 0.09,0.016 0.094,0.003 c 0.144,0.016 0.308,0.016 0.308,0.325 0,0.062 -0.066,0.175 -0.199,0.175 -0.383,0 -0.832,-0.05 -1.235,-0.05 -0.55,0 -1.148,0.05 -1.675,0.05 -0.094,0 -0.301,0 -0.301,-0.304 0,-0.18 0.141,-0.196 0.234,-0.196 0.387,-0.011 0.953,-0.144 0.953,-0.621 0,-0.179 -0.082,-0.312 -0.211,-0.535 l -4.343,-7.57 -0.594,7.973 c -0.016,0.324 -0.047,0.742 1.125,0.753 0.277,0 0.438,0 0.438,0.325 0,0.16 -0.18,0.175 -0.243,0.175 -0.644,0 -1.32,-0.05 -1.961,-0.05 -0.375,0 -1.324,0.05 -1.691,0.05 -0.098,0 -0.305,0 -0.305,-0.32 0,-0.18 0.16,-0.18 0.387,-0.18 0.707,0 0.816,-0.093 0.852,-0.402 l 0.097,-1.234 -4.07,-7.09 -0.609,8.148 c 0,0.192 0,0.567 1.218,0.578 0.16,0 0.34,0 0.34,0.325 0,0.175 -0.195,0.175 -0.223,0.175 -0.648,0 -1.32,-0.05 -1.98,-0.05 -0.562,0 -1.141,0.05 -1.688,0.05 -0.082,0 -0.292,0 -0.292,-0.304 0,-0.196 0.148,-0.196 0.402,-0.196 0.808,0 0.824,-0.144 0.851,-0.593 l 0.727,-9.824 c 0.016,-0.293 0.031,-0.418 0.258,-0.418 0.195,0 0.238,0.093 0.387,0.335 l 4.73,8.204 0.594,-8.121 c 0.031,-0.336 0.062,-0.418 0.258,-0.418 0.207,0 0.3,0.16 0.382,0.3 z" /><path
           inkscape:connector-curvature="0"
           id="path5186"
           style="fill:#000000;fill-opacity:1;fill-rule:evenodd;stroke:none"
           d="m 83.914,290.911 -0.008,0.02 -0.011,0.023 -0.008,0.02 -0.012,0.019 -0.008,0.016 -0.012,0.016 -0.007,0.015 -0.012,0.016 -0.008,0.008 -0.008,0.011 -0.011,0.012 -0.012,0.008 -0.02,0.019 -0.015,0.004 -0.024,0.016 h -0.011 l -0.016,0.008 -0.023,0.008 h -0.032 l -0.015,0.003 h -0.032 l -0.019,0.004 h -2.074 v -0.402 h 0.277 c 0.859,0 0.887,-0.113 0.887,-0.512 v -5.55 c 0,-0.305 0,-0.813 -1.164,-0.813 v -0.406 c 0.464,0.035 0.914,0.047 1.375,0.047 0.464,0 0.91,-0.012 1.375,-0.047 v 0.406 c -1.157,0 -1.157,0.508 -1.157,0.813 v 5.925 l 0.008,0.012 2.926,-6.898 c 0.055,-0.133 0.109,-0.258 0.277,-0.258 0.082,0 0.18,0.035 0.27,0.238 l 2.976,7.031 0.008,-0.015 v -6.34 c 0,-0.383 -0.023,-0.508 -0.886,-0.508 h -0.274 v -0.406 c 0.539,0.019 1.172,0.047 1.637,0.047 0.457,0 1.086,-0.028 1.625,-0.047 v 0.406 h -0.27 c -0.863,0 -0.89,0.113 -0.89,0.508 v 5.855 c 0,0.387 0.027,0.512 0.89,0.512 h 0.27 v 0.402 h -1.957 c -0.227,0 -0.328,0 -0.418,-0.222 l -2.696,-6.379 z" /><path
           inkscape:connector-curvature="0"
           id="path5188"
           style="fill:#000000;fill-opacity:1;fill-rule:evenodd;stroke:none"
           d="m 98.359,285.868 -0.007,0.133 -0.008,0.129 -0.039,0.258 -0.035,0.125 -0.036,0.121 -0.039,0.125 -0.05,0.113 -0.055,0.117 -0.063,0.114 -0.062,0.109 -0.07,0.109 -0.079,0.102 -0.082,0.102 -0.082,0.093 -0.09,0.094 -0.097,0.086 -0.203,0.164 -0.11,0.074 -0.109,0.067 -0.117,0.066 -0.121,0.063 -0.121,0.05 -0.125,0.047 -0.129,0.043 -0.133,0.039 -0.133,0.028 -0.141,0.023 -0.136,0.02 -0.145,0.011 h -0.144 v -0.316 c 0.664,0 1.14,-0.313 1.386,-0.66 0.313,-0.438 0.348,-1.004 0.348,-1.543 0,-0.543 -0.035,-1.137 -0.363,-1.602 -0.301,-0.422 -0.817,-0.648 -1.371,-0.648 -0.414,0 -1.024,0.136 -1.391,0.683 -0.305,0.465 -0.34,1.047 -0.34,1.567 0,0.484 0.012,1.148 0.403,1.625 0.281,0.332 0.757,0.578 1.328,0.578 v 0.316 c -1.551,0 -2.754,-1.215 -2.754,-2.625 0,-1.394 1.234,-2.504 2.754,-2.504 1.519,0 2.761,1.11 2.761,2.504 z" /><path
           inkscape:connector-curvature="0"
           id="path5190"
           style="fill:#000000;fill-opacity:1;fill-rule:evenodd;stroke:none"
           d="m 101.055,287.919 h 1.754 v 0.406 h -1.754 v 2.063 h -0.383 c -0.008,-1.004 -0.469,-2.121 -1.547,-2.156 v -0.313 h 1.043 v -3.035 c 0,-1.266 0.945,-1.52 1.574,-1.52 0.754,0 1.27,0.641 1.27,1.528 v 0.621 h -0.383 v -0.61 c 0,-0.761 -0.359,-1.179 -0.797,-1.179 -0.777,0 -0.777,0.941 -0.777,1.148 z" /><path
           inkscape:connector-curvature="0"
           id="path5192"
           style="fill:#000000;fill-opacity:1;fill-rule:evenodd;stroke:none"
           d="m 109.781,285.868 v 0.133 l -0.011,0.129 -0.02,0.129 -0.023,0.129 -0.028,0.125 -0.039,0.121 -0.043,0.125 -0.047,0.113 -0.054,0.117 -0.059,0.114 -0.066,0.109 -0.075,0.109 -0.074,0.102 -0.078,0.102 -0.18,0.187 -0.093,0.086 -0.098,0.082 -0.105,0.082 -0.11,0.074 -0.109,0.067 -0.117,0.066 -0.118,0.063 -0.125,0.05 -0.125,0.047 -0.129,0.043 -0.132,0.039 -0.137,0.028 -0.133,0.023 -0.144,0.02 -0.141,0.011 h -0.145 v -0.316 c 0.665,0 1.141,-0.313 1.387,-0.66 0.313,-0.438 0.348,-1.004 0.348,-1.543 0,-0.543 -0.035,-1.137 -0.363,-1.602 -0.305,-0.422 -0.817,-0.648 -1.372,-0.648 -0.414,0 -1.023,0.136 -1.39,0.683 -0.305,0.465 -0.34,1.047 -0.34,1.567 0,0.484 0.012,1.148 0.402,1.625 0.285,0.332 0.758,0.578 1.328,0.578 v 0.316 c -1.546,0 -2.753,-1.215 -2.753,-2.625 0,-1.394 1.234,-2.504 2.753,-2.504 1.52,0 2.758,1.11 2.758,2.504 z" /><path
           inkscape:connector-curvature="0"
           id="path5194"
           style="fill:#000000;fill-opacity:1;fill-rule:evenodd;stroke:none"
           d="m 112.461,286.036 v 0.094 l 0.004,0.09 0.015,0.18 0.016,0.089 0.012,0.094 0.039,0.18 0.047,0.18 0.062,0.171 0.035,0.082 0.039,0.082 0.04,0.079 0.042,0.078 0.051,0.074 0.047,0.07 0.055,0.071 0.055,0.062 0.062,0.059 0.066,0.058 0.063,0.051 0.07,0.051 0.074,0.039 0.079,0.039 0.082,0.035 0.082,0.027 0.09,0.02 0.089,0.016 0.094,0.011 h 0.098 c -0.098,-0.078 -0.188,-0.222 -0.188,-0.402 0,-0.371 0.289,-0.52 0.5,-0.52 0.274,0 0.524,0.184 0.524,0.52 0,0.387 -0.367,0.719 -0.895,0.719 -0.558,0 -1.18,-0.352 -1.519,-1.203 h -0.008 v 1.203 l -1.613,-0.121 v -0.403 c 0.761,0 0.851,-0.082 0.851,-0.633 v -2.914 c 0,-0.484 -0.117,-0.484 -0.851,-0.484 v -0.406 c 0.054,0 0.824,0.047 1.281,0.047 0.484,0 0.984,-0.028 1.465,-0.047 v 0.406 h -0.219 c -0.836,0 -0.836,0.125 -0.836,0.508 z" /><path
           inkscape:connector-curvature="0"
           id="path5196"
           style="fill:#000000;fill-opacity:1;fill-rule:evenodd;stroke:none"
           d="m 123.625,286.017 h 0.109 l 0.016,0.004 h 0.02 l 0.019,0.004 h 0.02 l 0.039,0.007 0.015,0.004 0.02,0.004 0.015,0.004 0.016,0.008 0.02,0.004 0.019,0.012 0.012,0.007 0.015,0.008 0.012,0.012 0.016,0.012 0.012,0.011 0.003,0.008 0.004,0.004 0.008,0.012 0.004,0.008 0.008,0.003 v 0.012 l 0.012,0.024 0.003,0.011 0.004,0.008 v 0.024 l 0.004,0.011 v 0.012 l 0.004,0.008 v 0.027 c 0,0.278 -0.258,0.278 -0.449,0.278 h -6.703 c -0.184,0 -0.449,0 -0.449,-0.27 0,-0.281 0.257,-0.281 0.449,-0.281 z" /><path
           inkscape:connector-curvature="0"
           id="path5198"
           style="fill:#000000;fill-opacity:1;fill-rule:evenodd;stroke:none"
           d="m 130.934,287.31 0.093,0.023 0.098,0.024 0.094,0.031 0.093,0.027 0.094,0.035 0.094,0.039 0.09,0.036 0.09,0.039 0.086,0.043 0.089,0.046 0.083,0.043 0.085,0.051 0.157,0.102 0.074,0.058 0.074,0.055 0.07,0.063 0.067,0.058 0.062,0.063 0.059,0.066 0.109,0.133 0.047,0.07 0.043,0.074 0.039,0.071 0.039,0.078 0.028,0.074 0.027,0.078 0.02,0.082 0.011,0.082 0.008,0.078 0.004,0.09 c 0,1.121 -1.481,2.035 -3.227,2.035 h -3.793 v -0.402 h 0.27 c 0.867,0 0.887,-0.113 0.887,-0.512 v -5.855 c 0,-0.383 -0.02,-0.508 -0.887,-0.508 h -0.27 v -0.406 c 0.016,0 1.204,0.047 1.664,0.047 0.477,0 1.114,-0.028 1.68,-0.047 v 0.406 h -0.273 c -0.867,0 -0.887,0.113 -0.887,0.508 v 5.926 c 0,0.316 0.012,0.394 0.301,0.429 0.09,0.012 0.472,0.012 0.715,0.012 1.078,0 2.617,0 2.617,-1.633 0,-1.258 -0.981,-1.64 -2.168,-1.64 h -1.465 v -0.321 h 1.5 c 0.199,0 0.781,0 1.281,-0.457 0.391,-0.351 0.391,-0.629 0.391,-1.383 0,-0.734 0,-1.195 0.515,-1.621 0.485,-0.39 1.149,-0.453 1.461,-0.453 0.961,0 1.207,0.914 1.207,1.25 0,0.082 0,0.215 -0.191,0.215 -0.168,0 -0.18,-0.102 -0.191,-0.215 -0.059,-0.648 -0.43,-0.933 -0.778,-0.933 -0.64,0 -0.734,0.664 -0.863,1.687 -0.125,0.902 -0.16,1.082 -0.484,1.453 -0.118,0.125 -0.43,0.418 -1.039,0.606 z" /><path
           inkscape:connector-curvature="0"
           id="path5200"
           style="fill:#000000;fill-opacity:1;fill-rule:evenodd;stroke:none"
           d="m 139.672,291.239 -0.008,0.032 -0.008,0.011 -0.008,0.02 -0.003,0.012 -0.008,0.015 -0.008,0.024 -0.016,0.023 -0.004,0.012 -0.007,0.008 -0.008,0.011 -0.004,0.008 -0.028,0.028 -0.003,0.007 -0.012,0.004 -0.008,0.008 -0.016,0.004 -0.007,0.004 -0.016,0.004 -0.012,0.008 -0.011,0.003 h -0.012 l -0.02,0.004 h -0.011 l -0.016,0.004 h -0.039 l -0.016,0.004 c -0.218,0 -0.25,-0.082 -0.32,-0.258 l -2.598,-6.582 c -0.109,-0.285 -0.3,-0.777 -1.316,-0.777 v -0.406 c 0.383,0.035 0.777,0.047 1.16,0.047 0.449,0 1.281,-0.047 1.352,-0.047 v 0.406 c -0.496,0 -0.813,0.223 -0.813,0.539 0,0.09 0.012,0.113 0.055,0.227 l 0.543,1.382 0.16,0.407 1.437,3.656 1.438,-3.656 h -2.875 l -0.16,-0.407 h 3.195 l 0.652,-1.64 c 0.02,-0.063 0.055,-0.137 0.055,-0.192 0,-0.316 -0.605,-0.316 -0.914,-0.316 v -0.406 c 0.566,0.019 1.289,0.047 1.68,0.047 0.531,0 1.371,-0.036 1.496,-0.047 v 0.406 h -0.223 c -0.758,0 -0.836,0.113 -0.961,0.426 z" /></g></g><g
       id="HVC-RA"
       inkscape:label="#g6181"><g
         id="g6078"><g
           transform="matrix(1,0,0,-1,0,473.91516)"
           id="g4830"><path
             inkscape:connector-curvature="0"
             id="path4832"
             style="fill:none;stroke:#000000;stroke-width:0.57144803;stroke-linecap:butt;stroke-linejoin:miter;stroke-miterlimit:4;stroke-dasharray:none;stroke-opacity:1"
             d="m 137.13193,28.779718 68.59835,77.798792"
             sodipodi:nodetypes="cc" /></g><g
           transform="matrix(1,0,0,-1,0,473.91516)"
           id="g4834"><path
             inkscape:connector-curvature="0"
             id="path4836"
             style="fill:none;stroke:#000000;stroke-width:0.57144803;stroke-linecap:butt;stroke-linejoin:miter;stroke-miterlimit:4;stroke-dasharray:none;stroke-opacity:1"
             d="m 169.195,28.005209 36.53528,78.573301"
             sodipodi:nodetypes="cc" /></g><g
           transform="matrix(1,0,0,-1,0,473.91516)"
           id="g4838"><path
             inkscape:connector-curvature="0"
             id="path4840"
             style="fill:none;stroke:#000000;stroke-width:0.57144803;stroke-linecap:butt;stroke-linejoin:miter;stroke-miterlimit:4;stroke-dasharray:none;stroke-opacity:1"
             d="m 200.50328,28.766911 5.227,77.811599"
             sodipodi:nodetypes="cc" /></g><g
           transform="matrix(1,0,0,-1,0,473.91516)"
           id="g4842"><path
             inkscape:connector-curvature="0"
             id="path4844"
             style="fill:none;stroke:#000000;stroke-width:0.57144803;stroke-linecap:butt;stroke-linejoin:miter;stroke-miterlimit:4;stroke-dasharray:none;stroke-opacity:1"
             d="m 232.29628,28.351437 -26.566,78.227073"
             sodipodi:nodetypes="cc" /></g><g
           transform="matrix(1,0,0,-1,0,473.91516)"
           id="g4846"><path
             inkscape:connector-curvature="0"
             id="path4848"
             style="fill:none;stroke:#000000;stroke-width:0.57144803;stroke-linecap:butt;stroke-linejoin:miter;stroke-miterlimit:4;stroke-dasharray:none;stroke-opacity:1"
             d="M 262.35814,21.011403 205.73028,106.57851"
             sodipodi:nodetypes="cc" /></g></g><g
         transform="translate(90)"
         id="g6019"><text
           y="-449.08765"
           x="5.8682222"
           id="text4816"
           style="font-variant:normal;font-weight:normal;font-size:10.00033283px;font-family:Roboto;-inkscape-font-specification:Roboto-Regular;writing-mode:lr-tb;fill:#000000;fill-opacity:1;fill-rule:nonzero;stroke:none"
           transform="scale(1,-1)"><tspan
             id="tspan4812"
             sodipodi:role="line"
             y="-449.08765"
             x="5.8682222">HVC</tspan><tspan
             y="-436.58722"
             x="5.8682222"
             id="tspan4814"
             sodipodi:role="line" /></text>
<g
           id="g5795"><g
             id="g4818"
             transform="matrix(1,0,0,-1,0,473.91516)"><path
               d="M 0.57,0.57 H 192.797 V 39.535 H 0.57 Z"
               style="fill:none;stroke:#030006;stroke-width:1.14289498;stroke-linecap:butt;stroke-linejoin:miter;stroke-miterlimit:4;stroke-dasharray:none;stroke-opacity:1"
               id="path4820"
               inkscape:connector-curvature="0" /></g><g
             id="g4850"
             transform="matrix(1,0,0,-1,0,473.91516)"><path
               d="m 86.625,19.488 c 0,4.703 -3.551,8.516 -7.934,8.516 -4.386,0 -7.937,-3.813 -7.937,-8.516 0,-4.703 3.551,-8.515 7.937,-8.515 4.383,0 7.934,3.812 7.934,8.515 z"
               style="fill:#f4f8f8;fill-opacity:1;fill-rule:nonzero;stroke:#a694fb;stroke-width:2.34293509;stroke-linecap:butt;stroke-linejoin:miter;stroke-miterlimit:4;stroke-dasharray:none;stroke-opacity:1"
               id="path4852"
               inkscape:connector-curvature="0" /></g><g
             id="g4854"
             transform="matrix(1,0,0,-1,0,473.91516)"><path
               d="m 54.832,19.488 c 0,4.703 -3.555,8.516 -7.937,8.516 -4.383,0 -7.938,-3.813 -7.938,-8.516 0,-4.703 3.555,-8.515 7.938,-8.515 4.382,0 7.937,3.812 7.937,8.515 z"
               style="fill:#f4f8f8;fill-opacity:1;fill-rule:nonzero;stroke:#a694fb;stroke-width:2.34293509;stroke-linecap:butt;stroke-linejoin:miter;stroke-miterlimit:4;stroke-dasharray:none;stroke-opacity:1"
               id="path4856"
               inkscape:connector-curvature="0" /></g><g
             id="g4858"
             transform="matrix(1,0,0,-1,0,473.91516)"><path
               d="m 118.422,19.488 c 0,4.703 -3.555,8.516 -7.938,8.516 -4.382,0 -7.937,-3.813 -7.937,-8.516 0,-4.703 3.555,-8.515 7.937,-8.515 4.383,0 7.938,3.812 7.938,8.515 z"
               style="fill:#f4f8f8;fill-opacity:1;fill-rule:nonzero;stroke:#a694fb;stroke-width:2.34293509;stroke-linecap:butt;stroke-linejoin:miter;stroke-miterlimit:4;stroke-dasharray:none;stroke-opacity:1"
               id="path4860"
               inkscape:connector-curvature="0" /></g><g
             id="g4862"
             transform="matrix(1,0,0,-1,0,473.91516)"><path
               d="m 150.215,19.488 c 0,4.703 -3.555,8.516 -7.938,8.516 -4.382,0 -7.937,-3.813 -7.937,-8.516 0,-4.703 3.555,-8.515 7.937,-8.515 4.383,0 7.938,3.812 7.938,8.515 z"
               style="fill:#f4f8f8;fill-opacity:1;fill-rule:nonzero;stroke:#a694fb;stroke-width:2.34293509;stroke-linecap:butt;stroke-linejoin:miter;stroke-miterlimit:4;stroke-dasharray:none;stroke-opacity:1"
               id="path4864"
               inkscape:connector-curvature="0" /></g><g
             id="g4866"
             transform="matrix(1,0,0,-1,0,473.91516)"><path
               d="m 182.008,19.488 c 0,4.703 -3.551,8.516 -7.938,8.516 -4.382,0 -7.937,-3.813 -7.937,-8.516 0,-4.703 3.555,-8.515 7.937,-8.515 4.387,0 7.938,3.812 7.938,8.515 z"
               style="fill:#f4f8f8;fill-opacity:1;fill-rule:nonzero;stroke:#a694fb;stroke-width:2.34293509;stroke-linecap:butt;stroke-linejoin:miter;stroke-miterlimit:4;stroke-dasharray:none;stroke-opacity:1"
               id="path4868"
               inkscape:connector-curvature="0" /></g></g></g><g
         id="g6106"
         transform="translate(0,33)"><g
           transform="matrix(1,0,0,-1,0,473.91516)"
           id="g4998"><path
             inkscape:connector-curvature="0"
             id="path5000"
             style="fill:none;stroke:#000000;stroke-width:0.57144803;stroke-linecap:butt;stroke-linejoin:miter;stroke-miterlimit:4;stroke-dasharray:none;stroke-opacity:1"
             d="m 326.816,153.828 h 52.758" /></g><g
           transform="matrix(-1,0,0,1,0,473.91516)"
           id="g5002"><path
             inkscape:connector-curvature="0"
             id="path5004"
             style="fill:#000000;fill-opacity:1;fill-rule:evenodd;stroke:#000000;stroke-width:0.28572401;stroke-linecap:butt;stroke-linejoin:miter;stroke-miterlimit:4;stroke-dasharray:none;stroke-opacity:1"
             d="m -377.285,-153.828 1.14,-1.145 -4,1.145 4,1.144 z" /></g><g
           transform="matrix(1,0,0,-1,0,473.91516)"
           id="g5006"><path
             inkscape:connector-curvature="0"
             id="path5008"
             style="fill:none;stroke:#000000;stroke-width:0.57144803;stroke-linecap:butt;stroke-linejoin:miter;stroke-miterlimit:4;stroke-dasharray:none;stroke-opacity:1"
             d="m 327.43,120.152 v 35.004" /></g><g
           transform="matrix(0,-1,-1,0,0,473.91516)"
           id="g5010"><path
             inkscape:connector-curvature="0"
             id="path5012"
             style="fill:#000000;fill-opacity:1;fill-rule:evenodd;stroke:#000000;stroke-width:0.28572401;stroke-linecap:butt;stroke-linejoin:miter;stroke-miterlimit:4;stroke-dasharray:none;stroke-opacity:1"
             d="m 122.438,-327.43 1.144,-1.14 -4,1.14 4,1.145 z" /></g><g
           transform="matrix(1,0,0,-1,0,473.91516)"
           id="g5014"><path
             inkscape:connector-curvature="0"
             id="path5016"
             style="fill:none;stroke:#000000;stroke-width:0.57144803;stroke-linecap:butt;stroke-linejoin:miter;stroke-miterlimit:4;stroke-dasharray:none;stroke-opacity:1"
             d="m 327.531,150.766 h 29.797 v -23.672 h 21.328" /></g><g
           transform="matrix(1,0,0,-1,0,473.91516)"
           id="g5018"><path
             inkscape:connector-curvature="0"
             id="path5020"
             style="fill:none;stroke:#000000;stroke-width:0.57144803;stroke-linecap:butt;stroke-linejoin:miter;stroke-miterlimit:4;stroke-dasharray:none;stroke-opacity:1"
             d="m 326.508,126.684 h 2.043" /></g><g
           transform="matrix(1,0,0,-1,0,473.91516)"
           id="g5022"><path
             inkscape:connector-curvature="0"
             id="path5024"
             style="fill:none;stroke:#000000;stroke-width:0.57144803;stroke-linecap:butt;stroke-linejoin:miter;stroke-miterlimit:4;stroke-dasharray:none;stroke-opacity:1"
             d="m 357.328,152.5 v 3.266" /></g><text
           id="text5028"
           style="font-variant:normal;font-weight:normal;font-size:7.14309597px;font-family:Roboto;-inkscape-font-specification:Roboto-Regular;writing-mode:lr-tb;fill:#000000;fill-opacity:1;fill-rule:nonzero;stroke:none"
           transform="scale(1,-1)"
           x="336.20239"
           y="-309.61728"><tspan
             id="tspan5026"
             sodipodi:role="line"
             y="-309.61728"
             x="336.20239 338.13818 342.07401 346.0813 350.01715 352.34579 354.11014 358.76743 365.02478 369.03207">Input Amp.</tspan></text>
<text
           id="text5032"
           style="font-variant:normal;font-weight:normal;font-size:7.14309597px;font-family:Roboto;-inkscape-font-specification:Roboto-Regular;writing-mode:lr-tb;fill:#000000;fill-opacity:1;fill-rule:nonzero;stroke:none"
           transform="matrix(0,1,1,0,0,0)"
           x="321.36731"
           y="322.87665"><tspan
             id="tspan5030"
             sodipodi:role="line"
             y="322.87665"
             x="321.36731 325.76031 329.53903 333.21771 337.22501 341.29657 345.23239 348.9111">Response</tspan></text>
</g><g
         transform="translate(13.5,16.5)"
         id="g6028"><path
           inkscape:connector-curvature="0"
           id="path5154"
           style="fill:#000000;fill-opacity:1;fill-rule:evenodd;stroke:none"
           d="m 67.102,397.747 0.074,0.129 0.078,0.129 0.074,0.121 0.078,0.121 0.043,0.059 0.086,0.109 0.043,0.051 0.047,0.051 0.047,0.054 0.047,0.047 0.054,0.047 0.051,0.043 0.11,0.086 0.058,0.039 0.063,0.035 0.058,0.035 0.067,0.032 0.066,0.027 0.07,0.031 0.075,0.024 0.078,0.023 0.082,0.02 0.082,0.015 0.086,0.016 0.09,0.016 0.093,0.003 c 0.145,0.02 0.305,0.02 0.305,0.325 0,0.062 -0.062,0.179 -0.195,0.179 -0.383,0 -0.832,-0.054 -1.235,-0.054 -0.55,0 -1.148,0.054 -1.675,0.054 -0.094,0 -0.301,0 -0.301,-0.308 0,-0.176 0.137,-0.196 0.234,-0.196 0.387,-0.011 0.953,-0.144 0.953,-0.621 0,-0.179 -0.082,-0.308 -0.211,-0.535 l -4.343,-7.57 -0.594,7.973 c -0.016,0.324 -0.047,0.742 1.121,0.753 0.277,0 0.441,0 0.441,0.325 0,0.16 -0.183,0.179 -0.242,0.179 -0.648,0 -1.32,-0.054 -1.961,-0.054 -0.375,0 -1.324,0.054 -1.691,0.054 -0.098,0 -0.305,0 -0.305,-0.324 0,-0.18 0.16,-0.18 0.387,-0.18 0.707,0 0.816,-0.093 0.851,-0.402 l 0.098,-1.234 -4.07,-7.09 -0.614,8.148 c 0,0.192 0,0.567 1.223,0.578 0.16,0 0.34,0 0.34,0.325 0,0.179 -0.195,0.179 -0.223,0.179 -0.648,0 -1.32,-0.054 -1.98,-0.054 -0.567,0 -1.145,0.054 -1.688,0.054 -0.082,0 -0.297,0 -0.297,-0.308 0,-0.196 0.153,-0.196 0.407,-0.196 0.804,0 0.824,-0.144 0.851,-0.593 l 0.727,-9.824 c 0.015,-0.293 0.031,-0.418 0.258,-0.418 0.195,0 0.238,0.093 0.382,0.335 l 4.735,8.204 0.594,-8.121 c 0.027,-0.336 0.062,-0.418 0.257,-0.418 0.207,0 0.301,0.16 0.383,0.3 z" /><path
           inkscape:connector-curvature="0"
           id="path5156"
           style="fill:#000000;fill-opacity:1;fill-rule:evenodd;stroke:none"
           d="m 73.18,390.06 0.097,0.023 0.282,0.082 0.093,0.039 0.094,0.035 0.09,0.036 0.09,0.039 0.086,0.043 0.086,0.046 0.086,0.043 0.164,0.102 0.078,0.051 0.078,0.058 0.07,0.055 0.071,0.063 0.066,0.058 0.062,0.063 0.118,0.132 0.05,0.067 0.051,0.07 0.039,0.074 0.043,0.071 0.031,0.078 0.036,0.074 0.019,0.078 0.02,0.082 0.015,0.082 0.008,0.078 0.004,0.09 c 0,1.121 -1.48,2.035 -3.227,2.035 h -3.796 v -0.402 h 0.277 c 0.867,0 0.887,-0.113 0.887,-0.512 v -5.855 c 0,-0.383 -0.02,-0.508 -0.887,-0.508 h -0.277 v -0.406 c 0.019,0 1.211,0.047 1.668,0.047 0.472,0 1.113,-0.028 1.679,-0.047 v 0.406 h -0.273 c -0.867,0 -0.887,0.113 -0.887,0.508 v 5.93 c 0,0.312 0.008,0.39 0.305,0.425 0.09,0.012 0.472,0.012 0.707,0.012 1.078,0 2.621,0 2.621,-1.633 0,-1.258 -0.981,-1.64 -2.172,-1.64 h -1.461 v -0.321 h 1.496 c 0.203,0 0.789,0 1.285,-0.457 0.391,-0.347 0.391,-0.629 0.391,-1.383 0,-0.734 0,-1.195 0.516,-1.621 0.484,-0.39 1.148,-0.449 1.461,-0.449 0.96,0 1.207,0.91 1.207,1.246 0,0.082 0,0.215 -0.192,0.215 -0.168,0 -0.183,-0.102 -0.191,-0.215 -0.055,-0.648 -0.43,-0.933 -0.778,-0.933 -0.64,0 -0.73,0.664 -0.863,1.687 -0.125,0.902 -0.16,1.082 -0.484,1.453 -0.117,0.125 -0.43,0.418 -1.039,0.606 z" /><path
           inkscape:connector-curvature="0"
           id="path5158"
           style="fill:#000000;fill-opacity:1;fill-rule:evenodd;stroke:none"
           d="m 81.922,393.989 -0.008,0.016 -0.004,0.016 -0.008,0.011 -0.007,0.02 -0.004,0.012 -0.004,0.015 -0.008,0.012 -0.004,0.012 -0.016,0.023 -0.004,0.012 -0.007,0.008 -0.008,0.011 -0.004,0.008 -0.008,0.012 -0.012,0.004 -0.004,0.012 -0.011,0.007 -0.008,0.004 -0.012,0.008 -0.008,0.004 -0.023,0.008 -0.012,0.008 -0.031,0.007 H 81.68 l -0.016,0.004 h -0.035 l -0.02,0.004 c -0.218,0 -0.25,-0.082 -0.32,-0.258 l -2.598,-6.582 c -0.109,-0.285 -0.3,-0.777 -1.316,-0.777 v -0.406 c 0.387,0.035 0.777,0.047 1.16,0.047 0.449,0 1.281,-0.047 1.352,-0.047 v 0.406 c -0.492,0 -0.813,0.227 -0.813,0.539 0,0.09 0.012,0.113 0.059,0.227 l 0.539,1.382 0.16,0.407 1.438,3.656 1.437,-3.656 h -2.875 l -0.16,-0.407 h 3.195 l 0.653,-1.64 c 0.019,-0.059 0.054,-0.133 0.054,-0.192 0,-0.316 -0.605,-0.316 -0.914,-0.316 v -0.406 c 0.567,0.019 1.289,0.047 1.684,0.047 0.527,0 1.371,-0.036 1.492,-0.047 v 0.406 h -0.223 c -0.758,0 -0.832,0.113 -0.957,0.43 z" /><path
           inkscape:connector-curvature="0"
           id="path5160"
           style="fill:#000000;fill-opacity:1;fill-rule:evenodd;stroke:none"
           d="m 94.73,388.771 h 0.145 l 0.02,0.004 h 0.019 l 0.02,0.003 0.015,0.004 0.039,0.008 0.016,0.004 0.019,0.008 0.016,0.004 0.016,0.012 0.031,0.015 0.012,0.012 0.015,0.012 0.012,0.011 0.004,0.008 0.004,0.004 0.008,0.012 0.004,0.008 0.003,0.003 0.004,0.012 0.012,0.024 0.004,0.011 0.004,0.008 v 0.024 l 0.004,0.011 v 0.012 l 0.004,0.008 v 0.027 c 0,0.278 -0.258,0.278 -0.45,0.278 h -6.703 c -0.183,0 -0.449,0 -0.449,-0.27 0,-0.277 0.258,-0.277 0.449,-0.277 z" /><path
           inkscape:connector-curvature="0"
           id="path5162"
           style="fill:#000000;fill-opacity:1;fill-rule:evenodd;stroke:none"
           d="m 104.078,392.993 v 0.133 l 0.004,0.031 v 0.028 l 0.008,0.027 0.008,0.047 0.011,0.023 0.008,0.024 0.016,0.019 0.012,0.02 0.015,0.019 0.016,0.016 0.019,0.012 0.024,0.015 0.027,0.012 0.012,0.008 0.015,0.008 0.032,0.008 0.015,0.007 0.039,0.008 0.016,0.004 0.02,0.004 0.023,0.008 h 0.02 l 0.023,0.004 0.027,0.004 0.02,0.003 0.054,0.008 h 0.086 l 0.028,0.004 h 0.035 l 0.031,0.004 h 0.07 l 0.036,0.004 h 0.386 v 0.402 c -0.562,-0.019 -1.277,-0.043 -1.687,-0.043 -0.414,0 -1.137,0.024 -1.695,0.043 v -0.402 h 0.269 c 0.867,0 0.887,-0.113 0.887,-0.512 v -2.57 H 99.25 v 2.57 c 0,0.387 0.027,0.512 0.891,0.512 h 0.269 v 0.402 c -0.558,-0.019 -1.281,-0.043 -1.687,-0.043 -0.414,0 -1.137,0.024 -1.696,0.043 v -0.402 h 0.262 c 0.871,0 0.895,-0.113 0.895,-0.512 v -5.855 c 0,-0.383 -0.024,-0.508 -0.895,-0.508 h -0.262 v -0.406 c 0.559,0.019 1.282,0.047 1.68,0.047 0.422,0 1.145,-0.028 1.703,-0.047 v 0.406 h -0.269 c -0.864,0 -0.891,0.113 -0.891,0.508 v 2.879 h 3.758 v -2.879 c 0,-0.383 -0.02,-0.508 -0.887,-0.508 h -0.269 v -0.406 c 0.558,0.019 1.281,0.047 1.687,0.047 0.418,0 1.133,-0.028 1.695,-0.047 v 0.406 h -0.269 c -0.863,0 -0.887,0.113 -0.887,0.508 z" /><path
           inkscape:connector-curvature="0"
           id="path5164"
           style="fill:#000000;fill-opacity:1;fill-rule:evenodd;stroke:none"
           d="m 113.738,392.763 0.063,0.133 0.019,0.031 0.016,0.031 0.023,0.035 0.039,0.063 0.055,0.062 0.024,0.028 0.035,0.031 0.058,0.058 0.035,0.024 0.04,0.027 0.039,0.024 0.086,0.047 0.046,0.023 0.047,0.02 0.055,0.019 0.109,0.031 0.059,0.012 0.062,0.012 0.067,0.011 0.07,0.008 0.07,0.004 0.075,0.004 0.082,0.004 v 0.402 c -0.332,-0.035 -0.77,-0.043 -1.094,-0.043 -0.449,0 -1.285,0.043 -1.352,0.043 v -0.402 c 0.418,0 0.778,-0.18 0.778,-0.531 0,-0.078 -0.024,-0.156 -0.059,-0.239 l -2.324,-5.429 -2.434,5.703 c -0.062,0.133 -0.062,0.156 -0.062,0.191 0,0.305 0.582,0.305 0.887,0.305 v 0.402 c -0.567,-0.019 -1.282,-0.043 -1.676,-0.043 -0.567,0 -1.406,0.043 -1.442,0.043 v -0.402 h 0.188 c 0.609,0 0.801,-0.055 0.949,-0.402 l 2.922,-6.844 c 0.082,-0.18 0.109,-0.258 0.328,-0.258 0.113,0 0.223,0 0.328,0.234 z" /><path
           inkscape:connector-curvature="0"
           id="path5166"
           style="fill:#000000;fill-opacity:1;fill-rule:evenodd;stroke:none"
           d="m 123.395,393.845 v 0.125 l -0.004,0.012 v 0.015 l -0.004,0.012 v 0.008 l -0.004,0.015 v 0.008 l -0.004,0.012 -0.004,0.008 -0.004,0.011 -0.004,0.004 -0.004,0.012 -0.011,0.012 -0.004,0.008 -0.012,0.003 -0.008,0.004 -0.008,0.008 -0.011,0.004 h -0.008 l -0.012,0.004 h -0.012 l -0.004,0.004 h -0.035 c -0.043,0 -0.097,0 -0.187,-0.137 l -0.598,-0.855 c -0.476,0.472 -1.25,0.992 -2.332,0.992 -2.359,0 -4.309,-1.824 -4.309,-4.063 0,-2.281 1.985,-4.07 4.309,-4.07 1.992,0 3.274,1.484 3.274,2.859 0,0.118 -0.012,0.208 -0.192,0.208 -0.062,0 -0.176,0 -0.191,-0.145 -0.094,-1.809 -1.617,-2.516 -2.735,-2.516 -1.199,0 -3.257,0.731 -3.257,3.653 0,3.05 2.179,3.668 3.238,3.668 1.117,0 2.441,-0.743 2.734,-2.676 0.02,-0.137 0.121,-0.137 0.203,-0.137 0.2,0 0.2,0.067 0.2,0.293 z" /></g><g
         id="g6066"
         transform="translate(0,33)"><g
           transform="matrix(1,0,0,-1,0,473.91516)"
           id="g4826"><path
             inkscape:connector-curvature="0"
             id="path4828"
             style="fill:none;stroke:#030006;stroke-width:1.14289498;stroke-linecap:butt;stroke-linejoin:miter;stroke-miterlimit:4;stroke-dasharray:none;stroke-opacity:1"
             d="m 95.434,119.434 h 192.223 v 38.965 H 95.434 Z" /></g><g
           transform="matrix(1,0,0,-1,0,473.91516)"
           id="g4962"><path
             inkscape:connector-curvature="0"
             id="path4964"
             style="fill:#f4f8f8;fill-opacity:1;fill-rule:nonzero;stroke:#a694fb;stroke-width:2.34293509;stroke-linecap:butt;stroke-linejoin:miter;stroke-miterlimit:4;stroke-dasharray:none;stroke-opacity:1"
             d="m 178.746,138.293 c 0,4.699 -3.555,8.512 -7.937,8.512 -4.387,0 -7.938,-3.813 -7.938,-8.512 0,-4.703 3.551,-8.516 7.938,-8.516 4.382,0 7.937,3.813 7.937,8.516 z" /></g><g
           transform="matrix(1,0,0,-1,0,473.91516)"
           id="g4966"><path
             inkscape:connector-curvature="0"
             id="path4968"
             style="fill:#f4f8f8;fill-opacity:1;fill-rule:nonzero;stroke:#a694fb;stroke-width:2.34293509;stroke-linecap:butt;stroke-linejoin:miter;stroke-miterlimit:4;stroke-dasharray:none;stroke-opacity:1"
             d="m 149.277,138.293 c 0,4.699 -3.55,8.512 -7.933,8.512 -4.387,0 -7.938,-3.813 -7.938,-8.512 0,-4.703 3.551,-8.516 7.938,-8.516 4.383,0 7.933,3.813 7.933,8.516 z" /></g><g
           transform="matrix(1,0,0,-1,0,473.91516)"
           id="g4970"><path
             inkscape:connector-curvature="0"
             id="path4972"
             style="fill:#f4f8f8;fill-opacity:1;fill-rule:nonzero;stroke:#a694fb;stroke-width:2.34293509;stroke-linecap:butt;stroke-linejoin:miter;stroke-miterlimit:4;stroke-dasharray:none;stroke-opacity:1"
             d="m 243.934,138.293 c 0,4.699 -3.555,8.512 -7.938,8.512 -4.383,0 -7.937,-3.813 -7.937,-8.512 0,-4.703 3.554,-8.516 7.937,-8.516 4.383,0 7.938,3.813 7.938,8.516 z" /></g><g
           transform="matrix(1,0,0,-1,0,473.91516)"
           id="g4974"><path
             inkscape:connector-curvature="0"
             id="path4976"
             style="fill:#f4f8f8;fill-opacity:1;fill-rule:nonzero;stroke:#a694fb;stroke-width:2.34293509;stroke-linecap:butt;stroke-linejoin:miter;stroke-miterlimit:4;stroke-dasharray:none;stroke-opacity:1"
             d="m 274.125,138.293 c 0,4.699 -3.551,8.512 -7.937,8.512 -4.383,0 -7.938,-3.813 -7.938,-8.512 0,-4.703 3.555,-8.516 7.938,-8.516 4.386,0 7.937,3.813 7.937,8.516 z" /></g><g
           transform="matrix(1,0,0,-1,0,473.91516)"
           id="g4978"><path
             inkscape:connector-curvature="0"
             id="path4980"
             style="fill:#f4f8f8;fill-opacity:1;fill-rule:nonzero;stroke:#a694fb;stroke-width:2.34293509;stroke-linecap:butt;stroke-linejoin:miter;stroke-miterlimit:4;stroke-dasharray:none;stroke-opacity:1"
             d="m 212.551,138.293 c 0,4.699 -3.551,8.512 -7.934,8.512 -4.387,0 -7.937,-3.813 -7.937,-8.512 0,-4.703 3.55,-8.516 7.937,-8.516 4.383,0 7.934,3.813 7.934,8.516 z" /></g><text
           style="font-variant:normal;font-weight:normal;font-size:10.00033283px;font-family:Roboto;-inkscape-font-specification:Roboto-Regular;writing-mode:lr-tb;fill:#000000;fill-opacity:1;fill-rule:nonzero;stroke:none;stroke-width:0.99999994"
           id="text4816-3"
           x="103.5047"
           y="-330.40051"
           transform="scale(1,-1)"><tspan
             style="stroke-width:0.99999994"
             x="103.5047"
             y="-330.40051"
             sodipodi:role="line"
             id="tspan4812-6">RA</tspan><tspan
             style="stroke-width:0.99999994"
             sodipodi:role="line"
             id="tspan4814-7"
             x="103.5047"
             y="-317.90009" /></text>
</g><text
         transform="scale(1,-1)"
         id="text6082"
         y="-450.65036"
         x="349.08951"
         style="font-style:normal;font-weight:normal;font-size:9px;line-height:1.25;font-family:sans-serif;text-align:center;letter-spacing:0px;word-spacing:0px;text-anchor:middle;fill:#000000;fill-opacity:1;stroke:none;stroke-width:0.75"
         xml:space="preserve"><tspan
           id="tspan6084"
           style="stroke-width:0.75"
           y="-450.65036"
           x="350.52213"
           sodipodi:role="line">Synfire Chain </tspan></text>
</g><g
       id="Motor-Song"
       inkscape:label="#g6508"><g
         id="g5074"
         transform="matrix(0,1,1,0,0,511.41516)"><path
           d="m -294.16,164.77 1.144,-1.145 -4,1.145 4,1.144 z"
           style="fill:#000000;fill-opacity:1;fill-rule:evenodd;stroke:#000000;stroke-width:0.28572401;stroke-linecap:butt;stroke-linejoin:miter;stroke-miterlimit:4;stroke-dasharray:none;stroke-opacity:1"
           id="path5076"
           inkscape:connector-curvature="0" /></g><g
         id="g5082"
         transform="matrix(0,1,1,0,0,511.41516)"><path
           d="m -294.16,252.691 1.144,-1.144 -4,1.144 4,1.141 z"
           style="fill:#000000;fill-opacity:1;fill-rule:evenodd;stroke:#000000;stroke-width:0.28572401;stroke-linecap:butt;stroke-linejoin:miter;stroke-miterlimit:4;stroke-dasharray:none;stroke-opacity:1"
           id="path5084"
           inkscape:connector-curvature="0" /></g><g
         transform="translate(0,39)"
         inkscape:label="#g6492"
         id="g6492"><g
           transform="matrix(1,0,0,-1,0,473.91516)"
           id="g5070"><path
             inkscape:connector-curvature="0"
             id="path5072"
             style="fill:none;stroke:#000000;stroke-width:0.57144803;stroke-linecap:butt;stroke-linejoin:miter;stroke-miterlimit:4;stroke-dasharray:none;stroke-opacity:1"
             d="m 164.77,250.32 v 46.125" /></g><g
           transform="matrix(1,0,0,-1,0,473.91516)"
           id="g5078"><path
             inkscape:connector-curvature="0"
             id="path5080"
             style="fill:none;stroke:#000000;stroke-width:0.57144803;stroke-linecap:butt;stroke-linejoin:miter;stroke-miterlimit:4;stroke-dasharray:none;stroke-opacity:1"
             d="m 252.691,250.32 v 46.125" /></g><text
           id="text5090"
           style="font-variant:normal;font-weight:normal;font-size:10.00033283px;font-family:Roboto;-inkscape-font-specification:Roboto-Regular;writing-mode:lr-tb;fill:#000000;fill-opacity:1;fill-rule:nonzero;stroke:none"
           transform="scale(1,-1)"
           x="187.86539"
           y="-208.28694"><tspan
             id="tspan5086"
             sodipodi:role="line"
             y="-208.28694"
             x="187.86539 194.73563 200.2458 205.67598 211.30617 214.49628 219.92645 223.18657 225.60664 230.83682">Quadratic </tspan><tspan
             id="tspan5088"
             sodipodi:role="line"
             y="-195.78653"
             x="175.81421 182.93445 188.63463 194.14482 196.89491 202.27509 204.69518 210.20535 215.49553 220.9257 224.30582 226.72591 229.98601 232.4061 237.69627">Non-Linearities</tspan></text>
</g></g></g></svg>