<?xml version="1.0" encoding="UTF-8" standalone="no"?>
<!-- Created with Inkscape (http://www.inkscape.org/) -->

<svg
   xmlns:dc="http://purl.org/dc/elements/1.1/"
   xmlns:cc="http://creativecommons.org/ns#"
   xmlns:rdf="http://www.w3.org/1999/02/22-rdf-syntax-ns#"
   xmlns:svg="http://www.w3.org/2000/svg"
   xmlns="http://www.w3.org/2000/svg"
   xmlns:sodipodi="http://sodipodi.sourceforge.net/DTD/sodipodi-0.dtd"
   xmlns:inkscape="http://www.inkscape.org/namespaces/inkscape"
   version="1.1"
   id="svg2"
   xml:space="preserve"
   width="554.97852"
   height="321.11539"
   viewBox="0 0 554.97851 321.11539"
   sodipodi:docname="LearningArch.svg"
   inkscape:version="0.92.1 r15371"><metadata
     id="metadata8"><rdf:RDF><cc:Work
         rdf:about=""><dc:format>image/svg+xml</dc:format><dc:type
           rdf:resource="http://purl.org/dc/dcmitype/StillImage" /><dc:title></dc:title></cc:Work></rdf:RDF></metadata><defs
     id="defs6"><marker
       inkscape:stockid="Arrow1Lend"
       orient="auto"
       refY="0"
       refX="0"
       id="Arrow1Lend"
       style="overflow:visible"
       inkscape:isstock="true"><path
         id="path5088"
         d="M 0,0 5,-5 -12.5,0 5,5 Z"
         style="fill:#000000;fill-opacity:1;fill-rule:evenodd;stroke:#000000;stroke-width:1.00000003pt;stroke-opacity:1"
         transform="matrix(-0.8,0,0,-0.8,-10,0)"
         inkscape:connector-curvature="0" /></marker><marker
       inkscape:stockid="Arrow1Lstart"
       orient="auto"
       refY="0"
       refX="0"
       id="marker5381"
       style="overflow:visible"
       inkscape:isstock="true"><path
         id="path5379"
         d="M 0,0 5,-5 -12.5,0 5,5 Z"
         style="fill:#000000;fill-opacity:1;fill-rule:evenodd;stroke:#000000;stroke-width:1.00000003pt;stroke-opacity:1"
         transform="matrix(0.8,0,0,0.8,10,0)"
         inkscape:connector-curvature="0" /></marker><marker
       inkscape:stockid="Arrow1Lstart"
       orient="auto"
       refY="0"
       refX="0"
       id="Arrow1Lstart"
       style="overflow:visible"
       inkscape:isstock="true"><path
         id="path5085"
         d="M 0,0 5,-5 -12.5,0 5,5 Z"
         style="fill:#000000;fill-opacity:1;fill-rule:evenodd;stroke:#000000;stroke-width:1.00000003pt;stroke-opacity:1"
         transform="matrix(0.8,0,0,0.8,10,0)"
         inkscape:connector-curvature="0" /></marker></defs><sodipodi:namedview
     pagecolor="#ffffff"
     bordercolor="#666666"
     borderopacity="1"
     objecttolerance="10"
     gridtolerance="10"
     guidetolerance="10"
     inkscape:pageopacity="0"
     inkscape:pageshadow="2"
     inkscape:window-width="3840"
     inkscape:window-height="2021"
     id="namedview4"
     showgrid="false"
     fit-margin-top="0"
     fit-margin-left="0"
     fit-margin-right="0"
     fit-margin-bottom="0"
     inkscape:zoom="2.8284271"
     inkscape:cx="116.48276"
     inkscape:cy="88.849886"
     inkscape:window-x="0"
     inkscape:window-y="65"
     inkscape:window-maximized="1"
     inkscape:current-layer="g10" /><g
     id="g10"
     inkscape:groupmode="layer"
     inkscape:label="BirdSongArchitecture"
     transform="matrix(1.3333333,0,0,-1.3333333,0.00192999,631.88879)"><text
       id="text24"
       style="font-variant:normal;font-weight:normal;font-size:10.00033283px;font-family:Roboto;-inkscape-font-specification:Roboto-Regular;writing-mode:lr-tb;fill:#000000;fill-opacity:1;fill-rule:nonzero;stroke:none"
       transform="scale(1,-1)"
       x="5.8682222"
       y="-449.08765"><tspan
         id="tspan18"
         sodipodi:role="line"
         y="-449.08765"
         x="5.8682222 12.988459 19.348671">HVC</tspan><tspan
         id="tspan20"
         sodipodi:role="line"
         y="-331.47672"
         x="105.04924 111.19943">RA</tspan><tspan
         id="tspan22"
         sodipodi:role="line"
         y="-450.5177"
         x="381.54599 386.92618 395.65646 402.17667">LMAN</tspan></text>
<g
       transform="matrix(1,0,0,-1,0,473.91516)"
       id="g26"><path
         inkscape:connector-curvature="0"
         id="path28"
         style="fill:none;stroke:#030006;stroke-width:1.14289498;stroke-linecap:butt;stroke-linejoin:miter;stroke-miterlimit:4;stroke-dasharray:none;stroke-opacity:1"
         d="M 0.57,0.57 H 192.797 V 39.535 H 0.57 Z" /></g><g
       transform="matrix(1,0,0,-1,0,473.91516)"
       id="g30"><path
         inkscape:connector-curvature="0"
         id="path32"
         style="fill:none;stroke:#030006;stroke-width:1.14289498;stroke-linecap:butt;stroke-linejoin:miter;stroke-miterlimit:4;stroke-dasharray:none;stroke-opacity:1"
         d="M 223.438,0.57 H 415.661 V 39.535 H 223.438 Z" /></g><g
       transform="matrix(1,0,0,-1,0,473.91516)"
       id="g34"><path
         inkscape:connector-curvature="0"
         id="path36"
         style="fill:none;stroke:#030006;stroke-width:1.14289498;stroke-linecap:butt;stroke-linejoin:miter;stroke-miterlimit:4;stroke-dasharray:none;stroke-opacity:1"
         d="m 95.434,119.434 h 192.223 v 38.965 H 95.434 Z" /></g><g
       transform="matrix(1,0,0,-1,0,473.91516)"
       id="g38"><path
         inkscape:connector-curvature="0"
         id="path40"
         style="fill:none;stroke:#000000;stroke-width:0.57144803;stroke-linecap:butt;stroke-linejoin:miter;stroke-miterlimit:4;stroke-dasharray:none;stroke-opacity:1"
         d="M 53.414,24.348 206.215,138.293" /></g><g
       transform="matrix(1,0,0,-1,0,473.91516)"
       id="g42"><path
         inkscape:connector-curvature="0"
         id="path44"
         style="fill:none;stroke:#000000;stroke-width:0.57144803;stroke-linecap:butt;stroke-linejoin:miter;stroke-miterlimit:4;stroke-dasharray:none;stroke-opacity:1"
         d="M 78.691,19.488 206.215,138.293" /></g><g
       transform="matrix(1,0,0,-1,0,473.91516)"
       id="g46"><path
         inkscape:connector-curvature="0"
         id="path48"
         style="fill:none;stroke:#000000;stroke-width:0.57144803;stroke-linecap:butt;stroke-linejoin:miter;stroke-miterlimit:4;stroke-dasharray:none;stroke-opacity:1"
         d="m 110.484,19.488 95.731,118.805" /></g><g
       transform="matrix(1,0,0,-1,0,473.91516)"
       id="g50"><path
         inkscape:connector-curvature="0"
         id="path52"
         style="fill:none;stroke:#000000;stroke-width:0.57144803;stroke-linecap:butt;stroke-linejoin:miter;stroke-miterlimit:4;stroke-dasharray:none;stroke-opacity:1"
         d="m 142.277,19.488 63.938,118.805" /></g><g
       transform="matrix(1,0,0,-1,0,473.91516)"
       id="g54"><path
         inkscape:connector-curvature="0"
         id="path56"
         style="fill:none;stroke:#000000;stroke-width:0.57144803;stroke-linecap:butt;stroke-linejoin:miter;stroke-miterlimit:4;stroke-dasharray:none;stroke-opacity:1"
         d="m 174.07,19.488 32.145,118.805" /></g><g
       transform="matrix(1,0,0,-1,0,473.91516)"
       id="g58"><path
         inkscape:connector-curvature="0"
         id="path60"
         style="fill:#f4f8f8;fill-opacity:1;fill-rule:nonzero;stroke:#a694fb;stroke-width:2.34293509;stroke-linecap:butt;stroke-linejoin:miter;stroke-miterlimit:4;stroke-dasharray:none;stroke-opacity:1"
         d="m 86.625,19.488 c 0,4.703 -3.551,8.516 -7.934,8.516 -4.386,0 -7.937,-3.813 -7.937,-8.516 0,-4.703 3.551,-8.515 7.937,-8.515 4.383,0 7.934,3.812 7.934,8.515 z" /></g><g
       transform="matrix(1,0,0,-1,0,473.91516)"
       id="g62"><path
         inkscape:connector-curvature="0"
         id="path64"
         style="fill:#f4f8f8;fill-opacity:1;fill-rule:nonzero;stroke:#a694fb;stroke-width:2.34293509;stroke-linecap:butt;stroke-linejoin:miter;stroke-miterlimit:4;stroke-dasharray:none;stroke-opacity:1"
         d="m 54.832,19.488 c 0,4.703 -3.555,8.516 -7.937,8.516 -4.383,0 -7.938,-3.813 -7.938,-8.516 0,-4.703 3.555,-8.515 7.938,-8.515 4.382,0 7.937,3.812 7.937,8.515 z" /></g><g
       transform="matrix(1,0,0,-1,0,473.91516)"
       id="g66"><path
         inkscape:connector-curvature="0"
         id="path68"
         style="fill:#f4f8f8;fill-opacity:1;fill-rule:nonzero;stroke:#a694fb;stroke-width:2.34293509;stroke-linecap:butt;stroke-linejoin:miter;stroke-miterlimit:4;stroke-dasharray:none;stroke-opacity:1"
         d="m 118.422,19.488 c 0,4.703 -3.555,8.516 -7.938,8.516 -4.382,0 -7.937,-3.813 -7.937,-8.516 0,-4.703 3.555,-8.515 7.937,-8.515 4.383,0 7.938,3.812 7.938,8.515 z" /></g><g
       transform="matrix(1,0,0,-1,0,473.91516)"
       id="g70"><path
         inkscape:connector-curvature="0"
         id="path72"
         style="fill:#f4f8f8;fill-opacity:1;fill-rule:nonzero;stroke:#a694fb;stroke-width:2.34293509;stroke-linecap:butt;stroke-linejoin:miter;stroke-miterlimit:4;stroke-dasharray:none;stroke-opacity:1"
         d="m 150.215,19.488 c 0,4.703 -3.555,8.516 -7.938,8.516 -4.382,0 -7.937,-3.813 -7.937,-8.516 0,-4.703 3.555,-8.515 7.937,-8.515 4.383,0 7.938,3.812 7.938,8.515 z" /></g><g
       transform="matrix(1,0,0,-1,0,473.91516)"
       id="g74"><path
         inkscape:connector-curvature="0"
         id="path76"
         style="fill:#f4f8f8;fill-opacity:1;fill-rule:nonzero;stroke:#a694fb;stroke-width:2.34293509;stroke-linecap:butt;stroke-linejoin:miter;stroke-miterlimit:4;stroke-dasharray:none;stroke-opacity:1"
         d="m 182.008,19.488 c 0,4.703 -3.551,8.516 -7.938,8.516 -4.382,0 -7.937,-3.813 -7.937,-8.516 0,-4.703 3.555,-8.515 7.937,-8.515 4.387,0 7.938,3.812 7.938,8.515 z" /></g><g
       transform="matrix(1,0,0,-1,0,473.91516)"
       id="g78"><path
         inkscape:connector-curvature="0"
         id="path80"
         style="fill:none;stroke:#000000;stroke-width:0.57144803;stroke-linecap:butt;stroke-linejoin:miter;stroke-miterlimit:4;stroke-dasharray:none;stroke-opacity:1"
         d="m 235.645,19.801 -29.43,118.492" /></g><g
       transform="matrix(1,0,0,-1,0,473.91516)"
       id="g82"><path
         inkscape:connector-curvature="0"
         id="path84"
         style="fill:none;stroke:#000000;stroke-width:0.57144803;stroke-linecap:butt;stroke-linejoin:miter;stroke-miterlimit:4;stroke-dasharray:none;stroke-opacity:1"
         d="M 266.742,19.801 206.215,138.293" /></g><g
       transform="matrix(1,0,0,-1,0,473.91516)"
       id="g86"><path
         inkscape:connector-curvature="0"
         id="path88"
         style="fill:none;stroke:#000000;stroke-width:0.57144803;stroke-linecap:butt;stroke-linejoin:miter;stroke-miterlimit:4;stroke-dasharray:none;stroke-opacity:1"
         d="M 297.844,19.801 206.215,138.293" /></g><g
       transform="matrix(1,0,0,-1,0,473.91516)"
       id="g90"><path
         inkscape:connector-curvature="0"
         id="path92"
         style="fill:none;stroke:#000000;stroke-width:0.57144803;stroke-linecap:butt;stroke-linejoin:miter;stroke-miterlimit:4;stroke-dasharray:none;stroke-opacity:1"
         d="M 328.941,19.801 206.215,138.293" /></g><g
       transform="matrix(1,0,0,-1,0,473.91516)"
       id="g94"><path
         inkscape:connector-curvature="0"
         id="path96"
         style="fill:none;stroke:#000000;stroke-width:0.57144803;stroke-linecap:butt;stroke-linejoin:miter;stroke-miterlimit:4;stroke-dasharray:none;stroke-opacity:1"
         d="M 360.043,19.801 206.215,138.293" /></g><g
       transform="matrix(1,0,0,-1,0,473.91516)"
       id="g98"><path
         inkscape:connector-curvature="0"
         id="path100"
         style="fill:#f4f8f8;fill-opacity:1;fill-rule:nonzero;stroke:#a694fb;stroke-width:2.34293509;stroke-linecap:butt;stroke-linejoin:miter;stroke-miterlimit:4;stroke-dasharray:none;stroke-opacity:1"
         d="m 243.582,19.801 c 0,4.703 -3.555,8.515 -7.937,8.515 -4.383,0 -7.938,-3.812 -7.938,-8.515 0,-4.703 3.555,-8.516 7.938,-8.516 4.382,0 7.937,3.813 7.937,8.516 z" /></g><g
       transform="matrix(1,0,0,-1,0,473.91516)"
       id="g102"><path
         inkscape:connector-curvature="0"
         id="path104"
         style="fill:#f4f8f8;fill-opacity:1;fill-rule:nonzero;stroke:#a694fb;stroke-width:2.34293509;stroke-linecap:butt;stroke-linejoin:miter;stroke-miterlimit:4;stroke-dasharray:none;stroke-opacity:1"
         d="m 367.98,19.801 c 0,4.703 -3.554,8.515 -7.937,8.515 -4.383,0 -7.938,-3.812 -7.938,-8.515 0,-4.703 3.555,-8.516 7.938,-8.516 4.383,0 7.937,3.813 7.937,8.516 z" /></g><g
       transform="matrix(1,0,0,-1,0,473.91516)"
       id="g106"><path
         inkscape:connector-curvature="0"
         id="path108"
         style="fill:#f4f8f8;fill-opacity:1;fill-rule:nonzero;stroke:#a694fb;stroke-width:2.34293509;stroke-linecap:butt;stroke-linejoin:miter;stroke-miterlimit:4;stroke-dasharray:none;stroke-opacity:1"
         d="m 336.879,19.801 c 0,4.703 -3.555,8.515 -7.938,8.515 -4.382,0 -7.937,-3.812 -7.937,-8.515 0,-4.703 3.555,-8.516 7.937,-8.516 4.383,0 7.938,3.813 7.938,8.516 z" /></g><g
       transform="matrix(1,0,0,-1,0,473.91516)"
       id="g110"><path
         inkscape:connector-curvature="0"
         id="path112"
         style="fill:#f4f8f8;fill-opacity:1;fill-rule:nonzero;stroke:#a694fb;stroke-width:2.34293509;stroke-linecap:butt;stroke-linejoin:miter;stroke-miterlimit:4;stroke-dasharray:none;stroke-opacity:1"
         d="m 305.781,19.801 c 0,4.703 -3.554,8.515 -7.937,8.515 -4.383,0 -7.938,-3.812 -7.938,-8.515 0,-4.703 3.555,-8.516 7.938,-8.516 4.383,0 7.937,3.813 7.937,8.516 z" /></g><g
       transform="matrix(1,0,0,-1,0,473.91516)"
       id="g114"><path
         inkscape:connector-curvature="0"
         id="path116"
         style="fill:#f4f8f8;fill-opacity:1;fill-rule:nonzero;stroke:#a694fb;stroke-width:2.34293509;stroke-linecap:butt;stroke-linejoin:miter;stroke-miterlimit:4;stroke-dasharray:none;stroke-opacity:1"
         d="m 274.68,19.801 c 0,4.703 -3.551,8.515 -7.938,8.515 -4.383,0 -7.933,-3.812 -7.933,-8.515 0,-4.703 3.55,-8.516 7.933,-8.516 4.387,0 7.938,3.813 7.938,8.516 z" /></g><g
       transform="matrix(1,0,0,-1,0,473.91516)"
       id="g170"><path
         inkscape:connector-curvature="0"
         id="path172"
         style="fill:#f4f8f8;fill-opacity:1;fill-rule:nonzero;stroke:#a694fb;stroke-width:2.34293509;stroke-linecap:butt;stroke-linejoin:miter;stroke-miterlimit:4;stroke-dasharray:none;stroke-opacity:1"
         d="m 178.746,138.293 c 0,4.699 -3.555,8.512 -7.937,8.512 -4.387,0 -7.938,-3.813 -7.938,-8.512 0,-4.703 3.551,-8.516 7.938,-8.516 4.382,0 7.937,3.813 7.937,8.516 z" /></g><g
       transform="matrix(1,0,0,-1,0,473.91516)"
       id="g174"><path
         inkscape:connector-curvature="0"
         id="path176"
         style="fill:#f4f8f8;fill-opacity:1;fill-rule:nonzero;stroke:#a694fb;stroke-width:2.34293509;stroke-linecap:butt;stroke-linejoin:miter;stroke-miterlimit:4;stroke-dasharray:none;stroke-opacity:1"
         d="m 149.277,138.293 c 0,4.699 -3.55,8.512 -7.933,8.512 -4.387,0 -7.938,-3.813 -7.938,-8.512 0,-4.703 3.551,-8.516 7.938,-8.516 4.383,0 7.933,3.813 7.933,8.516 z" /></g><g
       transform="matrix(1,0,0,-1,0,473.91516)"
       id="g178"><path
         inkscape:connector-curvature="0"
         id="path180"
         style="fill:#f4f8f8;fill-opacity:1;fill-rule:nonzero;stroke:#a694fb;stroke-width:2.34293509;stroke-linecap:butt;stroke-linejoin:miter;stroke-miterlimit:4;stroke-dasharray:none;stroke-opacity:1"
         d="m 243.934,138.293 c 0,4.699 -3.555,8.512 -7.938,8.512 -4.383,0 -7.937,-3.813 -7.937,-8.512 0,-4.703 3.554,-8.516 7.937,-8.516 4.383,0 7.938,3.813 7.938,8.516 z" /></g><g
       transform="matrix(1,0,0,-1,0,473.91516)"
       id="g182"><path
         inkscape:connector-curvature="0"
         id="path184"
         style="fill:#f4f8f8;fill-opacity:1;fill-rule:nonzero;stroke:#a694fb;stroke-width:2.34293509;stroke-linecap:butt;stroke-linejoin:miter;stroke-miterlimit:4;stroke-dasharray:none;stroke-opacity:1"
         d="m 274.125,138.293 c 0,4.699 -3.551,8.512 -7.937,8.512 -4.383,0 -7.938,-3.813 -7.938,-8.512 0,-4.703 3.555,-8.516 7.938,-8.516 4.386,0 7.937,3.813 7.937,8.516 z" /></g><g
       transform="matrix(1,0,0,-1,0,473.91516)"
       id="g186"><path
         inkscape:connector-curvature="0"
         id="path188"
         style="fill:#f4f8f8;fill-opacity:1;fill-rule:nonzero;stroke:#a694fb;stroke-width:2.34293509;stroke-linecap:butt;stroke-linejoin:miter;stroke-miterlimit:4;stroke-dasharray:none;stroke-opacity:1"
         d="m 212.551,138.293 c 0,4.699 -3.551,8.512 -7.934,8.512 -4.387,0 -7.937,-3.813 -7.937,-8.512 0,-4.703 3.55,-8.516 7.937,-8.516 4.383,0 7.934,3.813 7.934,8.516 z" /></g><g
       transform="matrix(1,0,0,-1,0,473.91516)"
       id="g206"><path
         inkscape:connector-curvature="0"
         id="path208"
         style="fill:none;stroke:#000000;stroke-width:0.57144803;stroke-linecap:butt;stroke-linejoin:miter;stroke-miterlimit:4;stroke-dasharray:none;stroke-opacity:1"
         d="m 326.816,153.828 h 52.758" /></g><g
       transform="matrix(-1,0,0,1,0,473.91516)"
       id="g210"><path
         inkscape:connector-curvature="0"
         id="path212"
         style="fill:#000000;fill-opacity:1;fill-rule:evenodd;stroke:#000000;stroke-width:0.28572401;stroke-linecap:butt;stroke-linejoin:miter;stroke-miterlimit:4;stroke-dasharray:none;stroke-opacity:1"
         d="m -377.285,-153.828 1.14,-1.145 -4,1.145 4,1.144 z" /></g><g
       transform="matrix(1,0,0,-1,0,473.91516)"
       id="g214"><path
         inkscape:connector-curvature="0"
         id="path216"
         style="fill:none;stroke:#000000;stroke-width:0.57144803;stroke-linecap:butt;stroke-linejoin:miter;stroke-miterlimit:4;stroke-dasharray:none;stroke-opacity:1"
         d="m 327.43,120.152 v 35.004" /></g><g
       transform="matrix(0,-1,-1,0,0,473.91516)"
       id="g218"><path
         inkscape:connector-curvature="0"
         id="path220"
         style="fill:#000000;fill-opacity:1;fill-rule:evenodd;stroke:#000000;stroke-width:0.28572401;stroke-linecap:butt;stroke-linejoin:miter;stroke-miterlimit:4;stroke-dasharray:none;stroke-opacity:1"
         d="m 122.438,-327.43 1.144,-1.14 -4,1.14 4,1.145 z" /></g><g
       transform="matrix(1,0,0,-1,0,473.91516)"
       id="g222"><path
         inkscape:connector-curvature="0"
         id="path224"
         style="fill:none;stroke:#000000;stroke-width:0.57144803;stroke-linecap:butt;stroke-linejoin:miter;stroke-miterlimit:4;stroke-dasharray:none;stroke-opacity:1"
         d="m 327.531,150.766 h 29.797 v -23.672 h 21.328" /></g><g
       transform="matrix(1,0,0,-1,0,473.91516)"
       id="g226"><path
         inkscape:connector-curvature="0"
         id="path228"
         style="fill:none;stroke:#000000;stroke-width:0.57144803;stroke-linecap:butt;stroke-linejoin:miter;stroke-miterlimit:4;stroke-dasharray:none;stroke-opacity:1"
         d="m 326.508,126.684 h 2.043" /></g><g
       transform="matrix(1,0,0,-1,0,473.91516)"
       id="g230"><path
         inkscape:connector-curvature="0"
         id="path232"
         style="fill:none;stroke:#000000;stroke-width:0.57144803;stroke-linecap:butt;stroke-linejoin:miter;stroke-miterlimit:4;stroke-dasharray:none;stroke-opacity:1"
         d="m 357.328,152.5 v 3.266" /></g><text
       id="text236"
       style="font-variant:normal;font-weight:normal;font-size:7.14309597px;font-family:Roboto;-inkscape-font-specification:Roboto-Regular;writing-mode:lr-tb;fill:#000000;fill-opacity:1;fill-rule:nonzero;stroke:none"
       transform="scale(1,-1)"
       x="336.20239"
       y="-309.61728"><tspan
         id="tspan234"
         sodipodi:role="line"
         y="-309.61728"
         x="336.20239 338.13818 342.07401 346.0813 350.01715 352.34579 354.11014 358.76743 365.02478 369.03207">Input Amp.</tspan></text>
<text
       id="text240"
       style="font-variant:normal;font-weight:normal;font-size:7.14309597px;font-family:Roboto;-inkscape-font-specification:Roboto-Regular;writing-mode:lr-tb;fill:#000000;fill-opacity:1;fill-rule:nonzero;stroke:none"
       transform="matrix(0,1,1,0,0,0)"
       x="321.36731"
       y="322.87665"><tspan
         id="tspan238"
         sodipodi:role="line"
         y="322.87665"
         x="321.36731 325.76031 329.53903 333.21771 337.22501 341.29657 345.23239 348.9111">Response</tspan></text>
<path
       inkscape:connector-curvature="0"
       id="path362"
       style="fill:#000000;fill-opacity:1;fill-rule:evenodd;stroke:none"
       d="m 67.102,397.747 0.074,0.129 0.078,0.129 0.074,0.121 0.078,0.121 0.043,0.059 0.086,0.109 0.043,0.051 0.047,0.051 0.047,0.054 0.047,0.047 0.054,0.047 0.051,0.043 0.11,0.086 0.058,0.039 0.063,0.035 0.058,0.035 0.067,0.032 0.066,0.027 0.07,0.031 0.075,0.024 0.078,0.023 0.082,0.02 0.082,0.015 0.086,0.016 0.09,0.016 0.093,0.003 c 0.145,0.02 0.305,0.02 0.305,0.325 0,0.062 -0.062,0.179 -0.195,0.179 -0.383,0 -0.832,-0.054 -1.235,-0.054 -0.55,0 -1.148,0.054 -1.675,0.054 -0.094,0 -0.301,0 -0.301,-0.308 0,-0.176 0.137,-0.196 0.234,-0.196 0.387,-0.011 0.953,-0.144 0.953,-0.621 0,-0.179 -0.082,-0.308 -0.211,-0.535 l -4.343,-7.57 -0.594,7.973 c -0.016,0.324 -0.047,0.742 1.121,0.753 0.277,0 0.441,0 0.441,0.325 0,0.16 -0.183,0.179 -0.242,0.179 -0.648,0 -1.32,-0.054 -1.961,-0.054 -0.375,0 -1.324,0.054 -1.691,0.054 -0.098,0 -0.305,0 -0.305,-0.324 0,-0.18 0.16,-0.18 0.387,-0.18 0.707,0 0.816,-0.093 0.851,-0.402 l 0.098,-1.234 -4.07,-7.09 -0.614,8.148 c 0,0.192 0,0.567 1.223,0.578 0.16,0 0.34,0 0.34,0.325 0,0.179 -0.195,0.179 -0.223,0.179 -0.648,0 -1.32,-0.054 -1.98,-0.054 -0.567,0 -1.145,0.054 -1.688,0.054 -0.082,0 -0.297,0 -0.297,-0.308 0,-0.196 0.153,-0.196 0.407,-0.196 0.804,0 0.824,-0.144 0.851,-0.593 l 0.727,-9.824 c 0.015,-0.293 0.031,-0.418 0.258,-0.418 0.195,0 0.238,0.093 0.382,0.335 l 4.735,8.204 0.594,-8.121 c 0.027,-0.336 0.062,-0.418 0.257,-0.418 0.207,0 0.301,0.16 0.383,0.3 z" /><path
       inkscape:connector-curvature="0"
       id="path364"
       style="fill:#000000;fill-opacity:1;fill-rule:evenodd;stroke:none"
       d="m 73.18,390.06 0.097,0.023 0.282,0.082 0.093,0.039 0.094,0.035 0.09,0.036 0.09,0.039 0.086,0.043 0.086,0.046 0.086,0.043 0.164,0.102 0.078,0.051 0.078,0.058 0.07,0.055 0.071,0.063 0.066,0.058 0.062,0.063 0.118,0.132 0.05,0.067 0.051,0.07 0.039,0.074 0.043,0.071 0.031,0.078 0.036,0.074 0.019,0.078 0.02,0.082 0.015,0.082 0.008,0.078 0.004,0.09 c 0,1.121 -1.48,2.035 -3.227,2.035 h -3.796 v -0.402 h 0.277 c 0.867,0 0.887,-0.113 0.887,-0.512 v -5.855 c 0,-0.383 -0.02,-0.508 -0.887,-0.508 h -0.277 v -0.406 c 0.019,0 1.211,0.047 1.668,0.047 0.472,0 1.113,-0.028 1.679,-0.047 v 0.406 h -0.273 c -0.867,0 -0.887,0.113 -0.887,0.508 v 5.93 c 0,0.312 0.008,0.39 0.305,0.425 0.09,0.012 0.472,0.012 0.707,0.012 1.078,0 2.621,0 2.621,-1.633 0,-1.258 -0.981,-1.64 -2.172,-1.64 h -1.461 v -0.321 h 1.496 c 0.203,0 0.789,0 1.285,-0.457 0.391,-0.347 0.391,-0.629 0.391,-1.383 0,-0.734 0,-1.195 0.516,-1.621 0.484,-0.39 1.148,-0.449 1.461,-0.449 0.96,0 1.207,0.91 1.207,1.246 0,0.082 0,0.215 -0.192,0.215 -0.168,0 -0.183,-0.102 -0.191,-0.215 -0.055,-0.648 -0.43,-0.933 -0.778,-0.933 -0.64,0 -0.73,0.664 -0.863,1.687 -0.125,0.902 -0.16,1.082 -0.484,1.453 -0.117,0.125 -0.43,0.418 -1.039,0.606 z" /><path
       inkscape:connector-curvature="0"
       id="path366"
       style="fill:#000000;fill-opacity:1;fill-rule:evenodd;stroke:none"
       d="m 81.922,393.989 -0.008,0.016 -0.004,0.016 -0.008,0.011 -0.007,0.02 -0.004,0.012 -0.004,0.015 -0.008,0.012 -0.004,0.012 -0.016,0.023 -0.004,0.012 -0.007,0.008 -0.008,0.011 -0.004,0.008 -0.008,0.012 -0.012,0.004 -0.004,0.012 -0.011,0.007 -0.008,0.004 -0.012,0.008 -0.008,0.004 -0.023,0.008 -0.012,0.008 -0.031,0.007 H 81.68 l -0.016,0.004 h -0.035 l -0.02,0.004 c -0.218,0 -0.25,-0.082 -0.32,-0.258 l -2.598,-6.582 c -0.109,-0.285 -0.3,-0.777 -1.316,-0.777 v -0.406 c 0.387,0.035 0.777,0.047 1.16,0.047 0.449,0 1.281,-0.047 1.352,-0.047 v 0.406 c -0.492,0 -0.813,0.227 -0.813,0.539 0,0.09 0.012,0.113 0.059,0.227 l 0.539,1.382 0.16,0.407 1.438,3.656 1.437,-3.656 h -2.875 l -0.16,-0.407 h 3.195 l 0.653,-1.64 c 0.019,-0.059 0.054,-0.133 0.054,-0.192 0,-0.316 -0.605,-0.316 -0.914,-0.316 v -0.406 c 0.567,0.019 1.289,0.047 1.684,0.047 0.527,0 1.371,-0.036 1.492,-0.047 v 0.406 h -0.223 c -0.758,0 -0.832,0.113 -0.957,0.43 z" /><path
       inkscape:connector-curvature="0"
       id="path368"
       style="fill:#000000;fill-opacity:1;fill-rule:evenodd;stroke:none"
       d="m 94.73,388.771 h 0.145 l 0.02,0.004 h 0.019 l 0.02,0.003 0.015,0.004 0.039,0.008 0.016,0.004 0.019,0.008 0.016,0.004 0.016,0.012 0.031,0.015 0.012,0.012 0.015,0.012 0.012,0.011 0.004,0.008 0.004,0.004 0.008,0.012 0.004,0.008 0.003,0.003 0.004,0.012 0.012,0.024 0.004,0.011 0.004,0.008 v 0.024 l 0.004,0.011 v 0.012 l 0.004,0.008 v 0.027 c 0,0.278 -0.258,0.278 -0.45,0.278 h -6.703 c -0.183,0 -0.449,0 -0.449,-0.27 0,-0.277 0.258,-0.277 0.449,-0.277 z" /><path
       inkscape:connector-curvature="0"
       id="path370"
       style="fill:#000000;fill-opacity:1;fill-rule:evenodd;stroke:none"
       d="m 104.078,392.993 v 0.133 l 0.004,0.031 v 0.028 l 0.008,0.027 0.008,0.047 0.011,0.023 0.008,0.024 0.016,0.019 0.012,0.02 0.015,0.019 0.016,0.016 0.019,0.012 0.024,0.015 0.027,0.012 0.012,0.008 0.015,0.008 0.032,0.008 0.015,0.007 0.039,0.008 0.016,0.004 0.02,0.004 0.023,0.008 h 0.02 l 0.023,0.004 0.027,0.004 0.02,0.003 0.054,0.008 h 0.086 l 0.028,0.004 h 0.035 l 0.031,0.004 h 0.07 l 0.036,0.004 h 0.386 v 0.402 c -0.562,-0.019 -1.277,-0.043 -1.687,-0.043 -0.414,0 -1.137,0.024 -1.695,0.043 v -0.402 h 0.269 c 0.867,0 0.887,-0.113 0.887,-0.512 v -2.57 H 99.25 v 2.57 c 0,0.387 0.027,0.512 0.891,0.512 h 0.269 v 0.402 c -0.558,-0.019 -1.281,-0.043 -1.687,-0.043 -0.414,0 -1.137,0.024 -1.696,0.043 v -0.402 h 0.262 c 0.871,0 0.895,-0.113 0.895,-0.512 v -5.855 c 0,-0.383 -0.024,-0.508 -0.895,-0.508 h -0.262 v -0.406 c 0.559,0.019 1.282,0.047 1.68,0.047 0.422,0 1.145,-0.028 1.703,-0.047 v 0.406 h -0.269 c -0.864,0 -0.891,0.113 -0.891,0.508 v 2.879 h 3.758 v -2.879 c 0,-0.383 -0.02,-0.508 -0.887,-0.508 h -0.269 v -0.406 c 0.558,0.019 1.281,0.047 1.687,0.047 0.418,0 1.133,-0.028 1.695,-0.047 v 0.406 h -0.269 c -0.863,0 -0.887,0.113 -0.887,0.508 z" /><path
       inkscape:connector-curvature="0"
       id="path372"
       style="fill:#000000;fill-opacity:1;fill-rule:evenodd;stroke:none"
       d="m 113.738,392.763 0.063,0.133 0.019,0.031 0.016,0.031 0.023,0.035 0.039,0.063 0.055,0.062 0.024,0.028 0.035,0.031 0.058,0.058 0.035,0.024 0.04,0.027 0.039,0.024 0.086,0.047 0.046,0.023 0.047,0.02 0.055,0.019 0.109,0.031 0.059,0.012 0.062,0.012 0.067,0.011 0.07,0.008 0.07,0.004 0.075,0.004 0.082,0.004 v 0.402 c -0.332,-0.035 -0.77,-0.043 -1.094,-0.043 -0.449,0 -1.285,0.043 -1.352,0.043 v -0.402 c 0.418,0 0.778,-0.18 0.778,-0.531 0,-0.078 -0.024,-0.156 -0.059,-0.239 l -2.324,-5.429 -2.434,5.703 c -0.062,0.133 -0.062,0.156 -0.062,0.191 0,0.305 0.582,0.305 0.887,0.305 v 0.402 c -0.567,-0.019 -1.282,-0.043 -1.676,-0.043 -0.567,0 -1.406,0.043 -1.442,0.043 v -0.402 h 0.188 c 0.609,0 0.801,-0.055 0.949,-0.402 l 2.922,-6.844 c 0.082,-0.18 0.109,-0.258 0.328,-0.258 0.113,0 0.223,0 0.328,0.234 z" /><path
       inkscape:connector-curvature="0"
       id="path374"
       style="fill:#000000;fill-opacity:1;fill-rule:evenodd;stroke:none"
       d="m 123.395,393.845 v 0.125 l -0.004,0.012 v 0.015 l -0.004,0.012 v 0.008 l -0.004,0.015 v 0.008 l -0.004,0.012 -0.004,0.008 -0.004,0.011 -0.004,0.004 -0.004,0.012 -0.011,0.012 -0.004,0.008 -0.012,0.003 -0.008,0.004 -0.008,0.008 -0.011,0.004 h -0.008 l -0.012,0.004 h -0.012 l -0.004,0.004 h -0.035 c -0.043,0 -0.097,0 -0.187,-0.137 l -0.598,-0.855 c -0.476,0.472 -1.25,0.992 -2.332,0.992 -2.359,0 -4.309,-1.824 -4.309,-4.063 0,-2.281 1.985,-4.07 4.309,-4.07 1.992,0 3.274,1.484 3.274,2.859 0,0.118 -0.012,0.208 -0.192,0.208 -0.062,0 -0.176,0 -0.191,-0.145 -0.094,-1.809 -1.617,-2.516 -2.735,-2.516 -1.199,0 -3.257,0.731 -3.257,3.653 0,3.05 2.179,3.668 3.238,3.668 1.117,0 2.441,-0.743 2.734,-2.676 0.02,-0.137 0.121,-0.137 0.203,-0.137 0.2,0 0.2,0.067 0.2,0.293 z" /><path
       inkscape:connector-curvature="0"
       id="path376"
       style="fill:#000000;fill-opacity:1;fill-rule:evenodd;stroke:none"
       d="m 308.156,398.9 0.074,0.128 0.079,0.133 0.078,0.121 0.078,0.118 0.043,0.058 0.039,0.055 0.047,0.055 0.043,0.054 0.043,0.051 0.05,0.051 0.047,0.051 0.051,0.043 0.055,0.046 0.055,0.039 0.054,0.043 0.059,0.039 0.058,0.036 0.125,0.07 0.141,0.055 0.074,0.027 0.078,0.023 0.082,0.02 0.079,0.016 0.085,0.015 0.094,0.012 0.094,0.008 c 0.144,0.015 0.305,0.015 0.305,0.324 0,0.059 -0.063,0.176 -0.196,0.176 -0.386,0 -0.836,-0.051 -1.238,-0.051 -0.547,0 -1.144,0.051 -1.676,0.051 -0.094,0 -0.301,0 -0.301,-0.305 0,-0.18 0.141,-0.195 0.239,-0.195 0.386,-0.012 0.953,-0.145 0.953,-0.625 0,-0.176 -0.082,-0.309 -0.211,-0.535 l -4.348,-7.571 -0.593,7.977 c -0.016,0.32 -0.043,0.742 1.125,0.754 0.277,0 0.437,0 0.437,0.324 0,0.16 -0.18,0.176 -0.242,0.176 -0.645,0 -1.32,-0.051 -1.957,-0.051 -0.375,0 -1.324,0.051 -1.692,0.051 -0.097,0 -0.308,0 -0.308,-0.324 0,-0.176 0.164,-0.176 0.387,-0.176 0.707,0 0.816,-0.094 0.855,-0.403 l 0.094,-1.234 -4.071,-7.094 -0.609,8.153 c 0,0.191 0,0.566 1.219,0.578 0.164,0 0.34,0 0.34,0.324 0,0.176 -0.192,0.176 -0.223,0.176 -0.645,0 -1.32,-0.051 -1.977,-0.051 -0.566,0 -1.144,0.051 -1.691,0.051 -0.078,0 -0.293,0 -0.293,-0.305 0,-0.195 0.149,-0.195 0.402,-0.195 0.809,0 0.825,-0.145 0.856,-0.594 l 0.726,-9.828 c 0.016,-0.289 0.032,-0.414 0.258,-0.414 0.192,0 0.239,0.094 0.383,0.336 l 4.734,8.203 0.594,-8.125 c 0.028,-0.336 0.059,-0.414 0.258,-0.414 0.207,0 0.301,0.16 0.379,0.301 z" /><path
       inkscape:connector-curvature="0"
       id="path378"
       style="fill:#000000;fill-opacity:1;fill-rule:evenodd;stroke:none"
       d="m 314.238,391.216 0.094,0.019 0.094,0.028 0.094,0.031 0.093,0.027 0.188,0.071 0.09,0.035 0.093,0.043 0.172,0.086 0.086,0.047 0.082,0.047 0.082,0.05 0.078,0.055 0.075,0.059 0.074,0.054 0.07,0.059 0.063,0.058 0.066,0.067 0.059,0.062 0.058,0.071 0.051,0.066 0.047,0.067 0.086,0.148 0.062,0.148 0.024,0.082 0.019,0.082 0.016,0.079 0.008,0.082 0.004,0.086 c 0,1.125 -1.485,2.039 -3.231,2.039 h -3.793 v -0.407 h 0.274 c 0.871,0 0.89,-0.109 0.89,-0.507 v -5.856 c 0,-0.387 -0.019,-0.512 -0.89,-0.512 h -0.274 v -0.402 c 0.016,0 1.207,0.043 1.668,0.043 0.473,0 1.113,-0.023 1.676,-0.043 v 0.402 h -0.27 c -0.867,0 -0.886,0.118 -0.886,0.512 v 5.926 c 0,0.312 0.008,0.394 0.3,0.43 0.09,0.007 0.477,0.007 0.711,0.007 1.079,0 2.618,0 2.618,-1.632 0,-1.254 -0.977,-1.641 -2.168,-1.641 h -1.461 v -0.316 h 1.496 c 0.199,0 0.789,0 1.281,-0.461 0.395,-0.348 0.395,-0.629 0.395,-1.379 0,-0.735 0,-1.196 0.511,-1.621 0.485,-0.391 1.153,-0.454 1.465,-0.454 0.957,0 1.207,0.915 1.207,1.25 0,0.082 0,0.211 -0.195,0.211 -0.164,0 -0.18,-0.097 -0.192,-0.211 -0.054,-0.648 -0.425,-0.933 -0.777,-0.933 -0.637,0 -0.726,0.66 -0.859,1.683 -0.129,0.907 -0.164,1.082 -0.485,1.454 -0.117,0.128 -0.429,0.421 -1.039,0.609 z" /><path
       inkscape:connector-curvature="0"
       id="path380"
       style="fill:#000000;fill-opacity:1;fill-rule:evenodd;stroke:none"
       d="m 322.98,395.142 -0.007,0.019 -0.008,0.016 -0.004,0.012 -0.008,0.015 -0.004,0.012 -0.008,0.019 -0.003,0.012 -0.008,0.008 -0.008,0.016 -0.004,0.011 -0.008,0.008 -0.004,0.012 -0.008,0.008 -0.007,0.011 -0.004,0.008 -0.012,0.008 -0.008,0.012 -0.008,0.004 -0.011,0.007 -0.039,0.02 -0.016,0.004 -0.012,0.004 -0.015,0.004 -0.012,0.004 h -0.016 l -0.019,0.004 h -0.035 l -0.02,0.003 c -0.215,0 -0.246,-0.082 -0.316,-0.261 l -2.598,-6.582 c -0.113,-0.282 -0.305,-0.778 -1.316,-0.778 v -0.402 c 0.382,0.035 0.777,0.043 1.16,0.043 0.449,0 1.281,-0.043 1.351,-0.043 v 0.402 c -0.496,0 -0.812,0.227 -0.812,0.539 0,0.09 0.012,0.118 0.058,0.231 l 0.539,1.383 0.161,0.406 1.437,3.652 1.434,-3.652 h -2.871 l -0.161,-0.406 h 3.196 l 0.652,-1.641 c 0.02,-0.062 0.055,-0.137 0.055,-0.191 0,-0.321 -0.606,-0.321 -0.914,-0.321 v -0.402 c 0.562,0.02 1.289,0.043 1.679,0.043 0.532,0 1.375,-0.035 1.493,-0.043 v 0.402 h -0.223 c -0.754,0 -0.828,0.118 -0.953,0.43 z" /><path
       inkscape:connector-curvature="0"
       id="path382"
       style="fill:#000000;fill-opacity:1;fill-rule:evenodd;stroke:none"
       d="m 335.789,389.923 h 0.106 l 0.019,0.004 h 0.02 l 0.019,0.004 h 0.02 l 0.019,0.004 h 0.016 l 0.019,0.004 0.02,0.007 0.031,0.008 0.016,0.008 0.015,0.012 0.02,0.004 0.016,0.011 0.011,0.012 0.012,0.008 0.016,0.016 v 0.003 l 0.007,0.008 0.008,0.012 0.004,0.004 v 0.008 l 0.008,0.008 0.004,0.011 0.004,0.004 0.004,0.012 v 0.008 l 0.004,0.011 0.003,0.008 v 0.016 l 0.004,0.008 v 0.011 l 0.004,0.012 v 0.027 c 0,0.278 -0.258,0.278 -0.449,0.278 h -6.707 c -0.18,0 -0.449,0 -0.449,-0.27 0,-0.281 0.262,-0.281 0.449,-0.281 z" /><path
       inkscape:connector-curvature="0"
       id="path384"
       style="fill:#000000;fill-opacity:1;fill-rule:evenodd;stroke:none"
       d="m 344.777,390.341 h -0.386 c -0.125,-1.106 -0.289,-2.559 -2.422,-2.559 h -1.121 c -0.528,0 -0.539,0.09 -0.539,0.442 v 5.914 c 0,0.375 0,0.519 1.058,0.519 h 0.395 v 0.407 c -0.239,-0.012 -1.676,-0.047 -1.969,-0.047 -0.43,0 -1.699,0.047 -1.711,0.047 v -0.407 h 0.266 c 0.867,0 0.894,-0.109 0.894,-0.507 v -5.856 c 0,-0.387 -0.027,-0.512 -0.894,-0.512 h -0.266 v -0.402 h 6.356 z" /><path
       inkscape:connector-curvature="0"
       id="path386"
       style="fill:#000000;fill-opacity:1;fill-rule:evenodd;stroke:none"
       d="m 348.484,394.814 -0.007,0.023 -0.012,0.023 -0.008,0.02 -0.012,0.02 -0.007,0.015 -0.012,0.016 -0.008,0.012 -0.012,0.015 -0.008,0.012 -0.011,0.012 -0.008,0.011 -0.012,0.008 -0.012,0.012 -0.023,0.012 -0.012,0.007 -0.023,0.008 -0.012,0.008 h -0.015 l -0.016,0.004 -0.012,0.004 h -0.015 l -0.016,0.004 h -0.031 l -0.02,0.004 h -2.07 v -0.407 h 0.269 c 0.864,0 0.891,-0.109 0.891,-0.507 v -5.555 c 0,-0.301 0,-0.813 -1.16,-0.813 v -0.402 c 0.465,0.035 0.91,0.043 1.371,0.043 0.465,0 0.91,-0.008 1.371,-0.043 v 0.402 c -1.156,0 -1.156,0.512 -1.156,0.813 v 5.93 l 0.012,0.007 2.925,-6.894 c 0.059,-0.133 0.114,-0.258 0.278,-0.258 0.078,0 0.183,0.035 0.273,0.238 l 2.969,7.032 0.012,-0.016 v -6.34 c 0,-0.387 -0.02,-0.512 -0.887,-0.512 h -0.274 v -0.402 c 0.539,0.02 1.168,0.043 1.633,0.043 0.461,0 1.09,-0.023 1.633,-0.043 v 0.402 h -0.277 c -0.86,0 -0.887,0.118 -0.887,0.512 v 5.856 c 0,0.382 0.027,0.507 0.887,0.507 h 0.277 v 0.407 h -1.961 c -0.227,0 -0.324,0 -0.418,-0.223 l -2.695,-6.379 z" /><path
       inkscape:connector-curvature="0"
       id="path388"
       style="fill:#000000;fill-opacity:1;fill-rule:evenodd;stroke:none"
       d="m 362.023,395.142 -0.007,0.019 -0.004,0.016 -0.008,0.012 -0.004,0.015 -0.004,0.012 -0.008,0.019 -0.008,0.012 v 0.008 l -0.007,0.016 -0.008,0.011 -0.004,0.008 -0.008,0.012 -0.008,0.008 -0.007,0.011 -0.016,0.016 -0.008,0.012 -0.008,0.004 -0.011,0.007 -0.008,0.004 -0.012,0.004 -0.008,0.008 -0.015,0.004 -0.024,0.008 -0.031,0.008 h -0.016 l -0.015,0.004 h -0.036 l -0.019,0.003 c -0.215,0 -0.246,-0.082 -0.316,-0.261 l -2.598,-6.582 c -0.109,-0.282 -0.305,-0.778 -1.317,-0.778 v -0.402 c 0.383,0.035 0.778,0.043 1.161,0.043 0.449,0 1.277,-0.043 1.347,-0.043 v 0.402 c -0.492,0 -0.808,0.227 -0.808,0.539 0,0.09 0.011,0.118 0.054,0.231 l 0.539,1.383 0.161,0.406 1.437,3.652 1.441,-3.652 h -2.878 l -0.161,-0.406 h 3.2 l 0.648,-1.641 c 0.024,-0.062 0.059,-0.137 0.059,-0.191 0,-0.321 -0.606,-0.321 -0.914,-0.321 v -0.402 c 0.566,0.02 1.285,0.043 1.679,0.043 0.528,0 1.371,-0.035 1.496,-0.043 v 0.402 h -0.222 c -0.762,0 -0.836,0.118 -0.961,0.43 z" /><path
       inkscape:connector-curvature="0"
       id="path390"
       style="fill:#000000;fill-opacity:1;fill-rule:evenodd;stroke:none"
       d="m 369.398,394.896 -0.007,0.015 -0.008,0.012 -0.024,0.023 -0.015,0.024 -0.012,0.008 -0.008,0.011 -0.008,0.004 -0.007,0.012 -0.008,0.008 -0.008,0.004 -0.008,0.008 -0.015,0.007 -0.012,0.004 -0.008,0.004 -0.008,0.008 h -0.019 l -0.024,0.008 h -0.011 l -0.012,0.004 h -0.028 l -0.015,0.004 h -2.039 v -0.407 h 0.34 c 0.484,0 0.761,-0.054 0.824,-0.07 v -5.992 c 0,-0.301 0,-0.813 -1.164,-0.813 v -0.402 c 0.461,0.035 0.914,0.043 1.375,0.043 0.457,0 0.914,-0.008 1.371,-0.043 v 0.402 c -1.16,0 -1.16,0.512 -1.16,0.813 v 5.68 l 4.996,-6.727 c 0.113,-0.16 0.125,-0.168 0.262,-0.168 0.207,0 0.207,0.102 0.207,0.313 v 6.152 c 0,0.305 0,0.812 1.164,0.812 v 0.407 c -0.465,-0.036 -0.914,-0.047 -1.371,-0.047 -0.465,0 -0.915,0.011 -1.376,0.047 v -0.407 c 1.157,0 1.157,-0.507 1.157,-0.812 v -4.766 z" /><path
       style="fill:none;stroke:#000000;stroke-width:0.75px;stroke-linecap:butt;stroke-linejoin:miter;stroke-opacity:1;marker-end:url(#Arrow1Lend)"
       d="m 192.50983,314.48573 0.53033,-39.77476"
       id="path5083"
       inkscape:connector-curvature="0"
       sodipodi:nodetypes="cc" /><g
       id="g5517"
       transform="translate(16.5)"><rect
         transform="scale(1,-1)"
         y="-273.12"
         x="136.02968"
         height="40.039925"
         width="79.814682"
         id="rect5511"
         style="opacity:1;vector-effect:none;fill:#ecfaec;fill-opacity:1;stroke:none;stroke-width:0.75;stroke-linecap:butt;stroke-linejoin:miter;stroke-miterlimit:100;stroke-dasharray:none;stroke-dashoffset:0;stroke-opacity:1" /><text
         transform="scale(1,-1)"
         id="text5507"
         y="-258.53589"
         x="175.80443"
         style="font-style:normal;font-weight:normal;font-size:12px;line-height:1.25;font-family:sans-serif;text-align:center;letter-spacing:0px;word-spacing:0px;text-anchor:middle;fill:#000000;fill-opacity:1;stroke:none;stroke-width:0.75"
         xml:space="preserve"><tspan
           style="font-size:12px;stroke-width:0.75"
           y="-258.53589"
           x="175.80443"
           id="tspan5505"
           sodipodi:role="line">Song</tspan><tspan
           id="tspan5509"
           style="font-size:12px;stroke-width:0.75"
           y="-243.53589"
           x="175.80443"
           sodipodi:role="line">Production</tspan></text>
</g></g></svg>